<?xml version="1.0" encoding="UTF-8" standalone="no"?>
<svg
   width="1077.474"
   height="372.10199"
   xml:space="preserve"
   overflow="hidden"
   version="1.1"
   id="svg135"
   sodipodi:docname="co-segregation.svg"
   inkscape:version="1.2.2 (732a01da63, 2022-12-09)"
   xmlns:inkscape="http://www.inkscape.org/namespaces/inkscape"
   xmlns:sodipodi="http://sodipodi.sourceforge.net/DTD/sodipodi-0.dtd"
   xmlns:xlink="http://www.w3.org/1999/xlink"
   xmlns="http://www.w3.org/2000/svg"
   xmlns:svg="http://www.w3.org/2000/svg"><sodipodi:namedview
     id="namedview137"
     pagecolor="#ffffff"
     bordercolor="#666666"
     borderopacity="1.0"
     inkscape:pageshadow="2"
     inkscape:pageopacity="0.0"
     inkscape:pagecheckerboard="0"
     showgrid="false"
     fit-margin-top="0"
     fit-margin-left="0"
     fit-margin-right="0"
     fit-margin-bottom="0"
     inkscape:zoom="2"
     inkscape:cx="441.5"
     inkscape:cy="238.5"
     inkscape:window-width="3840"
     inkscape:window-height="2054"
     inkscape:window-x="-11"
     inkscape:window-y="-11"
     inkscape:window-maximized="1"
     inkscape:current-layer="svg135"
     inkscape:showpageshadow="2"
     inkscape:deskcolor="#d1d1d1" /><defs
     id="defs5"><linearGradient
       inkscape:collect="always"
       id="linearGradient2624"><stop
         style="stop-color:#aba5de;stop-opacity:1;"
         offset="0"
         id="stop2620" /><stop
         style="stop-color:#403792;stop-opacity:1;"
         offset="1"
         id="stop2622" /></linearGradient><linearGradient
       inkscape:collect="always"
       id="linearGradient2608"><stop
         style="stop-color:#aba5de;stop-opacity:1;"
         offset="0"
         id="stop2604" /><stop
         style="stop-color:#403792;stop-opacity:1;"
         offset="1"
         id="stop2606" /></linearGradient><linearGradient
       inkscape:collect="always"
       id="linearGradient2600"><stop
         style="stop-color:#90d5d5;stop-opacity:1;"
         offset="0"
         id="stop2596" /><stop
         style="stop-color:#2c7a7a;stop-opacity:1;"
         offset="1"
         id="stop2598" /></linearGradient><linearGradient
       inkscape:collect="always"
       id="linearGradient2584"><stop
         style="stop-color:#90d5d5;stop-opacity:1;"
         offset="0"
         id="stop2580" /><stop
         style="stop-color:#2c7a7a;stop-opacity:1;"
         offset="1"
         id="stop2582" /></linearGradient><radialGradient
       inkscape:collect="always"
       xlink:href="#linearGradient2584"
       id="radialGradient2586"
       cx="79.173515"
       cy="187.62105"
       fx="79.173515"
       fy="187.62105"
       r="78.736618"
       gradientTransform="matrix(1,0,0,2.2366284,4.5629139,-233.74186)"
       gradientUnits="userSpaceOnUse" /><radialGradient
       inkscape:collect="always"
       xlink:href="#linearGradient2600"
       id="radialGradient2602"
       cx="818.17352"
       cy="187.62105"
       fx="818.17352"
       fy="187.62105"
       r="78.736618"
       gradientTransform="matrix(1,0,0,2.2366283,4.5629139,-233.74184)"
       gradientUnits="userSpaceOnUse" /><radialGradient
       inkscape:collect="always"
       xlink:href="#linearGradient2608"
       id="radialGradient2610"
       cx="249.67467"
       cy="187.62105"
       fx="249.67467"
       fy="187.62105"
       r="78.736618"
       gradientTransform="matrix(1,0,0,2.2366283,4.5629139,-233.74184)"
       gradientUnits="userSpaceOnUse" /><radialGradient
       inkscape:collect="always"
       xlink:href="#linearGradient2624"
       id="radialGradient2626"
       cx="989.1748"
       cy="187.62105"
       fx="989.1748"
       fy="187.62105"
       r="78.736443"
       gradientTransform="matrix(1,0,0,2.2366333,4.5629139,-233.74279)"
       gradientUnits="userSpaceOnUse" /><radialGradient
       inkscape:collect="always"
       xlink:href="#linearGradient2584"
       id="radialGradient15960"
       gradientUnits="userSpaceOnUse"
       gradientTransform="matrix(0.9935923,-0.1130236,0.25279179,2.2222968,334.8889,-221.84874)"
       cx="79.173515"
       cy="187.62105"
       fx="79.173515"
       fy="187.62105"
       r="78.736618" /><radialGradient
       inkscape:collect="always"
       xlink:href="#linearGradient2608"
       id="radialGradient16702"
       gradientUnits="userSpaceOnUse"
       gradientTransform="matrix(-0.99845091,-0.05563975,-0.12444544,2.2331636,879.39711,-219.19995)"
       cx="249.67467"
       cy="187.62105"
       fx="249.67467"
       fy="187.62105"
       r="78.736618" /></defs><path
     id="path25"
     style="fill:#376092;fill-opacity:1;stroke:none;stroke-opacity:1"
     d="m 91.740596,123.07505 c 1.66,8.5 -3.87,16.73 -12.36,18.39 l -3.51,0.69 c -8.49,1.66 -16.72,-3.87 -18.39,-12.36 l -19.51,-99.619998 c -1.67,-8.49 3.87,-16.72 12.36,-18.39 l 3.5,-0.69 c 8.5,-1.6599994 16.73,3.88 18.39,12.37 z M 40.237859,346.69323 c -2.27,8.35 -10.89,13.27 -19.24,11 l -3.44,-0.94 c -8.3500003,-2.28 -13.2800002,-10.89 -11.0000002,-19.24 l 51.8600002,-190.33 c 2.28,-8.35 10.89,-13.27 19.24,-10.99 l 3.44,0.93 c 8.35,2.28 13.28,10.89 11,19.24 z M 122.96811,130.4036 c -1.82,8.46 -10.15,13.85 -18.61,12.04 l -3.48999,-0.75 c -8.459997,-1.81 -13.849997,-10.14 -12.039997,-18.61 L 110.08811,23.833603 c 1.81,-8.46 10.14,-13.8599994 18.61,-12.04 l 3.49,0.75 c 8.46,1.81 13.85,10.14 12.04,18.6 z m 38.22362,211.21718 c 1.67,8.49 -3.85,16.73 -12.34,18.4 l -3.51,0.69 c -8.49,1.67 -16.73,-3.86 -18.4,-12.35 l -38.119994,-193.54 c -1.67,-8.49 3.85,-16.73 12.349994,-18.4 l 3.5,-0.69 c 8.49,-1.68 16.73,3.85 18.4,12.34 z" /><path
     d="m 306.30561,163.96466 h 85.5 v -7.25 l 14.5,14.5 -14.5,14.5 v -7.25 h -85.5 z"
     stroke="#77933c"
     stroke-width="9.16667"
     stroke-miterlimit="8"
     fill="#c3d69b"
     fill-rule="evenodd"
     id="path129"
     style="fill:#000000;fill-opacity:1;stroke:#000000;stroke-opacity:1" /><path
     d="m 669.66957,163.96466 h 86.5 v -7.25 l 14.5,14.5 -14.5,14.5 v -7.25 h -86.5 z"
     stroke="#77933c"
     stroke-width="9.16667"
     stroke-miterlimit="8"
     fill="#c3d69b"
     fill-rule="evenodd"
     id="path131"
     style="fill:#000000;fill-opacity:1;stroke:#000000;stroke-opacity:1" /><path
     style="fill:url(#radialGradient2586);fill-opacity:1;stroke:#000000;stroke-width:2;stroke-linecap:square;stroke-dasharray:none;stroke-opacity:1"
     d="m 6.5967478,337.29728 -0.2884576,1.18948 -0.1764988,1.20934 -0.1307397,1.50351 0.052296,1.83689 0.1699617,1.17666 0.3660714,1.63425 0.3726084,1.2028 0.6340881,1.46429 0.614477,1.12436 0.7779014,1.18973 0.751754,0.94787 0.9674753,1.03284 1.477359,1.28779 1.653859,1.09821 1.581951,0.79098 1.268176,0.48373 4.634726,1.31394 1.189732,0.23533 1.235491,0.15035 1.536193,0.0719 1.457748,-0.0915 1.098215,-0.14381 1.202806,-0.26802 1.242028,-0.36607 0.934789,-0.37915 1.202806,-0.56218 1.072067,-0.62755 0.719069,-0.49027 0.797512,-0.61448 0.797513,-0.69946 0.777902,-0.77136 0.634088,-0.71907 0.797513,-1.01323 0.679847,-1.13744 0.562181,-1.00016 0.405293,-0.96094 0.503348,-1.45121 50.197545,-184.31696 36.789428,186.69598 0.37903,1.26652 0.54544,1.24804 0.85051,1.6548 0.84127,1.2203 1.01692,1.22954 0.97994,0.95221 1.33123,1.09087 1.50689,0.98918 1.01692,0.52695 1.05389,0.44375 1.08163,0.38827 0.93372,0.24961 0.90598,0.17565 1.20181,0.1849 1.23879,0.0555 1.18332,-0.0277 1.35897,-0.14792 4.91818,-0.9522 1.22955,-0.3513 0.6841,-0.25885 0.99843,-0.38828 0.85051,-0.4345 0.83203,-0.48997 0.90598,-0.61015 0.79504,-0.62864 0.83202,-0.72108 0.85976,-0.8875 0.7858,-0.96144 0.65637,-0.90598 0.62864,-1.09088 0.48073,-0.92447 0.56392,-1.34972 0.27735,-0.9707 0.29583,-1.10012 0.15716,-1.0354 0.12942,-1.09088 0.009,-1.16483 -0.0277,-1.12785 -0.19414,-1.38671 -0.29747,-1.55881 -37.83609,-192.03061 -0.30071,-1.47736 -0.36607,-1.12436 -0.57283,-1.3912 -0.34668,-0.65637 -0.97531,-1.61783 -0.50384,-0.6841 -0.48072,-0.58704 -0.47148,-0.52695 -0.43174,-0.43439 -0.27734,-0.25782 -0.45704,-0.40625 -0.17187,-0.15625 0.39844,-0.35937 0.5664,-0.52735 0.39844,-0.42187 0.46094,-0.51953 0.49609,-0.61328 0.42188,-0.57422 0.41406,-0.6211 0.32031,-0.53515 0.32031,-0.59766 0.17969,-0.34765 0.26172,-0.54688 0.33984,-0.86328 0.25782,-0.73438 0.26953,-1.0039 0.16015,-0.71875 21.25391,-99.308592 0.23437,-1.625 0.0312,-1.625 -0.17187,-2.3125 -0.56771,-2.226485 -0.77339,-1.834058 -0.47531,-0.974613 -0.66015,-1.058594 -0.72657,-1.003906 -1.21484,-1.363282 -0.99219,-0.925781 -1.29297,-0.980469 -1.4375,-0.851562 -1.71093,-0.757813 -1.11719,-0.398437 -2.08594,-0.507813 -3,-0.640625 -1.3125,-0.1875 -0.97656,-0.07031 -0.88281,-0.0078 -1.49219,0.09375 -1.01563,0.15625 -1.16406,0.25 -1.55469,0.492188 -1.01562,0.421875 -0.78906,0.398437 -1.01423,0.574263 -0.67396,0.458514 -0.80102,0.60767 -0.99989,0.861787 -0.63529,0.629767 -0.55795,0.629767 -0.51376,0.635291 -1.05514,1.563369 -0.45851,0.90598 -0.53585,1.143525 -0.40328,1.154572 -20.130179,93.570015 -18.301912,-93.426479 -0.408796,-1.248485 -0.475088,-1.226388 -0.784446,-1.546796 -0.60767,-0.905981 -0.872835,-1.171145 -1.049612,-1.149049 -1.071708,-0.961223 -1.392117,-1.016466 -1.270582,-0.740253 -1.403165,-0.651864 -1.845107,-0.618718 -1.66833,-0.353554 -1.325825,-0.121534 -1.259534,-0.05524 -1.29268,0.08839 -0.538929,0.05377 -1.136719,0.199219 -3.417968,0.671875 -2.003907,0.539062 -1.414062,0.578125 -1.664063,0.90625 -1.1875,0.789063 -1.015625,0.859375 -0.8125,0.765625 -0.789062,0.898437 -0.78125,0.976563 -0.539063,0.835937 -0.664062,1.210938 -0.570313,1.242187 -0.5,1.460938 -0.1875,0.796875 -0.304687,1.710937 -0.08594,0.8125 -0.01563,0.976563 0.03125,0.796875 0.05469,0.90625 0.101562,0.664062 0.164063,1.023438 19.59375,99.999991 0.533984,1.73758 c 0,0 0.452991,0.89493 0.452991,0.98332 0,0.0884 0.541378,1.11591 0.541378,1.11591 l 0.618719,0.99436 0.707106,0.96123 0.894932,1.04961 1.082758,1.06066 1.038563,0.86179 -0.640816,0.53033 -0.740252,0.7071 -0.773398,0.91703 -0.817592,1.10486 -0.76235,1.31477 -0.596621,1.19325 z"
     id="path2352" /><path
     style="fill:url(#radialGradient2610);fill-opacity:1;stroke:#000000;stroke-width:2;stroke-linecap:square;stroke-dasharray:none;stroke-opacity:1"
     d="m 331.37727,337.29728 0.28845,1.18948 0.1765,1.20934 0.13074,1.50351 -0.0523,1.83689 -0.16996,1.17666 -0.36608,1.63425 -0.3726,1.2028 -0.63409,1.46429 -0.61448,1.12436 -0.7779,1.18973 -0.75176,0.94787 -0.96747,1.03284 -1.47736,1.28779 -1.65386,1.09821 -1.58195,0.79098 -1.26818,0.48373 -4.63472,1.31394 -1.18973,0.23533 -1.23549,0.15035 -1.5362,0.0719 -1.45775,-0.0915 -1.09821,-0.14381 -1.20281,-0.26802 -1.24202,-0.36607 -0.93479,-0.37915 -1.20281,-0.56218 -1.07207,-0.62755 -0.71907,-0.49027 -0.79751,-0.61448 -0.79751,-0.69946 -0.7779,-0.77136 -0.63409,-0.71907 -0.79751,-1.01323 -0.67985,-1.13744 -0.56218,-1.00016 -0.40529,-0.96094 -0.50335,-1.45121 -50.19755,-184.31696 -36.78943,186.69598 -0.37903,1.26652 -0.54544,1.24804 -0.85051,1.6548 -0.84127,1.2203 -1.01692,1.22954 -0.97994,0.95221 -1.33123,1.09087 -1.50689,0.98918 -1.01692,0.52695 -1.05389,0.44375 -1.08163,0.38827 -0.93372,0.24961 -0.90598,0.17565 -1.20181,0.1849 -1.23879,0.0555 -1.18332,-0.0277 -1.35897,-0.14792 -4.91818,-0.9522 -1.22955,-0.3513 -0.6841,-0.25885 -0.99843,-0.38828 -0.85051,-0.4345 -0.83203,-0.48997 -0.90598,-0.61015 -0.79504,-0.62864 -0.83202,-0.72108 -0.85976,-0.8875 -0.7858,-0.96144 -0.65637,-0.90598 -0.62864,-1.09088 -0.48073,-0.92447 -0.56392,-1.34972 -0.27735,-0.9707 -0.29583,-1.10012 -0.15716,-1.0354 -0.12942,-1.09088 -0.009,-1.16483 0.0277,-1.12785 0.19414,-1.38671 0.29747,-1.55881 37.83609,-192.03061 0.30071,-1.47736 0.36607,-1.12436 0.57283,-1.3912 0.34668,-0.65637 0.97531,-1.61783 0.50384,-0.6841 0.48072,-0.58704 0.47148,-0.52695 0.43174,-0.43439 0.27734,-0.25782 0.45704,-0.40625 0.17187,-0.15625 -0.39844,-0.35937 -0.5664,-0.52735 -0.39844,-0.42187 -0.46094,-0.51953 -0.49609,-0.61328 -0.42188,-0.57422 -0.41406,-0.6211 -0.32031,-0.53515 -0.32031,-0.59766 -0.17969,-0.34765 -0.26172,-0.54688 -0.33984,-0.86328 -0.25782,-0.73438 -0.26953,-1.0039 -0.16015,-0.71875 -21.25391,-99.308592 -0.23437,-1.625 -0.0312,-1.625 0.17187,-2.3125 0.56771,-2.226485 0.77339,-1.834058 0.47531,-0.974613 0.66015,-1.058594 0.72657,-1.003906 1.21484,-1.363282 0.99219,-0.925781 1.29297,-0.980469 1.4375,-0.851562 1.71093,-0.757813 1.11719,-0.398437 2.08594,-0.507813 3,-0.640625 1.3125,-0.1875 0.97656,-0.07031 0.88281,-0.0078 1.49219,0.09375 1.01563,0.15625 1.16406,0.25 1.55469,0.492188 1.01562,0.421875 0.78906,0.398437 1.01423,0.574263 0.67396,0.458514 0.80102,0.60767 0.99989,0.861787 0.63529,0.629767 0.55795,0.629767 0.51376,0.635291 1.05514,1.563369 0.45851,0.90598 0.53585,1.143525 0.40328,1.154572 20.13018,93.570015 18.30192,-93.426479 0.40879,-1.248485 0.47509,-1.226388 0.78445,-1.546796 0.60767,-0.905981 0.87283,-1.171145 1.04961,-1.149049 1.07171,-0.961223 1.39212,-1.016466 1.27058,-0.740253 1.40316,-0.651864 1.84511,-0.618718 1.66833,-0.353554 1.32583,-0.121534 1.25953,-0.05524 1.29268,0.08839 0.53893,0.05377 1.13672,0.199219 3.41797,0.671875 2.0039,0.539062 1.41407,0.578125 1.66406,0.90625 1.1875,0.789063 1.01562,0.859375 0.8125,0.765625 0.78907,0.898437 0.78125,0.976563 0.53906,0.835937 0.66406,1.210938 0.57031,1.242187 0.5,1.460938 0.1875,0.796875 0.30469,1.710937 0.0859,0.8125 0.0156,0.976563 -0.0312,0.796875 -0.0547,0.90625 -0.10156,0.664062 -0.16406,1.023438 -19.59375,99.999991 -0.53399,1.73758 c 0,0 -0.45299,0.89493 -0.45299,0.98332 0,0.0884 -0.54138,1.11591 -0.54138,1.11591 l -0.61872,0.99436 -0.7071,0.96123 -0.89493,1.04961 -1.08276,1.06066 -1.03857,0.86179 0.64082,0.53033 0.74025,0.7071 0.7734,0.91703 0.81759,1.10486 0.76235,1.31477 0.59662,1.19325 z"
     id="path2438" /><path
     style="fill:url(#radialGradient2602);fill-opacity:1;stroke:#000000;stroke-width:2;stroke-linecap:square;stroke-dasharray:none;stroke-opacity:1"
     d="m 745.59674,337.29728 -0.28846,1.18948 -0.1765,1.20934 -0.13073,1.50351 0.0523,1.83689 0.16996,1.17666 0.36607,1.63425 0.37261,1.2028 0.63409,1.46429 0.61448,1.12436 0.7779,1.18973 0.75175,0.94787 0.96748,1.03284 1.47736,1.28779 1.65386,1.09821 1.58195,0.79098 1.26817,0.48373 4.63473,1.31394 1.18973,0.23533 1.23549,0.15035 1.5362,0.0719 1.45774,-0.0915 1.09822,-0.14381 1.2028,-0.26802 1.24203,-0.36607 0.93479,-0.37915 1.20281,-0.56218 1.07206,-0.62755 0.71907,-0.49027 0.79752,-0.61448 0.79751,-0.69946 0.7779,-0.77136 0.63409,-0.71907 0.79751,-1.01323 0.67985,-1.13744 0.56218,-1.00016 0.40529,-0.96094 0.50335,-1.45121 50.19755,-184.31696 36.78943,186.69598 0.37903,1.26652 0.54544,1.24804 0.85051,1.6548 0.84127,1.2203 1.01692,1.22954 0.97994,0.95221 1.33123,1.09087 1.50689,0.98918 1.01692,0.52695 1.05389,0.44375 1.08163,0.38827 0.93372,0.24961 0.90598,0.17565 1.20181,0.1849 1.23879,0.0555 1.18332,-0.0277 1.35897,-0.14792 4.91818,-0.9522 1.22955,-0.3513 0.6841,-0.25885 0.99843,-0.38828 0.85051,-0.4345 0.83203,-0.48997 0.90598,-0.61015 0.79504,-0.62864 0.83202,-0.72108 0.85976,-0.8875 0.7858,-0.96144 0.65637,-0.90598 0.62864,-1.09088 0.48073,-0.92447 0.56392,-1.34972 0.27735,-0.9707 0.29583,-1.10012 0.15716,-1.0354 0.12942,-1.09088 0.009,-1.16483 -0.0277,-1.12785 -0.19414,-1.38671 -0.29747,-1.55881 -37.83609,-192.03061 -0.30071,-1.47736 -0.36607,-1.12436 -0.57283,-1.3912 -0.34668,-0.65637 -0.97531,-1.61783 -0.50384,-0.6841 -0.48072,-0.58704 -0.47148,-0.52695 -0.43174,-0.43439 -0.27734,-0.25782 -0.45704,-0.40625 -0.17187,-0.15625 0.39844,-0.35937 0.5664,-0.52735 0.39844,-0.42187 0.46094,-0.51953 0.49609,-0.61328 0.42188,-0.57422 0.41406,-0.6211 0.32031,-0.53515 0.32031,-0.59766 0.17969,-0.34765 0.26172,-0.54688 0.33984,-0.86328 0.25782,-0.73438 0.26953,-1.0039 0.16015,-0.71875 21.25391,-99.308592 0.23437,-1.625 0.0312,-1.625 -0.17187,-2.3125 -0.56771,-2.226485 -0.77339,-1.834058 -0.47531,-0.974613 -0.66015,-1.058594 -0.72657,-1.003906 -1.21484,-1.363282 -0.99219,-0.925781 -1.29297,-0.980469 -1.4375,-0.851562 -1.71093,-0.757813 -1.11719,-0.398437 -2.08594,-0.507813 -3,-0.640625 -1.3125,-0.1875 -0.97656,-0.07031 -0.88281,-0.0078 -1.49219,0.09375 -1.01563,0.15625 -1.16406,0.25 -1.55469,0.492188 -1.01562,0.421875 -0.78906,0.398437 -1.01423,0.574263 -0.67396,0.458514 -0.80102,0.60767 -0.99989,0.861787 -0.63529,0.629767 -0.55795,0.629767 -0.51376,0.635291 -1.05514,1.563369 -0.45851,0.90598 -0.53585,1.143525 -0.40328,1.154572 -20.13019,93.570015 -18.30191,-93.426479 -0.40879,-1.248485 -0.47509,-1.226388 -0.78445,-1.546796 -0.60767,-0.905981 -0.87283,-1.171145 -1.04961,-1.149049 -1.07171,-0.961223 -1.39212,-1.016466 -1.27058,-0.740253 -1.40317,-0.651864 -1.8451,-0.618718 -1.66833,-0.353554 -1.32583,-0.121534 -1.25953,-0.05524 -1.29268,0.08839 -0.53893,0.05377 -1.13672,0.199219 -3.41797,0.671875 -2.00391,0.539062 -1.41406,0.578125 -1.66406,0.90625 -1.1875,0.789063 -1.01563,0.859375 -0.8125,0.765625 -0.78906,0.898437 -0.78125,0.976563 -0.53906,0.835937 -0.66406,1.210938 -0.57032,1.242187 -0.5,1.460938 -0.1875,0.796875 -0.30468,1.710937 -0.0859,0.8125 -0.0156,0.976563 0.0312,0.796875 0.0547,0.90625 0.10156,0.664062 0.16406,1.023438 19.59375,99.999991 0.53399,1.73758 c 0,0 0.45299,0.89493 0.45299,0.98332 0,0.0884 0.54138,1.11591 0.54138,1.11591 l 0.61871,0.99436 0.70711,0.96123 0.89493,1.04961 1.08276,1.06066 1.03856,0.86179 -0.64081,0.53033 -0.74025,0.7071 -0.7734,0.91703 -0.81759,1.10486 -0.76235,1.31477 -0.59663,1.19325 z"
     id="path2448" /><path
     style="fill:url(#radialGradient2626);fill-opacity:1;stroke:#000000;stroke-width:2;stroke-linecap:square;stroke-dasharray:none;stroke-opacity:1"
     d="m 1070.8774,337.29728 0.2884,1.18948 0.1765,1.20934 0.1307,1.50351 -0.052,1.83689 -0.1699,1.17666 -0.3661,1.63425 -0.3726,1.2028 -0.6341,1.46429 -0.6145,1.12436 -0.7779,1.18973 -0.7517,0.94787 -0.9675,1.03284 -1.4774,1.28779 -1.6538,1.09821 -1.582,0.79098 -1.2681,0.48373 -4.6348,1.31394 -1.1897,0.23533 -1.2355,0.15035 -1.5362,0.0719 -1.4577,-0.0915 -1.0982,-0.14381 -1.2029,-0.26802 -1.242,-0.36607 -0.9348,-0.37915 -1.2028,-0.56218 -1.072,-0.62755 -0.7191,-0.49027 -0.7975,-0.61448 -0.7975,-0.69946 -0.7779,-0.77136 -0.6341,-0.71907 -0.7975,-1.01323 -0.6799,-1.13744 -0.5622,-1.00016 -0.4053,-0.96094 -0.5033,-1.45121 -50.19764,-184.31696 -36.78943,186.69598 -0.37903,1.26652 -0.54544,1.24804 -0.85051,1.6548 -0.84127,1.2203 -1.01692,1.22954 -0.97994,0.95221 -1.33123,1.09087 -1.50689,0.98918 -1.01692,0.52695 -1.05389,0.44375 -1.08163,0.38827 -0.93372,0.24961 -0.90598,0.17565 -1.20181,0.1849 -1.23879,0.0555 -1.18332,-0.0277 -1.35897,-0.14792 -4.91818,-0.9522 -1.22955,-0.3513 -0.6841,-0.25885 -0.99843,-0.38828 -0.85051,-0.4345 -0.83203,-0.48997 -0.90598,-0.61015 -0.79504,-0.62864 -0.83202,-0.72108 -0.85976,-0.8875 -0.7858,-0.96144 -0.65637,-0.90598 -0.62864,-1.09088 -0.48073,-0.92447 -0.56392,-1.34972 -0.27735,-0.9707 -0.29583,-1.10012 -0.15716,-1.0354 -0.12942,-1.09088 -0.009,-1.16483 0.0277,-1.12785 0.19414,-1.38671 0.29747,-1.55881 37.83609,-192.03061 0.30071,-1.47736 0.36607,-1.12436 0.57283,-1.3912 0.34668,-0.65637 0.97531,-1.61783 0.50384,-0.6841 0.48072,-0.58704 0.47148,-0.52695 0.43174,-0.43439 0.27734,-0.25782 0.45704,-0.40625 0.17187,-0.15625 -0.39844,-0.35937 -0.5664,-0.52735 -0.39844,-0.42187 -0.46094,-0.51953 -0.49609,-0.61328 -0.42188,-0.57422 -0.41406,-0.6211 -0.32031,-0.53515 -0.32031,-0.59766 -0.17969,-0.34765 -0.26172,-0.54688 -0.33984,-0.86328 -0.25782,-0.73438 -0.26953,-1.0039 -0.16015,-0.71875 -21.25391,-99.308592 -0.23437,-1.625 -0.0312,-1.625 0.17187,-2.3125 0.56771,-2.226485 0.77339,-1.834058 0.47531,-0.974613 0.66015,-1.058594 0.72657,-1.003906 1.21484,-1.363282 0.99219,-0.925781 1.29297,-0.980469 1.4375,-0.851562 1.71093,-0.757813 1.11719,-0.398437 2.08594,-0.507813 3,-0.640625 1.3125,-0.1875 0.97656,-0.07031 0.88281,-0.0078 1.49219,0.09375 1.01563,0.15625 1.16406,0.25 1.55469,0.492188 1.01562,0.421875 0.78906,0.398437 1.01423,0.574263 0.67396,0.458514 0.80102,0.60767 0.99989,0.861787 0.63529,0.629767 0.55795,0.629767 0.51376,0.635291 1.05514,1.563369 0.45851,0.90598 0.53585,1.143525 0.40328,1.154572 20.13018,93.570015 18.30198,-93.426479 0.4088,-1.248485 0.4751,-1.226388 0.7845,-1.546796 0.6076,-0.905981 0.8729,-1.171145 1.0496,-1.149049 1.0717,-0.961223 1.3921,-1.016466 1.2706,-0.740253 1.4031,-0.651864 1.8451,-0.618718 1.6684,-0.353554 1.3258,-0.121534 1.2595,-0.05524 1.2927,0.08839 0.5389,0.05377 1.1368,0.199219 3.4179,0.671875 2.0039,0.539062 1.4141,0.578125 1.6641,0.90625 1.1875,0.789063 1.0156,0.859375 0.8125,0.765625 0.7891,0.898437 0.7812,0.976563 0.5391,0.835937 0.664,1.210938 0.5703,1.242187 0.5,1.460938 0.1875,0.796875 0.3047,1.710937 0.086,0.8125 0.016,0.976563 -0.031,0.796875 -0.055,0.90625 -0.1015,0.664062 -0.1641,1.023438 -19.5937,99.999991 -0.534,1.73758 c 0,0 -0.453,0.89493 -0.453,0.98332 0,0.0884 -0.5414,1.11591 -0.5414,1.11591 l -0.6187,0.99436 -0.7071,0.96123 -0.895,1.04961 -1.0827,1.06066 -1.0386,0.86179 0.6408,0.53033 0.7403,0.7071 0.7734,0.91703 0.8176,1.10486 0.7623,1.31477 0.5966,1.19325 z"
     id="path2450" /><path
     id="path2475"
     style="fill:#403792;fill-opacity:1;stroke:none;stroke-width:1.90372;stroke-linecap:square;stroke-dasharray:none;stroke-opacity:1"
     d="m 899.05168,340.07439 -11.47519,-57.97205 -0.51918,-1.18795 -0.80957,-1.57515 -0.80077,-1.16155 -0.96796,-1.17035 -0.93277,-0.90637 -1.26715,-1.03835 -1.43434,-0.94157 -0.96797,-0.50158 -1.00316,-0.42238 -1.02956,-0.36959 -0.88877,-0.23759 -0.86236,-0.16719 -1.14395,-0.176 -1.17916,-0.0528 -1.12635,0.0264 -1.29355,0.1408 -4.68142,0.90635 -1.17036,0.3344 -0.65117,0.24638 -0.95037,0.36959 -0.80956,0.41358 -0.79198,0.46639 -0.86236,0.58078 -0.75677,0.59837 -0.79196,0.68637 -0.81837,0.84478 -0.74797,0.91515 -0.62478,0.86237 -0.59838,1.03836 -0.45758,0.87997 -0.53677,1.28474 -0.264,0.92397 -0.2816,1.04716 -0.14959,0.98556 -0.12319,1.03836 -0.009,1.10876 0.0264,1.07355 0.18479,1.31995 11.39756,58.25027 c 4.12785,5.23257 34.55393,0.59442 32.16979,-8.46183 z m -32.10838,8.85174 0.36078,1.20555 0.51917,1.18796 0.80958,1.57514 0.80077,1.16155 0.96796,1.17035 0.93277,0.90637 1.26714,1.03836 1.43435,0.94155 0.96796,0.50159 1.00316,0.42239 1.02956,0.36958 0.88877,0.23759 0.86237,0.1672 1.14395,0.176 1.17915,0.0528 1.12636,-0.0264 1.29355,-0.14079 4.68141,-0.90637 1.17037,-0.33438 0.65116,-0.2464 0.95037,-0.36958 0.80956,-0.41358 0.79198,-0.46639 0.86236,-0.58077 0.75677,-0.59838 0.79196,-0.68637 0.81838,-0.84477 0.74797,-0.91516 0.62478,-0.86237 0.59837,-1.03836 0.45759,-0.87996 0.53677,-1.28475 0.264,-0.92397 0.28159,-1.04716 0.14959,-0.98556 0.12319,-1.03836 0.009,-1.10875 -0.0264,-1.07356 -0.1848,-1.31995 -0.28315,-1.48378 c -4.12784,-5.23255 -34.55393,-0.59442 -32.16978,8.46184 z"
     sodipodi:nodetypes="cccccccccccccccccccccccccccccccccccccccccccccccccccccccccccccccccccccccccccccccccccccc" /><rect
     style="fill:#ece643;fill-opacity:1;stroke:#000000;stroke-width:2;stroke-linecap:square;stroke-dasharray:none;stroke-opacity:1"
     id="rect6713"
     width="34.841125"
     height="9.0017128"
     x="57.156361"
     y="332.92624"
     transform="rotate(-11.164545)" /><path
     id="path7443"
     style="fill:#2c7a7a;fill-opacity:1;stroke:none;stroke-width:1.90372;stroke-linecap:square;stroke-dasharray:none;stroke-opacity:1"
     d="m 917.58202,340.07439 11.47519,-57.97205 0.51918,-1.18795 0.80957,-1.57515 0.80077,-1.16155 0.96796,-1.17035 0.93277,-0.90637 1.26715,-1.03835 1.43434,-0.94157 0.96797,-0.50158 1.00316,-0.42238 1.02956,-0.36959 0.88877,-0.23759 0.86236,-0.16719 1.14395,-0.176 1.17916,-0.0528 1.12635,0.0264 1.29355,0.1408 4.68142,0.90635 1.17036,0.3344 0.65117,0.24638 0.95037,0.36959 0.80956,0.41358 0.79198,0.46639 0.86236,0.58078 0.75677,0.59837 0.79196,0.68637 0.81837,0.84478 0.74797,0.91515 0.62478,0.86237 0.59838,1.03836 0.45758,0.87997 0.53677,1.28474 0.264,0.92397 0.2816,1.04716 0.14959,0.98556 0.12319,1.03836 0.009,1.10876 -0.0264,1.07355 -0.18479,1.31995 -11.39756,58.25027 c -4.12785,5.23257 -34.55393,0.59442 -32.16979,-8.46183 z m 32.10838,8.85174 -0.36078,1.20555 -0.51917,1.18796 -0.80958,1.57514 -0.80077,1.16155 -0.96796,1.17035 -0.93277,0.90637 -1.26714,1.03836 -1.43435,0.94155 -0.96796,0.50159 -1.00316,0.42239 -1.02956,0.36958 -0.88877,0.23759 -0.86237,0.1672 -1.14395,0.176 -1.17915,0.0528 -1.12636,-0.0264 -1.29355,-0.14079 -4.68141,-0.90637 -1.17037,-0.33438 -0.65116,-0.2464 -0.95037,-0.36958 -0.80956,-0.41358 -0.79198,-0.46639 -0.86236,-0.58077 -0.75677,-0.59838 -0.79196,-0.68637 -0.81838,-0.84477 -0.74797,-0.91516 -0.62478,-0.86237 -0.59837,-1.03836 -0.45759,-0.87996 -0.53677,-1.28475 -0.264,-0.92397 -0.28159,-1.04716 -0.14959,-0.98556 -0.12319,-1.03836 -0.009,-1.10875 0.0264,-1.07356 0.1848,-1.31995 0.28315,-1.48378 c 4.12784,-5.23255 34.55393,-0.59442 32.16978,8.46184 z"
     sodipodi:nodetypes="cccccccccccccccccccccccccccccccccccccccccccccccccccccccccccccccccccccccccccccccccccccc" /><rect
     style="fill:#ece643;fill-opacity:1;stroke:#000000;stroke-width:2;stroke-linecap:square;stroke-dasharray:none;stroke-opacity:1"
     id="rect10840"
     width="34.841125"
     height="9.0017128"
     x="57.143948"
     y="350.87268"
     transform="rotate(-11.164545)" /><rect
     style="fill:#ece643;fill-opacity:1;stroke:#000000;stroke-width:2;stroke-linecap:square;stroke-dasharray:none;stroke-opacity:1"
     id="rect12298"
     width="34.841125"
     height="9.0017128"
     x="57.138985"
     y="223.82784"
     transform="rotate(-11.164545)" /><rect
     style="fill:#ece643;fill-opacity:1;stroke:#000000;stroke-width:2;stroke-linecap:square;stroke-dasharray:none;stroke-opacity:1"
     id="rect12300"
     width="34.841125"
     height="9.0017128"
     x="57.212479"
     y="253.61156"
     transform="rotate(-11.164545)" /><rect
     style="fill:#fc8e00;fill-opacity:1;stroke:#000000;stroke-width:2;stroke-linecap:square;stroke-dasharray:none;stroke-opacity:1"
     id="rect15214"
     width="34.841125"
     height="9.0017128"
     x="196.55527"
     y="380.75409"
     transform="rotate(-15.162569)" /><rect
     style="fill:#fc8e00;fill-opacity:1;stroke:#000000;stroke-width:2;stroke-linecap:square;stroke-dasharray:none;stroke-opacity:1"
     id="rect15216"
     width="34.841125"
     height="9.0017128"
     x="196.54285"
     y="398.70053"
     transform="rotate(-15.162569)" /><rect
     style="fill:#fc8e00;fill-opacity:1;stroke:#000000;stroke-width:2;stroke-linecap:square;stroke-dasharray:none;stroke-opacity:1"
     id="rect15218"
     width="34.841125"
     height="9.0017128"
     x="196.53789"
     y="271.65573"
     transform="rotate(-15.162569)" /><rect
     style="fill:#fc8e00;fill-opacity:1;stroke:#000000;stroke-width:2;stroke-linecap:square;stroke-dasharray:none;stroke-opacity:1"
     id="rect15220"
     width="34.841125"
     height="9.0017128"
     x="196.61137"
     y="301.43945"
     transform="rotate(-15.162569)" /><path
     style="fill:url(#radialGradient15960);fill-opacity:1;stroke:#000000;stroke-width:2;stroke-linecap:square;stroke-dasharray:none;stroke-opacity:1"
     d="m 401.45061,345.30148 -0.15217,1.21446 -0.0387,1.22154 0.0401,1.50865 0.25958,1.81921 0.30186,1.14991 0.54843,1.5824 0.50617,1.15298 0.79553,1.38325 0.73761,1.0477 0.90738,1.09418 0.85408,0.85684 1.078,0.91687 1.61344,1.11256 1.76739,0.90425 1.66121,0.60711 1.31474,0.3373 4.75352,0.78169 1.20871,0.0994 1.24457,0.01 1.53447,-0.10222 1.43807,-0.25567 1.07492,-0.26702 1.16481,-0.40224 1.19269,-0.50411 0.88596,-0.48237 1.13154,-0.69452 0.99428,-0.74471 0.65905,-0.56839 0.72295,-0.70068 0.71334,-0.78512 0.68574,-0.85434 0.54875,-0.78613 0.67789,-1.09687 0.54693,-1.20699 0.44554,-1.05729 0.29409,-1.00059 0.3361,-1.4988 29.04372,-188.80942 57.65475,181.34161 0.51975,1.21557 0.68301,1.17839 1.03209,1.54807 0.9738,1.1174 1.14937,1.10672 1.08128,0.83535 1.446,0.93343 1.60903,0.81252 1.06996,0.40864 1.09729,0.3218 1.11858,0.26353 0.95595,0.14247 0.92003,0.0721 1.21501,0.0479 1.23713,-0.0849 1.1726,-0.16127 1.33355,-0.30057 4.77904,-1.50197 1.18196,-0.48801 0.65047,-0.33451 0.94814,-0.49864 0.79596,-0.52785 0.77131,-0.58087 0.83122,-0.70864 0.7189,-0.71447 0.74518,-0.81049 0.75394,-0.97899 0.6721,-1.0441 0.54977,-0.97436 0.50131,-1.15493 0.37317,-0.97288 0.40775,-1.40481 0.16587,-0.99583 0.16959,-1.1265 0.0391,-1.04653 0.005,-1.09852 -0.12272,-1.15838 -0.15499,-1.11749 -0.34962,-1.35588 -0.47175,-1.51521 -59.29764,-186.52376 -0.46576,-1.43391 -0.49081,-1.07578 -0.7264,-1.31754 -0.41863,-0.61298 -1.15192,-1.49723 -0.57793,-0.62277 -0.544,-0.52896 -0.52801,-0.47028 -0.47807,-0.3828 -0.3047,-0.22483 -0.50002,-0.35199 -0.18843,-0.13582 0.35526,-0.4021 0.50317,-0.58799 0.34821,-0.4642 0.39926,-0.5683 0.4236,-0.66541 0.35428,-0.61823 0.3412,-0.66392 0.25778,-0.56792 0.25071,-0.63003 0.13925,-0.36573 0.19822,-0.57296 0.2401,-0.89616 0.17316,-0.75881 0.15434,-1.02794 0.0779,-0.73225 9.8935,-101.074437 0.0492,-1.641077 -0.15267,-1.618113 -0.43213,-2.278257 -0.81572,-2.148054 -0.97573,-1.734895 -0.58241,-0.914647 -0.77557,-0.977198 -0.83538,-0.915354 -1.36114,-1.217241 -1.09046,-0.807708 -1.39551,-0.828049 -1.52453,-0.6836334 -1.78562,-0.559582 -1.15507,-0.269615 -2.12996,-0.2688 -3.05318,-0.297449 -1.32528,-0.03796 -0.97826,0.04051 -0.87803,0.09203 -1.47203,0.261803 -0.99146,0.270039 -1.12835,0.379964 -1.4891,0.66475 -0.96143,0.5339614 -0.73897,0.485066 -0.94283,0.685215 -0.61782,0.53175 -0.7272,0.69431 -0.89608,0.969276 -0.56005,0.697535 -0.48319,0.688792 -0.43866,0.689288 -0.87168,1.672607 -0.35318,0.951997 -0.40318,1.196762 -0.2702,1.192753 -9.42556,95.245631 -28.74404,-90.759281 -0.54729,-1.194281 -0.61066,-1.164833 -0.95424,-1.448225 -0.70616,-0.831494 -0.99962,-1.064989 -1.17275,-1.023056 -1.17349,-0.833935 -1.49809,-0.852611 -1.3461,-0.591904 -1.46785,-0.489096 -1.90321,-0.406213 -1.6976,-0.162728 -1.33106,0.02908 -1.25772,0.08747 -1.2744,0.233927 -0.5294,0.114338 -1.10692,0.326418 -3.32012,1.05388 -1.93014,0.762097 -1.33966,0.734243 -1.55098,1.088522 -1.09071,0.918222 -0.91198,0.968658 -0.72076,0.852551 -0.68246,0.981862 -0.66587,1.058606 -0.44113,0.891508 -0.52295,1.278232 -0.42625,1.298687 -0.33168,1.508088 -0.0962,0.812961 -0.10937,1.734411 0.007,0.816997 0.0948,0.97207 0.12107,0.788243 0.15678,0.89426 0.17596,0.648328 0.27869,0.998337 30.77056,97.14466 0.72694,1.66609 c 0,0 0.55124,0.838 0.56123,0.92583 0.0105,0.0878 0.66404,1.04756 0.66404,1.04756 l 0.72714,0.91806 0.81121,0.87515 1.00783,0.94174 1.1957,0.93149 1.12931,0.73888 -0.57677,0.59936 -0.65559,0.78624 -0.6648,0.99857 -0.68747,1.19018 -0.60887,1.39251 -0.45793,1.25304 z"
     id="path15950" /><rect
     style="fill:#ece643;fill-opacity:1;stroke:#000000;stroke-width:2;stroke-linecap:square;stroke-dasharray:none;stroke-opacity:1"
     id="rect15952"
     width="34.841125"
     height="9.0017128"
     x="393.81842"
     y="451.52261"
     transform="rotate(-17.654187)" /><rect
     style="fill:#ece643;fill-opacity:1;stroke:#000000;stroke-width:2;stroke-linecap:square;stroke-dasharray:none;stroke-opacity:1"
     id="rect15954"
     width="34.841125"
     height="9.0017128"
     x="393.806"
     y="469.46906"
     transform="rotate(-17.654187)" /><rect
     style="fill:#ece643;fill-opacity:1;stroke:#000000;stroke-width:2;stroke-linecap:square;stroke-dasharray:none;stroke-opacity:1"
     id="rect15956"
     width="34.841125"
     height="9.0017128"
     x="393.80103"
     y="342.42426"
     transform="rotate(-17.654187)" /><rect
     style="fill:#ece643;fill-opacity:1;stroke:#000000;stroke-width:2;stroke-linecap:square;stroke-dasharray:none;stroke-opacity:1"
     id="rect15958"
     width="34.841125"
     height="9.0017128"
     x="393.87454"
     y="372.20798"
     transform="rotate(-17.654187)" /><path
     style="fill:url(#radialGradient16702);fill-opacity:1;stroke:#000000;stroke-width:2;stroke-linecap:square;stroke-dasharray:none;stroke-opacity:1"
     d="m 521.31654,332.77071 -0.35419,1.17159 -0.24351,1.19765 -0.2142,1.4939 -0.05,1.83696 0.10423,1.18429 0.27458,1.65209 0.3051,1.22167 0.55164,1.4973 0.55096,1.15681 0.7105,1.23117 0.69786,0.98823 0.9085,1.08507 1.40342,1.36799 1.5902,1.18853 1.53549,0.87777 1.2393,0.55355 4.55443,1.56978 1.17479,0.30116 1.22521,0.21886 1.52982,0.15726 1.46059,-0.0103 1.10451,-0.0825 1.21586,-0.20068 1.26046,-0.2964 0.95444,-0.32655 1.23222,-0.49439 1.10533,-0.56693 0.74523,-0.4495 0.83047,-0.56915 0.83519,-0.65401 0.81961,-0.72688 0.67312,-0.68267 0.85265,-0.96729 0.74209,-1.09785 0.61695,-0.96733 0.45813,-0.9369 0.58332,-1.42096 60.37514,-181.23846 26.34472,188.45373 0.30797,1.28565 0.47516,1.27645 0.75712,1.69956 0.77207,1.26522 0.94693,1.28421 0.92544,1.00526 1.26847,1.16325 1.44952,1.07149 0.98603,0.58272 1.02756,0.5017 1.05835,0.44785 0.91839,0.30117 0.8948,0.22579 1.18966,0.25148 1.23379,0.12434 1.18302,0.0382 1.3651,-0.0721 4.96354,-0.67708 1.24719,-0.28235 0.69745,-0.22038 1.01848,-0.33213 0.87337,-0.3865 0.858,-0.44292 0.93853,-0.5588 0.82878,-0.58343 0.87086,-0.67367 0.9078,-0.83829 0.83808,-0.91622 0.70576,-0.86806 0.68837,-1.05421 0.53142,-0.89629 0.63814,-1.31626 0.33093,-0.95376 0.35659,-1.08196 0.21452,-1.02505 0.18992,-1.08199 0.0738,-1.16252 0.0351,-1.12765 -0.11668,-1.39536 -0.21028,-1.57295 -27.09294,-193.83832 -0.21805,-1.49181 -0.30294,-1.14298 -0.49454,-1.42092 -0.30962,-0.67464 -0.88378,-1.66959 -0.465,-0.71108 -0.44731,-0.61287 -0.44143,-0.55237 -0.40691,-0.45774 -0.26256,-0.27285 -0.43373,-0.43105 -0.16291,-0.16557 0.41782,-0.33665 0.59486,-0.49502 0.4213,-0.39904 0.48913,-0.49308 0.52945,-0.58473 0.45317,-0.54986 0.44798,-0.5971 0.34959,-0.5165 0.35306,-0.57891 0.19876,-0.33711 0.29174,-0.53147 0.38735,-0.84304 0.29828,-0.71889 0.32497,-0.98735 0.19989,-0.70873 26.74649,-97.97219 0.32442,-1.609442 0.12157,-1.620747 -0.0429,-2.31848 -0.44295,-2.254623 -0.67014,-1.874249 -0.42035,-0.999549 -0.60022,-1.093685 -0.66959,-1.042777 -1.13711,-1.428763 -0.93914,-0.979552 -1.23641,-1.050891 -1.3879,-0.930225 -1.66611,-0.851835 -1.09329,-0.45998 -2.05446,-0.623087 -2.9597,-0.806552 -1.30004,-0.260237 -0.97113,-0.124537 -0.88101,-0.05691 -1.4951,0.01058 -1.02275,0.0995 -1.17616,0.184845 -1.57967,0.404923 -1.03752,0.364713 -0.81001,0.353916 -1.04461,0.516942 -0.69843,0.420305 -0.83359,0.56216 -1.04629,0.804819 -0.66934,0.593444 -0.59213,0.597747 -0.54831,0.605721 -1.14049,1.50224 -0.50821,0.879065 -0.59864,1.111939 -0.4669,1.130345 -25.30521,92.305027 -13.07534,-94.300066 -0.33869,-1.269296 -0.40612,-1.250922 -0.69717,-1.588046 -0.55632,-0.938389 -0.80632,-1.217894 -0.98405,-1.205669 -1.01657,-1.019364 -1.3334,-1.092349 -1.22743,-0.809801 -1.36472,-0.728925 -1.80782,-0.72042 -1.64608,-0.4458324 -1.31701,-0.195115 -1.25451,-0.125234 -1.29559,0.01633 -0.54109,0.0237 -1.14604,0.135664 -3.45006,0.4806594 -2.03079,0.42673 -1.44404,0.49855 -1.71191,0.812259 -1.22956,0.721768 -1.06187,0.801535 -0.85384,0.719232 -0.83783,0.853141 -0.83438,0.931582 -0.58474,0.804649 -0.7304,1.172114 -0.63854,1.208531 -0.58052,1.430855 -0.23154,0.785208 -0.39942,1.691334 -0.13097,0.806461 -0.0699,0.974183 -0.0132,0.797376 0.004,0.90789 0.0645,0.668684 0.10686,1.030981 13.99942,100.935276 0.43649,1.7646 c 0,0 0.40249,0.91874 0.39757,1.007 -0.005,0.0883 0.47845,1.1443 0.47845,1.1443 l 0.56244,1.02725 0.65252,0.99908 0.83515,1.09778 1.02206,1.11926 0.98902,0.91824 -0.66934,0.49385 -0.77845,0.66482 -0.82322,0.87258 -0.8778,1.05766 -0.83432,1.27031 -0.66209,1.15821 z"
     id="path16692" /><rect
     style="fill:#fc8e00;fill-opacity:1;stroke:#000000;stroke-width:2;stroke-linecap:square;stroke-dasharray:none;stroke-opacity:1"
     id="rect16694"
     width="34.841125"
     height="9.0017128"
     x="-634.63995"
     y="120.23032"
     transform="matrix(-0.94913935,-0.3148563,-0.3148563,0.94913935,0,0)" /><rect
     style="fill:#fc8e00;fill-opacity:1;stroke:#000000;stroke-width:2;stroke-linecap:square;stroke-dasharray:none;stroke-opacity:1"
     id="rect16696"
     width="34.841125"
     height="9.0017128"
     x="-634.65234"
     y="138.17679"
     transform="matrix(-0.94913935,-0.3148563,-0.3148563,0.94913935,0,0)" /><rect
     style="fill:#fc8e00;fill-opacity:1;stroke:#000000;stroke-width:2;stroke-linecap:square;stroke-dasharray:none;stroke-opacity:1"
     id="rect16698"
     width="34.841125"
     height="9.0017128"
     x="-634.65735"
     y="11.131968"
     transform="matrix(-0.94913935,-0.3148563,-0.3148563,0.94913935,0,0)" /><rect
     style="fill:#fc8e00;fill-opacity:1;stroke:#000000;stroke-width:2;stroke-linecap:square;stroke-dasharray:none;stroke-opacity:1"
     id="rect16700"
     width="34.841125"
     height="9.0017128"
     x="-634.58386"
     y="40.915684"
     transform="matrix(-0.94913935,-0.3148563,-0.3148563,0.94913935,0,0)" /><rect
     style="fill:#fc8e00;fill-opacity:1;stroke:#000000;stroke-width:2;stroke-linecap:square;stroke-dasharray:none;stroke-opacity:1"
     id="rect16704"
     width="34.841125"
     height="9.0017128"
     x="782.13849"
     y="476.01041"
     transform="rotate(-11.164545)" /><rect
     style="fill:#fc8e00;fill-opacity:1;stroke:#000000;stroke-width:2;stroke-linecap:square;stroke-dasharray:none;stroke-opacity:1"
     id="rect16706"
     width="34.841125"
     height="9.0017128"
     x="782.12604"
     y="493.95685"
     transform="rotate(-11.164545)" /><rect
     style="fill:#ece643;fill-opacity:1;stroke:#000000;stroke-width:2;stroke-linecap:square;stroke-dasharray:none;stroke-opacity:1"
     id="rect16708"
     width="34.841125"
     height="9.0017128"
     x="782.12109"
     y="366.91202"
     transform="rotate(-11.164545)" /><rect
     style="fill:#ece643;fill-opacity:1;stroke:#000000;stroke-width:2;stroke-linecap:square;stroke-dasharray:none;stroke-opacity:1"
     id="rect16710"
     width="34.841125"
     height="9.0017128"
     x="782.19458"
     y="396.69574"
     transform="rotate(-11.164545)" /><rect
     style="fill:#ece643;fill-opacity:1;stroke:#000000;stroke-width:2;stroke-linecap:square;stroke-dasharray:none;stroke-opacity:1"
     id="rect17402"
     width="34.841125"
     height="9.0017128"
     x="-999.43542"
     y="123.72352"
     transform="matrix(-0.98179238,-0.18995715,-0.18995715,0.98179238,0,0)" /><rect
     style="fill:#ece643;fill-opacity:1;stroke:#000000;stroke-width:2;stroke-linecap:square;stroke-dasharray:none;stroke-opacity:1"
     id="rect17404"
     width="34.841125"
     height="9.0017128"
     x="-999.44781"
     y="141.66995"
     transform="matrix(-0.98179238,-0.18995715,-0.18995715,0.98179238,0,0)" /><rect
     style="fill:#fc8e00;fill-opacity:1;stroke:#000000;stroke-width:2;stroke-linecap:square;stroke-dasharray:none;stroke-opacity:1"
     id="rect18510"
     width="34.841125"
     height="9.0017128"
     x="-999.96747"
     y="14.134622"
     transform="matrix(-0.98070719,-0.19548252,-0.19548252,0.98070719,0,0)" /><rect
     style="fill:#fc8e00;fill-opacity:1;stroke:#000000;stroke-width:2;stroke-linecap:square;stroke-dasharray:none;stroke-opacity:1"
     id="rect18512"
     width="34.841125"
     height="9.0017128"
     x="-1000.0239"
     y="43.892426"
     transform="matrix(-0.98070719,-0.19548252,-0.19548252,0.98070719,0,0)" /></svg>
