<?xml version="1.0" encoding="UTF-8" standalone="no"?>
<svg
   width="357.814pc"
   height="100.822pc"
   xml:space="preserve"
   overflow="hidden"
   version="1.1"
   id="svg20"
   sodipodi:docname="compare-conditions.svg"
   inkscape:version="1.2.2 (732a01da63, 2022-12-09)"
   xmlns:inkscape="http://www.inkscape.org/namespaces/inkscape"
   xmlns:sodipodi="http://sodipodi.sourceforge.net/DTD/sodipodi-0.dtd"
   xmlns="http://www.w3.org/2000/svg"
   xmlns:svg="http://www.w3.org/2000/svg"><defs
     id="defs24" /><sodipodi:namedview
     id="namedview22"
     pagecolor="#ffffff"
     bordercolor="#000000"
     borderopacity="0.25"
     inkscape:showpageshadow="2"
     inkscape:pageopacity="0.0"
     inkscape:pagecheckerboard="0"
     inkscape:deskcolor="#d1d1d1"
     showgrid="false"
     inkscape:zoom="0.34328693"
     inkscape:cx="2965.4493"
     inkscape:cy="707.86266"
     inkscape:window-width="3840"
     inkscape:window-height="2054"
     inkscape:window-x="-11"
     inkscape:window-y="-11"
     inkscape:window-maximized="1"
     inkscape:current-layer="svg20"
     inkscape:document-units="pc" /><path
     d="M 623.20874,256.07395 V 1456.904"
     stroke="#4472c4"
     stroke-width="4.58333"
     stroke-miterlimit="8"
     fill="none"
     fill-rule="evenodd"
     id="path2"
     style="stroke:#000000;stroke-opacity:1" /><path
     d="M 623.20874,1457.074 H 2236.5387"
     stroke="#4472c4"
     stroke-width="4.58333"
     stroke-miterlimit="8"
     fill="none"
     fill-rule="evenodd"
     id="path4"
     style="stroke:#000000;stroke-opacity:1" /><text
     font-family="Calibri, Calibri_MSFontService, sans-serif"
     font-weight="400"
     font-size="83px"
     id="text6"
     x="824.46112"
     y="1561.0312"><tspan
       style="font-style:normal;font-variant:normal;font-weight:normal;font-stretch:normal;font-family:sans-serif;-inkscape-font-specification:sans-serif"
       id="tspan636">Condition 1</tspan></text><path
     d="m 515.50041,1137.994 3.5e-4,-458.37905 h -4.58333 l -3.6e-4,458.37905 z m 15.72983,-432.03405 -18.02114,-30.893 -18.02116,30.893 c -0.6378,1.093 -0.2685,2.497 0.8248,3.134 1.0932,0.638 2.4964,0.269 3.1342,-0.824 l 16.04165,-27.5 h -3.95899 l 16.04164,27.5 c 0.6377,1.093 2.041,1.462 3.1342,0.824 1.0932,-0.637 1.4625,-2.041 0.8248,-3.134 z"
     fill="#4472c4"
     id="path8"
     style="fill:#000000;fill-opacity:1" /><text
     font-family="Calibri, Calibri_MSFontService, sans-serif"
     font-weight="400"
     font-size="83px"
     id="text10"
     x="29.763727"
     y="916.57391"><tspan
       style="font-style:normal;font-variant:normal;font-weight:normal;font-stretch:normal;font-family:sans-serif;-inkscape-font-specification:sans-serif"
       id="tspan632">Expression</tspan></text><text
     font-family="Calibri, Calibri_MSFontService, sans-serif"
     font-weight="400"
     font-size="83px"
     id="text12"
     x="95.74073"
     y="1015.5739"><tspan
       style="font-style:normal;font-variant:normal;font-weight:normal;font-stretch:normal;font-family:sans-serif;-inkscape-font-specification:sans-serif"
       id="tspan634">gene X</tspan></text><path
     d="m 1016.7087,1034.074 c 0,-24.02 19.48,-43.50005 43.5,-43.50005 24.02,0 43.5,19.48005 43.5,43.50005 0,24.02 -19.48,43.5 -43.5,43.5 -24.02,0 -43.5,-19.48 -43.5,-43.5 z"
     stroke="#4472c4"
     stroke-width="2.29167"
     stroke-miterlimit="8"
     fill="#ff0000"
     fill-rule="evenodd"
     id="path14"
     style="stroke:#000000;stroke-opacity:1" /><path
     d="m 1781.7087,675.07395 c 0,-24.02 19.48,-43.5 43.5,-43.5 24.02,0 43.5,19.48 43.5,43.5 0,24.02 -19.48,43.5 -43.5,43.5 -24.02,0 -43.5,-19.48 -43.5,-43.5 z"
     stroke="#4472c4"
     stroke-width="2.29167"
     stroke-miterlimit="8"
     fill="#ffff00"
     fill-rule="evenodd"
     id="path16"
     style="stroke:#000000;stroke-opacity:1" /><text
     font-family="Calibri, Calibri_MSFontService, sans-serif"
     font-weight="400"
     font-size="83px"
     id="text640"
     x="1587.7388"
     y="1561.0312"><tspan
       style="font-style:normal;font-variant:normal;font-weight:normal;font-stretch:normal;font-family:sans-serif;-inkscape-font-specification:sans-serif"
       id="tspan638">Condition 2</tspan></text><text
     font-family="Calibri, Calibri_MSFontService, sans-serif"
     font-weight="400"
     font-size="83px"
     id="text3376"
     x="2524.5422"
     y="1561.0312"><tspan
       style="font-style:normal;font-variant:normal;font-weight:normal;font-stretch:normal;font-family:sans-serif;-inkscape-font-specification:sans-serif"
       id="tspan3374">Condition 1</tspan></text><text
     font-family="Calibri, Calibri_MSFontService, sans-serif"
     font-weight="400"
     font-size="83px"
     id="text3380"
     x="4226.8096"
     y="1561.0312"><tspan
       style="font-style:normal;font-variant:normal;font-weight:normal;font-stretch:normal;font-family:sans-serif;-inkscape-font-specification:sans-serif"
       id="tspan3378">Condition 1</tspan></text><text
     font-family="Calibri, Calibri_MSFontService, sans-serif"
     font-weight="400"
     font-size="83px"
     id="text3384"
     x="3287.8198"
     y="1561.0312"><tspan
       style="font-style:normal;font-variant:normal;font-weight:normal;font-stretch:normal;font-family:sans-serif;-inkscape-font-specification:sans-serif"
       id="tspan3382">Condition 2</tspan></text><text
     font-family="Calibri, Calibri_MSFontService, sans-serif"
     font-weight="400"
     font-size="83px"
     id="text3388"
     x="5014.0869"
     y="1561.0312"><tspan
       style="font-style:normal;font-variant:normal;font-weight:normal;font-stretch:normal;font-family:sans-serif;-inkscape-font-specification:sans-serif"
       id="tspan3386">Condition 2</tspan></text><g
     style="overflow:hidden"
     id="g360"
     transform="translate(1712.7898,255.57625)"><g
       transform="translate(-243,-807)"
       id="g333"><path
         d="M 853.5,807.5 V 2008.33"
         stroke="#4472c4"
         stroke-width="4.58333"
         stroke-miterlimit="8"
         fill="none"
         fill-rule="evenodd"
         id="path297"
         style="stroke:#000000;stroke-opacity:1" /><path
         d="M 853.5,2008.5 H 2466.83"
         stroke="#4472c4"
         stroke-width="4.58333"
         stroke-miterlimit="8"
         fill="none"
         fill-rule="evenodd"
         id="path299"
         style="stroke:#000000;stroke-opacity:1" /><path
         d="m 1247,1585.5 c 0,-24.02 19.48,-43.5 43.5,-43.5 24.02,0 43.5,19.48 43.5,43.5 0,24.02 -19.48,43.5 -43.5,43.5 -24.02,0 -43.5,-19.48 -43.5,-43.5 z"
         stroke="#4472c4"
         stroke-width="2.29167"
         stroke-miterlimit="8"
         fill="#ff0000"
         fill-rule="evenodd"
         id="path301"
         style="stroke:#000000;stroke-opacity:1" /><path
         d="m 2012,1226.5 c 0,-24.02 19.48,-43.5 43.5,-43.5 24.02,0 43.5,19.48 43.5,43.5 0,24.02 -19.48,43.5 -43.5,43.5 -24.02,0 -43.5,-19.48 -43.5,-43.5 z"
         stroke="#4472c4"
         stroke-width="2.29167"
         stroke-miterlimit="8"
         fill="#ffff00"
         fill-rule="evenodd"
         id="path303"
         style="stroke:#000000;stroke-opacity:1" /><path
         d="m 1247,1313.5 c 0,-24.02 19.48,-43.5 43.5,-43.5 24.02,0 43.5,19.48 43.5,43.5 0,24.02 -19.48,43.5 -43.5,43.5 -24.02,0 -43.5,-19.48 -43.5,-43.5 z"
         stroke="#4472c4"
         stroke-width="2.29167"
         stroke-miterlimit="8"
         fill="#ff0000"
         fill-rule="evenodd"
         id="path305"
         style="stroke:#000000;stroke-opacity:1" /><path
         d="m 1247,1498.5 c 0,-24.02 19.48,-43.5 43.5,-43.5 24.02,0 43.5,19.48 43.5,43.5 0,24.02 -19.48,43.5 -43.5,43.5 -24.02,0 -43.5,-19.48 -43.5,-43.5 z"
         stroke="#4472c4"
         stroke-width="2.29167"
         stroke-miterlimit="8"
         fill="#ff0000"
         fill-rule="evenodd"
         id="path307"
         style="stroke:#000000;stroke-opacity:1" /><path
         d="m 1247,1388.5 c 0,-24.02 19.48,-43.5 43.5,-43.5 24.02,0 43.5,19.48 43.5,43.5 0,24.02 -19.48,43.5 -43.5,43.5 -24.02,0 -43.5,-19.48 -43.5,-43.5 z"
         stroke="#4472c4"
         stroke-width="2.29167"
         stroke-miterlimit="8"
         fill="#ff0000"
         fill-rule="evenodd"
         id="path309"
         style="stroke:#000000;stroke-opacity:1" /><path
         d="m 1247,1432.5 c 0,-24.02 19.48,-43.5 43.5,-43.5 24.02,0 43.5,19.48 43.5,43.5 0,24.02 -19.48,43.5 -43.5,43.5 -24.02,0 -43.5,-19.48 -43.5,-43.5 z"
         stroke="#4472c4"
         stroke-width="2.29167"
         stroke-miterlimit="8"
         fill="#ff0000"
         fill-rule="evenodd"
         id="path311"
         style="stroke:#000000;stroke-opacity:1" /><path
         d="m 2012,1281.5 c 0,-24.02 19.48,-43.5 43.5,-43.5 24.02,0 43.5,19.48 43.5,43.5 0,24.02 -19.48,43.5 -43.5,43.5 -24.02,0 -43.5,-19.48 -43.5,-43.5 z"
         stroke="#4472c4"
         stroke-width="2.29167"
         stroke-miterlimit="8"
         fill="#ffff00"
         fill-rule="evenodd"
         id="path313"
         style="stroke:#000000;stroke-opacity:1" /><path
         d="m 2012,1326.5 c 0,-24.02 19.48,-43.5 43.5,-43.5 24.02,0 43.5,19.48 43.5,43.5 0,24.02 -19.48,43.5 -43.5,43.5 -24.02,0 -43.5,-19.48 -43.5,-43.5 z"
         stroke="#4472c4"
         stroke-width="2.29167"
         stroke-miterlimit="8"
         fill="#ffff00"
         fill-rule="evenodd"
         id="path315"
         style="stroke:#000000;stroke-opacity:1" /><path
         d="m 2017,1423.5 c 0,-24.02 19.48,-43.5 43.5,-43.5 24.02,0 43.5,19.48 43.5,43.5 0,24.02 -19.48,43.5 -43.5,43.5 -24.02,0 -43.5,-19.48 -43.5,-43.5 z"
         stroke="#4472c4"
         stroke-width="2.29167"
         stroke-miterlimit="8"
         fill="#ffff00"
         fill-rule="evenodd"
         id="path317"
         style="stroke:#000000;stroke-opacity:1" /><path
         d="m 2012,1368.5 c 0,-24.02 19.48,-43.5 43.5,-43.5 24.02,0 43.5,19.48 43.5,43.5 0,24.02 -19.48,43.5 -43.5,43.5 -24.02,0 -43.5,-19.48 -43.5,-43.5 z"
         stroke="#4472c4"
         stroke-width="2.29167"
         stroke-miterlimit="8"
         fill="#ffff00"
         fill-rule="evenodd"
         id="path319"
         style="stroke:#000000;stroke-opacity:1" /><path
         d="m 2017,1480.5 c 0,-24.02 19.48,-43.5 43.5,-43.5 24.02,0 43.5,19.48 43.5,43.5 0,24.02 -19.48,43.5 -43.5,43.5 -24.02,0 -43.5,-19.48 -43.5,-43.5 z"
         stroke="#4472c4"
         stroke-width="2.29167"
         stroke-miterlimit="8"
         fill="#ffff00"
         fill-rule="evenodd"
         id="path321"
         style="stroke:#000000;stroke-opacity:1" /><path
         d="m 1247,1283.5 c 0,-24.02 19.48,-43.5 43.5,-43.5 24.02,0 43.5,19.48 43.5,43.5 0,24.02 -19.48,43.5 -43.5,43.5 -24.02,0 -43.5,-19.48 -43.5,-43.5 z"
         stroke="#4472c4"
         stroke-width="2.29167"
         stroke-miterlimit="8"
         fill="#ff0000"
         fill-rule="evenodd"
         id="path323"
         style="stroke:#000000;stroke-opacity:1" /></g></g><g
     style="overflow:hidden"
     id="g513"
     transform="translate(3339.6664,255.57678)"><g
       transform="translate(-243,-807)"
       id="g488"><path
         d="M 940.89045,807.5 V 2008.33"
         stroke="#4472c4"
         stroke-width="4.58333"
         stroke-miterlimit="8"
         fill="none"
         fill-rule="evenodd"
         id="path456"
         style="stroke:#000000;stroke-opacity:1" /><path
         d="M 940.89045,2008.5 H 2554.2205"
         stroke="#4472c4"
         stroke-width="4.58333"
         stroke-miterlimit="8"
         fill="none"
         fill-rule="evenodd"
         id="path458"
         style="stroke:#000000;stroke-opacity:1" /><path
         d="m 1334.3905,1585.5 c 0,-24.02 19.48,-43.5 43.5,-43.5 24.02,0 43.5,19.48 43.5,43.5 0,24.02 -19.48,43.5 -43.5,43.5 -24.02,0 -43.5,-19.48 -43.5,-43.5 z"
         stroke="#4472c4"
         stroke-width="2.29167"
         stroke-miterlimit="8"
         fill="#ff0000"
         fill-rule="evenodd"
         id="path460"
         style="stroke:#000000;stroke-opacity:1" /><path
         d="m 2099.3905,1226.5 c 0,-24.02 19.48,-43.5 43.5,-43.5 24.02,0 43.5,19.48 43.5,43.5 0,24.02 -19.48,43.5 -43.5,43.5 -24.02,0 -43.5,-19.48 -43.5,-43.5 z"
         stroke="#4472c4"
         stroke-width="2.29167"
         stroke-miterlimit="8"
         fill="#ffff00"
         fill-rule="evenodd"
         id="path462"
         style="stroke:#000000;stroke-opacity:1" /><path
         d="m 1345.3905,1640.5 c 0,-24.02 19.48,-43.5 43.5,-43.5 24.02,0 43.5,19.48 43.5,43.5 0,24.02 -19.48,43.5 -43.5,43.5 -24.02,0 -43.5,-19.48 -43.5,-43.5 z"
         stroke="#4472c4"
         stroke-width="2.29167"
         stroke-miterlimit="8"
         fill="#ff0000"
         fill-rule="evenodd"
         id="path464"
         style="stroke:#000000;stroke-opacity:1" /><path
         d="m 1322.3905,1672.5 c 0,-24.02 19.48,-43.5 43.5,-43.5 24.02,0 43.5,19.48 43.5,43.5 0,24.02 -19.48,43.5 -43.5,43.5 -24.02,0 -43.5,-19.48 -43.5,-43.5 z"
         stroke="#4472c4"
         stroke-width="2.29167"
         stroke-miterlimit="8"
         fill="#ff0000"
         fill-rule="evenodd"
         id="path466"
         style="stroke:#000000;stroke-opacity:1" /><path
         d="m 1322.3905,1629.5 c 0,-24.02 19.48,-43.5 43.5,-43.5 24.02,0 43.5,19.48 43.5,43.5 0,24.02 -19.48,43.5 -43.5,43.5 -24.02,0 -43.5,-19.48 -43.5,-43.5 z"
         stroke="#4472c4"
         stroke-width="2.29167"
         stroke-miterlimit="8"
         fill="#ff0000"
         fill-rule="evenodd"
         id="path468"
         style="stroke:#000000;stroke-opacity:1" /><path
         d="m 1322.3905,1553.5 c 0,-24.02 19.48,-43.5 43.5,-43.5 24.02,0 43.5,19.48 43.5,43.5 0,24.02 -19.48,43.5 -43.5,43.5 -24.02,0 -43.5,-19.48 -43.5,-43.5 z"
         stroke="#4472c4"
         stroke-width="2.29167"
         stroke-miterlimit="8"
         fill="#ff0000"
         fill-rule="evenodd"
         id="path470"
         style="stroke:#000000;stroke-opacity:1" /><path
         d="m 2099.3905,1216.5 c 0,-24.02 19.48,-43.5 43.5,-43.5 24.02,0 43.5,19.48 43.5,43.5 0,24.02 -19.48,43.5 -43.5,43.5 -24.02,0 -43.5,-19.48 -43.5,-43.5 z"
         stroke="#4472c4"
         stroke-width="2.29167"
         stroke-miterlimit="8"
         fill="#ffff00"
         fill-rule="evenodd"
         id="path472"
         style="stroke:#000000;stroke-opacity:1" /><path
         d="m 2099.3905,1173.5 c 0,-24.02 19.48,-43.5 43.5,-43.5 24.02,0 43.5,19.48 43.5,43.5 0,24.02 -19.48,43.5 -43.5,43.5 -24.02,0 -43.5,-19.48 -43.5,-43.5 z"
         stroke="#4472c4"
         stroke-width="2.29167"
         stroke-miterlimit="8"
         fill="#ffff00"
         fill-rule="evenodd"
         id="path474"
         style="stroke:#000000;stroke-opacity:1" /><path
         d="m 2111.3905,1214.5 c 0,-24.02 19.48,-43.5 43.5,-43.5 24.02,0 43.5,19.48 43.5,43.5 0,24.02 -19.48,43.5 -43.5,43.5 -24.02,0 -43.5,-19.48 -43.5,-43.5 z"
         stroke="#4472c4"
         stroke-width="2.29167"
         stroke-miterlimit="8"
         fill="#ffff00"
         fill-rule="evenodd"
         id="path476"
         style="stroke:#000000;stroke-opacity:1" /><path
         d="m 2111.3905,1258.5 c 0,-24.02 19.48,-43.5 43.5,-43.5 24.02,0 43.5,19.48 43.5,43.5 0,24.02 -19.48,43.5 -43.5,43.5 -24.02,0 -43.5,-19.48 -43.5,-43.5 z"
         stroke="#4472c4"
         stroke-width="2.29167"
         stroke-miterlimit="8"
         fill="#ffff00"
         fill-rule="evenodd"
         id="path478"
         style="stroke:#000000;stroke-opacity:1" /></g></g><text
     font-family="Calibri, Calibri_MSFontService, sans-serif"
     font-weight="400"
     font-size="83px"
     id="text3512"
     x="1429.8331"
     y="92.190697"><tspan
       sodipodi:role="line"
       id="tspan3617"
       x="1429.8331"
       y="92.190697"
       style="font-style:normal;font-variant:normal;font-weight:normal;font-stretch:normal;font-family:sans-serif;-inkscape-font-specification:sans-serif;text-align:center;text-anchor:middle">Measurement </tspan><tspan
       sodipodi:role="line"
       id="tspan3619"
       x="1429.8331"
       y="199.03911"
       style="font-style:normal;font-variant:normal;font-weight:normal;font-stretch:normal;font-family:sans-serif;-inkscape-font-specification:sans-serif;text-align:center;text-anchor:middle">without replicates</tspan></text><text
     font-family="Calibri, Calibri_MSFontService, sans-serif"
     font-weight="400"
     font-size="83px"
     id="text3627"
     x="3136.8599"
     y="92.190697"><tspan
       sodipodi:role="line"
       id="tspan3625"
       x="3136.8599"
       y="92.190697"
       style="font-style:normal;font-variant:normal;font-weight:normal;font-stretch:normal;font-family:sans-serif;-inkscape-font-specification:sans-serif;text-align:center;text-anchor:middle">Possible</tspan><tspan
       sodipodi:role="line"
       x="3136.8599"
       y="199.03912"
       style="font-style:normal;font-variant:normal;font-weight:normal;font-stretch:normal;font-family:sans-serif;-inkscape-font-specification:sans-serif;text-align:center;text-anchor:middle"
       id="tspan3637">distribution 1</tspan></text><text
     font-family="Calibri, Calibri_MSFontService, sans-serif"
     font-weight="400"
     font-size="83px"
     id="text3633"
     x="5047.7979"
     y="92.190697"><tspan
       sodipodi:role="line"
       id="tspan3631"
       x="5047.7979"
       y="92.190697"
       style="font-style:normal;font-variant:normal;font-weight:normal;font-stretch:normal;font-family:sans-serif;-inkscape-font-specification:sans-serif;text-align:center;text-anchor:middle">Possible</tspan><tspan
       sodipodi:role="line"
       x="5047.7979"
       y="199.03912"
       style="font-style:normal;font-variant:normal;font-weight:normal;font-stretch:normal;font-family:sans-serif;-inkscape-font-specification:sans-serif;text-align:center;text-anchor:middle"
       id="tspan3641">distribution 2</tspan></text></svg>
