<?xml version="1.0" encoding="UTF-8" standalone="no"?>
<!-- Created with Inkscape (http://www.inkscape.org/) -->

<svg
   width="128mm"
   height="128mm"
   viewBox="0 0 128 128"
   version="1.1"
   id="svg5"
   xml:space="preserve"
   inkscape:version="1.2.2 (732a01da63, 2022-12-09)"
   sodipodi:docname="contamination.svg"
   xmlns:inkscape="http://www.inkscape.org/namespaces/inkscape"
   xmlns:sodipodi="http://sodipodi.sourceforge.net/DTD/sodipodi-0.dtd"
   xmlns="http://www.w3.org/2000/svg"
   xmlns:svg="http://www.w3.org/2000/svg"><sodipodi:namedview
     id="namedview7"
     pagecolor="#ffffff"
     bordercolor="#000000"
     borderopacity="0.25"
     inkscape:showpageshadow="2"
     inkscape:pageopacity="0.0"
     inkscape:pagecheckerboard="0"
     inkscape:deskcolor="#d1d1d1"
     inkscape:document-units="mm"
     showgrid="false"
     inkscape:zoom="2.8284271"
     inkscape:cx="399.86888"
     inkscape:cy="275.77164"
     inkscape:window-width="3840"
     inkscape:window-height="2054"
     inkscape:window-x="-11"
     inkscape:window-y="-11"
     inkscape:window-maximized="1"
     inkscape:current-layer="layer1" /><defs
     id="defs2" /><g
     inkscape:label="Layer 1"
     inkscape:groupmode="layer"
     id="layer1"><rect
       style="fill:#f7cba5;fill-opacity:1;stroke:#000000;stroke-width:0.499999;stroke-linecap:square;stroke-opacity:1"
       id="rect406"
       width="9.0145893"
       height="2.0644114"
       x="80.45137"
       y="32.605564"
       ry="0.78733188" /><path
       style="fill:none;fill-opacity:1;stroke:#000000;stroke-width:0.499999;stroke-linecap:square;stroke-opacity:1"
       d="m 89.53425,33.77452 c 0,0 4.20898,1.119151 6.32563,-0.09732 2.11665,-1.216467 5.15781,-0.267624 5.15781,-0.267624"
       id="path2467" /><rect
       style="fill:#f7cba5;fill-opacity:1;stroke:#000000;stroke-width:0.499999;stroke-linecap:square;stroke-opacity:1"
       id="rect2469"
       width="9.0145893"
       height="2.0644114"
       x="84.304939"
       y="28.614368"
       ry="0.78733188" /><path
       style="fill:none;fill-opacity:1;stroke:#000000;stroke-width:0.499999;stroke-linecap:square;stroke-opacity:1"
       d="m 93.38782,29.783325 c 0,0 4.20898,1.119151 6.32563,-0.09732 2.11665,-1.216467 5.15781,-0.267624 5.15781,-0.267624"
       id="path2471" /><rect
       style="fill:#f7cba5;fill-opacity:1;stroke:#000000;stroke-width:0.499999;stroke-linecap:square;stroke-opacity:1"
       id="rect2473"
       width="9.0145893"
       height="2.0644114"
       x="85.510277"
       y="36.252689"
       ry="0.78733188" /><path
       style="fill:none;fill-opacity:1;stroke:#000000;stroke-width:0.499999;stroke-linecap:square;stroke-opacity:1"
       d="m 94.59314,37.421648 c 0,0 4.20898,1.119151 6.32563,-0.09732 2.11665,-1.216467 5.15781,-0.267624 5.15781,-0.267624"
       id="path2475" /><path
       style="fill:#f38181;fill-opacity:1;stroke:#000000;stroke-width:0.71996;stroke-linecap:square;stroke-opacity:1"
       d="m 34.222806,33.008634 c 0,0 0.263243,-1.144359 0.336741,-1.725872 0.07191,-0.568924 0.0765,-1.144457 0.101025,-1.717383 0.02688,-0.628236 0.07233,-1.257323 0.05051,-1.885755 -0.02231,-0.642393 -0.09119,-1.283559 -0.185208,-1.919427 -0.07953,-0.537885 -0.193536,-1.070678 -0.319905,-1.599523 -0.136087,-0.569492 -0.267853,-1.143137 -0.471438,-1.692128 -0.156262,-0.421378 -0.405311,-0.803511 -0.57246,-1.22069 -0.173933,-0.434108 -0.347358,-0.873034 -0.446184,-1.33013 -0.116245,-0.537653 -0.177681,-1.091619 -0.16837,-1.641617 0.0081,-0.475768 0.06889,-0.95512 0.193626,-1.414314 0.156972,-0.577856 0.443327,-1.112972 0.69032,-1.658454 0.134071,-0.296105 0.262301,-0.596692 0.429347,-0.875529 0.202516,-0.338045 0.442717,-0.653151 0.690321,-0.959713 0.323322,-0.400311 0.672712,-0.779978 1.035481,-1.144923 0.506892,-0.509933 1.048723,-0.984396 1.591104,-1.456408 0.587873,-0.511603 1.175953,-1.0253928 1.801569,-1.4900818 0.935946,-0.695194 1.915481,-1.332435 2.912817,-1.936266 0.613443,-0.371405 1.248546,-0.706513 1.885754,-1.03548 1.321528,-0.682258 2.663456,-1.325407 4.015656,-1.944685 0.98392,-0.45062 2.98016,-1.288037 2.98016,-1.288037 0,0 -3.52784,1.203875 -5.227922,1.961521 -1.877851,0.836869 -3.686736,1.826 -5.472055,2.845468 -1.200872,0.685732 -2.38898,1.400065 -3.518951,2.1972398 -0.608784,0.429486 -1.198673,0.889113 -1.751058,1.38906 -0.484075,0.438121 -0.931374,0.916731 -1.363804,1.405897 -0.403177,0.456077 -0.796363,0.923671 -1.144922,1.422734 -0.211911,0.303411 -0.409326,0.619104 -0.57246,0.951296 -0.17389,0.354093 -0.30599,0.728126 -0.429347,1.102829 -0.107289,0.325884 -0.213284,0.654919 -0.269394,0.993389 -0.06484,0.391138 -0.104322,0.791567 -0.07577,1.187014 0.02644,0.366143 0.13495,0.722285 0.227301,1.077575 0.116778,0.449279 0.251074,0.894895 0.412508,1.330129 0.161715,0.435989 0.388392,0.845716 0.555625,1.279619 0.220521,0.572168 0.421322,1.152901 0.589297,1.742639 0.13891,0.487714 0.258585,0.981996 0.34516,1.481664 0.08825,0.509313 0.137311,1.025203 0.17679,1.540594 0.03882,0.506812 0.05796,1.015458 0.05894,1.523756 0.0011,0.564384 -0.02508,1.128759 -0.05894,1.692128 -0.05339,0.888381 -0.108455,1.778248 -0.227301,2.660261 -0.05983,0.44401 -0.147573,0.884216 -0.244138,1.32171 -0.128657,0.582871 -0.266923,1.164875 -0.446182,1.734221 -0.182673,0.580192 -0.427231,1.139052 -0.63981,1.708965 -0.154843,0.415127 -0.274403,0.845033 -0.46302,1.245945 -0.195887,0.416367 -0.444797,0.806265 -0.69032,1.195433 -0.237979,0.377211 -0.480966,0.753034 -0.757669,1.102829 -0.277316,0.35057 -0.572905,0.689581 -0.900785,0.993388 -0.268452,0.248744 -0.565137,0.466718 -0.86711,0.673484 -0.25652,0.175643 -0.519516,0.345262 -0.799761,0.479858 -0.240109,0.115323 -0.494079,0.201405 -0.74925,0.277811 -0.251061,0.07518 -0.506234,0.142754 -0.766089,0.17679 -0.247775,0.03246 -0.49936,0.02619 -0.74925,0.02526 -0.272429,-10e-4 -0.548899,0.01688 -0.816599,-0.03368 -0.422933,-0.07986 -0.826344,-0.248466 -1.220689,-0.420927 -0.478521,-0.209274 -0.955058,-0.438084 -1.380642,-0.740832 -0.509753,-0.362626 -0.935183,-0.831981 -1.380641,-1.2712 -0.624754,-0.616005 -1.230255,-1.25246 -1.809987,-1.91101 -0.407169,-0.462535 -0.821323,-0.923194 -1.170174,-1.431156 -0.404141,-0.588468 -0.723562,-1.231263 -1.060736,-1.860498 -0.295183,-0.550871 -0.596176,-1.100632 -0.841855,-1.675291 -0.220161,-0.514976 -0.436875,-1.037251 -0.564042,-1.582687 -0.08275,-0.354918 -0.119499,-0.721619 -0.126282,-1.085992 -0.0046,-0.250478 0.02749,-0.50071 0.05894,-0.74925 0.02861,-0.226103 0.05486,-0.454457 0.117857,-0.673484 0.04523,-0.157251 0.108283,-0.310184 0.185208,-0.454601 0.0922,-0.173107 0.211576,-0.330676 0.328324,-0.488276 0.09262,-0.125014 0.179524,-0.257341 0.294649,-0.361998 0.08984,-0.08167 0.200925,-0.201884 0.303068,-0.267525 0.17492,-0.1124 0.33883,-0.181943 0.530368,-0.262843 0.159876,-0.06753 0.335196,-0.09095 0.505113,-0.126282 0.200539,-0.04171 0.402075,-0.08324 0.606134,-0.101025 0.31871,-0.02778 0.642624,-0.05077 0.959715,-0.0084 0.317872,0.04252 0.622168,0.158443 0.92604,0.260974 0.340193,0.114791 0.675857,0.245124 1.001806,0.395671 0.401169,0.185288 0.790415,0.397035 1.170178,0.622973 0.349821,0.208125 0.702065,0.417616 1.018644,0.673484 0.305577,0.246976 0.576927,0.534866 0.841854,0.825018 0.212478,0.232707 0.418324,0.473343 0.597717,0.732413 0.181113,0.261554 0.344313,0.537196 0.479857,0.825017 0.131264,0.27872 0.250704,0.566904 0.319905,0.86711 0.07601,0.329773 0.108167,0.671879 0.101025,1.010225 -0.0075,0.35709 -0.08765,0.70933 -0.151533,1.060737 -0.06272,0.344983 -0.132948,0.689357 -0.227301,1.027062 -0.127318,0.455723 -0.456038,1.344273 -0.456038,1.344273 0,0 0.813885,-0.897568 1.070592,-1.436877 0.274964,-0.577665 0.386614,-1.226382 0.471435,-1.8605 0.08372,-0.625915 0.148936,-1.273287 0.03368,-1.894171 -0.130961,-0.705502 -0.387351,-1.414001 -0.80818,-1.995196 -0.476448,-0.658008 -1.187927,-1.118615 -1.860501,-1.574269 -0.831442,-0.563283 -1.728299,-1.040104 -2.66026,-1.414316 -0.652089,-0.261834 -1.33601,-0.455294 -2.028867,-0.57246 -0.507256,-0.08578 -1.028546,-0.142337 -1.540594,-0.0926 -0.467433,0.0454 -0.938066,0.155338 -1.363806,0.353581 -0.37764,0.175846 -0.73752,0.41658 -1.018643,0.723993 -0.247821,0.270995 -0.409352,0.614461 -0.555622,0.951296 -0.148171,0.341213 -0.253453,0.703142 -0.319905,1.069155 -0.08794,0.484317 -0.121645,0.981442 -0.101025,1.473245 0.02403,0.572982 0.137584,1.140492 0.260974,1.700546 0.132617,0.601917 0.296796,1.199326 0.51353,1.776315 0.200419,0.53355 0.459277,1.044264 0.723995,1.549011 0.250588,0.4778 0.524994,0.943549 0.8166,1.397479 0.300446,0.46769 0.62274,0.921708 0.959715,1.363805 0.363741,0.477211 0.75545,0.932607 1.144921,1.38906 0.374226,0.438588 0.748328,0.877986 1.144925,1.296456 0.327599,0.345665 0.662912,0.685164 1.018641,1.001805 0.344378,0.306537 0.697139,0.60667 1.077574,0.867111 0.296691,0.20311 0.612658,0.378409 0.934461,0.538789 0.308348,0.153674 0.623674,0.297511 0.951294,0.40409 0.367026,0.119399 0.744456,0.218627 1.128085,0.260975 0.370979,0.04095 0.749757,0.04134 1.119666,-0.0084 0.368339,-0.04949 0.723814,-0.172321 1.077575,-0.286231 0.405799,-0.130658 0.818257,-0.255893 1.195432,-0.454604 0.374649,-0.19738 0.708808,-0.465079 1.043898,-0.723991 0.351166,-0.27133 0.697759,-0.551989 1.010226,-0.86711 0.413636,-0.417149 0.787806,-0.874194 1.136505,-1.346968 0.413533,-0.560679 0.795591,-1.147253 1.128085,-1.759476 0.324866,-0.598178 0.578487,-1.232813 0.841855,-1.8605 0.222394,-0.530035 0.426957,-1.067594 0.622971,-1.607942 0.197002,-0.54307 0.393834,-1.087034 0.555625,-1.641615 0.157826,-0.540988 0.40409,-1.641615 0.40409,-1.641615"
       id="path3396"
       sodipodi:nodetypes="cssssssssssssssssssscsssssssssssssssssssssssssssssssssssssssssssssssssssssssssssssscsssssssssssssssssssssssssssssssssssc" /><rect
       style="fill:#0036ff;fill-opacity:1;stroke:#000000;stroke-width:0.2;stroke-linecap:square;stroke-dasharray:none;stroke-opacity:1"
       id="rect4152"
       width="58.208332"
       height="1.3229166"
       x="2.8754511"
       y="57.724552"
       ry="0"
       rx="0" /><rect
       style="fill:#a97a4b;fill-opacity:1;stroke:#000000;stroke-width:0.2;stroke-linecap:square;stroke-dasharray:none;stroke-opacity:1"
       id="rect5246"
       width="31.641737"
       height="1.3229141"
       x="75.452003"
       y="57.724552"
       ry="0"
       rx="0" /><rect
       style="fill:#a97a4b;fill-opacity:1;stroke:#000000;stroke-width:0.2;stroke-linecap:square;stroke-dasharray:none;stroke-opacity:1"
       id="rect6352"
       width="31.641737"
       height="1.3229141"
       x="75.452003"
       y="55.573032"
       ry="0"
       rx="0" /><rect
       style="fill:#a97a4b;fill-opacity:1;stroke:#000000;stroke-width:0.2;stroke-linecap:square;stroke-dasharray:none;stroke-opacity:1"
       id="rect6354"
       width="31.641737"
       height="1.3229141"
       x="75.452003"
       y="59.876072"
       ry="0"
       rx="0" /><rect
       style="fill:#a97a4b;fill-opacity:1;stroke:#000000;stroke-width:0.2;stroke-linecap:square;stroke-dasharray:none;stroke-opacity:1"
       id="rect6410"
       width="10.313623"
       height="1.3229141"
       x="86.583771"
       y="80.08165"
       ry="0"
       rx="0" /><rect
       style="fill:#a97a4b;fill-opacity:1;stroke:#000000;stroke-width:0.2;stroke-linecap:square;stroke-dasharray:none;stroke-opacity:1"
       id="rect6412"
       width="10.313623"
       height="1.3229141"
       x="32.392456"
       y="102.75898"
       ry="0"
       rx="0"
       transform="rotate(-21.894241)" /><rect
       style="fill:#a97a4b;fill-opacity:1;stroke:#000000;stroke-width:0.2;stroke-linecap:square;stroke-dasharray:none;stroke-opacity:1"
       id="rect6414"
       width="10.313623"
       height="1.3229141"
       x="104.04902"
       y="51.228935"
       ry="0"
       rx="0"
       transform="rotate(19.347633)" /><rect
       style="fill:#a97a4b;fill-opacity:1;stroke:#000000;stroke-width:0.2;stroke-linecap:square;stroke-dasharray:none;stroke-opacity:1"
       id="rect6416"
       width="10.313623"
       height="1.3229141"
       x="120.64987"
       y="61.793598"
       ry="0"
       rx="0"
       transform="rotate(10.815359)" /><rect
       style="fill:#a97a4b;fill-opacity:1;stroke:#000000;stroke-width:0.2;stroke-linecap:square;stroke-dasharray:none;stroke-opacity:1"
       id="rect6418"
       width="10.313623"
       height="1.3229141"
       x="88.417519"
       y="63.91732"
       ry="0"
       rx="0"
       transform="rotate(7.6359253)" /><rect
       style="fill:#a97a4b;fill-opacity:1;stroke:#000000;stroke-width:0.2;stroke-linecap:square;stroke-dasharray:none;stroke-opacity:1"
       id="rect6420"
       width="10.313623"
       height="1.3229141"
       x="52.785839"
       y="114.85398"
       ry="0"
       rx="0"
       transform="rotate(-22.810843)" /><rect
       style="fill:#a97a4b;fill-opacity:1;stroke:#000000;stroke-width:0.2;stroke-linecap:square;stroke-dasharray:none;stroke-opacity:1"
       id="rect6422"
       width="10.313623"
       height="1.3229141"
       x="68.00602"
       y="97.013756"
       ry="0"
       rx="0"
       transform="rotate(-15)" /><rect
       style="fill:#a97a4b;fill-opacity:1;stroke:#000000;stroke-width:0.2;stroke-linecap:square;stroke-dasharray:none;stroke-opacity:1"
       id="rect6424"
       width="10.313623"
       height="1.3229141"
       x="119.70808"
       y="47.632477"
       ry="0"
       rx="0"
       transform="rotate(15)" /><rect
       style="fill:#0036ff;fill-opacity:1;stroke:#000000;stroke-width:0.2;stroke-linecap:square;stroke-dasharray:none;stroke-opacity:1"
       id="rect6426"
       width="10.313623"
       height="1.3229141"
       x="75.374237"
       y="35.462666"
       ry="0"
       rx="0"
       transform="rotate(32.489608)" /><rect
       style="fill:#0036ff;fill-opacity:1;stroke:#000000;stroke-width:0.2;stroke-linecap:square;stroke-dasharray:none;stroke-opacity:1"
       id="rect6428"
       width="10.313623"
       height="1.3229141"
       x="-24.199404"
       y="80.0158"
       ry="0"
       rx="0"
       transform="rotate(-21.894241)" /><rect
       style="fill:#0036ff;fill-opacity:1;stroke:#000000;stroke-width:0.2;stroke-linecap:square;stroke-dasharray:none;stroke-opacity:1"
       id="rect6430"
       width="10.313623"
       height="1.3229141"
       x="25.908592"
       y="82.414108"
       ry="0"
       rx="0"
       transform="rotate(4.227786)" /><rect
       style="fill:#0036ff;fill-opacity:1;stroke:#000000;stroke-width:0.2;stroke-linecap:square;stroke-dasharray:none;stroke-opacity:1"
       id="rect6432"
       width="10.313623"
       height="1.3229141"
       x="60.742355"
       y="73.238213"
       ry="0"
       rx="0"
       transform="rotate(10.815359)" /><rect
       style="fill:#0036ff;fill-opacity:1;stroke:#000000;stroke-width:0.2;stroke-linecap:square;stroke-dasharray:none;stroke-opacity:1"
       id="rect6434"
       width="10.313623"
       height="1.3229141"
       x="48.154377"
       y="57.825848"
       ry="0"
       rx="0"
       transform="rotate(27.085557)" /><rect
       style="fill:#0036ff;fill-opacity:1;stroke:#000000;stroke-width:0.2;stroke-linecap:square;stroke-dasharray:none;stroke-opacity:1"
       id="rect6436"
       width="10.313623"
       height="1.3229141"
       x="5.3813577"
       y="90.755684"
       ry="0"
       rx="0"
       transform="rotate(-22.810843)" /><rect
       style="fill:#0036ff;fill-opacity:1;stroke:#000000;stroke-width:0.2;stroke-linecap:square;stroke-dasharray:none;stroke-opacity:1"
       id="rect6438"
       width="10.313623"
       height="1.3229141"
       x="9.0933313"
       y="81.228142"
       ry="0"
       rx="0"
       transform="rotate(-15)" /><rect
       style="fill:#0036ff;fill-opacity:1;stroke:#000000;stroke-width:0.2;stroke-linecap:square;stroke-dasharray:none;stroke-opacity:1"
       id="rect6440"
       width="10.313623"
       height="1.3229141"
       x="14.454826"
       y="84.923904"
       ry="0"
       rx="0"
       transform="rotate(-10.689498)" /><path
       style="fill:#000000;fill-opacity:1;stroke:#000000;stroke-width:0.2;stroke-linecap:square;stroke-dasharray:none;stroke-opacity:1"
       d="m 90.45443,49.50602 v 1.595768 h -1.67845 l 3.04772,1.759606 3.07108,-1.773087 h -1.45139 v -1.561615 z"
       id="path7429" /><path
       style="fill:#000000;fill-opacity:1;stroke:#000000;stroke-width:0.2;stroke-linecap:square;stroke-dasharray:none;stroke-opacity:1"
       d="m 30.598669,49.50602 v 1.595768 h -1.67845 l 3.04772,1.759606 3.07108,-1.773087 h -1.45139 v -1.561615 z"
       id="path7539" /><path
       style="fill:#000000;fill-opacity:1;stroke:#000000;stroke-width:0.2;stroke-linecap:square;stroke-dasharray:none;stroke-opacity:1"
       d="m 90.45443,63.53767 v 1.59577 h -1.67845 l 3.04772,1.75961 3.07108,-1.77309 h -1.45139 v -1.56162 z"
       id="path7541" /><path
       style="fill:#000000;fill-opacity:1;stroke:#000000;stroke-width:0.2;stroke-linecap:square;stroke-dasharray:none;stroke-opacity:1"
       d="m 30.598669,63.53767 v 1.59577 h -1.67845 l 3.04772,1.75961 3.07108,-1.77309 h -1.45139 v -1.56162 z"
       id="path7543" /><path
       style="fill:#000000;fill-opacity:1;stroke:#000000;stroke-width:0.2;stroke-linecap:square;stroke-dasharray:none;stroke-opacity:1"
       d="m 60.52655,92.25578 v 1.59577 H 58.8481 l 3.04772,1.75961 3.07108,-1.77309 h -1.45139 v -1.56162 z"
       id="path7545" /><rect
       style="fill:#a97a4b;fill-opacity:1;stroke:#000000;stroke-width:0.2;stroke-linecap:square;stroke-dasharray:none;stroke-opacity:1"
       id="rect7547"
       width="10.313623"
       height="1.3229141"
       x="56.75069"
       y="113.75761"
       ry="0"
       rx="0" /><rect
       style="fill:#a97a4b;fill-opacity:1;stroke:#000000;stroke-width:0.2;stroke-linecap:square;stroke-dasharray:none;stroke-opacity:1"
       id="rect7549"
       width="10.313623"
       height="1.3229141"
       x="-7.84515"
       y="122.88195"
       ry="0"
       rx="0"
       transform="rotate(-21.894241)" /><rect
       style="fill:#a97a4b;fill-opacity:1;stroke:#000000;stroke-width:0.2;stroke-linecap:square;stroke-dasharray:none;stroke-opacity:1"
       id="rect7551"
       width="10.313623"
       height="1.3229141"
       x="87.058861"
       y="92.886261"
       ry="0"
       rx="0"
       transform="rotate(19.347633)" /><rect
       style="fill:#a97a4b;fill-opacity:1;stroke:#000000;stroke-width:0.2;stroke-linecap:square;stroke-dasharray:none;stroke-opacity:1"
       id="rect7553"
       width="10.313623"
       height="1.3229141"
       x="97.667206"
       y="100.46912"
       ry="0"
       rx="0"
       transform="rotate(10.815359)" /><rect
       style="fill:#a97a4b;fill-opacity:1;stroke:#000000;stroke-width:0.2;stroke-linecap:square;stroke-dasharray:none;stroke-opacity:1"
       id="rect7555"
       width="10.313623"
       height="1.3229141"
       x="63.325146"
       y="101.25862"
       ry="0"
       rx="0"
       transform="rotate(7.6359253)" /><rect
       style="fill:#a97a4b;fill-opacity:1;stroke:#000000;stroke-width:0.2;stroke-linecap:square;stroke-dasharray:none;stroke-opacity:1"
       id="rect7557"
       width="10.313623"
       height="1.3229141"
       x="12.231471"
       y="134.3307"
       ry="0"
       rx="0"
       transform="rotate(-22.810843)" /><rect
       style="fill:#a97a4b;fill-opacity:1;stroke:#000000;stroke-width:0.2;stroke-linecap:square;stroke-dasharray:none;stroke-opacity:1"
       id="rect7559"
       width="10.313623"
       height="1.3229141"
       x="30.474859"
       y="121.82122"
       ry="0"
       rx="0"
       transform="rotate(-15)" /><rect
       style="fill:#a97a4b;fill-opacity:1;stroke:#000000;stroke-width:0.2;stroke-linecap:square;stroke-dasharray:none;stroke-opacity:1"
       id="rect7561"
       width="10.313623"
       height="1.3229141"
       x="99.608879"
       y="87.881966"
       ry="0"
       rx="0"
       transform="rotate(15)" /><rect
       style="fill:#0036ff;fill-opacity:1;stroke:#000000;stroke-width:0.2;stroke-linecap:square;stroke-dasharray:none;stroke-opacity:1"
       id="rect7563"
       width="10.313623"
       height="1.3229141"
       x="123.54435"
       y="48.471306"
       ry="0"
       rx="0"
       transform="rotate(32.489608)" /><rect
       style="fill:#0036ff;fill-opacity:1;stroke:#000000;stroke-width:0.2;stroke-linecap:square;stroke-dasharray:none;stroke-opacity:1"
       id="rect7565"
       width="10.313623"
       height="1.3229141"
       x="28.540037"
       y="113.75881"
       ry="0"
       rx="0"
       transform="rotate(-4.0970019)" /><rect
       style="fill:#0036ff;fill-opacity:1;stroke:#000000;stroke-width:0.2;stroke-linecap:square;stroke-dasharray:none;stroke-opacity:1"
       id="rect7567"
       width="10.313623"
       height="1.3229141"
       x="55.747513"
       y="116.69637"
       ry="0"
       rx="0"
       transform="rotate(4.227786)" /><rect
       style="fill:#0036ff;fill-opacity:1;stroke:#000000;stroke-width:0.2;stroke-linecap:square;stroke-dasharray:none;stroke-opacity:1"
       id="rect7569"
       width="10.313623"
       height="1.3229141"
       x="70.143867"
       y="124.72313"
       ry="0"
       rx="0"
       transform="rotate(-2.1553429)" /><rect
       style="fill:#0036ff;fill-opacity:1;stroke:#000000;stroke-width:0.2;stroke-linecap:square;stroke-dasharray:none;stroke-opacity:1"
       id="rect7571"
       width="10.313623"
       height="1.3229141"
       x="-32.351723"
       y="121.97455"
       ry="0"
       rx="0"
       transform="rotate(-35.92718)" /><rect
       style="fill:#0036ff;fill-opacity:1;stroke:#000000;stroke-width:0.2;stroke-linecap:square;stroke-dasharray:none;stroke-opacity:1"
       id="rect7573"
       width="10.313623"
       height="1.3229141"
       x="-26.478109"
       y="128.81512"
       ry="0"
       rx="0"
       transform="rotate(-42.492653)" /><rect
       style="fill:#0036ff;fill-opacity:1;stroke:#000000;stroke-width:0.2;stroke-linecap:square;stroke-dasharray:none;stroke-opacity:1"
       id="rect7575"
       width="10.313623"
       height="1.3229141"
       x="27.792799"
       y="118.50808"
       ry="0"
       rx="0"
       transform="rotate(-15)" /><rect
       style="fill:#0036ff;fill-opacity:1;stroke:#000000;stroke-width:0.2;stroke-linecap:square;stroke-dasharray:none;stroke-opacity:1"
       id="rect7577"
       width="10.313623"
       height="1.3229141"
       x="38.755241"
       y="130.7309"
       ry="0"
       rx="0"
       transform="rotate(-10.689498)" /><rect
       style="fill:none;fill-opacity:1;stroke:#000000;stroke-width:0.2;stroke-linecap:square;stroke-dasharray:none;stroke-opacity:1"
       id="rect7579"
       width="32.272789"
       height="14.499359"
       x="92.76577"
       y="107.82642" /><rect
       style="fill:#0036ff;fill-opacity:1;stroke:#000000;stroke-width:0.2;stroke-linecap:square;stroke-dasharray:none;stroke-opacity:1"
       id="rect7581"
       width="6.9732647"
       height="1.3229218"
       x="94.355515"
       y="110.20294"
       ry="0"
       rx="0" /><rect
       style="fill:#a97a4b;fill-opacity:1;stroke:#000000;stroke-width:0.2;stroke-linecap:square;stroke-dasharray:none;stroke-opacity:1"
       id="rect7585"
       width="6.9732647"
       height="1.3229218"
       x="94.355515"
       y="118.4381"
       ry="0"
       rx="0" /><text
       xml:space="preserve"
       style="font-size:3.88056px;font-family:sans-serif;-inkscape-font-specification:sans-serif;text-align:center;text-anchor:middle;fill:#0036ff;fill-opacity:1;stroke:#000000;stroke-width:0.2;stroke-linecap:square;stroke-dasharray:none;stroke-opacity:1"
       x="113.62616"
       y="112.3092"
       id="text7917"><tspan
         sodipodi:role="line"
         id="tspan7915"
         style="font-size:3.88056px;fill:#000000;fill-opacity:1;stroke:none;stroke-width:0.2"
         x="113.62616"
         y="112.3092">Nematode</tspan></text><text
       xml:space="preserve"
       style="font-size:3.88056px;font-family:sans-serif;-inkscape-font-specification:sans-serif;text-align:center;text-anchor:middle;fill:#0036ff;fill-opacity:1;stroke:#000000;stroke-width:0.2;stroke-linecap:square;stroke-dasharray:none;stroke-opacity:1"
       x="111.44335"
       y="120.54434"
       id="text8023"><tspan
         sodipodi:role="line"
         id="tspan8021"
         style="font-size:3.88056px;fill:#000000;fill-opacity:1;stroke:none;stroke-width:0.2"
         x="111.44335"
         y="120.54434">Bacteria</tspan></text></g></svg>
