<svg width="2134" height="1885" xmlns="http://www.w3.org/2000/svg" xmlns:xlink="http://www.w3.org/1999/xlink" overflow="hidden"><defs><clipPath id="clip0"><rect x="305" y="729" width="2134" height="1885"/></clipPath></defs><g clip-path="url(#clip0)" transform="translate(-305 -729)"><rect x="409.5" y="1053.5" width="364" height="65" stroke="#77933C" stroke-width="9.16667" stroke-linejoin="round" stroke-miterlimit="10" fill="#D7E4BD"/><text fill="#4F6228" font-family="Times New Roman,Times New Roman_MSFontService,sans-serif" font-weight="400" font-size="50" transform="matrix(1 0 0 1 518.955 1103)">Exon 2</text><path d="M305 1085 408.936 1085" stroke="#77933C" stroke-width="10.3125" stroke-linejoin="round" stroke-miterlimit="10" fill="none" fill-rule="evenodd"/><path d="M773 1085 876.936 1085" stroke="#77933C" stroke-width="10.3125" stroke-linejoin="round" stroke-miterlimit="10" fill="none" fill-rule="evenodd"/><path d="M409 1001 564.904 1001" stroke="#77933C" stroke-width="10.3125" stroke-linejoin="round" stroke-miterlimit="10" fill="none" fill-rule="evenodd"/><path d="M464 975 619.904 975" stroke="#77933C" stroke-width="10.3125" stroke-linejoin="round" stroke-miterlimit="10" fill="none" fill-rule="evenodd"/><path d="M591 1001 746.904 1001" stroke="#77933C" stroke-width="10.3125" stroke-linejoin="round" stroke-miterlimit="10" fill="none" fill-rule="evenodd"/><path d="M464 1027 619.904 1027" stroke="#77933C" stroke-width="10.3125" stroke-linejoin="round" stroke-miterlimit="10" fill="none" fill-rule="evenodd"/><path d="M643 1027 772.92 1027" stroke="#77933C" stroke-width="10.3125" stroke-linejoin="round" stroke-miterlimit="10" fill="none" fill-rule="evenodd"/><path d="M643 975 772.92 975" stroke="#77933C" stroke-width="10.3125" stroke-linejoin="round" stroke-miterlimit="10" fill="none" fill-rule="evenodd"/><rect x="1026.5" y="1053.5" width="363" height="65" stroke="#77933C" stroke-width="9.16667" stroke-linejoin="round" stroke-miterlimit="10" fill="#D7E4BD"/><text fill="#4F6228" font-family="Times New Roman,Times New Roman_MSFontService,sans-serif" font-weight="400" font-size="50" transform="matrix(1 0 0 1 1135.29 1103)">Exon 3</text><path d="M922 1085 1025.94 1085" stroke="#77933C" stroke-width="10.3125" stroke-linejoin="round" stroke-miterlimit="10" fill="none" fill-rule="evenodd"/><path d="M1389 1085 1492.94 1085" stroke="#77933C" stroke-width="10.3125" stroke-linejoin="round" stroke-miterlimit="10" fill="none" fill-rule="evenodd"/><path d="M1026 1001 1181.9 1001" stroke="#77933C" stroke-width="10.3125" stroke-linejoin="round" stroke-miterlimit="10" fill="none" fill-rule="evenodd"/><path d="M1081 975 1236.9 975" stroke="#77933C" stroke-width="10.3125" stroke-linejoin="round" stroke-miterlimit="10" fill="none" fill-rule="evenodd"/><path d="M1207 1001 1362.9 1001" stroke="#77933C" stroke-width="10.3125" stroke-linejoin="round" stroke-miterlimit="10" fill="none" fill-rule="evenodd"/><path d="M1081 1027 1236.9 1027" stroke="#77933C" stroke-width="10.3125" stroke-linejoin="round" stroke-miterlimit="10" fill="none" fill-rule="evenodd"/><path d="M1259 1027 1388.92 1027" stroke="#77933C" stroke-width="10.3125" stroke-linejoin="round" stroke-miterlimit="10" fill="none" fill-rule="evenodd"/><path d="M1259 975 1388.92 975" stroke="#77933C" stroke-width="10.3125" stroke-linejoin="round" stroke-miterlimit="10" fill="none" fill-rule="evenodd"/><path d="M1026 924 1181.9 924" stroke="#77933C" stroke-width="10.3125" stroke-linejoin="round" stroke-miterlimit="10" fill="none" fill-rule="evenodd"/><path d="M1081 898 1236.9 898" stroke="#77933C" stroke-width="10.3125" stroke-linejoin="round" stroke-miterlimit="10" fill="none" fill-rule="evenodd"/><path d="M1207 924 1362.9 924" stroke="#77933C" stroke-width="10.3125" stroke-linejoin="round" stroke-miterlimit="10" fill="none" fill-rule="evenodd"/><path d="M1081 949 1236.9 949" stroke="#77933C" stroke-width="10.3125" stroke-linejoin="round" stroke-miterlimit="10" fill="none" fill-rule="evenodd"/><path d="M1259 949 1388.92 949" stroke="#77933C" stroke-width="10.3125" stroke-linejoin="round" stroke-miterlimit="10" fill="none" fill-rule="evenodd"/><path d="M1259 898 1388.92 898" stroke="#77933C" stroke-width="10.3125" stroke-linejoin="round" stroke-miterlimit="10" fill="none" fill-rule="evenodd"/><rect x="1536" y="729" width="903" height="682" fill="#FFFFFF"/><text font-family="Times New Roman,Times New Roman_MSFontService,sans-serif" font-weight="400" font-size="50" transform="matrix(1 0 0 1 1569.13 795)">Counting<tspan font-size="50" x="212.415" y="0">the</tspan><tspan font-size="50" x="298.742" y="0">reads</tspan><tspan font-size="50" x="429.848" y="0">of</tspan><tspan font-size="50" x="496.604" y="0">two</tspan><tspan font-size="50" x="596.979" y="0">exons</tspan><tspan font-size="50" x="739.338" y="0">from</tspan><tspan font-size="50" x="0" y="67">different</tspan><tspan font-size="50" x="197.404" y="67">genes</tspan><tspan font-size="50" x="336.027" y="67">in</tspan><tspan font-size="50" x="399.094" y="67">the</tspan><tspan font-size="50" x="484.527" y="67">same</tspan><tspan font-size="50" x="611.944" y="67">sample</tspan><tspan font-size="50" x="778.571" y="67">we</tspan><tspan font-size="50" x="0" y="133">find</tspan><tspan font-size="50" x="96.2959" y="133">that</tspan><tspan font-size="50" x="186.954" y="133">exon</tspan><tspan font-size="50" x="300.025" y="133">3</tspan><tspan font-size="50" x="340.313" y="133">has</tspan><tspan font-size="50" x="422.583" y="133">twice</tspan><tspan font-size="50" x="546.815" y="133">as</tspan><tspan font-size="50" x="603.9" y="133">many</tspan><tspan font-size="50" x="730.996" y="133">reads</tspan><tspan font-size="50" x="0" y="200">mapping</tspan><tspan font-size="50" x="198.229" y="200">to</tspan><tspan font-size="50" x="259.256" y="200">it</tspan><tspan font-size="50" x="309.077" y="200">than</tspan><tspan font-size="50" x="417.679" y="200">exon</tspan><tspan font-size="50" x="537.488" y="200">2</tspan><tspan font-size="50" x="562.696" y="200">.</tspan><tspan font-size="50" x="597.117" y="200">That</tspan><tspan font-size="50" x="711.311" y="200">would</tspan><tspan font-size="50" x="0" y="267">then</tspan><tspan font-size="50" x="102.002" y="267">suggest</tspan><tspan font-size="50" x="268.446" y="267">that</tspan><tspan font-size="50" x="359.242" y="267">the</tspan><tspan font-size="50" x="436.058" y="267">transcript</tspan><tspan font-size="50" x="641.667" y="267">of</tspan><tspan font-size="50" x="698.913" y="267">exon</tspan><tspan font-size="50" x="812.144" y="267">3</tspan><tspan font-size="50" x="0" y="333">is</tspan><tspan font-size="50" x="52.4563" y="333">twice</tspan><tspan font-size="50" x="180.446" y="333">as</tspan><tspan font-size="50" x="241.267" y="333">abundant</tspan><tspan font-size="50" x="444.881" y="333">as</tspan><tspan font-size="50" x="505.702" y="333">the</tspan><tspan font-size="50" x="586.117" y="333">transcript</tspan><tspan font-size="50" x="795.346" y="333">of</tspan><tspan font-size="50" x="0" y="400">exon</tspan><tspan font-size="50" x="112.475" y="400">2</tspan><tspan font-size="50" x="137.683" y="400">.</tspan><tspan font-size="50" x="164.771" y="400">This</tspan><tspan font-size="50" x="268.881" y="400">is</tspan><tspan font-size="50" x="316.983" y="400">only</tspan><tspan font-size="50" x="421.094" y="400">the</tspan><tspan font-size="50" x="497.154" y="400">case</tspan><tspan font-size="50" x="598.354" y="400">if</tspan><tspan font-size="50" x="643.66" y="400">the</tspan><tspan font-size="50" x="719.744" y="400">exons</tspan><tspan font-size="50" x="0" y="466">are</tspan><tspan font-size="50" x="102.506" y="466">comparable</tspan><tspan font-size="50" x="378.583" y="466">in</tspan><tspan font-size="50" x="458.769" y="466">size</tspan><tspan font-size="50" x="578.073" y="466">(see</tspan><tspan font-size="50" x="700.173" y="466">further</tspan><tspan font-size="50" x="0" y="533">below)</tspan><tspan font-size="50" x="139.998" y="533">.</tspan></text><rect x="409.5" y="1573.5" width="364" height="64.0002" stroke="#77933C" stroke-width="9.16667" stroke-linejoin="round" stroke-miterlimit="10" fill="#D7E4BD"/><text fill="#4F6228" font-family="Times New Roman,Times New Roman_MSFontService,sans-serif" font-weight="400" font-size="50" transform="matrix(1 0 0 1 518.955 1623)">Exon 1</text><path d="M305 1605 408.936 1605" stroke="#77933C" stroke-width="10.3125" stroke-linejoin="round" stroke-miterlimit="10" fill="none" fill-rule="evenodd"/><path d="M773 1605 876.936 1605" stroke="#77933C" stroke-width="10.3125" stroke-linejoin="round" stroke-miterlimit="10" fill="none" fill-rule="evenodd"/><path d="M409 1521 564.904 1521" stroke="#77933C" stroke-width="10.3125" stroke-linejoin="round" stroke-miterlimit="10" fill="none" fill-rule="evenodd"/><path d="M464 1495 619.904 1495" stroke="#77933C" stroke-width="10.3125" stroke-linejoin="round" stroke-miterlimit="10" fill="none" fill-rule="evenodd"/><path d="M591 1521 746.904 1521" stroke="#77933C" stroke-width="10.3125" stroke-linejoin="round" stroke-miterlimit="10" fill="none" fill-rule="evenodd"/><path d="M464 1547 619.904 1547" stroke="#77933C" stroke-width="10.3125" stroke-linejoin="round" stroke-miterlimit="10" fill="none" fill-rule="evenodd"/><path d="M643 1547 772.92 1547" stroke="#77933C" stroke-width="10.3125" stroke-linejoin="round" stroke-miterlimit="10" fill="none" fill-rule="evenodd"/><path d="M643 1495 772.92 1495" stroke="#77933C" stroke-width="10.3125" stroke-linejoin="round" stroke-miterlimit="10" fill="none" fill-rule="evenodd"/><rect x="1026.5" y="1573.5" width="363" height="64.0002" stroke="#77933C" stroke-width="9.16667" stroke-linejoin="round" stroke-miterlimit="10" fill="#D7E4BD"/><text fill="#4F6228" font-family="Times New Roman,Times New Roman_MSFontService,sans-serif" font-weight="400" font-size="50" transform="matrix(1 0 0 1 1135.29 1623)">Exon 1</text><path d="M922 1605 1025.94 1605" stroke="#77933C" stroke-width="10.3125" stroke-linejoin="round" stroke-miterlimit="10" fill="none" fill-rule="evenodd"/><path d="M1389 1605 1492.94 1605" stroke="#77933C" stroke-width="10.3125" stroke-linejoin="round" stroke-miterlimit="10" fill="none" fill-rule="evenodd"/><path d="M1026 1521 1181.9 1521" stroke="#77933C" stroke-width="10.3125" stroke-linejoin="round" stroke-miterlimit="10" fill="none" fill-rule="evenodd"/><path d="M1081 1495 1236.9 1495" stroke="#77933C" stroke-width="10.3125" stroke-linejoin="round" stroke-miterlimit="10" fill="none" fill-rule="evenodd"/><path d="M1207 1521 1362.9 1521" stroke="#77933C" stroke-width="10.3125" stroke-linejoin="round" stroke-miterlimit="10" fill="none" fill-rule="evenodd"/><path d="M1081 1547 1236.9 1547" stroke="#77933C" stroke-width="10.3125" stroke-linejoin="round" stroke-miterlimit="10" fill="none" fill-rule="evenodd"/><path d="M1259 1547 1388.92 1547" stroke="#77933C" stroke-width="10.3125" stroke-linejoin="round" stroke-miterlimit="10" fill="none" fill-rule="evenodd"/><path d="M1259 1495 1388.92 1495" stroke="#77933C" stroke-width="10.3125" stroke-linejoin="round" stroke-miterlimit="10" fill="none" fill-rule="evenodd"/><rect x="1536.5" y="1347.5" width="898" height="482" stroke="#FFFFFF" stroke-width="3.4375" stroke-miterlimit="8" fill="#FFFFFF"/><text font-family="Times New Roman,Times New Roman_MSFontService,sans-serif" font-weight="400" font-size="50" transform="matrix(1 0 0 1 1569.4 1413)">If<tspan font-size="50" x="49.2937" y="0">we</tspan><tspan font-size="50" x="123.773" y="0">count</tspan><tspan font-size="50" x="251.465" y="0">the</tspan><tspan font-size="50" x="328.74" y="0">reads</tspan><tspan font-size="50" x="450.794" y="0">of</tspan><tspan font-size="50" x="508.498" y="0">two</tspan><tspan font-size="50" x="599.821" y="0">exons</tspan><tspan font-size="50" x="733.15" y="0">from</tspan><tspan font-size="50" x="0" y="67">the</tspan><tspan font-size="50" x="78.1" y="67">same</tspan><tspan font-size="50" x="198.183" y="67">gene,</tspan><tspan font-size="50" x="322.46" y="67">but</tspan><tspan font-size="50" x="403.402" y="67">different</tspan><tspan font-size="50" x="593.473" y="67">samples</tspan><tspan font-size="50" x="772.383" y="67">we</tspan><tspan font-size="50" x="0" y="133">find</tspan><tspan font-size="50" x="115.706" y="133">that</tspan><tspan font-size="50" x="225.775" y="133">both</tspan><tspan font-size="50" x="349.869" y="133">exons</tspan><tspan font-size="50" x="501.944" y="133">have</tspan><tspan font-size="50" x="631.56" y="133">the</tspan><tspan font-size="50" x="727.604" y="133">same</tspan><tspan font-size="50" x="0" y="200">number</tspan><tspan font-size="50" x="169.858" y="200">of</tspan><tspan font-size="50" x="227.723" y="200">reads</tspan><tspan font-size="50" x="349.938" y="200">mapping</tspan><tspan font-size="50" x="526.35" y="200">.</tspan><tspan font-size="50" x="554.813" y="200">This</tspan><tspan font-size="50" x="660.321" y="200">suggests</tspan><tspan font-size="50" x="0" y="267">that</tspan><tspan font-size="50" x="93.9812" y="267">the</tspan><tspan font-size="50" x="173.983" y="267">transcript</tspan><tspan font-size="50" x="382.777" y="267">was</tspan><tspan font-size="50" x="479.6" y="267">equally</tspan><tspan font-size="50" x="646.388" y="267">abundant</tspan><tspan font-size="50" x="0" y="333">in</tspan><tspan font-size="50" x="51.8146" y="333">both</tspan><tspan font-size="50" x="154.046" y="333">samples</tspan><tspan font-size="50" x="316.433" y="333">.</tspan></text><rect x="536.5" y="2059.5" width="363" height="65" stroke="#77933C" stroke-width="9.16667" stroke-linejoin="round" stroke-miterlimit="10" fill="#D7E4BD"/><text fill="#4F6228" font-family="Times New Roman,Times New Roman_MSFontService,sans-serif" font-weight="400" font-size="50" transform="matrix(1 0 0 1 645.46 2109)">Exon 1</text><path d="M899 2091 1002.94 2091" stroke="#77933C" stroke-width="10.3125" stroke-linejoin="round" stroke-miterlimit="10" fill="none" fill-rule="evenodd"/><path d="M0 0 103.938 0.000360892" stroke="#77933C" stroke-width="10.3125" stroke-linejoin="round" stroke-miterlimit="10" fill="none" fill-rule="evenodd" transform="matrix(-1 0 0 1 535.939 2091)"/><path d="M536 2007 691.908 2007" stroke="#77933C" stroke-width="10.3125" stroke-linejoin="round" stroke-miterlimit="10" fill="none" fill-rule="evenodd"/><path d="M591 1981 746.908 1981" stroke="#77933C" stroke-width="10.3125" stroke-linejoin="round" stroke-miterlimit="10" fill="none" fill-rule="evenodd"/><path d="M718 2007 873.908 2007" stroke="#77933C" stroke-width="10.3125" stroke-linejoin="round" stroke-miterlimit="10" fill="none" fill-rule="evenodd"/><path d="M591 2033 746.908 2033" stroke="#77933C" stroke-width="10.3125" stroke-linejoin="round" stroke-miterlimit="10" fill="none" fill-rule="evenodd"/><path d="M770 2033 899.923 2033" stroke="#77933C" stroke-width="10.3125" stroke-linejoin="round" stroke-miterlimit="10" fill="none" fill-rule="evenodd"/><path d="M770 1981 899.923 1981" stroke="#77933C" stroke-width="10.3125" stroke-linejoin="round" stroke-miterlimit="10" fill="none" fill-rule="evenodd"/><rect x="536.5" y="2337.5" width="363" height="65" stroke="#77933C" stroke-width="9.16667" stroke-linejoin="round" stroke-miterlimit="10" fill="#D7E4BD"/><text fill="#4F6228" font-family="Times New Roman,Times New Roman_MSFontService,sans-serif" font-weight="400" font-size="50" transform="matrix(1 0 0 1 645.46 2387)">Exon 1</text><path d="M899 2369 1002.94 2369" stroke="#77933C" stroke-width="10.3125" stroke-linejoin="round" stroke-miterlimit="10" fill="none" fill-rule="evenodd"/><path d="M0 0 103.938 0.000360892" stroke="#77933C" stroke-width="10.3125" stroke-linejoin="round" stroke-miterlimit="10" fill="none" fill-rule="evenodd" transform="matrix(-1 0 0 1 535.939 2369)"/><path d="M536 2285 691.908 2285" stroke="#77933C" stroke-width="10.3125" stroke-linejoin="round" stroke-miterlimit="10" fill="none" fill-rule="evenodd"/><path d="M591 2259 746.908 2259" stroke="#77933C" stroke-width="10.3125" stroke-linejoin="round" stroke-miterlimit="10" fill="none" fill-rule="evenodd"/><path d="M718 2285 873.908 2285" stroke="#77933C" stroke-width="10.3125" stroke-linejoin="round" stroke-miterlimit="10" fill="none" fill-rule="evenodd"/><path d="M591 2311 746.908 2311" stroke="#77933C" stroke-width="10.3125" stroke-linejoin="round" stroke-miterlimit="10" fill="none" fill-rule="evenodd"/><path d="M770 2311 899.923 2311" stroke="#77933C" stroke-width="10.3125" stroke-linejoin="round" stroke-miterlimit="10" fill="none" fill-rule="evenodd"/><path d="M770 2259 899.923 2259" stroke="#77933C" stroke-width="10.3125" stroke-linejoin="round" stroke-miterlimit="10" fill="none" fill-rule="evenodd"/><path d="M1127.5 2052.5C1127.5 1998.93 1171.15 1955.5 1225 1955.5 1278.85 1955.5 1322.5 1998.93 1322.5 2052.5 1322.5 2106.07 1278.85 2149.5 1225 2149.5 1171.15 2149.5 1127.5 2106.07 1127.5 2052.5Z" stroke="#77933C" stroke-width="9.16667" stroke-linejoin="round" stroke-miterlimit="10" fill="#D7E4BD" fill-rule="evenodd"/><text fill="#4F6228" font-family="Times New Roman,Times New Roman_MSFontService,sans-serif" font-weight="400" font-size="50" transform="matrix(1 0 0 1 1165.45 2041)">5x10<tspan font-size="34" x="100.833" y="-15">6</tspan><tspan font-size="50" x="5.6604" y="58">reads</tspan></text><path d="M1081.5 2331C1081.5 2252.3 1145.52 2188.5 1224.5 2188.5 1303.48 2188.5 1367.5 2252.3 1367.5 2331 1367.5 2409.7 1303.48 2473.5 1224.5 2473.5 1145.52 2473.5 1081.5 2409.7 1081.5 2331Z" stroke="#77933C" stroke-width="9.16667" stroke-linejoin="round" stroke-miterlimit="10" fill="#D7E4BD" fill-rule="evenodd"/><text fill="#4F6228" font-family="Times New Roman,Times New Roman_MSFontService,sans-serif" font-weight="400" font-size="50" transform="matrix(1 0 0 1 1152.85 2320)">30x10<tspan font-size="34" x="126.042" y="-15">6</tspan><tspan font-size="50" x="18.2645" y="58">reads</tspan></text><rect x="1536" y="1799" width="903" height="815" fill="#FFFFFF"/><text font-family="Times New Roman,Times New Roman_MSFontService,sans-serif" font-weight="400" font-size="50" transform="matrix(1 0 0 1 1569.06 1865)">What<tspan font-size="50" x="138.738" y="0">now</tspan><tspan font-size="50" x="255.131" y="0">if</tspan><tspan font-size="50" x="315.494" y="0">the</tspan><tspan font-size="50" x="406.633" y="0">one</tspan><tspan font-size="50" x="508.979" y="0">sample</tspan><tspan font-size="50" x="681.312" y="0">has</tspan><tspan font-size="50" x="778.067" y="0">six</tspan><tspan font-size="50" x="0" y="67">times</tspan><tspan font-size="50" x="143.71" y="67">more</tspan><tspan font-size="50" x="281.806" y="67">reads</tspan><tspan font-size="50" x="422.675" y="67">than</tspan><tspan font-size="50" x="543.973" y="67">the</tspan><tspan font-size="50" x="640.04" y="67">other?</tspan><tspan font-size="50" x="800.479" y="67">A</tspan><tspan font-size="50" x="0" y="133">single</tspan><tspan font-size="50" x="137.156" y="133">read</tspan><tspan font-size="50" x="240.671" y="133">in</tspan><tspan font-size="50" x="296.656" y="133">the</tspan><tspan font-size="50" x="375.008" y="133">first</tspan><tspan font-size="50" x="473" y="133">sample</tspan><tspan font-size="50" x="632.546" y="133">represents</tspan><tspan font-size="50" x="0" y="200">a</tspan><tspan font-size="50" x="35.9334" y="200">larger</tspan><tspan font-size="50" x="167.04" y="200">proportion</tspan><tspan font-size="50" x="393.456" y="200">of</tspan><tspan font-size="50" x="449.029" y="200">the</tspan><tspan font-size="50" x="524.173" y="200">total</tspan><tspan font-size="50" x="627.321" y="200">number</tspan><tspan font-size="50" x="794.888" y="200">of</tspan><tspan font-size="50" x="0" y="267">reads</tspan><tspan font-size="50" x="125.308" y="267">than</tspan><tspan font-size="50" x="231.046" y="267">in</tspan><tspan font-size="50" x="289.231" y="267">the</tspan><tspan font-size="50" x="369.783" y="267">second</tspan><tspan font-size="50" x="528.733" y="267">sample</tspan><tspan font-size="50" x="671.504" y="267">.</tspan><tspan font-size="50" x="703.083" y="267">So</tspan><tspan font-size="50" x="775.317" y="267">the</tspan><tspan font-size="50" x="0" y="333">abundance</tspan><tspan font-size="50" x="229.946" y="333">of</tspan><tspan font-size="50" x="286.39" y="333">the</tspan><tspan font-size="50" x="362.404" y="333">transcript</tspan><tspan font-size="50" x="567.21" y="333">in</tspan><tspan font-size="50" x="620.881" y="333">the</tspan><tspan font-size="50" x="696.919" y="333">second</tspan><tspan font-size="50" x="0" y="400">sample</tspan><tspan font-size="50" x="160.119" y="400">is</tspan><tspan font-size="50" x="211.085" y="400">lower</tspan><tspan font-size="50" x="343.246" y="400">than</tspan><tspan font-size="50" x="447.402" y="400">in</tspan><tspan font-size="50" x="503.983" y="400">the</tspan><tspan font-size="50" x="582.931" y="400">first,</tspan><tspan font-size="50" x="694.123" y="400">despite</tspan><tspan font-size="50" x="0" y="466">the</tspan><tspan font-size="50" x="79.9791" y="466">same</tspan><tspan font-size="50" x="201.942" y="466">number</tspan><tspan font-size="50" x="374.344" y="466">of</tspan><tspan font-size="50" x="434.752" y="466">reads</tspan><tspan font-size="50" x="559.51" y="466">mapping</tspan><tspan font-size="50" x="735.923" y="466">.</tspan><tspan font-size="50" x="766.952" y="466">We</tspan><tspan font-size="50" x="0" y="533">need</tspan><tspan font-size="50" x="117.035" y="533">to</tspan><tspan font-size="50" x="178.131" y="533">normalise</tspan><tspan font-size="50" x="398.819" y="533">the</tspan><tspan font-size="50" x="482.304" y="533">reads</tspan><tspan font-size="50" x="610.569" y="533">taking</tspan><tspan font-size="50" x="758.473" y="533">into</tspan><tspan font-size="50" x="0" y="600">account</tspan><tspan font-size="50" x="180.308" y="600">the</tspan><tspan font-size="50" x="265.467" y="600">total</tspan><tspan font-size="50" x="378.629" y="600">number</tspan><tspan font-size="50" x="556.21" y="600">of</tspan><tspan font-size="50" x="621.798" y="600">reads</tspan><tspan font-size="50" x="751.736" y="600">in</tspan><tspan font-size="50" x="814.527" y="600">a</tspan><tspan font-size="50" x="0" y="667">sample</tspan><tspan font-size="50" x="142.771" y="667">:</tspan><tspan font-size="50" x="169.377" y="667">CPM</tspan><tspan font-size="50" x="275.871" y="667">.</tspan></text></g></svg>