<?xml version="1.0" encoding="UTF-8" standalone="no"?>
<svg
   width="1066.8774"
   height="379.50217"
   xml:space="preserve"
   overflow="hidden"
   version="1.1"
   id="svg135"
   sodipodi:docname="Fig 12 Picture9.svg"
   inkscape:version="1.1.2 (0a00cf5339, 2022-02-04)"
   xmlns:inkscape="http://www.inkscape.org/namespaces/inkscape"
   xmlns:sodipodi="http://sodipodi.sourceforge.net/DTD/sodipodi-0.dtd"
   xmlns="http://www.w3.org/2000/svg"
   xmlns:svg="http://www.w3.org/2000/svg"><sodipodi:namedview
     id="namedview137"
     pagecolor="#ffffff"
     bordercolor="#666666"
     borderopacity="1.0"
     inkscape:pageshadow="2"
     inkscape:pageopacity="0.0"
     inkscape:pagecheckerboard="0"
     showgrid="false"
     fit-margin-top="0"
     fit-margin-left="0"
     fit-margin-right="0"
     fit-margin-bottom="0"
     inkscape:zoom="0.59756098"
     inkscape:cx="662.69388"
     inkscape:cy="26.77551"
     inkscape:window-width="1920"
     inkscape:window-height="997"
     inkscape:window-x="938"
     inkscape:window-y="1080"
     inkscape:window-maximized="1"
     inkscape:current-layer="g133" /><defs
     id="defs5"><clipPath
       id="clip0"><rect
         x="1364"
         y="1010"
         width="1189"
         height="491"
         id="rect2" /></clipPath></defs><g
     clip-path="url(#clip0)"
     transform="translate(-1386.7573,-1010.061)"
     id="g133"><rect
       x="1388"
       y="1423"
       width="1165"
       height="78"
       fill="#ffffff"
       id="rect7" /><path
       d="M 0,15.6598 C 0,7.01112 7.01114,0 15.6598,0 h 3.5686 c 8.6487,0 15.6598,7.01112 15.6598,15.6598 V 212.944 c 0,8.649 -7.0111,15.66 -15.6598,15.66 H 15.6598 C 7.01114,228.604 0,221.593 0,212.944 Z"
       stroke="#558ed5"
       stroke-width="9.16667"
       stroke-linejoin="round"
       stroke-miterlimit="10"
       fill="#558ed5"
       fill-rule="evenodd"
       transform="matrix(0.981151,0.193244,0.193244,-0.981151,2297.6,1380.97)"
       id="path17" /><path
       d="m 1539.83,1360.1 c 1.67,8.49 -3.85,16.73 -12.34,18.4 l -3.51,0.69 c -8.49,1.67 -16.73,-3.86 -18.4,-12.35 l -38.12,-193.54 c -1.67,-8.49 3.85,-16.73 12.35,-18.4 l 3.5,-0.69 c 8.49,-1.68 16.73,3.85 18.4,12.34 z"
       stroke="#376092"
       stroke-width="9.16667"
       stroke-linejoin="round"
       stroke-miterlimit="10"
       fill="#376092"
       fill-rule="evenodd"
       id="path19" /><path
       d="m 1506.05,1140.34 c -1.82,8.46 -10.15,13.85 -18.61,12.04 l -3.49,-0.75 c -8.46,-1.81 -13.85,-10.14 -12.04,-18.61 l 21.26,-99.25 c 1.81,-8.46 10.14,-13.86 18.61,-12.04 l 3.49,0.75 c 8.46,1.81 13.85,10.14 12.04,18.6 z"
       stroke="#376092"
       stroke-width="9.16667"
       stroke-linejoin="round"
       stroke-miterlimit="10"
       fill="#376092"
       fill-rule="evenodd"
       id="path21" /><path
       d="m 1425.57,1365.8 c -2.27,8.35 -10.89,13.27 -19.24,11 l -3.44,-0.94 c -8.35,-2.28 -13.28,-10.89 -11,-19.24 l 51.86,-190.33 c 2.28,-8.35 10.89,-13.27 19.24,-10.99 l 3.44,0.93 c 8.35,2.28 13.28,10.89 11,19.24 z"
       stroke="#376092"
       stroke-width="9.16667"
       stroke-linejoin="round"
       stroke-miterlimit="10"
       fill="#376092"
       fill-rule="evenodd"
       id="path23" /><path
       d="m 1472.16,1132.05 c 1.66,8.5 -3.87,16.73 -12.36,18.39 l -3.51,0.69 c -8.49,1.66 -16.72,-3.87 -18.39,-12.36 l -19.51,-99.62 c -1.67,-8.49 3.87,-16.72 12.36,-18.39 l 3.5,-0.69 c 8.5,-1.66 16.73,3.88 18.39,12.37 z"
       stroke="#376092"
       stroke-width="9.16667"
       stroke-linejoin="round"
       stroke-miterlimit="10"
       fill="#376092"
       fill-rule="evenodd"
       id="path25" /><path
       d="m 1443.5,1157 c 0,-6.9 12.76,-12.5 28.5,-12.5 15.74,0 28.5,5.6 28.5,12.5 0,6.9 -12.76,12.5 -28.5,12.5 -15.74,0 -28.5,-5.6 -28.5,-12.5 z"
       stroke="#ffc000"
       stroke-width="9.16667"
       stroke-linejoin="round"
       stroke-miterlimit="10"
       fill="#ffc000"
       fill-rule="evenodd"
       id="path27" /><path
       d="M 0,0 38.1395,12.7002"
       stroke="#ffc000"
       stroke-width="10.3125"
       stroke-linejoin="round"
       stroke-miterlimit="10"
       fill="none"
       fill-rule="evenodd"
       transform="matrix(1,0,0,-1,1478,1239.7)"
       id="path29" /><path
       d="M 0,0 38.1395,12.7002"
       stroke="#ffc000"
       stroke-width="10.3125"
       stroke-linejoin="round"
       stroke-miterlimit="10"
       fill="none"
       fill-rule="evenodd"
       transform="matrix(1,0,0,-1,1486,1277.7)"
       id="path31" /><path
       d="M 0,0 38.1395,12.7002"
       stroke="#ffc000"
       stroke-width="10.3125"
       stroke-linejoin="round"
       stroke-miterlimit="10"
       fill="none"
       fill-rule="evenodd"
       transform="matrix(1,0,0,-1,1500,1355.7)"
       id="path33" /><path
       d="M 0,0 38.1395,12.7002"
       stroke="#ffc000"
       stroke-width="10.3125"
       stroke-linejoin="round"
       stroke-miterlimit="10"
       fill="none"
       fill-rule="evenodd"
       transform="matrix(1,0,0,-1,1494,1331.7)"
       id="path35" /><path
       d="M 0,15.6598 C 0,7.01111 7.01114,0 15.6598,0 h 3.5686 c 8.6487,0 15.6598,7.01111 15.6598,15.6598 V 212.944 c 0,8.649 -7.0111,15.66 -15.6598,15.66 H 15.6598 C 7.01114,228.604 0,221.593 0,212.944 Z"
       stroke="#558ed5"
       stroke-width="9.16667"
       stroke-linejoin="round"
       stroke-miterlimit="10"
       fill="#558ed5"
       fill-rule="evenodd"
       transform="matrix(0.981151,0.193244,0.193244,-0.981151,1560.15,1375.53)"
       id="path37" /><path
       d="M 0,15.6599 C 0,7.01117 7.01119,0 15.6599,0 h 3.5685 c 8.6487,0 15.6599,7.01117 15.6599,15.6599 V 117.188 c 0,8.649 -7.0112,15.66 -15.6599,15.66 H 15.6599 C 7.01119,132.848 0,125.837 0,117.188 Z"
       stroke="#558ed5"
       stroke-width="9.16667"
       stroke-linejoin="round"
       stroke-miterlimit="10"
       fill="#558ed5"
       fill-rule="evenodd"
       transform="matrix(0.977817,-0.20946,-0.20946,-0.977817,1600.24,1155.71)"
       id="path39" /><path
       d="M 0,15.6598 C 0,7.01111 7.01114,0 15.6598,0 h 3.5686 c 8.6487,0 15.6598,7.01111 15.6598,15.6598 V 212.944 c 0,8.649 -7.0111,15.66 -15.6598,15.66 H 15.6598 C 7.01114,228.604 0,221.593 0,212.944 Z"
       stroke="#558ed5"
       stroke-width="9.16667"
       stroke-linejoin="round"
       stroke-miterlimit="10"
       fill="#558ed5"
       fill-rule="evenodd"
       transform="matrix(0.964822,-0.262904,-0.262904,-0.964822,1681.52,1380.97)"
       id="path41" /><path
       d="M 0,15.6599 C 0,7.01117 7.01119,0 15.6599,0 h 3.5685 c 8.6487,0 15.6599,7.01117 15.6599,15.6599 V 117.188 c 0,8.649 -7.0112,15.66 -15.6599,15.66 H 15.6599 C 7.01119,132.848 0,125.837 0,117.188 Z"
       stroke="#558ed5"
       stroke-width="9.16667"
       stroke-linejoin="round"
       stroke-miterlimit="10"
       fill="#558ed5"
       fill-rule="evenodd"
       transform="matrix(0.981343,0.192265,0.192265,-0.981343,1627.8,1147.49)"
       id="path43" /><path
       d="M 0,12.5 C 0,5.59646 12.7599,0 28.5,0 44.2402,0 57.0001,5.59646 57.0001,12.5 57.0001,19.4036 44.2402,25.0001 28.5,25.0001 12.7599,25.0001 0,19.4036 0,12.5 Z"
       stroke="#e46c0a"
       stroke-width="9.16667"
       stroke-linejoin="round"
       stroke-miterlimit="10"
       fill="#e46c0a"
       fill-rule="evenodd"
       transform="matrix(-1,0,0,1,1660.5,1144.5)"
       id="path45" /><path
       d="M 1625.12,1239.7 1587,1227"
       stroke="#e46c0a"
       stroke-width="10.3125"
       stroke-linejoin="round"
       stroke-miterlimit="10"
       fill="none"
       fill-rule="evenodd"
       id="path47" /><path
       d="M 1617.12,1277.7 1579,1265"
       stroke="#e46c0a"
       stroke-width="10.3125"
       stroke-linejoin="round"
       stroke-miterlimit="10"
       fill="none"
       fill-rule="evenodd"
       id="path49" /><path
       d="M 1603.12,1355.7 1565,1343"
       stroke="#e46c0a"
       stroke-width="10.3125"
       stroke-linejoin="round"
       stroke-miterlimit="10"
       fill="none"
       fill-rule="evenodd"
       id="path51" /><path
       d="M 1609.12,1331.7 1571,1319"
       stroke="#e46c0a"
       stroke-width="10.3125"
       stroke-linejoin="round"
       stroke-miterlimit="10"
       fill="none"
       fill-rule="evenodd"
       id="path53" /><path
       d="m 1938.62,1349.26 c 2.42,8.31 -2.34,17.01 -10.65,19.43 l -3.43,1 c -8.3,2.43 -17.01,-2.34 -19.43,-10.64 l -55.31,-189.36 c -2.42,-8.31 2.35,-17.01 10.65,-19.43 l 3.43,-1 c 8.31,-2.43 17.01,2.34 19.43,10.64 z"
       stroke="#376092"
       stroke-width="9.16667"
       stroke-linejoin="round"
       stroke-miterlimit="10"
       fill="#376092"
       fill-rule="evenodd"
       id="path55" /><path
       d="m 1885.28,1133.41 c -1.04,8.59 -8.86,14.7 -17.45,13.65 l -3.54,-0.43 c -8.59,-1.05 -14.71,-8.86 -13.66,-17.45 l 12.29,-100.76 c 1.04,-8.59 8.86,-14.71 17.45,-13.66 l 3.54,0.43 c 8.59,1.05 14.71,8.86 13.66,17.45 z"
       stroke="#376092"
       stroke-width="9.16667"
       stroke-linejoin="round"
       stroke-miterlimit="10"
       fill="#376092"
       fill-rule="evenodd"
       id="path57" /><path
       d="m 1825.33,1365.17 c -1.52,8.52 -9.66,14.2 -18.18,12.68 l -3.51,-0.63 c -8.52,-1.52 -14.2,-9.65 -12.68,-18.17 l 34.6,-194.21 c 1.52,-8.52 9.66,-14.2 18.18,-12.68 l 3.51,0.63 c 8.52,1.52 14.2,9.65 12.68,18.17 z"
       stroke="#376092"
       stroke-width="9.16667"
       stroke-linejoin="round"
       stroke-miterlimit="10"
       fill="#376092"
       fill-rule="evenodd"
       id="path59" /><path
       d="m 1850.79,1128.19 c 2.42,8.31 -2.35,17.01 -10.66,19.43 l -3.43,0.99 c -8.31,2.42 -17.01,-2.35 -19.43,-10.66 l -28.36,-97.47 c -2.42,-8.31 2.36,-17.01 10.67,-19.42 l 3.43,-1 c 8.31,-2.42 17,2.36 19.42,10.67 z"
       stroke="#376092"
       stroke-width="9.16667"
       stroke-linejoin="round"
       stroke-miterlimit="10"
       fill="#376092"
       fill-rule="evenodd"
       id="path61" /><path
       d="m 1823.66,1155 c -0.63,-6.99 11.54,-13.79 27.18,-15.2 15.65,-1.4 28.84,3.12 29.46,10.1 0.63,6.99 -11.54,13.79 -27.18,15.2 -15.64,1.41 -28.83,-3.11 -29.46,-10.1 z"
       stroke="#ffc000"
       stroke-width="9.16667"
       stroke-linejoin="round"
       stroke-miterlimit="10"
       fill="#ffc000"
       fill-rule="evenodd"
       id="path63" /><path
       d="M 0,0 38.1395,12.7002"
       stroke="#ffc000"
       stroke-width="10.3125"
       stroke-linejoin="round"
       stroke-miterlimit="10"
       fill="none"
       fill-rule="evenodd"
       transform="matrix(0.99598,-0.0895737,-0.0895737,-0.99598,1866.42,1235.02)"
       id="path65" /><path
       d="M 0,0 38.1395,12.7002"
       stroke="#ffc000"
       stroke-width="10.3125"
       stroke-linejoin="round"
       stroke-miterlimit="10"
       fill="none"
       fill-rule="evenodd"
       transform="matrix(0.99598,-0.0895737,-0.0895737,-0.99598,1877.51,1272.27)"
       id="path67" /><path
       d="M 0,0 38.1395,12.7002"
       stroke="#ffc000"
       stroke-width="10.3125"
       stroke-linejoin="round"
       stroke-miterlimit="10"
       fill="none"
       fill-rule="evenodd"
       transform="matrix(0.99598,-0.0895737,-0.0895737,-0.99598,1898.45,1348.25)"
       id="path69" /><path
       d="M 0,0 38.1395,12.7002"
       stroke="#ffc000"
       stroke-width="10.3125"
       stroke-linejoin="round"
       stroke-miterlimit="10"
       fill="none"
       fill-rule="evenodd"
       transform="matrix(0.99598,-0.0895737,-0.0895737,-0.99598,1890.7,1324.79)"
       id="path71" /><path
       d="M 0,15.6598 C 0,7.01111 7.01114,0 15.6598,0 h 3.5686 c 8.6487,0 15.6598,7.01111 15.6598,15.6598 V 212.944 c 0,8.649 -7.0111,15.66 -15.6598,15.66 H 15.6598 C 7.01114,228.604 0,221.593 0,212.944 Z"
       stroke="#558ed5"
       stroke-width="9.16667"
       stroke-linejoin="round"
       stroke-miterlimit="10"
       fill="#558ed5"
       fill-rule="evenodd"
       transform="matrix(0.950856,0.309632,0.309632,-0.950856,1883.34,1366.48)"
       id="path73" /><path
       d="M 0,15.6599 C 0,7.01117 7.01119,0 15.6599,0 h 3.5685 c 8.6487,0 15.6599,7.01117 15.6599,15.6599 V 117.188 c 0,8.649 -7.0112,15.66 -15.6599,15.66 H 15.6599 C 7.01119,132.848 0,125.837 0,117.188 Z"
       stroke="#558ed5"
       stroke-width="9.16667"
       stroke-linejoin="round"
       stroke-miterlimit="10"
       fill="#558ed5"
       fill-rule="evenodd"
       transform="matrix(0.995891,-0.0905599,-0.0905599,-0.995891,1949.53,1153.06)"
       id="path75" /><path
       d="M 0,15.6598 C 0,7.01111 7.01114,0 15.6598,0 h 3.5686 c 8.6487,0 15.6598,7.01111 15.6598,15.6598 V 212.944 c 0,8.649 -7.0111,15.66 -15.6598,15.66 H 15.6598 C 7.01114,228.604 0,221.593 0,212.944 Z"
       stroke="#558ed5"
       stroke-width="9.16667"
       stroke-linejoin="round"
       stroke-miterlimit="10"
       fill="#558ed5"
       fill-rule="evenodd"
       transform="matrix(0.989406,-0.145177,-0.145177,-0.989406,2003.18,1386.45)"
       id="path77" /><path
       d="M 0,15.6599 C 0,7.01117 7.01119,0 15.6599,0 h 3.5685 c 8.6487,0 15.6599,7.01117 15.6599,15.6599 V 117.188 c 0,8.649 -7.0112,15.66 -15.6599,15.66 H 15.6599 C 7.01119,132.848 0,125.837 0,117.188 Z"
       stroke="#558ed5"
       stroke-width="9.16667"
       stroke-linejoin="round"
       stroke-miterlimit="10"
       fill="#558ed5"
       fill-rule="evenodd"
       transform="matrix(0.951165,0.308683,0.308683,-0.951165,1977.88,1148.21)"
       id="path79" /><path
       d="M 0,12.7002 C 0,5.68606 12.724,0 28.4199,0 c 15.6959,0 28.4199,5.68606 28.4199,12.7002 0,7.0141 -12.724,12.7001 -28.4199,12.7001 C 12.724,25.4003 0,19.7143 0,12.7002 Z"
       stroke="#e46c0a"
       stroke-width="9.16667"
       stroke-linejoin="round"
       stroke-miterlimit="10"
       fill="#e46c0a"
       fill-rule="evenodd"
       transform="matrix(-0.992768,-0.120048,-0.120048,0.992768,2010.53,1148.32)"
       id="path81" /><path
       d="m 1963.83,1239.6 -36.31,-17.19"
       stroke="#e46c0a"
       stroke-width="10.3125"
       stroke-linejoin="round"
       stroke-miterlimit="10"
       fill="none"
       fill-rule="evenodd"
       id="path83" /><path
       d="m 1951.61,1276.5 -36.31,-17.18"
       stroke="#e46c0a"
       stroke-width="10.3125"
       stroke-linejoin="round"
       stroke-miterlimit="10"
       fill="none"
       fill-rule="evenodd"
       id="path85" /><path
       d="m 1928.36,1351.8 -36.32,-17.19"
       stroke="#e46c0a"
       stroke-width="10.3125"
       stroke-linejoin="round"
       stroke-miterlimit="10"
       fill="none"
       fill-rule="evenodd"
       id="path87" /><path
       d="M 1936.82,1328.59 1900.5,1311.4"
       stroke="#e46c0a"
       stroke-width="10.3125"
       stroke-linejoin="round"
       stroke-miterlimit="10"
       fill="none"
       fill-rule="evenodd"
       id="path89" /><path
       d="m 2277.28,1365.54 c 1.67,8.49 -3.86,16.73 -12.35,18.4 l -3.5,0.69 c -8.49,1.67 -16.73,-3.85 -18.4,-12.35 l -38.12,-193.54 c -1.68,-8.49 3.85,-16.73 12.34,-18.4 l 3.51,-0.69 c 8.49,-1.68 16.73,3.85 18.4,12.34 z"
       stroke="#376092"
       stroke-width="9.16667"
       stroke-linejoin="round"
       stroke-miterlimit="10"
       fill="#376092"
       fill-rule="evenodd"
       id="path91" /><path
       d="m 2243.49,1145.78 c -1.81,8.46 -10.14,13.85 -18.6,12.04 l -3.49,-0.75 c -8.47,-1.81 -13.86,-10.14 -12.04,-18.61 l 21.26,-99.25 c 1.81,-8.46 10.14,-13.85 18.6,-12.04 l 3.49,0.75 c 8.47,1.81 13.86,10.14 12.04,18.6 z"
       stroke="#376092"
       stroke-width="9.16667"
       stroke-linejoin="round"
       stroke-miterlimit="10"
       fill="#376092"
       fill-rule="evenodd"
       id="path93" /><path
       d="m 2163.02,1371.24 c -2.28,8.35 -10.89,13.27 -19.24,11 l -3.44,-0.94 c -8.35,-2.28 -13.28,-10.89 -11,-19.24 l 51.86,-190.33 c 2.27,-8.35 10.89,-13.27 19.24,-10.99 l 3.44,0.93 c 8.35,2.28 13.28,10.89 11,19.24 z"
       stroke="#376092"
       stroke-width="9.16667"
       stroke-linejoin="round"
       stroke-miterlimit="10"
       fill="#376092"
       fill-rule="evenodd"
       id="path95" /><path
       d="m 2209.61,1137.49 c 1.66,8.5 -3.87,16.73 -12.37,18.39 l -3.5,0.69 c -8.49,1.66 -16.73,-3.87 -18.39,-12.36 l -19.52,-99.62 c -1.66,-8.49 3.88,-16.72 12.37,-18.39 l 3.5,-0.68 c 8.49,-1.67 16.73,3.87 18.39,12.36 z"
       stroke="#376092"
       stroke-width="9.16667"
       stroke-linejoin="round"
       stroke-miterlimit="10"
       fill="#376092"
       fill-rule="evenodd"
       id="path97" /><path
       d="m 2180.5,1162 c 0,-6.9 12.76,-12.5 28.5,-12.5 15.74,0 28.5,5.6 28.5,12.5 0,6.9 -12.76,12.5 -28.5,12.5 -15.74,0 -28.5,-5.6 -28.5,-12.5 z"
       stroke="#ffc000"
       stroke-width="9.16667"
       stroke-linejoin="round"
       stroke-miterlimit="10"
       fill="#ffc000"
       fill-rule="evenodd"
       id="path99" /><path
       d="M 0,0 38.1395,12.7002"
       stroke="#ffc000"
       stroke-width="10.3125"
       stroke-linejoin="round"
       stroke-miterlimit="10"
       fill="none"
       fill-rule="evenodd"
       transform="matrix(1,0,0,-1,2216,1245.7)"
       id="path101" /><path
       d="M 0,0 38.1395,12.7002"
       stroke="#ffc000"
       stroke-width="10.3125"
       stroke-linejoin="round"
       stroke-miterlimit="10"
       fill="none"
       fill-rule="evenodd"
       transform="matrix(1,0,0,-1,2223,1283.7)"
       id="path103" /><path
       d="m 2262.9,1384.2 v 0 c -9.13,1.78 -17.97,-4.19 -19.75,-13.32 l -12.84,-66.05 33.07,-6.43 12.84,66.05 c 1.78,9.13 -4.19,17.98 -13.32,19.75 z"
       stroke="#558ed5"
       stroke-width="9.16667"
       stroke-linejoin="round"
       stroke-miterlimit="10"
       fill="#558ed5"
       fill-rule="evenodd"
       id="path105" /><path
       d="M 0,0 38.1395,12.7002"
       stroke="#e46c0a"
       stroke-width="10.3125"
       stroke-linejoin="round"
       stroke-miterlimit="10"
       fill="none"
       fill-rule="evenodd"
       transform="matrix(1,0,0,-1,2237,1360.7)"
       id="path107" /><path
       d="M 0,0 38.1395,12.7002"
       stroke="#e46c0a"
       stroke-width="10.3125"
       stroke-linejoin="round"
       stroke-miterlimit="10"
       fill="none"
       fill-rule="evenodd"
       transform="matrix(1,0,0,-1,2232,1336.7)"
       id="path109" /><path
       d="m 2313.31,1384.4 v 0 c -9.43,-2.02 -15.44,-11.3 -13.42,-20.72 l 14.37,-67.09 34.14,7.31 -14.37,67.09 c -2.02,9.42 -11.3,15.43 -20.72,13.41 z"
       stroke="#376092"
       stroke-width="9.16667"
       stroke-linejoin="round"
       stroke-miterlimit="10"
       fill="#376092"
       fill-rule="evenodd"
       id="path111" /><path
       d="M 0,15.6599 C 0,7.01117 7.01119,0 15.6599,0 h 3.5685 c 8.6487,0 15.6599,7.01117 15.6599,15.6599 V 117.188 c 0,8.649 -7.0112,15.66 -15.6599,15.66 H 15.6599 C 7.01119,132.848 0,125.837 0,117.188 Z"
       stroke="#558ed5"
       stroke-width="9.16667"
       stroke-linejoin="round"
       stroke-miterlimit="10"
       fill="#558ed5"
       fill-rule="evenodd"
       transform="matrix(0.977817,-0.20946,-0.20946,-0.977817,2337.69,1161.15)"
       id="path113" /><path
       d="M 0,15.6598 C 0,7.01112 7.01114,0 15.6598,0 h 3.5686 c 8.6487,0 15.6598,7.01112 15.6598,15.6598 V 212.944 c 0,8.649 -7.0111,15.66 -15.6598,15.66 H 15.6598 C 7.01114,228.604 0,221.593 0,212.944 Z"
       stroke="#558ed5"
       stroke-width="9.16667"
       stroke-linejoin="round"
       stroke-miterlimit="10"
       fill="#558ed5"
       fill-rule="evenodd"
       transform="matrix(0.964822,-0.262904,-0.262904,-0.964822,2418.96,1386.41)"
       id="path115" /><path
       d="M 0,15.6599 C 0,7.01117 7.01119,0 15.6599,0 h 3.5685 c 8.6487,0 15.6599,7.01117 15.6599,15.6599 V 117.188 c 0,8.649 -7.0112,15.66 -15.6599,15.66 H 15.6599 C 7.01119,132.848 0,125.837 0,117.188 Z"
       stroke="#558ed5"
       stroke-width="9.16667"
       stroke-linejoin="round"
       stroke-miterlimit="10"
       fill="#558ed5"
       fill-rule="evenodd"
       transform="matrix(0.981343,0.192265,0.192265,-0.981343,2365.25,1152.93)"
       id="path117" /><path
       d="M 0,13.0001 C 0,5.82033 12.7598,0 28.4999,0 c 15.74,0 28.4998,5.82033 28.4998,13.0001 0,7.1797 -12.7598,13 -28.4998,13 C 12.7598,26.0001 0,20.1798 0,13.0001 Z"
       stroke="#e46c0a"
       stroke-width="9.16667"
       stroke-linejoin="round"
       stroke-miterlimit="10"
       fill="#e46c0a"
       fill-rule="evenodd"
       transform="matrix(-1,0,0,1,2398.5,1149.5)"
       id="path119" /><path
       d="M 2362.12,1245.7 2324,1233"
       stroke="#e46c0a"
       stroke-width="10.3125"
       stroke-linejoin="round"
       stroke-miterlimit="10"
       fill="none"
       fill-rule="evenodd"
       id="path121" /><path
       d="M 2354.12,1283.7 2316,1271"
       stroke="#e46c0a"
       stroke-width="10.3125"
       stroke-linejoin="round"
       stroke-miterlimit="10"
       fill="none"
       fill-rule="evenodd"
       id="path123" /><path
       d="M 2340.12,1360.7 2302,1348"
       stroke="#ffc000"
       stroke-width="10.3125"
       stroke-linejoin="round"
       stroke-miterlimit="10"
       fill="none"
       fill-rule="evenodd"
       id="path125" /><path
       d="M 2346.12,1336.7 2308,1324"
       stroke="#ffc000"
       stroke-width="10.3125"
       stroke-linejoin="round"
       stroke-miterlimit="10"
       fill="none"
       fill-rule="evenodd"
       id="path127" /><path
       d="m 1688.5,1175.75 h 85.5 v -7.25 l 14.5,14.5 -14.5,14.5 v -7.25 h -85.5 z"
       stroke="#77933c"
       stroke-width="9.16667"
       stroke-miterlimit="8"
       fill="#c3d69b"
       fill-rule="evenodd"
       id="path129" /><path
       d="m 2045.5,1175.75 h 86.5 v -7.25 l 14.5,14.5 -14.5,14.5 v -7.25 h -86.5 z"
       stroke="#77933c"
       stroke-width="9.16667"
       stroke-miterlimit="8"
       fill="#c3d69b"
       fill-rule="evenodd"
       id="path131" /></g></svg>
