<?xml version="1.0" encoding="UTF-8" standalone="no"?>
<!-- Created with Inkscape (http://www.inkscape.org/) -->

<svg
   version="1.1"
   id="svg11883"
   width="773.33331"
   height="336"
   viewBox="0 0 773.33331 336"
   sodipodi:docname="ancestral-states_alt.svg"
   inkscape:version="1.2.2 (732a01da63, 2022-12-09)"
   inkscape:export-filename="ancestral-states_alt.png"
   inkscape:export-xdpi="250"
   inkscape:export-ydpi="250"
   xmlns:inkscape="http://www.inkscape.org/namespaces/inkscape"
   xmlns:sodipodi="http://sodipodi.sourceforge.net/DTD/sodipodi-0.dtd"
   xmlns="http://www.w3.org/2000/svg"
   xmlns:svg="http://www.w3.org/2000/svg">
  <defs
     id="defs11887" />
  <sodipodi:namedview
     id="namedview11885"
     pagecolor="#ffffff"
     bordercolor="#000000"
     borderopacity="0.25"
     inkscape:showpageshadow="2"
     inkscape:pageopacity="0.0"
     inkscape:pagecheckerboard="0"
     inkscape:deskcolor="#d1d1d1"
     showgrid="false"
     inkscape:zoom="5.5922394"
     inkscape:cx="835.35408"
     inkscape:cy="334.39198"
     inkscape:window-width="958"
     inkscape:window-height="981"
     inkscape:window-x="-8"
     inkscape:window-y="0"
     inkscape:window-maximized="0"
     inkscape:current-layer="g11889" />
  <g
     inkscape:groupmode="layer"
     inkscape:label="Image"
     id="g11889">
    <rect
       style="fill:#ffffff;stroke-width:2.5285;stroke-linecap:square"
       id="rect462"
       width="774.08832"
       height="336.55576"
       x="-0.15866657"
       y="-0.37561071" />
    <path
       style="fill:none;fill-opacity:1;stroke:#000000;stroke-width:5;stroke-linecap:square;stroke-opacity:1;stroke-dasharray:none;stroke-dashoffset:0"
       d="m 220.26596,321.16851 c 0,0 22.68331,-27.27204 33.63419,-41.22084 6.39225,-8.14219 12.17906,-16.75475 18.71375,-24.78308 6.29747,-7.73688 12.51859,-15.60922 19.72531,-22.50709 8.66408,-8.29278 18.78507,-14.91663 28.07064,-22.50708 11.72396,-9.5837 23.03441,-19.67267 34.89862,-29.08219 9.4314,-7.48005 19.40589,-14.2583 28.8293,-21.74842 7.91688,-6.29266 15.08063,-13.53286 23.26575,-19.47242 8.36734,-6.07179 18.10383,-10.13736 26.30041,-16.43776 5.67417,-4.36152 10.28638,-9.96248 15.6791,-14.66754 7.4501,-6.50009 15.14285,-12.728932 23.01286,-18.713751 8.80629,-6.696823 17.95381,-12.935239 27.05908,-19.219533 7.35032,-5.073059 14.58678,-10.340689 22.25419,-14.920427 5.73,-3.422527 12.18709,-5.59788 17.70221,-9.356878 4.59357,-3.130888 8.29098,-7.417211 12.64443,-10.87421 4.5817,-3.638252 9.06293,-7.499491 14.16176,-10.368432 3.26073,-1.834706 10.36843,-4.299106 10.36843,-4.299106"
       id="path12377"
       sodipodi:nodetypes="csssssssssssssssc" />
    <path
       style="fill:none;fill-opacity:1;stroke:#000000;stroke-width:5;stroke-linecap:square;stroke-dasharray:none;stroke-dashoffset:0;stroke-opacity:1"
       d="m 11.632875,17.196424 c 0,0 2.749776,0.308901 4.046218,0.758666 1.887984,0.654984 3.700591,1.598067 5.31066,2.781775 2.305168,1.694739 4.142949,3.953904 6.069326,6.069326 2.579765,2.83293 5.053285,5.772127 7.333769,8.8511 2.824824,3.81391 5.387364,7.822226 7.839547,11.885764 1.988255,3.294758 3.621748,6.793196 5.563549,10.115544 2.5024,4.281511 5.208852,8.440527 7.839546,12.644429 2.009765,3.211645 4.083021,6.38356 6.069326,9.609767 2.319275,3.767025 4.228629,7.800487 6.827992,11.379987 3.019415,4.157941 6.853805,7.662185 10.115544,11.632878 3.317871,4.03902 5.995138,8.61577 9.609767,12.39154 3.5155,3.67222 7.941731,6.36702 11.632875,9.86265 3.117266,2.95215 5.159816,7.16439 8.851096,9.35688 2.54904,1.51404 6.62332,3.49548 9.49232,4.24301 3.28425,0.85572 8.86311,2.32695 12.00848,3.6018 3.14925,1.27642 4.8638,1.19996 7.0629,3.09077 4.5452,3.90798 7.33671,8.23472 10.63404,13.59461 2.37242,3.85643 3.153,8.55884 5.56355,12.39155 1.87903,2.9876 4.44003,5.49354 6.82799,8.09243 2.01646,2.19458 4.39581,4.04817 6.32221,6.32221 1.87486,2.2132 3.82569,4.77652 6.19577,6.44867 2.50723,1.76891 4.89071,1.9572 7.7131,3.1611 4.30871,1.8379 8.42873,4.22094 12.13866,7.08088 3.58778,2.76578 6.18749,6.64165 9.60976,9.60977 3.82091,3.31386 8.34258,5.76171 12.13866,9.10399 2.99773,2.63937 5.43236,5.86558 8.34532,8.59821 3.31416,3.109 7.22648,5.56815 10.36843,8.8511 3.03134,3.16738 5.14633,7.12162 8.09244,10.36843 1.56264,1.72213 3.15402,3.46949 5.05777,4.80489 2.31469,1.62366 5.25137,2.19942 7.58666,3.79332 3.84515,2.62443 9.68668,8.37338 9.68668,8.37338"
       id="path12379"
       sodipodi:nodetypes="cssssssssssssssssssssssssssssssc" />
    <path
       style="fill:none;fill-opacity:1;stroke:#000000;stroke-width:5;stroke-linecap:square;stroke-dasharray:none;stroke-dashoffset:0;stroke-opacity:1"
       d="m 115.15959,24.498236 c 0,0 3.56763,3.23066 5.18576,5.006938 2.57027,2.821474 4.69198,6.023511 7.15277,8.940962 2.77662,3.291902 5.87261,6.309854 8.58332,9.656239 1.77095,2.186242 3.37295,4.504719 5.00694,6.795131 1.76684,2.476623 3.70011,4.855563 5.18576,7.510408 1.36839,2.445295 3.39756,6.97395 3.39756,7.689227 0,0.715277 2.87433,7.794014 4.82812,11.444432 1.78648,3.337813 4.10814,6.361706 6.25868,9.477419 1.79487,2.600413 5.36457,6.97395 5.54339,7.689227 0.17882,0.715277 4.56846,6.132341 7.15277,8.940961 3.11192,3.38203 6.66496,6.3299 10.01388,9.47742 1.78238,1.67519 3.31576,3.67073 5.36458,5.00694 2.28138,1.48789 4.96025,2.26208 7.5104,3.21875 3.98865,1.49632 8.26946,2.19784 12.15971,3.93402 2.7074,1.20828 5.06107,3.09837 7.68923,4.47048 3.38044,1.76486 7.01971,3.00945 10.37151,4.82812 1.97702,1.07273 4.07594,2.04369 5.72222,3.57638 2.59164,2.41282 4.23873,5.67505 6.25867,8.58333 2.40483,3.46244 4.33592,7.26209 6.97395,10.55033 3.05996,3.81416 6.82699,7.00306 10.1927,10.55034 2.46742,2.60053 4.85271,5.27844 7.33159,7.86804 3.4684,3.62332 6.7394,7.46802 10.55033,10.72916 3.34305,2.86076 7.08491,5.2236 10.72916,7.68923 3.39639,2.29793 6.96768,4.3294 10.37151,6.61631 3.51423,2.36108 6.76937,5.10695 10.37152,7.33159 2.47307,1.52734 6.51222,3.74786 6.51222,3.74786"
       id="path12381"
       sodipodi:nodetypes="csssssssssssssssssssssssssc" />
    <path
       style="fill:none;fill-opacity:1;stroke:#000000;stroke-width:5;stroke-linecap:square;stroke-dasharray:none;stroke-dashoffset:0;stroke-opacity:1"
       d="m 177.74632,7.1974743 c 0,0 -2.89224,3.4523427 -4.51518,5.0069387 -2.09431,2.00612 -4.61105,3.537655 -6.70572,5.543396 -1.78322,1.707514 -3.29046,3.681925 -4.96224,5.498692 -2.24152,2.435917 -4.53635,4.822257 -6.79513,7.242179 -2.13687,2.289316 -4.32491,4.532718 -6.39279,6.884541 -1.98427,2.256738 -3.79323,4.663245 -5.76692,6.929245 -1.64196,1.885145 -4.55989,5.096349 -4.55989,5.096349"
       id="path12383"
       sodipodi:nodetypes="cssssssc" />
    <path
       style="fill:none;fill-opacity:1;stroke:#000000;stroke-width:5;stroke-linecap:square;stroke-dasharray:none;stroke-dashoffset:0;stroke-opacity:1"
       d="m 216.34619,22.38064 c 0,0 5.1344,2.208357 7.58666,3.540441 3.14462,1.708181 6.37913,3.370156 9.10399,5.689993 3.07036,2.613976 5.53593,5.886104 7.96599,9.103989 2.66313,3.526524 4.8786,7.371342 7.20732,11.127098 2.22072,3.581577 4.18796,7.31773 6.44866,10.87421 2.73426,4.301486 5.64981,8.486794 8.59821,12.644429 2.09195,2.949927 4.14681,5.935428 6.44866,8.724657 2.25941,2.737797 4.76946,5.259384 7.20733,7.839546 2.78398,2.946475 5.40359,6.075404 8.47177,8.724657 2.67383,2.30874 5.94828,3.85964 8.59821,6.19577 1.90145,1.67628 3.05494,4.18816 5.18421,5.56355 2.42952,1.56933 5.57352,1.61241 8.21888,2.78177 3.65816,1.61706 6.93662,3.99001 10.49488,5.81644 3.15331,1.61857 6.52539,2.80565 9.60977,4.552 3.57053,2.0216 7.13943,4.1429 10.24198,6.82799 2.95637,2.55858 4.81431,6.24788 7.83955,8.72465 3.14334,2.57347 7.02299,4.08643 10.49488,6.19577 2.71859,1.65167 5.51149,3.19835 8.09243,5.05778 2.79353,2.01259 5.45938,4.21475 7.96599,6.5751 1.84544,1.73776 4.67844,5.37388 4.67844,5.37388"
       id="path12385"
       sodipodi:nodetypes="csssssssssssssssssssc" />
    <path
       style="fill:none;fill-opacity:1;stroke:#000000;stroke-width:5;stroke-linecap:square;stroke-dasharray:none;stroke-dashoffset:0;stroke-opacity:1"
       d="m 254.92085,61.239235 c 0,0 1.15315,-7.146658 2.31062,-10.946324 1.01802,-3.341879 2.4698,-6.536717 3.62109,-9.835058 1.08086,-3.096559 2.26592,-6.167361 3.08464,-9.343306 0.62451,-2.422581 0.70923,-4.967742 1.38584,-7.376293 0.7283,-2.592552 1.53046,-5.213936 2.86111,-7.555113 2.61503,-4.600942 9.87977,-12.427937 9.87977,-12.427937"
       id="path12387"
       sodipodi:nodetypes="csssssc" />
    <path
       style="fill:none;fill-opacity:1;stroke:#000000;stroke-width:5;stroke-linecap:square;stroke-dasharray:none;stroke-dashoffset:0;stroke-opacity:1"
       d="m 346.20448,29.208632 c 0,0 6.94543,3.910269 9.86266,6.575104 2.67786,2.446176 4.46237,5.722487 6.82799,8.471768 2.2764,2.645597 4.40566,5.47158 7.08088,7.713102 3.79104,3.176457 8.18592,5.579548 12.51799,7.96599 4.24418,2.33803 8.79585,4.069943 13.1502,6.195771 3.86199,1.885453 7.88484,3.502574 11.50643,5.816437 3.89401,2.487917 7.26552,5.711969 10.87421,8.598212 3.76805,3.013694 7.07176,6.697072 11.25354,9.10399 4.61328,2.655276 10.02762,3.594003 14.92043,5.689993 4.67892,2.00436 12.22483,6.333061 12.22483,6.333061"
       id="path12389"
       sodipodi:nodetypes="csssssssssc" />
    <path
       style="fill:none;fill-opacity:1;stroke:#000000;stroke-width:5;stroke-linecap:square;stroke-dasharray:none;stroke-dashoffset:0;stroke-opacity:1"
       d="m 431.22259,25.034693 c 0,0 2.82654,4.545169 4.82812,6.258674 1.834,1.570043 4.21173,2.362453 6.34809,3.486975 3.80957,2.005253 7.71543,3.823271 11.53384,5.811625 3.57172,1.859896 7.1101,3.783645 10.63974,5.722216 3.20457,1.760034 6.50933,3.359907 9.56683,5.364577 3.25509,2.134226 6.22383,4.676654 9.2986,7.06336 2.61422,2.029221 5.28662,3.991708 7.77864,6.169263 2.42845,2.12201 6.32592,6.484445 6.32592,6.484445"
       id="path12391"
       sodipodi:nodetypes="csssssssc" />
    <circle
       style="fill:none;fill-opacity:1;stroke:#ff8823;stroke-width:5;stroke-linecap:square;stroke-dasharray:none;stroke-dashoffset:0;stroke-opacity:1"
       id="path12445"
       cx="263.00415"
       cy="264.64792"
       r="18.081533" />
    <circle
       style="fill:none;fill-opacity:1;stroke:#ff8823;stroke-width:5;stroke-linecap:square;stroke-dasharray:none;stroke-dashoffset:0;stroke-opacity:1"
       id="circle12447"
       cx="375.12381"
       cy="162.18449"
       r="18.081533" />
    <rect
       style="fill:#75fb4c;fill-opacity:1;stroke:none;stroke-width:1;stroke-linecap:square;stroke-dasharray:none;stroke-dashoffset:0;stroke-opacity:1"
       id="rect12632"
       width="229.56743"
       height="26.248297"
       x="133.04712"
       y="561.43872"
       transform="rotate(-45)" />
    <text
       xml:space="preserve"
       style="font-size:21.3333px;font-family:sans-serif;-inkscape-font-specification:sans-serif;fill:none;fill-opacity:1;stroke:#ff8823;stroke-width:5;stroke-linecap:square;stroke-dasharray:none;stroke-dashoffset:0;stroke-opacity:1"
       x="283.79138"
       y="295.80298"
       id="text12503"><tspan
         sodipodi:role="line"
         id="tspan12501"
         x="283.79138"
         y="295.80298"
         style="font-size:21.3333px;fill:#000000;fill-opacity:1;stroke:none">Ancestral state 1</tspan></text>
    <text
       xml:space="preserve"
       style="font-size:21.3333px;font-family:sans-serif;-inkscape-font-specification:sans-serif;fill:none;fill-opacity:1;stroke:#ff8823;stroke-width:5;stroke-linecap:square;stroke-dasharray:none;stroke-dashoffset:0;stroke-opacity:1"
       x="399.36148"
       y="186.5551"
       id="text12507"><tspan
         sodipodi:role="line"
         id="tspan12505"
         x="399.36148"
         y="186.5551"
         style="font-size:21.3333px;fill:#000000;fill-opacity:1;stroke:none">Ancestral state 2</tspan></text>
    <text
       xml:space="preserve"
       style="font-size:21.3333px;font-family:sans-serif;-inkscape-font-specification:sans-serif;fill:none;fill-opacity:1;stroke:#ff8823;stroke-width:5;stroke-linecap:square;stroke-dasharray:none;stroke-dashoffset:0;stroke-opacity:1"
       x="688.02045"
       y="48.864285"
       id="text12511"><tspan
         sodipodi:role="line"
         id="tspan12509"
         x="688.02045"
         y="48.864285"
         style="font-size:21.3333px;fill:#000000;fill-opacity:1;stroke:none">species</tspan></text>
    <path
       id="path12623"
       style="fill:none;fill-opacity:1;stroke:#000000;stroke-width:1;stroke-linecap:square;stroke-dasharray:none;stroke-dashoffset:0;stroke-opacity:1"
       d="m 673.23208,48.884709 -8.09157,-8.09157 7.87923,-7.879223 m 9.17565,7.879223 H 665.4758" />
    <path
       id="path12626"
       style="fill:none;fill-opacity:1;stroke:#000000;stroke-width:1;stroke-linecap:square;stroke-dasharray:none;stroke-dashoffset:0;stroke-opacity:1"
       d="m 650.66307,152.39115 h 11.44321 v 11.14291 m -12.05962,0.91671 11.82253,-11.82254" />
    <text
       xml:space="preserve"
       style="font-size:21.3333px;font-family:sans-serif;-inkscape-font-specification:sans-serif;fill:none;fill-opacity:1;stroke:#000000;stroke-width:1;stroke-linecap:square;stroke-dasharray:none;stroke-dashoffset:0;stroke-opacity:1"
       x="136.66483"
       y="583.5202"
       id="text12630"
       transform="rotate(-45)"><tspan
         sodipodi:role="line"
         id="tspan12628"
         x="136.66483"
         y="583.5202"
         style="fill:#000000;fill-opacity:1;stroke:none">Evolutionary trend</tspan></text>
  </g>
</svg>
