<?xml version="1.0" encoding="UTF-8" standalone="no"?>
<!-- Generator: Adobe Illustrator 27.6.1, SVG Export Plug-In . SVG Version: 6.00 Build 0)  -->

<svg
   version="1.1"
   id="svg132"
   inkscape:version="1.2.2 (732a01da63, 2022-12-09)"
   sodipodi:docname="nested-clades_alt.svg"
   x="0px"
   y="0px"
   viewBox="0 0 810.5 951"
   style="enable-background:new 0 0 810.5 951;"
   xml:space="preserve"
   inkscape:export-filename="nested-clades_alt.png"
   inkscape:export-xdpi="200"
   inkscape:export-ydpi="200"
   xmlns:inkscape="http://www.inkscape.org/namespaces/inkscape"
   xmlns:sodipodi="http://sodipodi.sourceforge.net/DTD/sodipodi-0.dtd"
   xmlns="http://www.w3.org/2000/svg"
   xmlns:svg="http://www.w3.org/2000/svg"><defs
   id="defs210" />
<style
   type="text/css"
   id="style2">
	.st0{fill:#DC9733;stroke:#000000;stroke-width:0.2419;stroke-miterlimit:8;}
	.st1{fill:#D38D5F;stroke:#000000;stroke-width:0.2419;stroke-miterlimit:8;}
	.st2{fill:#784421;stroke:#000000;stroke-width:0.2419;stroke-miterlimit:8;}
	.st3{stroke:#000000;stroke-width:0.2419;stroke-miterlimit:8;}
	.st4{fill:#FFFFFF;stroke:#000000;stroke-width:0.2419;stroke-miterlimit:8;}
	.st5{fill:#DC2121;stroke:#000000;stroke-width:0.2419;stroke-miterlimit:8;}
	.st6{fill:none;stroke:#70AD47;stroke-width:4.0214;stroke-miterlimit:8;}
	.st7{fill:none;stroke:#ED7D31;stroke-width:4.0214;stroke-miterlimit:8;}
	.st8{fill:none;stroke:#000000;stroke-width:1.7537;stroke-miterlimit:8;stroke-dasharray:7.0148,1.7537;}
	.st9{fill:none;stroke:#4472C4;stroke-width:4.0214;stroke-miterlimit:8;stroke-opacity:0.9765;}
	.st10{fill:none;stroke:#000000;stroke-width:4.0214;stroke-miterlimit:8;}
	.st11{font-family:'Helvetica';}
	.st12{font-size:21.3334px;}
	.st13{fill:none;stroke:#000000;stroke-width:1.5118;stroke-miterlimit:8;stroke-opacity:0.9765;}
	
		.st14{fill:#E2F3F8;stroke:#000000;stroke-width:1.5118;stroke-linejoin:round;stroke-miterlimit:8;stroke-opacity:0.9765;stroke-dasharray:1.5118,1.5118;}
	
		.st15{fill:#D49D20;stroke:#000000;stroke-width:1.5118;stroke-linejoin:round;stroke-miterlimit:8;stroke-opacity:0.9765;stroke-dasharray:1.5118,1.5118;}
	
		.st16{fill:#E5F257;stroke:#000000;stroke-width:1.5118;stroke-linejoin:round;stroke-miterlimit:8;stroke-opacity:0.9765;stroke-dasharray:1.5118,1.5118;}
	.st17{fill:none;stroke:#000000;stroke-width:3.7795;stroke-linejoin:round;stroke-miterlimit:8;stroke-opacity:0.9765;}
	
		.st18{fill:none;stroke:#000000;stroke-width:3.7795;stroke-linejoin:round;stroke-miterlimit:8;stroke-opacity:0.9765;stroke-dasharray:3.7795,3.7795;}
	
		.st19{fill:none;stroke:#000000;stroke-width:1.5118;stroke-linejoin:round;stroke-miterlimit:8;stroke-opacity:0.9765;stroke-dasharray:3.0236,1.5118;}
	.st20{font-size:16px;}
</style>
<sodipodi:namedview
   bordercolor="#000000"
   borderopacity="0.25"
   id="namedview134"
   inkscape:current-layer="svg132"
   inkscape:cx="507.70269"
   inkscape:cy="564.97834"
   inkscape:deskcolor="#d1d1d1"
   inkscape:pagecheckerboard="0"
   inkscape:pageopacity="0.0"
   inkscape:showpageshadow="2"
   inkscape:window-height="991"
   inkscape:window-maximized="1"
   inkscape:window-width="1920"
   inkscape:window-x="-9"
   inkscape:window-y="-9"
   inkscape:zoom="0.70710675"
   pagecolor="#ffffff"
   showgrid="false">
	</sodipodi:namedview>
<rect
   style="fill:#ffffff;stroke-width:2.5285;stroke-linecap:square"
   id="rect491"
   width="810.74219"
   height="951.2796"
   x="-562.6723"
   y="-28.094698"
   transform="translate(562.58389,27.917923)"
   inkscape:label="Background" /><g
   id="g138"
   transform="translate(-8.7419859,-2.4722719)"
   inkscape:groupmode="layer"
   inkscape:label="Image">
	<g
   id="g2303"
   transform="translate(89.155593,1.5)"
   inkscape:label="Bird">
		<path
   id="path1334"
   class="st0"
   d="M351.3,130v19.9l-1.1,0.5l-1.9,0.7l-0.7,1.1l0,1.2l0.8-0.8c0,0,1.6-0.2,1.7-0.2    c0.2,0,4.7,0.1,4.7,0.1l1,0.1l1.1,0.9l-0.2-1.7l-2.3-0.6l-1.3-0.7v-20.2L351.3,130z" />
		<path
   id="path1393"
   sodipodi:nodetypes="ccccccccccccccccccccccccsccccccccccccccccc"
   class="st1"
   d="M336.7,106    c0-0.1-1.7-4.7-1.6-4.9l1.1-2.4l2.3-1.3l1.9-0.4l2.6-0.1l1.8,0l1.2,0.5l1.1,1.3l1.1,2.4l0.6,2l0.8,1.7l0.8,2l1.6,0.9l2.5,0.5    l3.1,2.2l3.1,2.7l1.6,2.7l3,4.5l2.4,3.1l2.3,2.6l2.2,2.4l3.1,2.4l1,1.3c0,0-0.2,1.1-0.4,1.1c-0.2,0-0.7,0.2-0.7,0.2l-1.1-0.4    l-1.2-0.4l-2.5-1.1l-2.8-1.8l-2.6,0.9l-2.4,0.2l-7.1,0.1l-5.2-0.7l-2.6-1.1l-2.9-1.8l-2.5-2.1l-2.4-3.1l-2.1-3.6l-0.9-3.2    l-0.4-4.3L336.7,106z" />
		<path
   id="path1391"
   sodipodi:nodetypes="cccccccccccccccccccccccccccc"
   class="st2"
   d="M348.8,117l0.4,1.4l1,1.4l1.8,1.8l2.1,1.5    l2.1,1l2.2,0.9l2,0.9l1.4,0.9l1.5,1l1.7,1.2l1.3,0.6l1.3,0.3l0.8,0.5l1.7,1l0.8,0.5l1.3,0.5l0.9,0.4l1.1,0.4l1.2,0.5l1.5,0.3    l-0.4-1.7l-1-1.2l-3.1-2.4l-4.5-4.9l-6.6-9.6l-0.5-1l-2.7-2.2" />
		<path
   id="path1060"
   sodipodi:nodetypes="ccccccccc"
   class="st0"
   d="M336.7,106l-1.3-0.4l-2.8-0.2l-5.9-0.9l0.8-1l2.3-1.4l3.3-0.8    l2.3-0.1C335.3,101.2,336.7,106,336.7,106L336.7,106z" />
		<circle
   id="path2140"
   class="st3"
   cx="340.6"
   cy="101.5"
   r="0.9" />
	</g>
	<g
   id="g2315"
   transform="translate(52.209264,12.106602)"
   inkscape:label="Bird">
		<path
   id="path2305"
   class="st0"
   d="M314.4,140.6v19.9l-1.1,0.5l-1.9,0.7l-0.7,1.1l0,1.2l0.8-0.8c0,0,1.6-0.2,1.7-0.2    c0.2,0,4.7,0.1,4.7,0.1l1,0.1l1.1,0.9l-0.2-1.7l-2.3-0.6l-1.3-0.7v-20.2L314.4,140.6z" />
		<path
   id="path2307"
   sodipodi:nodetypes="ccccccccccccccccccccccccsccccccccccccccccc"
   class="st4"
   d="M299.8,116.6    c0-0.1-1.7-4.7-1.6-4.9l1.1-2.4l2.3-1.3l1.9-0.4l2.6-0.1l1.8,0l1.2,0.5l1.1,1.3l1.1,2.4l0.6,2l0.8,1.7l0.8,2l1.6,0.9l2.5,0.5    l3.1,2.2l3.1,2.7l1.6,2.7l3,4.5l2.4,3.1l2.3,2.6l2.2,2.4l3.1,2.4l1,1.3c0,0-0.2,1.1-0.4,1.1c-0.2,0-0.7,0.2-0.7,0.2l-1.1-0.4    l-1.2-0.4l-2.5-1.1l-2.8-1.8l-2.6,0.9l-2.4,0.2l-7.1,0.1l-5.2-0.7l-2.6-1.1l-2.9-1.8l-2.5-2.1l-2.4-3.1l-2.1-3.6L300,126l-0.4-4.3    L299.8,116.6z" />
		<path
   id="path2309"
   sodipodi:nodetypes="cccccccccccccccccccccccccccc"
   class="st4"
   d="M311.9,127.6l0.4,1.4l1,1.4l1.8,1.8    l2.1,1.5l2.1,1l2.2,0.9l2,0.9l1.4,0.9l1.5,1l1.7,1.2l1.3,0.6l1.3,0.3l0.8,0.5l1.7,1l0.8,0.5l1.3,0.5l0.9,0.4l1.1,0.4l1.2,0.5    l1.5,0.3l-0.4-1.7l-1-1.2l-3.1-2.4l-4.5-4.9l-6.6-9.6l-0.5-1l-2.7-2.2" />
		<path
   id="path2311"
   sodipodi:nodetypes="ccccccccc"
   class="st0"
   d="M299.7,116.6l-1.3-0.4l-2.8-0.2l-5.9-0.9l0.8-1l2.3-1.4    l3.3-0.8l2.3-0.1C298.3,111.8,299.7,116.6,299.7,116.6L299.7,116.6z" />
		<circle
   id="circle2313"
   class="st3"
   cx="303.7"
   cy="112.1"
   r="0.9" />
	</g>
	<g
   id="g2327"
   transform="translate(17.405593,68)"
   inkscape:label="Bird">
		<path
   id="path2317"
   class="st0"
   d="M279.6,196.5v19.9l-1.1,0.5l-1.9,0.7l-0.7,1.1l0,1.2l0.8-0.8c0,0,1.6-0.2,1.7-0.2    c0.2,0,4.7,0.1,4.7,0.1l1,0.1l1.1,0.9l-0.2-1.7l-2.3-0.6l-1.3-0.7v-20.2L279.6,196.5z" />
		<path
   id="path2319"
   sodipodi:nodetypes="ccccccccccccccccccccccccsccccccccccccccccc"
   class="st4"
   d="M265,172.5    c0-0.1-1.7-4.7-1.6-4.9l1.1-2.4l2.3-1.3l1.9-0.4l2.6-0.1l1.8,0l1.4,0.5l1.4,1.1l1.1,2.1l1.1,2.2l0.5,1.8l1.2,1.3l1.5,0.9l2.4,1.1    l3.7,2.4l1.5,3l1.6,2.7l3,4.5l2.4,3.1l2.3,2.6l2.2,2.4l3.1,2.4l1,1.3c0,0-0.2,1.1-0.4,1.1c-0.2,0-0.7,0.2-0.7,0.2l-1.1-0.4    l-1.2-0.4l-2.5-1.1l-2.8-1.8l-2.6,0.9l-2.4,0.2l-7.1,0.1l-5.2-0.7l-2.6-1.1l-2.9-1.8l-2.5-2.1l-2.4-3.1l-2.1-3.6l-0.9-3.2    l-0.4-4.3L265,172.5z" />
		<path
   id="path2321"
   sodipodi:nodetypes="cccccccccccccccccccccccccccc"
   class="st4"
   d="M277.1,183.5l0.4,1.4l1,1.4l1.8,1.8    l2.1,1.5l2.1,1l2.2,0.9l2,0.9l1.4,0.9l1.5,1l1.7,1.2l1.3,0.6l1.3,0.3l0.8,0.5l0.4,0.5l1.4,1.2l2.3,1.7l5.8,4.1l9.7,6.4l2.2,1.3    l2,0.3l0.1-1.4l-0.5-1.9l-17.1-14.5l-5.2-5l-6.2-8.2l-2.2-2.6l-2.4-1.9" />
		<path
   id="path2323"
   sodipodi:nodetypes="ccccccccc"
   class="st0"
   d="M264.9,172.5l-1.3-0.4l-2.8-0.2l-5.9-0.9l0.8-1l2.3-1.4    l3.3-0.8l2.3-0.1C263.5,167.7,264.9,172.5,264.9,172.5L264.9,172.5z" />
		<circle
   id="circle2325"
   class="st3"
   cx="268.9"
   cy="168"
   r="0.9" />
	</g>
	<g
   id="g2339"
   transform="translate(29.655592,145.375)"
   inkscape:label="Bird">
		<path
   id="path2329"
   class="st0"
   d="M291.8,273.9v19.9l-1.1,0.5l-1.9,0.7l-0.7,1.1l0,1.2l0.8-0.8c0,0,1.6-0.2,1.7-0.2    c0.2,0,4.7,0.1,4.7,0.1l1,0.1l1.1,0.9l-0.2-1.7l-2.3-0.6l-1.3-0.7v-20.2L291.8,273.9z" />
		<path
   id="path2331"
   sodipodi:nodetypes="ccccccccccccccccccccccccsccccccccccccccccc"
   class="st4"
   d="M277.2,249.9    c0-0.1-1.7-4.7-1.6-4.9l1.1-2.4l2.3-1.3l1.9-0.4l2.6-0.1l1.8,0l1.4,0.5l1.4,1.1l1.1,2.1l1.1,2.2l0.5,1.8l1.2,1.3l1.5,0.9l2.4,1.1    l3.7,2.4l1.5,3l1.6,2.7l3,4.5l2.4,3.1l2.3,2.6l2.2,2.4l3.1,2.4l1,1.3c0,0-0.2,1.1-0.4,1.1c-0.2,0-0.7,0.2-0.7,0.2l-1.1-0.4    l-1.2-0.4l-2.5-1.1l-2.8-1.8l-2.6,0.9l-2.4,0.2l-7.1,0.1l-5.2-0.7l-2.6-1.1l-2.9-1.8l-2.5-2.1l-2.4-3.1l-2.1-3.6l-0.9-3.2    l-0.4-4.3L277.2,249.9z" />
		<path
   id="path2333"
   sodipodi:nodetypes="cccccccccccccccccccccccccccc"
   class="st4"
   d="M289.3,260.8l0.4,1.4l1,1.4l1.8,1.8    l2.1,1.5l2.1,1l2.2,0.9l2,0.9l1.4,0.9l1.5,1l1.7,1.2l1.3,0.6l1.3,0.3l0.8,0.5l0.4,0.5l1.4,1.2l2.3,1.7l5.8,4.1l9.7,6.4l2.2,1.3    l2,0.3l0.1-1.4l-0.5-1.9l-17.1-14.5l-5.2-5l-6.2-8.2l-2.2-2.6l-2.4-1.9" />
		<path
   id="path2335"
   sodipodi:nodetypes="ccccccccc"
   class="st0"
   d="M277.2,249.9l-1.3-0.4l-2.8-0.2l-6.6-1l2.1-1.6l1.8-1.1    l3.1-0.9l2.5-0.1C275.9,244.5,277.2,249.9,277.2,249.9L277.2,249.9z" />
		<circle
   id="circle2337"
   class="st3"
   cx="281.1"
   cy="245.4"
   r="0.9" />
		<path
   id="path2353"
   sodipodi:nodetypes="ccccccccc"
   class="st0"
   d="M277.1,249.7l-1.2,0.6l-2.7,0.8l-6.2,2.4l2.4,1.2l2,0.8    l3.2,0.2l2.4-0.4C277,255.3,277.1,249.7,277.1,249.7L277.1,249.7z" />
	</g>
	<g
   id="g2351"
   transform="translate(-19.594407,136.75)"
   inkscape:label="Bird">
		<path
   id="path2341"
   class="st0"
   d="M242.6,265.3v19.9l-1.1,0.5l-1.9,0.7l-0.7,1.1l0,1.2l0.8-0.8c0,0,1.6-0.2,1.7-0.2    c0.2,0,4.7,0.1,4.7,0.1l1,0.1l1.1,0.9l-0.2-1.7l-2.3-0.6l-1.3-0.7v-20.2L242.6,265.3z" />
		<path
   id="path2343"
   sodipodi:nodetypes="ccccccccccccccccccccccccsccccccccccccccccc"
   class="st4"
   d="M228,241.2    c0-0.1-1.7-4.7-1.6-4.9l1.1-2.4l2.3-1.3l1.9-0.4l2.6-0.1l1.8,0l1.4,0.5l1.4,1.1l1.1,2.1l1.1,2.2l0.5,1.8l1.2,1.3l1.5,0.9l2.4,1.1    l3.7,2.4l1.5,3l1.6,2.7l3,4.5l2.4,3.1l2.3,2.6l2.2,2.4l3.1,2.4l1,1.3c0,0-0.2,1.1-0.4,1.1c-0.2,0-0.7,0.2-0.7,0.2l-1.1-0.4    l-1.2-0.4l-2.5-1.1L259,265l-2.6,0.9l-2.4,0.2l-7.1,0.1l-5.2-0.7l-2.6-1.1l-2.9-1.8l-2.5-2.1l-2.4-3.1l-2.1-3.6l-0.9-3.2l-0.4-4.3    L228,241.2z" />
		<path
   id="path2345"
   sodipodi:nodetypes="cccccccccccccccccccccccccccc"
   class="st4"
   d="M240.1,252.2l0.4,1.4l1,1.4l1.8,1.8    l2.1,1.5l2.1,1l2.2,0.9l2,0.9l1.4,0.9l1.5,1l1.7,1.2l1.3,0.6l1.3,0.3l0.8,0.5l0.4,0.5l1.4,1.2l2.3,1.7l5.8,4.1l9.7,6.4l2.2,1.3    l2,0.3l0.1-1.4l-0.5-1.9l-17.1-14.5l-5.2-5l-6.2-8.2l-2.2-2.6l-2.4-1.9" />
		<path
   id="path2347"
   sodipodi:nodetypes="ccccccccccccc"
   class="st0"
   d="M227.2,239.2l-1.2,0l-2.1-0.3l-3.7-0.5L215,238l-2.8-0.4    l-3-0.6l7.6-1l3.2-0.2l3.6-0.2l2.9,0.2C226.6,235.9,227.2,239.2,227.2,239.2z" />
		<circle
   id="circle2349"
   class="st3"
   cx="231.9"
   cy="236.8"
   r="0.9" />
	</g>
	<g
   id="g2365"
   transform="translate(97.209264,71.231602)"
   inkscape:label="Bird">
		<path
   id="path2355"
   class="st0"
   d="M359.4,207.2v19.9l-1.1,0.5l-1.9,0.7l-0.7,1.1l0,1.2l0.8-0.8c0,0,1.6-0.2,1.7-0.2    c0.2,0,4.7,0.1,4.7,0.1l1,0.1l1.1,0.9l-0.2-1.7l-2.3-0.6l-1.3-0.7v-20.2L359.4,207.2z" />
		<path
   id="path2357"
   sodipodi:nodetypes="ccccccccccccccccccccccccsccccccccccccccccc"
   class="st4"
   d="M343.9,176.4    c0-0.1-0.8-5.5-0.7-5.6l1.1-2.4l2.3-1.3l1.9-0.4l2.6-0.1l1.8,0l1.2,0.5l1.1,1.3l1.1,2.4l0.6,2l0.8,1.7l0.8,2l1.6,0.9l2.5,0.5    l3.1,2.2l3.1,2.7l1.6,2.7l3,4.5l2.4,3.1l2.3,2.6l2.2,2.4l3.1,2.4l1,1.3c0,0-0.2,1.1-0.4,1.1c-0.2,0-0.7,0.2-0.7,0.2l-1.1-0.4    l-1.2-0.4l-2.5-1.1l-0.3,2.7l-2.7,2.5l-5.9,2.6l-3.9,0.8l-4.5,0.3l-4.5,0.2l-4.2-1.6l-4-3.5l-3.9-4.7l-1.9-6.2l-0.5-6.3l0.6-6.8    L343.9,176.4z" />
		<path
   id="path2359"
   sodipodi:nodetypes="cccccccccccccccccccccccccccc"
   class="st4"
   d="M356.9,186.7l0.4,1.4l1,1.4l1.8,1.8    l2.1,1.5l2.1,1l2.2,0.9l2,0.9l1.4,0.9l1.7,2.1l1.8,2l2.3,2.3l1.8,1.2l2.7,1.4l2.4,0.7l1.6,0.8l1.5,0.5l1.7,0.5l0.8-0.1l0.6-1.1    l-1.4-2l-2.6-2.5l-1.3-1.4l-3.1-2.4l-4.5-4.9l-6.6-9.6l-0.5-1l-2.7-2.2" />
		<path
   id="path2361"
   sodipodi:nodetypes="ccccccccc"
   class="st0"
   d="M344.7,175.7l-1.3-0.4l-2.8-0.2l-5.9-0.9l0.8-1l2.3-1.4    l3.3-0.8l2.3-0.1C343.3,170.9,344.7,175.7,344.7,175.7L344.7,175.7z" />
		<circle
   id="circle2363"
   class="st3"
   cx="348.7"
   cy="171.2"
   r="0.9" />
	</g>
	<g
   id="g2377"
   transform="translate(114.70926,107.3566)"
   inkscape:label="Bird">
		<path
   id="path2367"
   class="st0"
   d="M376.9,243.3v19.9l-1.1,0.5l-1.9,0.7l-0.7,1.1l0,1.2l0.8-0.8c0,0,1.6-0.2,1.7-0.2    c0.2,0,4.7,0.1,4.7,0.1l1,0.1l1.1,0.9l-0.2-1.7l-2.3-0.6l-1.3-0.7v-20.2L376.9,243.3z" />
		<path
   id="path2369"
   sodipodi:nodetypes="ccccccccccccccccccccccccsccccccccccccccccc"
   class="st4"
   d="M361.4,212.5    c0-0.1-0.8-5.5-0.7-5.6l1.1-2.4l2.3-1.3l1.9-0.4l2.6-0.1l1.8,0l1.2,0.5l1.1,1.3l1.1,2.4l0.6,2l0.8,1.7l0.8,2l1.6,0.9l2.5,0.5    l3.1,2.2l3.1,2.7l1.6,2.7l3,4.5l2.4,3.1l2.3,2.6l2.2,2.4l3.1,2.4l1,1.3c0,0-0.2,1.1-0.4,1.1c-0.2,0-0.7,0.2-0.7,0.2l-1.1-0.4    l-1.2-0.4l-2.5-1.1l-0.3,2.7l-2.7,2.5l-5.9,2.6l-3.9,0.8l-4.5,0.3l-4.5,0.2l-4.2-1.6l-4-3.5l-3.9-4.7l-1.9-6.2l-0.5-6.3l0.6-6.8    L361.4,212.5z" />
		<path
   id="path2371"
   sodipodi:nodetypes="cccccccccccccccccccccccccccc"
   class="st4"
   d="M374.4,222.8l0.4,1.4l1,1.4l1.8,1.8    l2.1,1.5l2.1,1l2.2,0.9l2,0.9l1.4,0.9l1.7,2.1l1.8,2l2.3,2.3l1.8,1.2l2.7,1.4l2.4,0.7l1.6,0.8l1.5,0.5l1.7,0.5l0.8-0.1l0.6-1.1    l-1.4-2l-2.6-2.5l-1.3-1.4l-3.1-2.4l-4.5-4.9l-6.6-9.6l-0.5-1l-2.7-2.2" />
		<path
   id="path2504"
   class="st5"
   d="M359.8,211.1l-0.2,0.8l-1,0.5l-1,1l-0.2,1.8l0.2,0.9c0,0,0.5,0.2,0.7,0.3    c0.2,0,1.4-0.2,1.4-0.2l0.8-0.2c0,0,0.5-0.9,0.5-1c0.1,0,0.8-1.6,0.8-1.7s-0.2-1.1-0.2-1.1l-0.3-0.6L359.8,211.1z" />
		<path
   id="path2373"
   sodipodi:nodetypes="ccccccccc"
   class="st0"
   d="M362.2,211.8l-1.3-0.4l-2.8-0.2l-5.9-0.9l0.8-1l2.3-1.4    l3.3-0.8l2.3-0.1C360.8,207,362.2,211.8,362.2,211.8L362.2,211.8z" />
		<circle
   id="circle2375"
   class="st3"
   cx="366.2"
   cy="207.4"
   r="0.9" />
	</g>
	<g
   id="g2389"
   transform="translate(74.709264,127.6066)"
   inkscape:label="Bird">
		<path
   id="path2379"
   class="st0"
   d="M336.9,263.6v19.9l-1.1,0.5l-1.9,0.7l-0.7,1.1l0,1.2l0.8-0.8c0,0,1.6-0.2,1.7-0.2    c0.2,0,4.7,0.1,4.7,0.1l1,0.1l1.1,0.9l-0.2-1.7l-2.3-0.6l-1.3-0.7v-20.2L336.9,263.6z" />
		<path
   id="path2445"
   sodipodi:nodetypes="ssssssssssssssssssssssssssssssss"
   class="st5"
   d="M321.9,224.7c-0.6-0.2-1.1-0.7-1.7-1.1    c-0.6-0.3-1.4-0.4-1.8-0.9c-0.2-0.3-0.3-0.7-0.2-1c0-0.3,0.1-0.6,0.3-0.8c0.3-0.3,0.7-0.4,1.1-0.5c0.3-0.1,0.7,0.1,1,0.1    c0.5,0,1,0,1.5,0c0.3,0,0.6,0.1,0.8-0.1c0.4-0.3,0.4-1,0.6-1.6c0.1-0.5,0-1,0.2-1.5c0.1-0.3,0.3-0.7,0.6-0.8c0.4-0.2,1-0.1,1.4,0    c0.5,0.1,1.1,0.4,1.5,0.8c0.3,0.3,0.6,0.7,0.7,1.2c0.1,0.4-0.2,1,0.1,1.3c0.1,0.2,0.4,0.3,0.7,0.3c0.3,0,0.7-0.1,1-0.3    c0.3-0.2,0.2-0.8,0.5-1c0.3-0.3,0.8-0.2,1.3-0.2c0.4,0,0.8,0.1,1.2,0.2c0.3,0.1,0.8,0.2,0.9,0.6c0.1,0.3-0.2,0.7-0.2,1    c0,0.4,0,0.8,0,1.1c0,0.3-0.3,0.6-0.1,0.9c0.2,0.2,0.6,0.1,0.9,0.2c0.2,0.1,0.5,0.1,0.6,0.2c0.2,0.2,0.3,0.5,0.3,0.8    c0,0.3-0.1,0.6-0.3,0.8c-0.3,0.3-0.7,0.4-1.1,0.6c-0.2,0.1-0.4,0.2-0.6,0.2C329.4,225.8,325.5,225.9,321.9,224.7L321.9,224.7z" />
		<path
   id="path2381"
   sodipodi:nodetypes="ccccccccccccccccccccccccsccccccccccccccccc"
   class="st4"
   d="M321.4,232.8    c0-0.1-0.8-5.5-0.7-5.6l1.1-2.4l2.3-1.3l1.9-0.4l2.6-0.1l1.8,0l1.2,0.5l1.1,1.3l1.1,2.4l0.6,2l0.8,1.7l0.8,2l1.6,0.9l2.5,0.5    l3.1,2.2l3.1,2.7l1.6,2.7l3,4.5l2.4,3.1l2.3,2.6l2.2,2.4l3.1,2.4l1,1.3c0,0-0.2,1.1-0.4,1.1c-0.2,0-0.7,0.2-0.7,0.2l-1.1-0.4    l-1.2-0.4l-2.5-1.1l-0.3,2.7l-2.7,2.5l-5.9,2.6l-3.9,0.8l-4.5,0.3l-4.5,0.2l-4.2-1.6l-4-3.5l-3.9-4.7l-1.9-6.2l-0.5-6.3l0.6-6.8    L321.4,232.8z" />
		<path
   id="path2383"
   sodipodi:nodetypes="cccccccccccccccccccccccccccc"
   class="st4"
   d="M334.4,243.1l0.4,1.4l1,1.4l1.8,1.8    l2.1,1.5l2.1,1l2.2,0.9l2,0.9l1.4,0.9l1.7,2.1l1.8,2l2.3,2.3l1.8,1.2l2.7,1.4l2.4,0.7l1.6,0.8l1.5,0.5l1.7,0.5l0.8-0.1l0.6-1.1    l-1.4-2l-2.6-2.5l-1.3-1.4l-3.1-2.4l-4.5-4.9l-6.6-9.6l-0.5-1l-2.7-2.2" />
		<path
   id="path2385"
   sodipodi:nodetypes="ccccccccc"
   class="st0"
   d="M322.2,232.1l-1.3-0.4l-2.8-0.2l-5.9-0.9l0.8-1l2.3-1.4    l3.3-0.8l2.3-0.1C320.8,227.3,322.2,232.1,322.2,232.1L322.2,232.1z" />
		<circle
   id="circle2387"
   class="st3"
   cx="326.2"
   cy="227.6"
   r="0.9" />
	</g>
	<g
   id="g2518"
   transform="translate(153.35004,39.298963)"
   inkscape:label="Bird">
		<path
   id="path2508"
   class="st0"
   d="M415.5,165.3v19.9l-1.1,0.5l-1.9,0.7l-0.7,1.1l0,1.2l0.8-0.8c0,0,1.6-0.2,1.7-0.2    c0.2,0,4.7,0.1,4.7,0.1l1,0.1l1.1,0.9l-0.2-1.7l-2.3-0.6l-1.3-0.7v-20.2L415.5,165.3z" />
		<path
   id="path2510"
   sodipodi:nodetypes="ccccccccccccccccccccccccsccccccccccccccccc"
   class="st1"
   d="M400.9,143.8    c0-0.1-1.7-4.7-1.6-4.9l1.1-2.4l2.3-1.3l1.9-0.4l2.6-0.1l1.8,0l1.2,0.5l1.1,1.3l1.1,2.4l0.6,2l0.8,1.7l0.8,2l1.6,0.9l2.5,0.5    l3.1,2.2l3.1,2.7l1.6,2.7l3,4.5l2.4,3.1l2.3,2.6l2.2,2.4l3.1,2.4l1,1.3c0,0-0.2,1.1-0.4,1.1c-0.2,0-0.1-0.3-0.1-0.3l-1.1-0.4    l-1.2-0.5l-2.3-0.8l-2.8-1.8l-2.2,2.3l-4,0.6l-5.5-1.3l-3.6-1.5l-1.7-0.8l-1.8-1.6l-2.2-1.8l-3.4-3l-2-3.1l-3-4l-1.7-4.2    L400.9,143.8z" />
		<path
   id="path2512"
   sodipodi:nodetypes="cccccccccccccccccccccccccccc"
   class="st2"
   d="M414.3,154l0.4,1.4l1,1.4l1.8,1.8l2.1,1.5    l1.3,1l1.5,1l1.1,0.7l1,0.9l1.4,1.5l2.7,1.6l2.8,2.1l1.7,0.8l1.2,0.4l1.6,0.4l1.5,0.6l1.3,0.5l1.3,0.3l1.4,0.5l4.1,1l2,0.2l-1-1.4    l-3.9-2.6l-6.3-3.3l-4.5-4.9l-6.6-9.6l-0.5-1l-2.7-2.2" />
		<path
   id="path2514"
   sodipodi:nodetypes="ccccccccc"
   class="st0"
   d="M400.9,143.8l-1.3-0.4l-2.8-0.2l-5.9-0.9l0.8-1l2.3-1.4    l3.3-0.8l2.3-0.1C399.5,139,400.9,143.8,400.9,143.8L400.9,143.8z" />
		<circle
   id="circle2516"
   class="st3"
   cx="404.8"
   cy="139.3"
   r="0.9" />
	</g>
	<g
   id="g2530"
   transform="translate(229.10004,48.798963)"
   inkscape:label="Bird">
		<path
   id="path2520"
   class="st0"
   d="M491.3,174.8v19.9l-1.1,0.5l-1.9,0.7l-0.7,1.1l0,1.2l0.8-0.8c0,0,1.6-0.2,1.7-0.2    c0.2,0,4.7,0.1,4.7,0.1l1,0.1l1.1,0.9l-0.2-1.7l-2.3-0.6l-1.3-0.7V175L491.3,174.8z" />
		<path
   id="path2522"
   sodipodi:nodetypes="ccccccccccccccccccccccccscccccccccccccccccccccccc"
   class="st1"
   d="M476.7,153.3    c0-0.1-1.7-4.7-1.6-4.9l1.1-2.4l2.3-1.3l1.9-0.4l2.6-0.1l1.8,0l1.2,0.5l1.1,1.3l1.1,2.4l0.6,2l0.8,1.7l0.8,2l1.6,0.9l2.5,0.5    l3.1,2.2l3.1,2.7l1.6,2.7l3,4.5l2.4,3.1l2.3,2.6l2.2,2.4l3.1,2.4l1,1.3c0,0-0.2,1.1-0.4,1.1s-0.1-0.3-0.1-0.3l-1.1-0.4l-1.2-0.5    l-2.3-0.8l-2.8-1.8l-5.1,2.4l-4.5-1l-2.1-1l-0.3,3.2l-0.9,2.2l-0.8,2.4l-0.1,3.7l-2.6-0.2l-2.4,0.1l0-4.3l-0.5-2.9l-0.7-2.9    l-1.1-3.2l0-2.8l-3.4-3l-2-3.1l-3-4l-1.7-4.2L476.7,153.3z" />
		<path
   id="path2524"
   sodipodi:nodetypes="cccccccccccccccccccccccccccc"
   class="st2"
   d="M490.1,163.5l0.4,1.4l1,1.4l1.8,1.8    l2.1,1.5l1.3,1l1.5,1l1.1,0.7l1,0.9l1.4,1.5l2.7,1.6l2.8,2.1l1.7,0.8l1.2,0.4l1.6,0.4l1.5,0.6l1.3,0.5l1.3,0.3l1.4,0.5l4.1,1    l2,0.2l-1-1.4l-3.9-2.6l-6.3-3.3l-4.5-4.9l-6.6-9.6l-0.5-1l-2.7-2.2" />
		<path
   id="path2526"
   sodipodi:nodetypes="ccccccccc"
   class="st0"
   d="M476.6,153.3l-1.3-0.4l-2.8-0.2l-5.9-0.9l0.8-1l2.3-1.4    l3.3-0.8l2.3-0.1C475.2,148.5,476.6,153.3,476.6,153.3L476.6,153.3z" />
		<circle
   id="circle2528"
   class="st3"
   cx="480.6"
   cy="148.8"
   r="0.9" />
	</g>
	<g
   id="g2542"
   transform="translate(174.1213,99.579816)"
   inkscape:label="Bird">
		<path
   id="path2532"
   class="st0"
   d="M436.3,225.6v19.9l-1.1,0.5l-1.9,0.7l-0.7,1.1l0,1.2l0.8-0.8c0,0,1.6-0.2,1.7-0.2    c0.2,0,4.7,0.1,4.7,0.1l1,0.1l1.1,0.9l-0.2-1.7l-2.3-0.6L438,246v-20.2L436.3,225.6z" />
		<path
   id="path2544"
   sodipodi:nodetypes="cccccccccccccccccccccccccccc"
   class="st2"
   d="M441.1,224.1l0.4,1.4l1,1.4l1.8,1.8    l2.1,1.5l1.3,1l1.5,1l1.1,0.7l1,0.9l1.9,1.3l2.3,1.7l2.8,2.1l1.1,1l1.4,1.5l10,11.2l0.8-0.1l-5.7-8.3l1.3-1.9l0.8,0.8l6,6.2    l0.9,0.4l-0.4-1.6l-7-6.8l-4.8-4.1l-3.7-4.4l-6.2-6.7l-1-5.2l-2.7-2.2" />
		<path
   id="path2534"
   sodipodi:nodetypes="ccccccccccccccccccccccccsccccccccccccccccc"
   class="st1"
   d="M421.7,204.1    c0-0.1-1.7-4.7-1.6-4.9l1.1-2.4l2.3-1.3l1.9-0.4l2.6-0.1l1.8,0l1.2,0.5l1.1,1.3l1.1,2.4l0.6,2l0.8,1.7l0.8,2l1.6,0.9l2.5,0.5    l3.1,2.2l3.1,2.7l1.6,2.7l3,4.5l2.4,3.1l2.3,2.6l2.2,2.4l3.1,2.4l1,1.3c0,0-0.2,1.1-0.4,1.1c-0.2,0-0.1-0.3-0.1-0.3l-1.1-0.4    l-1.2-0.5l-2.3-0.8l-2.8-1.8l-2.2,2.3l-4,0.6l-5.5-1.3l-3.6-1.5l-1.7-0.8l-1.8-1.6l-2.2-1.8l-3.4-3l-2-3.1l-3-4l-1.7-4.2    L421.7,204.1z" />
		<path
   id="path2536"
   sodipodi:nodetypes="cccccccccccccccccccccccccccc"
   class="st2"
   d="M435.1,214.3l0.4,1.4l1,1.4l1.8,1.8    l2.1,1.5l1.3,1l1.5,1l1.1,0.7l1,0.9l1.4,1.5l2.7,1.6l2.8,2.1l1.7,0.8l1.2,0.4l1.6,0.4l1.5,0.6l1.3,0.5l1.3,0.3l1.4,0.5l4.1,1    l2,0.2l-1-1.4l-3.9-2.6l-6.3-3.3l-4.5-4.9l-6.6-9.6l-0.5-1l-2.7-2.2" />
		<path
   id="path2538"
   sodipodi:nodetypes="ccccccccc"
   class="st0"
   d="M421.6,204.1l-1.3-0.4l-2.8-0.2l-5.9-0.9l0.8-1l2.3-1.4    l3.3-0.8l2.3-0.1C420.2,199.2,421.6,204.1,421.6,204.1L421.6,204.1z" />
		<circle
   id="circle2540"
   class="st3"
   cx="425.6"
   cy="199.6"
   r="0.9" />
	</g>
	<path
   id="path3724"
   sodipodi:nodetypes="sssssssssssss"
   class="st6"
   d="M440.8,230.3c-15.6,4.7-22.4,24.1-30.5,38.3   c-12.8,22.5-22.7,47.3-27.5,72.8c-3.5,18.5-4.8,38.2-0.5,56.5c3.4,14.2,8,30.7,20,39c13.8,9.4,33.1,6.7,49.8,5.2   c16.5-1.4,34.3-4.1,47.8-13.8c9.9-7.1,15.9-18.9,21-30c5.2-11.3,9.5-35,9.2-36.2s-7.3-27.3-13.2-40c-7.7-16.4-18.8-30.9-28.7-46   c-8.8-13.3-14.5-29.8-27.2-39.3C455.2,232.6,447.5,228.3,440.8,230.3L440.8,230.3z" />
	<path
   id="path3728"
   sodipodi:nodetypes="ssssssssssssssssssssssss"
   class="st7"
   d="M319.1,220.5c-4.5-1.1-9.2-1.1-13.8-0.8   c-6.9,0.5-13.9,1.4-20.2,4c-6.8,2.8-12.7,7.4-18.2,12.2c-10.6,9.4-19.5,20.6-28,32c-7.7,10.3-14.1,21.4-20.5,32.5   c-9.6,16.7-20.1,33.1-26.5,51.2c-3.6,10.3-6.1,21.1-6.5,32c-0.4,9.1-0.7,19,3.2,27.2c3.3,7,9.9,12,16,16.8c7.3,5.7,23,13.5,24,14   s20.4,5.1,30.8,7c10.6,2,21.3,3.8,32,4.8c12.1,1.1,24.3,0.9,36.5,1c9.8,0.1,20.4,3.2,29.5-0.5c4.8-1.9,9-5.9,11.2-10.5   c2.9-5.9,4.9-13,5.4-19.6c0.9-12.1-0.7-24.9-0.4-37c0.2-13.7,1.3-27,1.9-40.5c0.5-11.4-0.3-33-0.3-34s-1.3-16.6-2.8-24.8   c-1.3-7.3-2.9-14.7-5.2-21.8c-3.3-9.9-5.2-21.2-12.5-28.8C345.5,227.9,331.8,223.7,319.1,220.5L319.1,220.5z" />
	<path
   id="path3853"
   sodipodi:nodetypes="sssssssssssssssssssssssssss"
   class="st8"
   d="M353.1,98.8c-10.1-0.8-19.3,7.6-27,14.2   c-6.5,5.5-10.3,13.6-15.2,20.5c-14.2,19.9-28.9,39.5-41.5,60.5c-20,33.4-36.8,69.7-56,103.6c-10.1,17.8-19.2,40.5-25.7,53.9   c-2.6,5.4-2.7,6.8-4.3,9.8c-0.9,1.7-1.6,7.7-2.1,12.2c-1.1,9-2.3,22.8,1.4,33.1c2.7,7.6,9.2,15.1,15.1,20.6   c7.8,7.2,18.5,12.5,28.2,16.6c13.6,5.7,28.8,7.7,43.4,10.2c14.5,2.6,29.3,3.3,44,4c18.7,0.9,37.5,0.4,56.2,0.2   c17.1-0.2,34.2,0.3,51.2-1.2c23.4-2.1,47.6-3.1,69.8-11c11-3.9,28.7-16,30.2-17.5s6.4-12.3,8.2-19c3.1-11.1,3.9-22.7,4.5-34.2   c0.4-8.3-0.5-15.9-2.4-24c-2-8.6-5.5-17.3-9.4-25.2c-5.4-11-11-22-17.2-32.5c-10.1-17-22.2-32.8-32.8-49.5   c-14.7-23.3-27.8-47.6-42.8-70.8c-8-12.3-14.9-25.6-25-36.2c-8-8.4-15.2-16-24.5-23C371.9,108.5,362.7,99.5,353.1,98.8L353.1,98.8z   " />
	<path
   id="path4728"
   sodipodi:nodetypes="csssssssssssssssssscc"
   class="st9"
   d="M549.1,154.4c-7.2,3-20.8,11.1-23.2,18.6   c-2.8,8.8-0.3,18.6,0.9,27.8c1.1,8.4,4.2,16.6,5.8,24.9c3.5,18.4,8.1,36.5,13.4,54.4c3.1,10.3,6.2,20.6,10.6,30.4   c4.4,9.8,9.6,19.3,15.6,28.3c4.2,6.4,7.9,13.6,14.1,18c5.5,3.9,12.6,4.8,19.1,6.4c4.9,1.1,9.8,2,14.8,2.1   c10.7,0.2,21.5-0.9,31.8-3.5c10.2-2.6,20-7,29.3-12c11.9-6.4,23.6-13.8,33.6-23c9.6-8.8,17.5-19.3,24.7-30.1   c7.2-10.6,13.9-21.6,18.4-33.6c3.6-9.6,5.8-19.8,6.7-30.1c0.8-9.5,1.9-19.7-1.4-28.6c-4.3-11.6-13.2-21.4-22.6-29.3   c-11.3-9.6-25.1-16.5-39.2-20.9c-17.8-5.5-36-6-54.6-6.5C622.6,148.3,569.5,146.8,549.1,154.4L549.1,154.4z" />
	<path
   id="path2547"
   class="st10"
   d="M440.9,2.5v86.3" />
	<path
   id="path2549"
   class="st10"
   d="M422.1,127.1l-35.2,8.7" />
	<path
   id="path2551"
   class="st10"
   d="M355.7,156.9l-51.4,76.9" />
	<path
   id="path2553"
   class="st10"
   d="M286.9,269.4l-46.9,107.4" />
	<path
   id="path2555"
   class="st10"
   d="M301,291.2l13.6,88" />
	<path
   id="path2557"
   class="st10"
   d="M385.3,163.1l49.7,69.5" />
	<path
   id="path2559"
   class="st10"
   d="M449.8,285.5l-28,72.1" />
	<path
   id="path2561"
   class="st10"
   d="M468.2,283.5l11,20.1" />
	<path
   id="path2563"
   class="st10"
   d="M468.1,140.2l68.7,37.2" />
	<path
   id="path2565"
   class="st10"
   d="M579.3,233.3l14.5,54" />
	<path
   id="path2567"
   class="st10"
   d="M598.6,199.3l104,16.7" />
	<text
   transform="matrix(1 0 0 1 460.6316 113.9654)"
   class="st11 st12"
   id="text90">root</text>
	<text
   transform="matrix(1 0 0 1 281.6238 531.4244)"
   class="st11 st12"
   id="text92">2 sister groups</text>
	<rect
   id="rect7978"
   x="9.5"
   y="565.1"
   class="st13"
   width="809"
   height="387.6" />
	<path
   id="path8242"
   class="st13"
   d="M433.1,565.1v387.8" />
	<path
   id="rect8340"
   class="st14"
   d="M112.8,647.1h89.9c12,0,21.8,9.7,21.8,21.8v57c0,12-9.7,21.8-21.8,21.8h-89.9   c-12,0-21.8-9.7-21.8-21.8v-57C91,656.8,100.8,647.1,112.8,647.1z" />
	<path
   id="rect8342"
   class="st15"
   d="M105.5,655.7h40.8c3.9,0,7,3.1,7,7v25.8c0,3.9-3.1,7-7,7h-40.8c-3.9,0-7-3.1-7-7v-25.8   C98.5,658.9,101.6,655.7,105.5,655.7z" />
	<path
   id="rect8396"
   class="st16"
   d="M169.6,655.7h40.8c3.9,0,7,3.1,7,7v25.8c0,3.9-3.1,7-7,7h-40.8c-3.9,0-7-3.1-7-7v-25.8   C162.6,658.9,165.8,655.7,169.6,655.7z" />
	<path
   id="rect11986"
   class="st14"
   d="M526.8,657.6h118c12,0,21.8,9.7,21.8,21.8V822c0,12-9.7,21.8-21.8,21.8h-118   c-12,0-21.7-9.7-21.7-21.8V679.3C505,667.3,514.8,657.6,526.8,657.6z" />
	<path
   id="rect11988"
   class="st15"
   d="M519.5,666.2h49.5c3.9,0,7,3.1,7,7v114.7c0,3.9-3.1,7-7,7h-49.5c-3.9,0-7-3.1-7-7V673.2   C512.5,669.4,515.6,666.2,519.5,666.2z" />
	<path
   id="rect11990"
   class="st16"
   d="M597.6,666.2h54.2c3.9,0,7,3.1,7,7v115.7c0,3.9-3.1,7-7,7h-54.2c-3.9,0-7-3.1-7-7V673.2   C590.6,669.4,593.8,666.2,597.6,666.2z" />
	<path
   id="path12202"
   class="st17"
   d="M104.9,660.8L220,839.7" />
	<path
   id="path12204"
   class="st17"
   d="M130.5,660.7l-14,16.6" />
	<path
   id="path12206"
   class="st17"
   d="M148.6,660.7l-24.2,29.4" />
	<path
   id="path12208"
   class="st17"
   d="M169.6,661.2l21.9,29.2" />
	<path
   id="path12210"
   class="st17"
   d="M187.4,660.5l13.6,17.2" />
	<path
   id="path12212"
   class="st17"
   d="M212.5,661.1L156.2,740" />
	<path
   id="path12216"
   class="st17"
   d="M220.5,839.4l69.7-94.3" />
	<path
   id="path12218"
   class="st17"
   d="M232.8,660.3l52.4,91" />
	<path
   id="path12220"
   class="st17"
   d="M270.4,661l-20.2,27.9" />
	<path
   id="path12228"
   class="st18"
   d="M291.7,743.1l26.3-34.9" />
	<path
   id="path12293"
   sodipodi:nodetypes="ccc"
   class="st17"
   d="M292.8,660l26.2,48l36.8-48.5" />
	<path
   id="path12295"
   class="st19"
   d="M75.5,751.2l34.7-46.1" />
	<path
   id="path12297"
   sodipodi:nodetypes="cc"
   class="st19"
   d="M104.7,806.9l43.4-57.8" />
	<path
   id="path12299"
   sodipodi:nodetypes="cc"
   class="st19"
   d="M197.9,760.5l62.2,96.8" />
	<path
   id="path12301"
   sodipodi:nodetypes="cc"
   class="st19"
   d="M313.4,740l28.8,43.9" />
	<path
   id="path12303"
   sodipodi:nodetypes="cccc"
   d="M107.3,702.6l6.4,4.4l1.5-8.9L107.3,702.6z" />
	<path
   id="path12413"
   sodipodi:nodetypes="cccc"
   d="M144.9,746.8l6.4,4.4l1.5-8.9L144.9,746.8z" />
	<path
   id="path12415"
   sodipodi:nodetypes="cccc"
   d="M199.5,756.1l-6.4,4.4l-1.5-8.9L199.5,756.1z" />
	<path
   id="path12417"
   sodipodi:nodetypes="cccc"
   d="M316.1,737.1l-6.4,4.4l-1.5-8.9L316.1,737.1z" />
	<text
   transform="matrix(1 0 0 1 29.283 766.3492)"
   class="st11 st20"
   id="text121">A nested</text>
	<text
   transform="matrix(1 0 0 1 41.2986 786.3492)"
   class="st11 st20"
   id="text123">clade</text>
	<text
   transform="matrix(1 0 0 1 30.4178 821.9459)"
   class="st11 st20"
   id="text125">MRCA of lineages</text>
	<text
   transform="matrix(1 0 0 1 49.1053 841.9459)"
   class="st11 st20"
   id="text127">splitting from</text>
	<text
   transform="matrix(1 0 0 1 61.9842 861.9459)"
   class="st11 st20"
   id="text129">this node</text>
	<text
   transform="matrix(1 0 0 1 236.8792 871.1783)"
   class="st11 st20"
   id="text131">Larger</text>
	<text
   transform="matrix(1 0 0 1 240.8792 891.1783)"
   class="st11 st20"
   id="text133">clade</text>
	<text
   transform="matrix(1 0 0 1 243.4036 29.9029)"
   class="st11 st20"
   id="text135">MRCA of lineages</text>
	<text
   transform="matrix(1 0 0 1 262.0911 49.9029)"
   class="st11 st20"
   id="text137">splitting from</text>
	<text
   transform="matrix(1 0 0 1 274.97 69.9029)"
   class="st11 st20"
   id="text139">this node</text>
	<text
   transform="matrix(1 0 0 1 75.1253 315.8092)"
   class="st11 st20"
   id="text141">A nested</text>
	<text
   transform="matrix(1 0 0 1 87.1409 335.8092)"
   class="st11 st20"
   id="text143">clade</text>
	<text
   transform="matrix(1 0 0 1 106.4187 207.1744)"
   class="st11 st20"
   id="text145">Larger</text>
	<text
   transform="matrix(1 0 0 1 110.4187 227.1744)"
   class="st11 st20"
   id="text147">clade</text>
	<text
   transform="matrix(1 0 0 1 283.0979 797.6783)"
   class="st11 st20"
   id="text149">Shared evolutionary</text>
	<text
   transform="matrix(1 0 0 1 289.7737 817.6783)"
   class="st11 st20"
   id="text151">history of lineages</text>
	<text
   transform="matrix(1 0 0 1 299.1175 837.6783)"
   class="st11 st20"
   id="text153">originating from</text>
	<text
   transform="matrix(1 0 0 1 315.1209 857.6783)"
   class="st11 st20"
   id="text155">this branch</text>
	<text
   transform="matrix(1 0 0 1 91.389 91.3434)"
   class="st11 st20"
   id="text157">Shared evolutionary</text>
	<text
   transform="matrix(1 0 0 1 98.0647 111.3434)"
   class="st11 st20"
   id="text159">history of lineages</text>
	<text
   transform="matrix(1 0 0 1 107.4085 131.3434)"
   class="st11 st20"
   id="text161">originating from</text>
	<text
   transform="matrix(1 0 0 1 123.4124 151.3434)"
   class="st11 st20"
   id="text163">this branch</text>
	<g
   id="g13229"
   transform="rotate(140.95957,280.27604,116.46709)">
		<path
   id="path13213"
   sodipodi:nodetypes="cc"
   class="st19"
   d="M222.6,125.2l4.9-46.5" />
		<path
   id="path13215"
   sodipodi:nodetypes="cccc"
   d="M223.7,78.3l7.8,0.6l-3.1-8.5L223.7,78.3z" />
	</g>
	<g
   id="g13235"
   transform="rotate(75,310.73237,42.230326)">
		<path
   id="path13231"
   sodipodi:nodetypes="cc"
   class="st19"
   d="M449.6,237.5l43.4-57.8" />
		<path
   id="path13233"
   sodipodi:nodetypes="cccc"
   d="M489.8,177.5l6.4,4.4l1.5-8.9L489.8,177.5z" />
	</g>
	<g
   id="g13241"
   transform="rotate(86.843,336.53148,77.577454)">
		<path
   id="path13237"
   sodipodi:nodetypes="cc"
   class="st19"
   d="M384.4,178.7l59.3-76" />
		<path
   id="path13239"
   sodipodi:nodetypes="cccc"
   d="M440.5,100.4l6.4,4.4l1.5-8.9L440.5,100.4z" />
	</g>
	<g
   id="g13247"
   transform="rotate(-75,240.15201,359.33717)">
		<path
   id="path13243"
   sodipodi:nodetypes="cc"
   class="st19"
   d="M121.1,514.4l43.4-57.8" />
		<path
   id="path13245"
   sodipodi:nodetypes="cccc"
   d="M159,457.7l6.4,4.4l1.5-8.9L159,457.7z" />
	</g>
	<g
   id="g13253"
   transform="matrix(-0.25881905,-0.96592583,-0.96592583,0.25881905,540.69037,496.84378)">
		<path
   id="path13249"
   sodipodi:nodetypes="cc"
   class="st19"
   d="M28.5,175.3l51.1-68.4" />
		<path
   id="path13251"
   sodipodi:nodetypes="cccc"
   d="M74.9,106.9l6.4,4.4l1.5-8.9L74.9,106.9z" />
	</g>
	<g
   id="g13425"
   transform="rotate(75,274.13282,59.871913)">
		<path
   id="path13421"
   sodipodi:nodetypes="cc"
   class="st19"
   d="M493.7,259.8l43.4-57.8" />
		<path
   id="path13423"
   sodipodi:nodetypes="cccc"
   d="M534,199.7l6.4,4.4l1.5-8.9L534,199.7z" />
	</g>
	<text
   transform="matrix(1 0 0 1 461.031 912.6783)"
   class="st11 st20"
   id="text183">Larger clade</text>
	<path
   id="path13606"
   sodipodi:nodetypes="cc"
   class="st19"
   d="M533.5,853l-36,45.3" />
	<path
   id="path13608"
   sodipodi:nodetypes="cccc"
   d="M537.1,854.6l-6.2-4.7l8-4.2L537.1,854.6z" />
	<path
   id="path13610"
   sodipodi:nodetypes="cc"
   class="st19"
   d="M551.5,656.3l33.7-37.9" />
	<path
   id="path13612"
   sodipodi:nodetypes="cccc"
   d="M547.9,654.5l5.9,5.1l-8.2,3.7L547.9,654.5z" />
	<path
   id="path13614"
   sodipodi:nodetypes="cc"
   class="st19"
   d="M617.7,656.3l-33.7-37.9" />
	<path
   id="path13616"
   sodipodi:nodetypes="cccc"
   d="M621.2,654.5l-5.9,5.1l8.2,3.7L621.2,654.5z" />
	<text
   transform="matrix(1 0 0 1 544.1638 611.0504)"
   class="st11 st20"
   id="text191">Sister clades</text>
	<path
   id="path13805"
   class="st17"
   d="M220.1,893.1v-54.6" />
	<path
   id="path13807"
   sodipodi:nodetypes="cc"
   class="st17"
   d="M661.2,915v-31.6" />
	<path
   id="path13809"
   sodipodi:nodetypes="cccc"
   class="st17"
   d="M582.4,836.7v47.1h155.5v-47.7" />
	<path
   id="path13811"
   sodipodi:nodetypes="cccc"
   class="st17"
   d="M550.5,789.1v47.1h63.3v-47.1" />
	<path
   id="path13813"
   sodipodi:nodetypes="cccc"
   class="st17"
   d="M706.6,789.1v47.1h63.3v-47.1" />
	<path
   id="path13815"
   sodipodi:nodetypes="cccc"
   class="st17"
   d="M566.3,673.8V789h-30.1v-70.9" />
	<path
   id="path13817"
   sodipodi:nodetypes="cccc"
   class="st17"
   d="M636.6,747.7v42.5h-37.1V673.8" />
	<path
   id="path13819"
   sodipodi:nodetypes="cccc"
   class="st17"
   d="M722.9,745.8V789h-30.1v-43.9" />
	<path
   id="path13821"
   sodipodi:nodetypes="cccc"
   class="st17"
   d="M785.4,719.9V789h-31.9v-70.9" />
	<path
   id="path13823"
   class="st17"
   d="M522,673.8v44h29.1v-43.9" />
	<path
   id="path13825"
   sodipodi:nodetypes="cccc"
   class="st17"
   d="M620.7,673.9v73.7h30.4v-73.7" />
	<path
   id="path13827"
   class="st17"
   d="M684.8,674.7v71.3H701v-71.2" />
	<path
   id="path13829"
   class="st17"
   d="M713.5,674.7v71.3h16.2v-71.2" />
	<path
   id="path13831"
   sodipodi:nodetypes="cccc"
   class="st17"
   d="M744.8,674.6v42.9H761v-42.8" />
	<path
   id="path13833"
   sodipodi:nodetypes="cccc"
   class="st17"
   d="M778.1,674.6v45.6h16.2v-45.5" />
</g>
</svg>
