<?xml version="1.0" encoding="UTF-8" standalone="no"?>
<!-- Created with Inkscape (http://www.inkscape.org/) -->

<svg
   version="1.1"
   id="svg132"
   width="1190.325"
   height="450.55301"
   viewBox="0 0 595.16248 225.2765"
   sodipodi:docname="rooted-trees_alt.svg"
   inkscape:version="1.2.2 (732a01da63, 2022-12-09)"
   xml:space="preserve"
   inkscape:export-filename="rooted-trees_alt.png"
   inkscape:export-xdpi="150"
   inkscape:export-ydpi="150"
   xmlns:inkscape="http://www.inkscape.org/namespaces/inkscape"
   xmlns:sodipodi="http://sodipodi.sourceforge.net/DTD/sodipodi-0.dtd"
   xmlns="http://www.w3.org/2000/svg"
   xmlns:svg="http://www.w3.org/2000/svg"><defs
     id="defs136" /><sodipodi:namedview
     id="namedview134"
     pagecolor="#ffffff"
     bordercolor="#000000"
     borderopacity="0.25"
     inkscape:showpageshadow="2"
     inkscape:pageopacity="0.0"
     inkscape:pagecheckerboard="0"
     inkscape:deskcolor="#d1d1d1"
     showgrid="false"
     inkscape:zoom="0.5"
     inkscape:cx="754"
     inkscape:cy="566"
     inkscape:window-width="1920"
     inkscape:window-height="991"
     inkscape:window-x="-9"
     inkscape:window-y="-9"
     inkscape:window-maximized="1"
     inkscape:current-layer="svg132" /><rect
     style="fill:#ffffff;stroke-width:1.26425;stroke-linecap:square"
     id="rect410"
     width="595.17511"
     height="225.28412"
     x="28.709427"
     y="2.4694202"
     transform="translate(-28.712627,-2.4722719)"
     inkscape:label="Background" /><g
     inkscape:groupmode="layer"
     inkscape:label="Image"
     id="g138"
     transform="translate(-28.712627,-2.4722719)"><g
       id="g2303"
       inkscape:label="Bird"
       style="display:inline"
       transform="translate(324.97571,1.5)"><path
         style="fill:#dc9733;fill-opacity:1;stroke:#000000;stroke-width:0.120945;stroke-dasharray:none;stroke-opacity:1"
         d="m 135.46619,65.495766 v 9.954737 l -0.57452,0.243068 -0.92808,0.342505 -0.3646,0.53033 0.0221,0.60767 0.37565,-0.408796 c 0,0 0.7955,-0.09944 0.87284,-0.09944 0.0773,0 2.33124,0.05524 2.33124,0.05524 l 0.47509,0.05524 0.53033,0.452991 -0.0884,-0.83969 -1.138,-0.320407 -0.66291,-0.364602 V 65.584154 Z"
         id="path1334" /><path
         style="fill:#d38d5f;fill-opacity:1;stroke:#000000;stroke-width:0.120945;stroke-dasharray:none;stroke-opacity:1"
         d="m 128.14969,53.476887 c -0.009,-0.03668 -0.86081,-2.372345 -0.78667,-2.44955 l 0.53825,-1.209903 1.16781,-0.673521 0.97228,-0.198874 1.30372,-0.06629 0.88389,0.0221 0.61872,0.265165 0.53033,0.640816 0.57452,1.21534 0.30936,0.994369 0.37565,0.839689 0.37565,0.994369 0.81759,0.441941 1.23744,0.243068 1.56889,1.104855 1.5468,1.370019 0.81759,1.347922 1.5026,2.253903 1.21534,1.568893 1.14905,1.303729 1.10486,1.215339 1.54679,1.193243 0.50824,0.640816 c 0,0 -0.0884,0.574524 -0.17678,0.574524 -0.0884,0 -0.33257,0.07789 -0.33257,0.07789 l -0.56917,-0.196533 -0.60086,-0.190716 -1.25954,-0.53033 -1.41421,-0.883884 -1.29268,0.441939 -1.21535,0.110488 -3.54657,0.0442 -2.5826,-0.331457 -1.31202,-0.574524 -1.43354,-0.917029 -1.26782,-1.027515 -1.22363,-1.535747 -1.0579,-1.82301 -0.46127,-1.602039 -0.21821,-2.154466 z"
         id="path1393"
         sodipodi:nodetypes="ccccccccccccccccccccccccsccccccccccccccccc" /><path
         style="fill:#784421;fill-opacity:1;stroke:#000000;stroke-width:0.120945;stroke-dasharray:none;stroke-opacity:1"
         d="m 134.19561,58.966076 0.20992,0.68501 0.51928,0.696058 0.90598,0.883884 1.04961,0.729204 1.04962,0.497184 1.10485,0.430893 1.01647,0.464039 0.7071,0.45299 0.7734,0.519282 0.83969,0.585573 0.66363,0.316369 0.66015,0.17187 0.40625,0.242188 0.82813,0.507812 0.39062,0.234375 0.63281,0.234375 0.44532,0.179688 0.54687,0.195312 0.58203,0.22656 0.73047,0.167969 -0.20312,-0.855469 -0.5,-0.617188 -1.53907,-1.179687 -2.25,-2.453125 -3.3125,-4.804688 -0.26562,-0.523437 -1.32813,-1.117188"
         id="path1391"
         sodipodi:nodetypes="cccccccccccccccccccccccccccc" /><path
         style="display:inline;fill:#dc9733;fill-opacity:1;stroke:#000000;stroke-width:0.120945;stroke-dasharray:none;stroke-opacity:1"
         d="m 128.12235,53.476887 -0.64426,-0.178725 -1.41421,-0.110486 -2.96101,-0.464039 0.37565,-0.508233 1.14905,-0.685009 1.65728,-0.419845 1.12695,-0.04419 c 0.0155,-0.003 0.71055,2.410527 0.71055,2.410527 z"
         id="path1060"
         sodipodi:nodetypes="ccccccccc" /><circle
         style="fill:#000000;fill-opacity:1;stroke:#000000;stroke-width:0.120945;stroke-dasharray:none;stroke-opacity:1"
         id="path2140"
         cx="130.11523"
         cy="51.244141"
         r="0.42773438" /></g><g
       id="g2315"
       inkscape:label="Bird"
       transform="translate(288.02938,12.106602)"><path
         style="fill:#dc9733;fill-opacity:1;stroke:#000000;stroke-width:0.120945;stroke-dasharray:none;stroke-opacity:1"
         d="m 135.46619,65.495766 v 9.954737 l -0.57452,0.243068 -0.92808,0.342505 -0.3646,0.53033 0.0221,0.60767 0.37565,-0.408796 c 0,0 0.7955,-0.09944 0.87284,-0.09944 0.0773,0 2.33124,0.05524 2.33124,0.05524 l 0.47509,0.05524 0.53033,0.452991 -0.0884,-0.83969 -1.138,-0.320407 -0.66291,-0.364602 V 65.584154 Z"
         id="path2305" /><path
         style="fill:#ffffff;fill-opacity:1;stroke:#000000;stroke-width:0.120945;stroke-dasharray:none;stroke-opacity:1"
         d="m 128.14969,53.476887 c -0.009,-0.03668 -0.86081,-2.372345 -0.78667,-2.44955 l 0.53825,-1.209903 1.16781,-0.673521 0.97228,-0.198874 1.30372,-0.06629 0.88389,0.0221 0.61872,0.265165 0.53033,0.640816 0.57452,1.21534 0.30936,0.994369 0.37565,0.839689 0.37565,0.994369 0.81759,0.441941 1.23744,0.243068 1.56889,1.104855 1.5468,1.370019 0.81759,1.347922 1.5026,2.253903 1.21534,1.568893 1.14905,1.303729 1.10486,1.215339 1.54679,1.193243 0.50824,0.640816 c 0,0 -0.0884,0.574524 -0.17678,0.574524 -0.0884,0 -0.33257,0.07789 -0.33257,0.07789 l -0.56917,-0.196533 -0.60086,-0.190716 -1.25954,-0.53033 -1.41421,-0.883884 -1.29268,0.441939 -1.21535,0.110488 -3.54657,0.0442 -2.5826,-0.331457 -1.31202,-0.574524 -1.43354,-0.917029 -1.26782,-1.027515 -1.22363,-1.535747 -1.0579,-1.82301 -0.46127,-1.602039 -0.21821,-2.154466 z"
         id="path2307"
         sodipodi:nodetypes="ccccccccccccccccccccccccsccccccccccccccccc" /><path
         style="fill:#ffffff;fill-opacity:1;stroke:#000000;stroke-width:0.120945;stroke-dasharray:none;stroke-opacity:1"
         d="m 134.19561,58.966076 0.20992,0.68501 0.51928,0.696058 0.90598,0.883884 1.04961,0.729204 1.04962,0.497184 1.10485,0.430893 1.01647,0.464039 0.7071,0.45299 0.7734,0.519282 0.83969,0.585573 0.66363,0.316369 0.66015,0.17187 0.40625,0.242188 0.82813,0.507812 0.39062,0.234375 0.63281,0.234375 0.44532,0.179688 0.54687,0.195312 0.58203,0.22656 0.73047,0.167969 -0.20312,-0.855469 -0.5,-0.617188 -1.53907,-1.179687 -2.25,-2.453125 -3.3125,-4.804688 -0.26562,-0.523437 -1.32813,-1.117188"
         id="path2309"
         sodipodi:nodetypes="cccccccccccccccccccccccccccc" /><path
         style="display:inline;fill:#dc9733;fill-opacity:1;stroke:#000000;stroke-width:0.120945;stroke-dasharray:none;stroke-opacity:1"
         d="m 128.12235,53.476887 -0.64426,-0.178725 -1.41421,-0.110486 -2.96101,-0.464039 0.37565,-0.508233 1.14905,-0.685009 1.65728,-0.419845 1.12695,-0.04419 c 0.0155,-0.003 0.71055,2.410527 0.71055,2.410527 z"
         id="path2311"
         sodipodi:nodetypes="ccccccccc" /><circle
         style="fill:#000000;fill-opacity:1;stroke:#000000;stroke-width:0.120945;stroke-dasharray:none;stroke-opacity:1"
         id="circle2313"
         cx="130.11523"
         cy="51.244141"
         r="0.42773438" /></g><g
       id="g2327"
       inkscape:label="Bird"
       transform="translate(253.22571,68)"><path
         style="fill:#dc9733;fill-opacity:1;stroke:#000000;stroke-width:0.120945;stroke-dasharray:none;stroke-opacity:1"
         d="m 135.46619,65.495766 v 9.954737 l -0.57452,0.243068 -0.92808,0.342505 -0.3646,0.53033 0.0221,0.60767 0.37565,-0.408796 c 0,0 0.7955,-0.09944 0.87284,-0.09944 0.0773,0 2.33124,0.05524 2.33124,0.05524 l 0.47509,0.05524 0.53033,0.452991 -0.0884,-0.83969 -1.138,-0.320407 -0.66291,-0.364602 V 65.584154 Z"
         id="path2317" /><path
         style="fill:#ffffff;fill-opacity:1;stroke:#000000;stroke-width:0.120945;stroke-dasharray:none;stroke-opacity:1"
         d="m 128.14969,53.476887 c -0.009,-0.03668 -0.86081,-2.372345 -0.78667,-2.44955 l 0.53825,-1.209903 1.16781,-0.673521 0.97228,-0.198874 1.30372,-0.06629 0.88389,0.0221 0.70466,0.226103 0.69439,0.570503 0.56671,1.035653 0.57498,1.088119 0.26628,0.886564 0.58658,0.666244 0.73166,0.426316 1.20566,0.525337 1.86369,1.19553 0.76034,1.489266 0.81759,1.347922 1.5026,2.253903 1.21534,1.568893 1.14905,1.303729 1.10486,1.215339 1.54679,1.193243 0.50824,0.640816 c 0,0 -0.0884,0.574524 -0.17678,0.574524 -0.0884,0 -0.33257,0.07789 -0.33257,0.07789 l -0.56917,-0.196533 -0.60086,-0.190716 -1.25954,-0.53033 -1.41421,-0.883884 -1.29268,0.441939 -1.21535,0.110488 -3.54657,0.0442 -2.5826,-0.331457 -1.31202,-0.574524 -1.43354,-0.917029 -1.26782,-1.027515 -1.22363,-1.535747 -1.0579,-1.82301 -0.46127,-1.602039 -0.21821,-2.154466 z"
         id="path2319"
         sodipodi:nodetypes="ccccccccccccccccccccccccsccccccccccccccccc" /><path
         style="fill:#ffffff;fill-opacity:1;stroke:#000000;stroke-width:0.120945;stroke-dasharray:none;stroke-opacity:1"
         d="m 134.19561,58.966076 0.20992,0.68501 0.51928,0.696058 0.90598,0.883884 1.04961,0.729204 1.04962,0.497184 1.10485,0.430893 1.01647,0.464039 0.7071,0.45299 0.7734,0.519282 0.83969,0.585573 0.66363,0.316369 0.66015,0.17187 0.40625,0.242188 0.21876,0.273437 0.70312,0.578125 1.16405,0.84375 2.91407,2.054688 4.82812,3.195312 1.11328,0.648435 0.98047,0.152344 0.0625,-0.699219 -0.25,-0.929688 -8.57032,-7.242187 -2.60938,-2.5 -3.07812,-4.085938 -1.10937,-1.320312 -1.17551,-0.950837"
         id="path2321"
         sodipodi:nodetypes="cccccccccccccccccccccccccccc" /><path
         style="display:inline;fill:#dc9733;fill-opacity:1;stroke:#000000;stroke-width:0.120945;stroke-dasharray:none;stroke-opacity:1"
         d="m 128.12235,53.476887 -0.64426,-0.178725 -1.41421,-0.110486 -2.96101,-0.464039 0.37565,-0.508233 1.14905,-0.685009 1.65728,-0.419845 1.12695,-0.04419 c 0.0155,-0.003 0.71055,2.410527 0.71055,2.410527 z"
         id="path2323"
         sodipodi:nodetypes="ccccccccc" /><circle
         style="fill:#000000;fill-opacity:1;stroke:#000000;stroke-width:0.120945;stroke-dasharray:none;stroke-opacity:1"
         id="circle2325"
         cx="130.11523"
         cy="51.244141"
         r="0.42773438" /></g><g
       id="g2339"
       inkscape:label="Bird"
       transform="translate(265.47571,145.375)"><path
         style="fill:#dc9733;fill-opacity:1;stroke:#000000;stroke-width:0.120945;stroke-dasharray:none;stroke-opacity:1"
         d="m 135.46619,65.495766 v 9.954737 l -0.57452,0.243068 -0.92808,0.342505 -0.3646,0.53033 0.0221,0.60767 0.37565,-0.408796 c 0,0 0.7955,-0.09944 0.87284,-0.09944 0.0773,0 2.33124,0.05524 2.33124,0.05524 l 0.47509,0.05524 0.53033,0.452991 -0.0884,-0.83969 -1.138,-0.320407 -0.66291,-0.364602 V 65.584154 Z"
         id="path2329" /><path
         style="fill:#ffffff;fill-opacity:1;stroke:#000000;stroke-width:0.120945;stroke-dasharray:none;stroke-opacity:1"
         d="m 128.14969,53.476887 c -0.009,-0.03668 -0.86081,-2.372345 -0.78667,-2.44955 l 0.53825,-1.209903 1.16781,-0.673521 0.97228,-0.198874 1.30372,-0.06629 0.88389,0.0221 0.70466,0.226103 0.69439,0.570503 0.56671,1.035653 0.57498,1.088119 0.26628,0.886564 0.58658,0.666244 0.73166,0.426316 1.20566,0.525337 1.86369,1.19553 0.76034,1.489266 0.81759,1.347922 1.5026,2.253903 1.21534,1.568893 1.14905,1.303729 1.10486,1.215339 1.54679,1.193243 0.50824,0.640816 c 0,0 -0.0884,0.574524 -0.17678,0.574524 -0.0884,0 -0.33257,0.07789 -0.33257,0.07789 l -0.56917,-0.196533 -0.60086,-0.190716 -1.25954,-0.53033 -1.41421,-0.883884 -1.29268,0.441939 -1.21535,0.110488 -3.54657,0.0442 -2.5826,-0.331457 -1.31202,-0.574524 -1.43354,-0.917029 -1.26782,-1.027515 -1.22363,-1.535747 -1.0579,-1.82301 -0.46127,-1.602039 -0.21821,-2.154466 z"
         id="path2331"
         sodipodi:nodetypes="ccccccccccccccccccccccccsccccccccccccccccc" /><path
         style="fill:#ffffff;fill-opacity:1;stroke:#000000;stroke-width:0.120945;stroke-dasharray:none;stroke-opacity:1"
         d="m 134.19561,58.966076 0.20992,0.68501 0.51928,0.696058 0.90598,0.883884 1.04961,0.729204 1.04962,0.497184 1.10485,0.430893 1.01647,0.464039 0.7071,0.45299 0.7734,0.519282 0.83969,0.585573 0.66363,0.316369 0.66015,0.17187 0.40625,0.242188 0.21876,0.273437 0.70312,0.578125 1.16405,0.84375 2.91407,2.054688 4.82812,3.195312 1.11328,0.648435 0.98047,0.152344 0.0625,-0.699219 -0.25,-0.929688 -8.57032,-7.242187 -2.60938,-2.5 -3.07812,-4.085938 -1.10937,-1.320312 -1.17551,-0.950837"
         id="path2333"
         sodipodi:nodetypes="cccccccccccccccccccccccccccc" /><path
         style="display:inline;fill:#dc9733;fill-opacity:1;stroke:#000000;stroke-width:0.120945;stroke-dasharray:none;stroke-opacity:1"
         d="m 128.12235,53.476887 -0.64426,-0.178725 -1.41421,-0.110486 -3.29799,-0.513757 1.03304,-0.823117 0.88941,-0.574523 1.54127,-0.42537 1.23191,-0.05524 c 0.0155,-0.003 0.66083,2.681216 0.66083,2.681216 z"
         id="path2335"
         sodipodi:nodetypes="ccccccccc" /><circle
         style="fill:#000000;fill-opacity:1;stroke:#000000;stroke-width:0.120945;stroke-dasharray:none;stroke-opacity:1"
         id="circle2337"
         cx="130.11523"
         cy="51.244141"
         r="0.42773438" /><path
         style="display:inline;fill:#dc9733;fill-opacity:1;stroke:#000000;stroke-width:0.120945;stroke-dasharray:none;stroke-opacity:1"
         d="m 128.10539,53.420068 -0.59361,0.307645 -1.3611,0.399522 -3.12135,1.182303 1.18049,0.592588 0.9887,0.378926 1.59584,0.09865 1.21686,-0.199785 c 0.0158,-3.08e-4 0.0942,-2.759846 0.0942,-2.759846 z"
         id="path2353"
         sodipodi:nodetypes="ccccccccc" /></g><g
       id="g2351"
       inkscape:label="Bird"
       transform="translate(216.22571,136.75)"><path
         style="fill:#dc9733;fill-opacity:1;stroke:#000000;stroke-width:0.120945;stroke-dasharray:none;stroke-opacity:1"
         d="m 135.46619,65.495766 v 9.954737 l -0.57452,0.243068 -0.92808,0.342505 -0.3646,0.53033 0.0221,0.60767 0.37565,-0.408796 c 0,0 0.7955,-0.09944 0.87284,-0.09944 0.0773,0 2.33124,0.05524 2.33124,0.05524 l 0.47509,0.05524 0.53033,0.452991 -0.0884,-0.83969 -1.138,-0.320407 -0.66291,-0.364602 V 65.584154 Z"
         id="path2341" /><path
         style="fill:#ffffff;fill-opacity:1;stroke:#000000;stroke-width:0.120945;stroke-dasharray:none;stroke-opacity:1"
         d="m 128.14969,53.476887 c -0.009,-0.03668 -0.86081,-2.372345 -0.78667,-2.44955 l 0.53825,-1.209903 1.16781,-0.673521 0.97228,-0.198874 1.30372,-0.06629 0.88389,0.0221 0.70466,0.226103 0.69439,0.570503 0.56671,1.035653 0.57498,1.088119 0.26628,0.886564 0.58658,0.666244 0.73166,0.426316 1.20566,0.525337 1.86369,1.19553 0.76034,1.489266 0.81759,1.347922 1.5026,2.253903 1.21534,1.568893 1.14905,1.303729 1.10486,1.215339 1.54679,1.193243 0.50824,0.640816 c 0,0 -0.0884,0.574524 -0.17678,0.574524 -0.0884,0 -0.33257,0.07789 -0.33257,0.07789 l -0.56917,-0.196533 -0.60086,-0.190716 -1.25954,-0.53033 -1.41421,-0.883884 -1.29268,0.441939 -1.21535,0.110488 -3.54657,0.0442 -2.5826,-0.331457 -1.31202,-0.574524 -1.43354,-0.917029 -1.26782,-1.027515 -1.22363,-1.535747 -1.0579,-1.82301 -0.46127,-1.602039 -0.21821,-2.154466 z"
         id="path2343"
         sodipodi:nodetypes="ccccccccccccccccccccccccsccccccccccccccccc" /><path
         style="fill:#ffffff;fill-opacity:1;stroke:#000000;stroke-width:0.120945;stroke-dasharray:none;stroke-opacity:1"
         d="m 134.19561,58.966076 0.20992,0.68501 0.51928,0.696058 0.90598,0.883884 1.04961,0.729204 1.04962,0.497184 1.10485,0.430893 1.01647,0.464039 0.7071,0.45299 0.7734,0.519282 0.83969,0.585573 0.66363,0.316369 0.66015,0.17187 0.40625,0.242188 0.21876,0.273437 0.70312,0.578125 1.16405,0.84375 2.91407,2.054688 4.82812,3.195312 1.11328,0.648435 0.98047,0.152344 0.0625,-0.699219 -0.25,-0.929688 -8.57032,-7.242187 -2.60938,-2.5 -3.07812,-4.085938 -1.10937,-1.320312 -1.17551,-0.950837"
         id="path2345"
         sodipodi:nodetypes="cccccccccccccccccccccccccccc" /><path
         style="display:inline;fill:#dc9733;fill-opacity:1;stroke:#000000;stroke-width:0.120945;stroke-dasharray:none;stroke-opacity:1"
         d="m 127.7786,52.461262 -0.59738,9.63e-4 -1.05484,-0.133925 -1.84767,-0.262494 -2.60549,-0.184368 -1.40237,-0.184369 -1.50392,-0.278119 3.81315,-0.484796 1.58656,-0.09126 1.81352,-0.09953 1.46289,0.08862 c 0.0155,-0.003 0.33555,1.629277 0.33555,1.629276 z"
         id="path2347"
         sodipodi:nodetypes="ccccccccccccc" /><circle
         style="fill:#000000;fill-opacity:1;stroke:#000000;stroke-width:0.120945;stroke-dasharray:none;stroke-opacity:1"
         id="circle2349"
         cx="130.11523"
         cy="51.244141"
         r="0.42773438" /></g><g
       id="g2365"
       inkscape:label="Bird"
       transform="translate(333.02938,71.231602)"><path
         style="fill:#dc9733;fill-opacity:1;stroke:#000000;stroke-width:0.120945;stroke-dasharray:none;stroke-opacity:1"
         d="m 135.46619,69.230174 v 9.954737 l -0.57452,0.243068 -0.92808,0.342505 -0.3646,0.53033 0.0221,0.60767 0.37565,-0.408796 c 0,0 0.7955,-0.09944 0.87284,-0.09944 0.0773,0 2.33124,0.05524 2.33124,0.05524 l 0.47509,0.05524 0.53033,0.452991 -0.0884,-0.83969 -1.138,-0.320407 -0.66291,-0.364602 V 69.318562 Z"
         id="path2355" /><path
         style="fill:#ffffff;fill-opacity:1;stroke:#000000;stroke-width:0.120945;stroke-dasharray:none;stroke-opacity:1"
         d="m 127.70775,53.83044 c -0.009,-0.03668 -0.41887,-2.725898 -0.34473,-2.803103 l 0.53825,-1.209903 1.16781,-0.673521 0.97228,-0.198874 1.30372,-0.06629 0.88389,0.0221 0.61872,0.265165 0.53033,0.640816 0.57452,1.21534 0.30936,0.994369 0.37565,0.839689 0.37565,0.994369 0.81759,0.441941 1.23744,0.243068 1.56889,1.104855 1.5468,1.370019 0.81759,1.347922 1.5026,2.253903 1.21534,1.568893 1.14905,1.303729 1.10486,1.215339 1.54679,1.193243 0.50824,0.640816 c 0,0 -0.0884,0.574524 -0.17678,0.574524 -0.0884,0 -0.33257,0.07789 -0.33257,0.07789 l -0.56917,-0.196533 -0.60086,-0.190716 -1.25954,-0.53033 -0.15468,1.325825 -1.33687,1.259531 -2.96102,1.281634 -1.93348,0.375656 -2.27324,0.132582 -2.2622,0.08839 -2.11855,-0.784446 -2.01912,-1.734622 -1.95283,-2.353339 -0.92532,-3.104641 -0.2403,-3.170932 0.29002,-3.391903 z"
         id="path2357"
         sodipodi:nodetypes="ccccccccccccccccccccccccsccccccccccccccccc" /><path
         style="fill:#ffffff;fill-opacity:1;stroke:#000000;stroke-width:0.120945;stroke-dasharray:none;stroke-opacity:1"
         d="m 134.19561,58.966076 0.20992,0.68501 0.51928,0.696058 0.90598,0.883884 1.04961,0.729204 1.04962,0.497184 1.10485,0.430893 1.01647,0.464039 0.7071,0.45299 0.83969,1.049612 0.88389,1.005418 1.12766,1.133961 0.90969,0.61025 1.35865,0.676318 1.21718,0.342409 0.79542,0.392313 0.75,0.226563 0.86719,0.234375 0.42187,-0.05469 0.30078,-0.546877 -0.69921,-0.980469 -1.30469,-1.261719 -0.67187,-0.71875 -1.53907,-1.179687 -2.25,-2.453125 -3.3125,-4.804688 -0.26562,-0.523437 -1.32813,-1.117188"
         id="path2359"
         sodipodi:nodetypes="cccccccccccccccccccccccccccc" /><path
         style="display:inline;fill:#dc9733;fill-opacity:1;stroke:#000000;stroke-width:0.120945;stroke-dasharray:none;stroke-opacity:1"
         d="m 128.12235,53.476887 -0.64426,-0.178725 -1.41421,-0.110486 -2.96101,-0.464039 0.37565,-0.508233 1.14905,-0.685009 1.65728,-0.419845 1.12695,-0.04419 c 0.0155,-0.003 0.71055,2.410527 0.71055,2.410527 z"
         id="path2361"
         sodipodi:nodetypes="ccccccccc" /><circle
         style="fill:#000000;fill-opacity:1;stroke:#000000;stroke-width:0.120945;stroke-dasharray:none;stroke-opacity:1"
         id="circle2363"
         cx="130.11523"
         cy="51.244141"
         r="0.42773438" /></g><g
       id="g2377"
       inkscape:label="Bird"
       transform="translate(350.52937,107.3566)"><path
         style="fill:#dc9733;fill-opacity:1;stroke:#000000;stroke-width:0.120945;stroke-dasharray:none;stroke-opacity:1"
         d="m 135.46619,69.230174 v 9.954737 l -0.57452,0.243068 -0.92808,0.342505 -0.3646,0.53033 0.0221,0.60767 0.37565,-0.408796 c 0,0 0.7955,-0.09944 0.87284,-0.09944 0.0773,0 2.33124,0.05524 2.33124,0.05524 l 0.47509,0.05524 0.53033,0.452991 -0.0884,-0.83969 -1.138,-0.320407 -0.66291,-0.364602 V 69.318562 Z"
         id="path2367" /><path
         style="fill:#ffffff;fill-opacity:1;stroke:#000000;stroke-width:0.120945;stroke-dasharray:none;stroke-opacity:1"
         d="m 127.70775,53.83044 c -0.009,-0.03668 -0.41887,-2.725898 -0.34473,-2.803103 l 0.53825,-1.209903 1.16781,-0.673521 0.97228,-0.198874 1.30372,-0.06629 0.88389,0.0221 0.61872,0.265165 0.53033,0.640816 0.57452,1.21534 0.30936,0.994369 0.37565,0.839689 0.37565,0.994369 0.81759,0.441941 1.23744,0.243068 1.56889,1.104855 1.5468,1.370019 0.81759,1.347922 1.5026,2.253903 1.21534,1.568893 1.14905,1.303729 1.10486,1.215339 1.54679,1.193243 0.50824,0.640816 c 0,0 -0.0884,0.574524 -0.17678,0.574524 -0.0884,0 -0.33257,0.07789 -0.33257,0.07789 l -0.56917,-0.196533 -0.60086,-0.190716 -1.25954,-0.53033 -0.15468,1.325825 -1.33687,1.259531 -2.96102,1.281634 -1.93348,0.375656 -2.27324,0.132582 -2.2622,0.08839 -2.11855,-0.784446 -2.01912,-1.734622 -1.95283,-2.353339 -0.92532,-3.104641 -0.2403,-3.170932 0.29002,-3.391903 z"
         id="path2369"
         sodipodi:nodetypes="ccccccccccccccccccccccccsccccccccccccccccc" /><path
         style="fill:#ffffff;fill-opacity:1;stroke:#000000;stroke-width:0.120945;stroke-dasharray:none;stroke-opacity:1"
         d="m 134.19561,58.966076 0.20992,0.68501 0.51928,0.696058 0.90598,0.883884 1.04961,0.729204 1.04962,0.497184 1.10485,0.430893 1.01647,0.464039 0.7071,0.45299 0.83969,1.049612 0.88389,1.005418 1.12766,1.133961 0.90969,0.61025 1.35865,0.676318 1.21718,0.342409 0.79542,0.392313 0.75,0.226563 0.86719,0.234375 0.42187,-0.05469 0.30078,-0.546877 -0.69921,-0.980469 -1.30469,-1.261719 -0.67187,-0.71875 -1.53907,-1.179687 -2.25,-2.453125 -3.3125,-4.804688 -0.26562,-0.523437 -1.32813,-1.117188"
         id="path2371"
         sodipodi:nodetypes="cccccccccccccccccccccccccccc" /><path
         style="fill:#dc2121;fill-opacity:1;stroke:#000000;stroke-width:0.120945;stroke-dasharray:none;stroke-opacity:1"
         d="m 152.46875,158.96094 -0.0859,0.42187 -0.50781,0.22656 -0.47656,0.49219 -0.0781,0.89063 0.10156,0.45312 c 0,0 0.25782,0.125 0.33594,0.13281 0.0781,0.008 0.70313,-0.0781 0.70313,-0.0781 l 0.42187,-0.0937 c 0,0 0.22656,-0.46094 0.26563,-0.48438 0.0391,-0.0234 0.38281,-0.79687 0.38281,-0.85937 0,-0.0625 -0.0859,-0.57031 -0.0859,-0.57031 l -0.16406,-0.29688 z"
         id="path2504"
         transform="translate(-25.553671,-105.8566)" /><path
         style="display:inline;fill:#dc9733;fill-opacity:1;stroke:#000000;stroke-width:0.120945;stroke-dasharray:none;stroke-opacity:1"
         d="m 128.12235,53.476887 -0.64426,-0.178725 -1.41421,-0.110486 -2.96101,-0.464039 0.37565,-0.508233 1.14905,-0.685009 1.65728,-0.419845 1.12695,-0.04419 c 0.0155,-0.003 0.71055,2.410527 0.71055,2.410527 z"
         id="path2373"
         sodipodi:nodetypes="ccccccccc" /><circle
         style="fill:#000000;fill-opacity:1;stroke:#000000;stroke-width:0.120945;stroke-dasharray:none;stroke-opacity:1"
         id="circle2375"
         cx="130.11523"
         cy="51.244141"
         r="0.42773438" /></g><g
       id="g2389"
       inkscape:label="Bird"
       transform="translate(310.52938,127.6066)"><path
         style="fill:#dc9733;fill-opacity:1;stroke:#000000;stroke-width:0.120945;stroke-dasharray:none;stroke-opacity:1"
         d="m 135.46619,69.230174 v 9.954737 l -0.57452,0.243068 -0.92808,0.342505 -0.3646,0.53033 0.0221,0.60767 0.37565,-0.408796 c 0,0 0.7955,-0.09944 0.87284,-0.09944 0.0773,0 2.33124,0.05524 2.33124,0.05524 l 0.47509,0.05524 0.53033,0.452991 -0.0884,-0.83969 -1.138,-0.320407 -0.66291,-0.364602 V 69.318562 Z"
         id="path2379" /><path
         style="fill:#dc2121;fill-opacity:1;stroke:#000000;stroke-width:0.120945;stroke-dasharray:none;stroke-opacity:1"
         d="m 113.51274,175.90386 c -0.31841,-0.10139 -0.56039,-0.3649 -0.85074,-0.53033 -0.29196,-0.16635 -0.68859,-0.19882 -0.89493,-0.46404 -0.10916,-0.14031 -0.13491,-0.34201 -0.12154,-0.51928 0.0104,-0.13844 0.0598,-0.28533 0.15468,-0.3867 0.13394,-0.14313 0.33751,-0.21884 0.53033,-0.25412 0.17088,-0.0313 0.34578,0.0356 0.51928,0.0442 0.25383,0.0126 0.5085,0.0233 0.76235,0.0111 0.13325,-0.006 0.29279,0.0381 0.39775,-0.0442 0.21909,-0.17187 0.22244,-0.51363 0.28726,-0.78444 0.0579,-0.24168 -0.008,-0.51122 0.0884,-0.74026 0.0661,-0.15691 0.16628,-0.32543 0.32041,-0.39774 0.21674,-0.10169 0.48678,-0.0505 0.71815,0.011 0.27241,0.0725 0.53579,0.21477 0.74026,0.4088 0.16679,0.15828 0.2942,0.36668 0.3646,0.58557 0.0689,0.21432 -0.0827,0.48802 0.0442,0.67396 0.0734,0.1075 0.22388,0.15454 0.35356,0.16573 0.16734,0.0144 0.35671,-0.0255 0.48613,-0.13258 0.14214,-0.11759 0.0945,-0.38776 0.24307,-0.49718 0.17403,-0.12822 0.42465,-0.1 0.64081,-0.0994 0.20888,5.6e-4 0.42299,0.0264 0.61872,0.0994 0.17046,0.0635 0.39159,0.12039 0.46404,0.28726 0.0673,0.15503 -0.0811,0.32916 -0.0994,0.49718 -0.0207,0.19042 0.003,0.38348 -0.011,0.57453 -0.0106,0.14808 -0.14355,0.32256 -0.0553,0.44194 0.0889,0.12026 0.29797,0.0369 0.44195,0.0773 0.10666,0.03 0.23278,0.0415 0.30935,0.12153 0.10223,0.1069 0.14489,0.27194 0.14364,0.41985 -0.001,0.14096 -0.0508,0.29163 -0.14364,0.39774 -0.13122,0.15003 -0.34484,0.20327 -0.53033,0.27622 -0.1031,0.0406 -0.21022,0.0768 -0.3204,0.0884 -1.86017,0.19614 -3.81935,0.23608 -5.60166,-0.33144 z"
         id="path2445"
         transform="translate(14.446329,-126.1066)"
         sodipodi:nodetypes="ssssssssssssssssssssssssssssssss" /><path
         style="fill:#ffffff;fill-opacity:1;stroke:#000000;stroke-width:0.120945;stroke-dasharray:none;stroke-opacity:1"
         d="m 127.70775,53.83044 c -0.009,-0.03668 -0.41887,-2.725898 -0.34473,-2.803103 l 0.53825,-1.209903 1.16781,-0.673521 0.97228,-0.198874 1.30372,-0.06629 0.88389,0.0221 0.61872,0.265165 0.53033,0.640816 0.57452,1.21534 0.30936,0.994369 0.37565,0.839689 0.37565,0.994369 0.81759,0.441941 1.23744,0.243068 1.56889,1.104855 1.5468,1.370019 0.81759,1.347922 1.5026,2.253903 1.21534,1.568893 1.14905,1.303729 1.10486,1.215339 1.54679,1.193243 0.50824,0.640816 c 0,0 -0.0884,0.574524 -0.17678,0.574524 -0.0884,0 -0.33257,0.07789 -0.33257,0.07789 l -0.56917,-0.196533 -0.60086,-0.190716 -1.25954,-0.53033 -0.15468,1.325825 -1.33687,1.259531 -2.96102,1.281634 -1.93348,0.375656 -2.27324,0.132582 -2.2622,0.08839 -2.11855,-0.784446 -2.01912,-1.734622 -1.95283,-2.353339 -0.92532,-3.104641 -0.2403,-3.170932 0.29002,-3.391903 z"
         id="path2381"
         sodipodi:nodetypes="ccccccccccccccccccccccccsccccccccccccccccc" /><path
         style="fill:#ffffff;fill-opacity:1;stroke:#000000;stroke-width:0.120945;stroke-dasharray:none;stroke-opacity:1"
         d="m 134.19561,58.966076 0.20992,0.68501 0.51928,0.696058 0.90598,0.883884 1.04961,0.729204 1.04962,0.497184 1.10485,0.430893 1.01647,0.464039 0.7071,0.45299 0.83969,1.049612 0.88389,1.005418 1.12766,1.133961 0.90969,0.61025 1.35865,0.676318 1.21718,0.342409 0.79542,0.392313 0.75,0.226563 0.86719,0.234375 0.42187,-0.05469 0.30078,-0.546877 -0.69921,-0.980469 -1.30469,-1.261719 -0.67187,-0.71875 -1.53907,-1.179687 -2.25,-2.453125 -3.3125,-4.804688 -0.26562,-0.523437 -1.32813,-1.117188"
         id="path2383"
         sodipodi:nodetypes="cccccccccccccccccccccccccccc" /><path
         style="display:inline;fill:#dc9733;fill-opacity:1;stroke:#000000;stroke-width:0.120945;stroke-dasharray:none;stroke-opacity:1"
         d="m 128.12235,53.476887 -0.64426,-0.178725 -1.41421,-0.110486 -2.96101,-0.464039 0.37565,-0.508233 1.14905,-0.685009 1.65728,-0.419845 1.12695,-0.04419 c 0.0155,-0.003 0.71055,2.410527 0.71055,2.410527 z"
         id="path2385"
         sodipodi:nodetypes="ccccccccc" /><circle
         style="fill:#000000;fill-opacity:1;stroke:#000000;stroke-width:0.120945;stroke-dasharray:none;stroke-opacity:1"
         id="circle2387"
         cx="130.11523"
         cy="51.244141"
         r="0.42773438" /></g><g
       id="g2518"
       inkscape:label="Bird"
       transform="translate(389.17015,39.298963)"><path
         style="fill:#dc9733;fill-opacity:1;stroke:#000000;stroke-width:0.120945;stroke-dasharray:none;stroke-opacity:1"
         d="m 135.46619,64.258329 v 9.954737 l -0.57452,0.243068 -0.92808,0.342505 -0.3646,0.53033 0.0221,0.60767 0.37565,-0.408796 c 0,0 0.7955,-0.09944 0.87284,-0.09944 0.0773,0 2.33124,0.05524 2.33124,0.05524 l 0.47509,0.05524 0.53033,0.452991 -0.0884,-0.83969 -1.138,-0.320407 -0.66291,-0.364602 V 64.346717 Z"
         id="path2508" /><path
         style="fill:#d38d5f;fill-opacity:1;stroke:#000000;stroke-width:0.120945;stroke-dasharray:none;stroke-opacity:1"
         d="m 128.14969,53.476887 c -0.009,-0.03668 -0.86081,-2.372345 -0.78667,-2.44955 l 0.53825,-1.209903 1.16781,-0.673521 0.97228,-0.198874 1.30372,-0.06629 0.88389,0.0221 0.61872,0.265165 0.53033,0.640816 0.57452,1.21534 0.30936,0.994369 0.37565,0.839689 0.37565,0.994369 0.81759,0.441941 1.23744,0.243068 1.56889,1.104855 1.5468,1.370019 0.81759,1.347922 1.5026,2.253903 1.21534,1.568893 1.14905,1.303729 1.10486,1.215339 1.54679,1.193243 0.50824,0.640816 c 0,0 -0.0884,0.574524 -0.17678,0.574524 -0.0884,0 -0.0453,-0.165178 -0.0453,-0.165178 l -0.56917,-0.196533 -0.62295,-0.268056 -1.12696,-0.397747 -1.41421,-0.883884 -1.11231,1.129764 -1.98097,0.282363 -2.76532,-0.658925 -1.80135,-0.768957 -0.84327,-0.402649 -0.91792,-0.823279 -1.09594,-0.902515 -1.72363,-1.504497 -1.01103,-1.54176 -1.49252,-1.977039 -0.87446,-2.107591 z"
         id="path2510"
         sodipodi:nodetypes="ccccccccccccccccccccccccsccccccccccccccccc" /><path
         style="fill:#784421;fill-opacity:1;stroke:#000000;stroke-width:0.120945;stroke-dasharray:none;stroke-opacity:1"
         d="m 134.85852,58.601474 0.20992,0.68501 0.51928,0.696058 0.90598,0.883884 1.04961,0.729204 0.659,0.497184 0.75328,0.501205 0.54772,0.354665 0.50398,0.45299 0.71871,0.730219 1.3475,0.79651 1.40582,1.027307 0.85222,0.414153 0.625,0.210938 0.78125,0.179687 0.75781,0.3125 0.66161,0.266965 0.67188,0.171876 0.68749,0.249999 2.02735,0.499998 1.0039,0.113281 -0.47776,-0.695428 -1.92968,-1.304688 -3.12501,-1.640624 -2.25,-2.453125 -3.3125,-4.804688 -0.26562,-0.523437 -1.32813,-1.117188"
         id="path2512"
         sodipodi:nodetypes="cccccccccccccccccccccccccccc" /><path
         style="display:inline;fill:#dc9733;fill-opacity:1;stroke:#000000;stroke-width:0.120945;stroke-dasharray:none;stroke-opacity:1"
         d="m 128.12235,53.476887 -0.64426,-0.178725 -1.41421,-0.110486 -2.96101,-0.464039 0.37565,-0.508233 1.14905,-0.685009 1.65728,-0.419845 1.12695,-0.04419 c 0.0155,-0.003 0.71055,2.410527 0.71055,2.410527 z"
         id="path2514"
         sodipodi:nodetypes="ccccccccc" /><circle
         style="fill:#000000;fill-opacity:1;stroke:#000000;stroke-width:0.120945;stroke-dasharray:none;stroke-opacity:1"
         id="circle2516"
         cx="130.11523"
         cy="51.244141"
         r="0.42773438" /></g><g
       id="g2530"
       inkscape:label="Bird"
       transform="translate(464.92015,48.798963)"><path
         style="fill:#dc9733;fill-opacity:1;stroke:#000000;stroke-width:0.120945;stroke-dasharray:none;stroke-opacity:1"
         d="m 135.46619,64.258329 v 9.954737 l -0.57452,0.243068 -0.92808,0.342505 -0.3646,0.53033 0.0221,0.60767 0.37565,-0.408796 c 0,0 0.7955,-0.09944 0.87284,-0.09944 0.0773,0 2.33124,0.05524 2.33124,0.05524 l 0.47509,0.05524 0.53033,0.452991 -0.0884,-0.83969 -1.138,-0.320407 -0.66291,-0.364602 V 64.346717 Z"
         id="path2520" /><path
         style="fill:#d38d5f;fill-opacity:1;stroke:#000000;stroke-width:0.120945;stroke-dasharray:none;stroke-opacity:1"
         d="m 128.14969,53.476887 c -0.009,-0.03668 -0.86081,-2.372345 -0.78667,-2.44955 l 0.53825,-1.209903 1.16781,-0.673521 0.97228,-0.198874 1.30372,-0.06629 0.88389,0.0221 0.61872,0.265165 0.53033,0.640816 0.57452,1.21534 0.30936,0.994369 0.37565,0.839689 0.37565,0.994369 0.81759,0.441941 1.23744,0.243068 1.56889,1.104855 1.5468,1.370019 0.81759,1.347922 1.5026,2.253903 1.21534,1.568893 1.14905,1.303729 1.10486,1.215339 1.54679,1.193243 0.50824,0.640816 c 0,0 -0.0884,0.574524 -0.17678,0.574524 -0.0884,0 -0.0453,-0.165178 -0.0453,-0.165178 l -0.56917,-0.196533 -0.62295,-0.268056 -1.12696,-0.397747 -1.41421,-0.883884 -2.53757,1.185007 -2.23498,-0.522656 -1.04174,-0.511608 -0.1468,1.620761 -0.45616,1.123577 -0.38988,1.200917 -0.0474,1.85278 -1.3069,-0.10281 -1.19641,0.05187 0.008,-2.128382 -0.24351,-1.453966 -0.36818,-1.46331 -0.55332,-1.596677 -0.002,-1.399699 -1.72363,-1.504497 -1.01103,-1.54176 -1.49252,-1.977039 -0.87446,-2.107591 z"
         id="path2522"
         sodipodi:nodetypes="ccccccccccccccccccccccccscccccccccccccccccccccccc" /><path
         style="fill:#784421;fill-opacity:1;stroke:#000000;stroke-width:0.120945;stroke-dasharray:none;stroke-opacity:1"
         d="m 134.85852,58.601474 0.20992,0.68501 0.51928,0.696058 0.90598,0.883884 1.04961,0.729204 0.659,0.497184 0.75328,0.501205 0.54772,0.354665 0.50398,0.45299 0.71871,0.730219 1.3475,0.79651 1.40582,1.027307 0.85222,0.414153 0.625,0.210938 0.78125,0.179687 0.75781,0.3125 0.66161,0.266965 0.67188,0.171876 0.68749,0.249999 2.02735,0.499998 1.0039,0.113281 -0.47776,-0.695428 -1.92968,-1.304688 -3.12501,-1.640624 -2.25,-2.453125 -3.3125,-4.804688 -0.26562,-0.523437 -1.32813,-1.117188"
         id="path2524"
         sodipodi:nodetypes="cccccccccccccccccccccccccccc" /><path
         style="display:inline;fill:#dc9733;fill-opacity:1;stroke:#000000;stroke-width:0.120945;stroke-dasharray:none;stroke-opacity:1"
         d="m 128.12235,53.476887 -0.64426,-0.178725 -1.41421,-0.110486 -2.96101,-0.464039 0.37565,-0.508233 1.14905,-0.685009 1.65728,-0.419845 1.12695,-0.04419 c 0.0155,-0.003 0.71055,2.410527 0.71055,2.410527 z"
         id="path2526"
         sodipodi:nodetypes="ccccccccc" /><circle
         style="fill:#000000;fill-opacity:1;stroke:#000000;stroke-width:0.120945;stroke-dasharray:none;stroke-opacity:1"
         id="circle2528"
         cx="130.11523"
         cy="51.244141"
         r="0.42773438" /></g><g
       id="g2542"
       inkscape:label="Bird"
       transform="translate(409.94141,99.579816)"><path
         style="fill:#dc9733;fill-opacity:1;stroke:#000000;stroke-width:0.120945;stroke-dasharray:none;stroke-opacity:1"
         d="m 135.46619,64.258329 v 9.954737 l -0.57452,0.243068 -0.92808,0.342505 -0.3646,0.53033 0.0221,0.60767 0.37565,-0.408796 c 0,0 0.7955,-0.09944 0.87284,-0.09944 0.0773,0 2.33124,0.05524 2.33124,0.05524 l 0.47509,0.05524 0.53033,0.452991 -0.0884,-0.83969 -1.138,-0.320407 -0.66291,-0.364602 V 64.346717 Z"
         id="path2532" /><path
         style="fill:#784421;fill-opacity:1;stroke:#000000;stroke-width:0.120945;stroke-dasharray:none;stroke-opacity:1"
         d="m 137.87414,63.476474 0.20992,0.68501 0.51928,0.696058 0.90598,0.883884 1.04961,0.729204 0.659,0.497184 0.75328,0.501205 0.54772,0.354665 0.50398,0.45299 0.93746,0.667719 1.12875,0.85901 1.40582,1.027307 0.57097,0.476653 0.6875,0.742188 5,5.617187 0.375,-0.04687 -2.86964,-4.15491 0.63281,-0.945312 0.42187,0.398437 2.98047,3.093748 0.45703,0.222656 -0.18089,-0.781366 -3.49217,-3.414063 -2.41702,-2.031938 -1.84672,-2.221106 -3.12468,-3.335232 -0.48659,-2.62266 -1.32813,-1.117188"
         id="path2544"
         sodipodi:nodetypes="cccccccccccccccccccccccccccc" /><path
         style="fill:#d38d5f;fill-opacity:1;stroke:#000000;stroke-width:0.120945;stroke-dasharray:none;stroke-opacity:1"
         d="m 128.14969,53.476887 c -0.009,-0.03668 -0.86081,-2.372345 -0.78667,-2.44955 l 0.53825,-1.209903 1.16781,-0.673521 0.97228,-0.198874 1.30372,-0.06629 0.88389,0.0221 0.61872,0.265165 0.53033,0.640816 0.57452,1.21534 0.30936,0.994369 0.37565,0.839689 0.37565,0.994369 0.81759,0.441941 1.23744,0.243068 1.56889,1.104855 1.5468,1.370019 0.81759,1.347922 1.5026,2.253903 1.21534,1.568893 1.14905,1.303729 1.10486,1.215339 1.54679,1.193243 0.50824,0.640816 c 0,0 -0.0884,0.574524 -0.17678,0.574524 -0.0884,0 -0.0453,-0.165178 -0.0453,-0.165178 l -0.56917,-0.196533 -0.62295,-0.268056 -1.12696,-0.397747 -1.41421,-0.883884 -1.11231,1.129764 -1.98097,0.282363 -2.76532,-0.658925 -1.80135,-0.768957 -0.84327,-0.402649 -0.91792,-0.823279 -1.09594,-0.902515 -1.72363,-1.504497 -1.01103,-1.54176 -1.49252,-1.977039 -0.87446,-2.107591 z"
         id="path2534"
         sodipodi:nodetypes="ccccccccccccccccccccccccsccccccccccccccccc" /><path
         style="fill:#784421;fill-opacity:1;stroke:#000000;stroke-width:0.120945;stroke-dasharray:none;stroke-opacity:1"
         d="m 134.85852,58.601474 0.20992,0.68501 0.51928,0.696058 0.90598,0.883884 1.04961,0.729204 0.659,0.497184 0.75328,0.501205 0.54772,0.354665 0.50398,0.45299 0.71871,0.730219 1.3475,0.79651 1.40582,1.027307 0.85222,0.414153 0.625,0.210938 0.78125,0.179687 0.75781,0.3125 0.66161,0.266965 0.67188,0.171876 0.68749,0.249999 2.02735,0.499998 1.0039,0.113281 -0.47776,-0.695428 -1.92968,-1.304688 -3.12501,-1.640624 -2.25,-2.453125 -3.3125,-4.804688 -0.26562,-0.523437 -1.32813,-1.117188"
         id="path2536"
         sodipodi:nodetypes="cccccccccccccccccccccccccccc" /><path
         style="display:inline;fill:#dc9733;fill-opacity:1;stroke:#000000;stroke-width:0.120945;stroke-dasharray:none;stroke-opacity:1"
         d="m 128.12235,53.476887 -0.64426,-0.178725 -1.41421,-0.110486 -2.96101,-0.464039 0.37565,-0.508233 1.14905,-0.685009 1.65728,-0.419845 1.12695,-0.04419 c 0.0155,-0.003 0.71055,2.410527 0.71055,2.410527 z"
         id="path2538"
         sodipodi:nodetypes="ccccccccc" /><circle
         style="fill:#000000;fill-opacity:1;stroke:#000000;stroke-width:0.120945;stroke-dasharray:none;stroke-opacity:1"
         id="circle2540"
         cx="130.11523"
         cy="51.244141"
         r="0.42773438" /></g><path
       style="fill:none;fill-opacity:1;stroke:#000000;stroke-width:2.01071;stroke-dasharray:none;stroke-opacity:1"
       d="M 460.65181,2.4722719 V 45.605785"
       id="path2547" /><path
       style="fill:none;fill-opacity:1;stroke:#000000;stroke-width:2.01071;stroke-dasharray:none;stroke-opacity:1"
       d="m 451.23845,64.786057 -17.58928,4.331029"
       id="path2549" /><path
       style="fill:none;fill-opacity:1;stroke:#000000;stroke-width:2.0105;stroke-dasharray:none;stroke-opacity:1"
       d="M 418.04863,79.679493 392.3507,118.125"
       id="path2551" /><path
       style="fill:none;fill-opacity:1;stroke:#000000;stroke-width:2.01071;stroke-dasharray:none;stroke-opacity:1"
       d="m 383.6632,135.9375 -23.44264,53.675"
       id="path2553" /><path
       style="fill:none;fill-opacity:1;stroke:#000000;stroke-width:2.01071;stroke-dasharray:none;stroke-opacity:1"
       d="m 390.69445,146.84375 6.8125,44"
       id="path2555" /><path
       style="fill:none;fill-opacity:1;stroke:#000000;stroke-width:2.01071;stroke-dasharray:none;stroke-opacity:1"
       d="m 432.81945,82.78125 24.84926,34.75055"
       id="path2557" /><path
       style="fill:none;fill-opacity:1;stroke:#000000;stroke-width:2.01071;stroke-dasharray:none;stroke-opacity:1"
       d="m 465.07123,143.98202 -14.00955,36.06244"
       id="path2559" /><path
       style="fill:none;fill-opacity:1;stroke:#000000;stroke-width:2.01071;stroke-dasharray:none;stroke-opacity:1"
       d="m 474.30781,142.96555 5.52427,10.03208"
       id="path2561" /><path
       style="fill:none;fill-opacity:1;stroke:#000000;stroke-width:2.01071;stroke-dasharray:none;stroke-opacity:1"
       d="m 474.2257,71.3125 34.375,18.625"
       id="path2563" /><path
       style="fill:none;fill-opacity:1;stroke:#000000;stroke-width:2.01071;stroke-dasharray:none;stroke-opacity:1"
       d="m 529.85989,117.90745 7.24784,27.00264"
       id="path2565" /><path
       style="fill:none;fill-opacity:1;stroke:#000000;stroke-width:2.01071;stroke-dasharray:none;stroke-opacity:1"
       d="m 539.49422,100.8927 52.01654,8.3527"
       id="path2567" /><text
       xml:space="preserve"
       style="font-size:10.6667px;font-family:sans-serif;-inkscape-font-specification:'sans-serif, Normal';fill:none;fill-opacity:1;stroke:#4472c4;stroke-width:2.01071;stroke-dasharray:none;stroke-dashoffset:0;stroke-opacity:0.976471"
       x="470.50699"
       y="58.21875"
       id="text6222"><tspan
         sodipodi:role="line"
         id="tspan6220"
         x="470.50699"
         y="58.21875"
         style="font-size:10.6667px;fill:#000000;fill-opacity:1;stroke:none">root</tspan></text><text
       xml:space="preserve"
       style="font-size:8px;font-family:sans-serif;-inkscape-font-specification:'sans-serif, Normal';fill:#000000;fill-opacity:1;stroke:none;stroke-width:0.755906;stroke-linecap:butt;stroke-linejoin:round;stroke-dasharray:none;stroke-dashoffset:0;stroke-opacity:0.976471"
       x="130.96321"
       y="37.101791"
       id="text13181"><tspan
         sodipodi:role="line"
         x="130.96321"
         y="37.101791"
         id="tspan13179"
         style="font-size:8px;text-align:center;text-anchor:middle">internal node</tspan></text><g
       id="g13425"
       transform="rotate(118.68665,300.80277,94.116555)"><path
         style="fill:none;fill-opacity:1;stroke:#000000;stroke-width:0.755906;stroke-linecap:butt;stroke-linejoin:round;stroke-dasharray:1.51181, 0.755906;stroke-dashoffset:0;stroke-opacity:0.976471"
         d="m 333.21659,268.64546 10.36517,-16.95615"
         id="path13421"
         sodipodi:nodetypes="cc" /><path
         style="fill:#000000;fill-opacity:1;stroke:none;stroke-width:0.755906;stroke-linecap:butt;stroke-linejoin:round;stroke-dasharray:none;stroke-dashoffset:0;stroke-opacity:0.976471"
         d="m 341.97656,250.55469 3.20313,2.21875 0.76065,-4.45768 z"
         id="path13423"
         sodipodi:nodetypes="cccc" /></g><g
       id="g910"
       inkscape:label="Bird"
       transform="translate(15.766354,12.356602)"><path
         style="fill:#dc9733;fill-opacity:1;stroke:#000000;stroke-width:0.120945;stroke-dasharray:none;stroke-opacity:1"
         d="m 135.46619,65.495766 v 9.954737 l -0.57452,0.243068 -0.92808,0.342505 -0.3646,0.53033 0.0221,0.60767 0.37565,-0.408796 c 0,0 0.7955,-0.09944 0.87284,-0.09944 0.0773,0 2.33124,0.05524 2.33124,0.05524 l 0.47509,0.05524 0.53033,0.452991 -0.0884,-0.83969 -1.138,-0.320407 -0.66291,-0.364602 V 65.584154 Z"
         id="path900" /><path
         style="fill:#ffffff;fill-opacity:1;stroke:#000000;stroke-width:0.120945;stroke-dasharray:none;stroke-opacity:1"
         d="m 128.14969,53.476887 c -0.009,-0.03668 -0.86081,-2.372345 -0.78667,-2.44955 l 0.53825,-1.209903 1.16781,-0.673521 0.97228,-0.198874 1.30372,-0.06629 0.88389,0.0221 0.61872,0.265165 0.53033,0.640816 0.57452,1.21534 0.30936,0.994369 0.37565,0.839689 0.37565,0.994369 0.81759,0.441941 1.23744,0.243068 1.56889,1.104855 1.5468,1.370019 0.81759,1.347922 1.5026,2.253903 1.21534,1.568893 1.14905,1.303729 1.10486,1.215339 1.54679,1.193243 0.50824,0.640816 c 0,0 -0.0884,0.574524 -0.17678,0.574524 -0.0884,0 -0.33257,0.07789 -0.33257,0.07789 l -0.56917,-0.196533 -0.60086,-0.190716 -1.25954,-0.53033 -1.41421,-0.883884 -1.29268,0.441939 -1.21535,0.110488 -3.54657,0.0442 -2.5826,-0.331457 -1.31202,-0.574524 -1.43354,-0.917029 -1.26782,-1.027515 -1.22363,-1.535747 -1.0579,-1.82301 -0.46127,-1.602039 -0.21821,-2.154466 z"
         id="path902"
         sodipodi:nodetypes="ccccccccccccccccccccccccsccccccccccccccccc" /><path
         style="fill:#ffffff;fill-opacity:1;stroke:#000000;stroke-width:0.120945;stroke-dasharray:none;stroke-opacity:1"
         d="m 134.19561,58.966076 0.20992,0.68501 0.51928,0.696058 0.90598,0.883884 1.04961,0.729204 1.04962,0.497184 1.10485,0.430893 1.01647,0.464039 0.7071,0.45299 0.7734,0.519282 0.83969,0.585573 0.66363,0.316369 0.66015,0.17187 0.40625,0.242188 0.82813,0.507812 0.39062,0.234375 0.63281,0.234375 0.44532,0.179688 0.54687,0.195312 0.58203,0.22656 0.73047,0.167969 -0.20312,-0.855469 -0.5,-0.617188 -1.53907,-1.179687 -2.25,-2.453125 -3.3125,-4.804688 -0.26562,-0.523437 -1.32813,-1.117188"
         id="path904"
         sodipodi:nodetypes="cccccccccccccccccccccccccccc" /><path
         style="display:inline;fill:#dc9733;fill-opacity:1;stroke:#000000;stroke-width:0.120945;stroke-dasharray:none;stroke-opacity:1"
         d="m 128.12235,53.476887 -0.64426,-0.178725 -1.41421,-0.110486 -2.96101,-0.464039 0.37565,-0.508233 1.14905,-0.685009 1.65728,-0.419845 1.12695,-0.04419 c 0.0155,-0.003 0.71055,2.410527 0.71055,2.410527 z"
         id="path906"
         sodipodi:nodetypes="ccccccccc" /><circle
         style="fill:#000000;fill-opacity:1;stroke:#000000;stroke-width:0.120945;stroke-dasharray:none;stroke-opacity:1"
         id="circle908"
         cx="130.11523"
         cy="51.244141"
         r="0.42773438" /></g><g
       id="g922"
       inkscape:label="Bird"
       transform="translate(-49.808133,36.918523)"><path
         style="fill:#dc9733;fill-opacity:1;stroke:#000000;stroke-width:0.120945;stroke-dasharray:none;stroke-opacity:1"
         d="m 135.46619,65.495766 v 9.954737 l -0.57452,0.243068 -0.92808,0.342505 -0.3646,0.53033 0.0221,0.60767 0.37565,-0.408796 c 0,0 0.7955,-0.09944 0.87284,-0.09944 0.0773,0 2.33124,0.05524 2.33124,0.05524 l 0.47509,0.05524 0.53033,0.452991 -0.0884,-0.83969 -1.138,-0.320407 -0.66291,-0.364602 V 65.584154 Z"
         id="path912" /><path
         style="fill:#ffffff;fill-opacity:1;stroke:#000000;stroke-width:0.120945;stroke-dasharray:none;stroke-opacity:1"
         d="m 128.14969,53.476887 c -0.009,-0.03668 -0.86081,-2.372345 -0.78667,-2.44955 l 0.53825,-1.209903 1.16781,-0.673521 0.97228,-0.198874 1.30372,-0.06629 0.88389,0.0221 0.70466,0.226103 0.69439,0.570503 0.56671,1.035653 0.57498,1.088119 0.26628,0.886564 0.58658,0.666244 0.73166,0.426316 1.20566,0.525337 1.86369,1.19553 0.76034,1.489266 0.81759,1.347922 1.5026,2.253903 1.21534,1.568893 1.14905,1.303729 1.10486,1.215339 1.54679,1.193243 0.50824,0.640816 c 0,0 -0.0884,0.574524 -0.17678,0.574524 -0.0884,0 -0.33257,0.07789 -0.33257,0.07789 l -0.56917,-0.196533 -0.60086,-0.190716 -1.25954,-0.53033 -1.41421,-0.883884 -1.29268,0.441939 -1.21535,0.110488 -3.54657,0.0442 -2.5826,-0.331457 -1.31202,-0.574524 -1.43354,-0.917029 -1.26782,-1.027515 -1.22363,-1.535747 -1.0579,-1.82301 -0.46127,-1.602039 -0.21821,-2.154466 z"
         id="path914"
         sodipodi:nodetypes="ccccccccccccccccccccccccsccccccccccccccccc" /><path
         style="fill:#ffffff;fill-opacity:1;stroke:#000000;stroke-width:0.120945;stroke-dasharray:none;stroke-opacity:1"
         d="m 134.19561,58.966076 0.20992,0.68501 0.51928,0.696058 0.90598,0.883884 1.04961,0.729204 1.04962,0.497184 1.10485,0.430893 1.01647,0.464039 0.7071,0.45299 0.7734,0.519282 0.83969,0.585573 0.66363,0.316369 0.66015,0.17187 0.40625,0.242188 0.21876,0.273437 0.70312,0.578125 1.16405,0.84375 2.91407,2.054688 4.82812,3.195312 1.11328,0.648435 0.98047,0.152344 0.0625,-0.699219 -0.25,-0.929688 -8.57032,-7.242187 -2.60938,-2.5 -3.07812,-4.085938 -1.10937,-1.320312 -1.17551,-0.950837"
         id="path916"
         sodipodi:nodetypes="cccccccccccccccccccccccccccc" /><path
         style="display:inline;fill:#dc9733;fill-opacity:1;stroke:#000000;stroke-width:0.120945;stroke-dasharray:none;stroke-opacity:1"
         d="m 128.12235,53.476887 -0.64426,-0.178725 -1.41421,-0.110486 -2.96101,-0.464039 0.37565,-0.508233 1.14905,-0.685009 1.65728,-0.419845 1.12695,-0.04419 c 0.0155,-0.003 0.71055,2.410527 0.71055,2.410527 z"
         id="path918"
         sodipodi:nodetypes="ccccccccc" /><circle
         style="fill:#000000;fill-opacity:1;stroke:#000000;stroke-width:0.120945;stroke-dasharray:none;stroke-opacity:1"
         id="circle920"
         cx="130.11523"
         cy="51.244141"
         r="0.42773438" /></g><g
       id="g936"
       inkscape:label="Bird"
       transform="translate(-71.406483,-31.186559)"><path
         style="fill:#dc9733;fill-opacity:1;stroke:#000000;stroke-width:0.120945;stroke-dasharray:none;stroke-opacity:1"
         d="m 135.46619,65.495766 v 9.954737 l -0.57452,0.243068 -0.92808,0.342505 -0.3646,0.53033 0.0221,0.60767 0.37565,-0.408796 c 0,0 0.7955,-0.09944 0.87284,-0.09944 0.0773,0 2.33124,0.05524 2.33124,0.05524 l 0.47509,0.05524 0.53033,0.452991 -0.0884,-0.83969 -1.138,-0.320407 -0.66291,-0.364602 V 65.584154 Z"
         id="path924" /><path
         style="fill:#ffffff;fill-opacity:1;stroke:#000000;stroke-width:0.120945;stroke-dasharray:none;stroke-opacity:1"
         d="m 128.14969,53.476887 c -0.009,-0.03668 -0.86081,-2.372345 -0.78667,-2.44955 l 0.53825,-1.209903 1.16781,-0.673521 0.97228,-0.198874 1.30372,-0.06629 0.88389,0.0221 0.70466,0.226103 0.69439,0.570503 0.56671,1.035653 0.57498,1.088119 0.26628,0.886564 0.58658,0.666244 0.73166,0.426316 1.20566,0.525337 1.86369,1.19553 0.76034,1.489266 0.81759,1.347922 1.5026,2.253903 1.21534,1.568893 1.14905,1.303729 1.10486,1.215339 1.54679,1.193243 0.50824,0.640816 c 0,0 -0.0884,0.574524 -0.17678,0.574524 -0.0884,0 -0.33257,0.07789 -0.33257,0.07789 l -0.56917,-0.196533 -0.60086,-0.190716 -1.25954,-0.53033 -1.41421,-0.883884 -1.29268,0.441939 -1.21535,0.110488 -3.54657,0.0442 -2.5826,-0.331457 -1.31202,-0.574524 -1.43354,-0.917029 -1.26782,-1.027515 -1.22363,-1.535747 -1.0579,-1.82301 -0.46127,-1.602039 -0.21821,-2.154466 z"
         id="path926"
         sodipodi:nodetypes="ccccccccccccccccccccccccsccccccccccccccccc" /><path
         style="fill:#ffffff;fill-opacity:1;stroke:#000000;stroke-width:0.120945;stroke-dasharray:none;stroke-opacity:1"
         d="m 134.19561,58.966076 0.20992,0.68501 0.51928,0.696058 0.90598,0.883884 1.04961,0.729204 1.04962,0.497184 1.10485,0.430893 1.01647,0.464039 0.7071,0.45299 0.7734,0.519282 0.83969,0.585573 0.66363,0.316369 0.66015,0.17187 0.40625,0.242188 0.21876,0.273437 0.70312,0.578125 1.16405,0.84375 2.91407,2.054688 4.82812,3.195312 1.11328,0.648435 0.98047,0.152344 0.0625,-0.699219 -0.25,-0.929688 -8.57032,-7.242187 -2.60938,-2.5 -3.07812,-4.085938 -1.10937,-1.320312 -1.17551,-0.950837"
         id="path928"
         sodipodi:nodetypes="cccccccccccccccccccccccccccc" /><path
         style="display:inline;fill:#dc9733;fill-opacity:1;stroke:#000000;stroke-width:0.120945;stroke-dasharray:none;stroke-opacity:1"
         d="m 128.12235,53.476887 -0.64426,-0.178725 -1.41421,-0.110486 -3.29799,-0.513757 1.03304,-0.823117 0.88941,-0.574523 1.54127,-0.42537 1.23191,-0.05524 c 0.0155,-0.003 0.66083,2.681216 0.66083,2.681216 z"
         id="path930"
         sodipodi:nodetypes="ccccccccc" /><circle
         style="fill:#000000;fill-opacity:1;stroke:#000000;stroke-width:0.120945;stroke-dasharray:none;stroke-opacity:1"
         id="circle932"
         cx="130.11523"
         cy="51.244141"
         r="0.42773438" /><path
         style="display:inline;fill:#dc9733;fill-opacity:1;stroke:#000000;stroke-width:0.120945;stroke-dasharray:none;stroke-opacity:1"
         d="m 128.10539,53.420068 -0.59361,0.307645 -1.3611,0.399522 -3.12135,1.182303 1.18049,0.592588 0.9887,0.378926 1.59584,0.09865 1.21686,-0.199785 c 0.0158,-3.08e-4 0.0942,-2.759846 0.0942,-2.759846 z"
         id="path934"
         sodipodi:nodetypes="ccccccccc" /></g><g
       id="g948"
       inkscape:label="Bird"
       transform="translate(-82.283006,82.552407)"><path
         style="fill:#dc9733;fill-opacity:1;stroke:#000000;stroke-width:0.120945;stroke-dasharray:none;stroke-opacity:1"
         d="m 135.46619,65.495766 v 9.954737 l -0.57452,0.243068 -0.92808,0.342505 -0.3646,0.53033 0.0221,0.60767 0.37565,-0.408796 c 0,0 0.7955,-0.09944 0.87284,-0.09944 0.0773,0 2.33124,0.05524 2.33124,0.05524 l 0.47509,0.05524 0.53033,0.452991 -0.0884,-0.83969 -1.138,-0.320407 -0.66291,-0.364602 V 65.584154 Z"
         id="path938" /><path
         style="fill:#ffffff;fill-opacity:1;stroke:#000000;stroke-width:0.120945;stroke-dasharray:none;stroke-opacity:1"
         d="m 128.14969,53.476887 c -0.009,-0.03668 -0.86081,-2.372345 -0.78667,-2.44955 l 0.53825,-1.209903 1.16781,-0.673521 0.97228,-0.198874 1.30372,-0.06629 0.88389,0.0221 0.70466,0.226103 0.69439,0.570503 0.56671,1.035653 0.57498,1.088119 0.26628,0.886564 0.58658,0.666244 0.73166,0.426316 1.20566,0.525337 1.86369,1.19553 0.76034,1.489266 0.81759,1.347922 1.5026,2.253903 1.21534,1.568893 1.14905,1.303729 1.10486,1.215339 1.54679,1.193243 0.50824,0.640816 c 0,0 -0.0884,0.574524 -0.17678,0.574524 -0.0884,0 -0.33257,0.07789 -0.33257,0.07789 l -0.56917,-0.196533 -0.60086,-0.190716 -1.25954,-0.53033 -1.41421,-0.883884 -1.29268,0.441939 -1.21535,0.110488 -3.54657,0.0442 -2.5826,-0.331457 -1.31202,-0.574524 -1.43354,-0.917029 -1.26782,-1.027515 -1.22363,-1.535747 -1.0579,-1.82301 -0.46127,-1.602039 -0.21821,-2.154466 z"
         id="path940"
         sodipodi:nodetypes="ccccccccccccccccccccccccsccccccccccccccccc" /><path
         style="fill:#ffffff;fill-opacity:1;stroke:#000000;stroke-width:0.120945;stroke-dasharray:none;stroke-opacity:1"
         d="m 134.19561,58.966076 0.20992,0.68501 0.51928,0.696058 0.90598,0.883884 1.04961,0.729204 1.04962,0.497184 1.10485,0.430893 1.01647,0.464039 0.7071,0.45299 0.7734,0.519282 0.83969,0.585573 0.66363,0.316369 0.66015,0.17187 0.40625,0.242188 0.21876,0.273437 0.70312,0.578125 1.16405,0.84375 2.91407,2.054688 4.82812,3.195312 1.11328,0.648435 0.98047,0.152344 0.0625,-0.699219 -0.25,-0.929688 -8.57032,-7.242187 -2.60938,-2.5 -3.07812,-4.085938 -1.10937,-1.320312 -1.17551,-0.950837"
         id="path942"
         sodipodi:nodetypes="cccccccccccccccccccccccccccc" /><path
         style="display:inline;fill:#dc9733;fill-opacity:1;stroke:#000000;stroke-width:0.120945;stroke-dasharray:none;stroke-opacity:1"
         d="m 127.7786,52.461262 -0.59738,9.63e-4 -1.05484,-0.133925 -1.84767,-0.262494 -2.60549,-0.184368 -1.40237,-0.184369 -1.50392,-0.278119 3.81315,-0.484796 1.58656,-0.09126 1.81352,-0.09953 1.46289,0.08862 c 0.0155,-0.003 0.33555,1.629277 0.33555,1.629276 z"
         id="path944"
         sodipodi:nodetypes="ccccccccccccc" /><circle
         style="fill:#000000;fill-opacity:1;stroke:#000000;stroke-width:0.120945;stroke-dasharray:none;stroke-opacity:1"
         id="circle946"
         cx="130.11523"
         cy="51.244141"
         r="0.42773438" /></g><g
       id="g960"
       inkscape:label="Bird"
       transform="translate(55.766354,68.731602)"><path
         style="fill:#dc9733;fill-opacity:1;stroke:#000000;stroke-width:0.120945;stroke-dasharray:none;stroke-opacity:1"
         d="m 135.46619,69.230174 v 9.954737 l -0.57452,0.243068 -0.92808,0.342505 -0.3646,0.53033 0.0221,0.60767 0.37565,-0.408796 c 0,0 0.7955,-0.09944 0.87284,-0.09944 0.0773,0 2.33124,0.05524 2.33124,0.05524 l 0.47509,0.05524 0.53033,0.452991 -0.0884,-0.83969 -1.138,-0.320407 -0.66291,-0.364602 V 69.318562 Z"
         id="path950" /><path
         style="fill:#ffffff;fill-opacity:1;stroke:#000000;stroke-width:0.120945;stroke-dasharray:none;stroke-opacity:1"
         d="m 127.70775,53.83044 c -0.009,-0.03668 -0.41887,-2.725898 -0.34473,-2.803103 l 0.53825,-1.209903 1.16781,-0.673521 0.97228,-0.198874 1.30372,-0.06629 0.88389,0.0221 0.61872,0.265165 0.53033,0.640816 0.57452,1.21534 0.30936,0.994369 0.37565,0.839689 0.37565,0.994369 0.81759,0.441941 1.23744,0.243068 1.56889,1.104855 1.5468,1.370019 0.81759,1.347922 1.5026,2.253903 1.21534,1.568893 1.14905,1.303729 1.10486,1.215339 1.54679,1.193243 0.50824,0.640816 c 0,0 -0.0884,0.574524 -0.17678,0.574524 -0.0884,0 -0.33257,0.07789 -0.33257,0.07789 l -0.56917,-0.196533 -0.60086,-0.190716 -1.25954,-0.53033 -0.15468,1.325825 -1.33687,1.259531 -2.96102,1.281634 -1.93348,0.375656 -2.27324,0.132582 -2.2622,0.08839 -2.11855,-0.784446 -2.01912,-1.734622 -1.95283,-2.353339 -0.92532,-3.104641 -0.2403,-3.170932 0.29002,-3.391903 z"
         id="path952"
         sodipodi:nodetypes="ccccccccccccccccccccccccsccccccccccccccccc" /><path
         style="fill:#ffffff;fill-opacity:1;stroke:#000000;stroke-width:0.120945;stroke-dasharray:none;stroke-opacity:1"
         d="m 134.19561,58.966076 0.20992,0.68501 0.51928,0.696058 0.90598,0.883884 1.04961,0.729204 1.04962,0.497184 1.10485,0.430893 1.01647,0.464039 0.7071,0.45299 0.83969,1.049612 0.88389,1.005418 1.12766,1.133961 0.90969,0.61025 1.35865,0.676318 1.21718,0.342409 0.79542,0.392313 0.75,0.226563 0.86719,0.234375 0.42187,-0.05469 0.30078,-0.546877 -0.69921,-0.980469 -1.30469,-1.261719 -0.67187,-0.71875 -1.53907,-1.179687 -2.25,-2.453125 -3.3125,-4.804688 -0.26562,-0.523437 -1.32813,-1.117188"
         id="path954"
         sodipodi:nodetypes="cccccccccccccccccccccccccccc" /><path
         style="display:inline;fill:#dc9733;fill-opacity:1;stroke:#000000;stroke-width:0.120945;stroke-dasharray:none;stroke-opacity:1"
         d="m 128.12235,53.476887 -0.64426,-0.178725 -1.41421,-0.110486 -2.96101,-0.464039 0.37565,-0.508233 1.14905,-0.685009 1.65728,-0.419845 1.12695,-0.04419 c 0.0155,-0.003 0.71055,2.410527 0.71055,2.410527 z"
         id="path956"
         sodipodi:nodetypes="ccccccccc" /><circle
         style="fill:#000000;fill-opacity:1;stroke:#000000;stroke-width:0.120945;stroke-dasharray:none;stroke-opacity:1"
         id="circle958"
         cx="130.11523"
         cy="51.244141"
         r="0.42773438" /></g><g
       id="g974"
       inkscape:label="Bird"
       transform="translate(94.766345,89.606599)"><path
         style="fill:#dc9733;fill-opacity:1;stroke:#000000;stroke-width:0.120945;stroke-dasharray:none;stroke-opacity:1"
         d="m 135.46619,69.230174 v 9.954737 l -0.57452,0.243068 -0.92808,0.342505 -0.3646,0.53033 0.0221,0.60767 0.37565,-0.408796 c 0,0 0.7955,-0.09944 0.87284,-0.09944 0.0773,0 2.33124,0.05524 2.33124,0.05524 l 0.47509,0.05524 0.53033,0.452991 -0.0884,-0.83969 -1.138,-0.320407 -0.66291,-0.364602 V 69.318562 Z"
         id="path962" /><path
         style="fill:#ffffff;fill-opacity:1;stroke:#000000;stroke-width:0.120945;stroke-dasharray:none;stroke-opacity:1"
         d="m 127.70775,53.83044 c -0.009,-0.03668 -0.41887,-2.725898 -0.34473,-2.803103 l 0.53825,-1.209903 1.16781,-0.673521 0.97228,-0.198874 1.30372,-0.06629 0.88389,0.0221 0.61872,0.265165 0.53033,0.640816 0.57452,1.21534 0.30936,0.994369 0.37565,0.839689 0.37565,0.994369 0.81759,0.441941 1.23744,0.243068 1.56889,1.104855 1.5468,1.370019 0.81759,1.347922 1.5026,2.253903 1.21534,1.568893 1.14905,1.303729 1.10486,1.215339 1.54679,1.193243 0.50824,0.640816 c 0,0 -0.0884,0.574524 -0.17678,0.574524 -0.0884,0 -0.33257,0.07789 -0.33257,0.07789 l -0.56917,-0.196533 -0.60086,-0.190716 -1.25954,-0.53033 -0.15468,1.325825 -1.33687,1.259531 -2.96102,1.281634 -1.93348,0.375656 -2.27324,0.132582 -2.2622,0.08839 -2.11855,-0.784446 -2.01912,-1.734622 -1.95283,-2.353339 -0.92532,-3.104641 -0.2403,-3.170932 0.29002,-3.391903 z"
         id="path964"
         sodipodi:nodetypes="ccccccccccccccccccccccccsccccccccccccccccc" /><path
         style="fill:#ffffff;fill-opacity:1;stroke:#000000;stroke-width:0.120945;stroke-dasharray:none;stroke-opacity:1"
         d="m 134.19561,58.966076 0.20992,0.68501 0.51928,0.696058 0.90598,0.883884 1.04961,0.729204 1.04962,0.497184 1.10485,0.430893 1.01647,0.464039 0.7071,0.45299 0.83969,1.049612 0.88389,1.005418 1.12766,1.133961 0.90969,0.61025 1.35865,0.676318 1.21718,0.342409 0.79542,0.392313 0.75,0.226563 0.86719,0.234375 0.42187,-0.05469 0.30078,-0.546877 -0.69921,-0.980469 -1.30469,-1.261719 -0.67187,-0.71875 -1.53907,-1.179687 -2.25,-2.453125 -3.3125,-4.804688 -0.26562,-0.523437 -1.32813,-1.117188"
         id="path966"
         sodipodi:nodetypes="cccccccccccccccccccccccccccc" /><path
         style="fill:#dc2121;fill-opacity:1;stroke:#000000;stroke-width:0.120945;stroke-dasharray:none;stroke-opacity:1"
         d="m 152.46875,158.96094 -0.0859,0.42187 -0.50781,0.22656 -0.47656,0.49219 -0.0781,0.89063 0.10156,0.45312 c 0,0 0.25782,0.125 0.33594,0.13281 0.0781,0.008 0.70313,-0.0781 0.70313,-0.0781 l 0.42187,-0.0937 c 0,0 0.22656,-0.46094 0.26563,-0.48438 0.0391,-0.0234 0.38281,-0.79687 0.38281,-0.85937 0,-0.0625 -0.0859,-0.57031 -0.0859,-0.57031 l -0.16406,-0.29688 z"
         id="path968"
         transform="translate(-25.553671,-105.8566)" /><path
         style="display:inline;fill:#dc9733;fill-opacity:1;stroke:#000000;stroke-width:0.120945;stroke-dasharray:none;stroke-opacity:1"
         d="m 128.12235,53.476887 -0.64426,-0.178725 -1.41421,-0.110486 -2.96101,-0.464039 0.37565,-0.508233 1.14905,-0.685009 1.65728,-0.419845 1.12695,-0.04419 c 0.0155,-0.003 0.71055,2.410527 0.71055,2.410527 z"
         id="path970"
         sodipodi:nodetypes="ccccccccc" /><circle
         style="fill:#000000;fill-opacity:1;stroke:#000000;stroke-width:0.120945;stroke-dasharray:none;stroke-opacity:1"
         id="circle972"
         cx="130.11523"
         cy="51.244141"
         r="0.42773438" /></g><g
       id="g988"
       inkscape:label="Bird"
       transform="translate(20.218257,116.66421)"><path
         style="fill:#dc9733;fill-opacity:1;stroke:#000000;stroke-width:0.120945;stroke-dasharray:none;stroke-opacity:1"
         d="m 135.46619,69.230174 v 9.954737 l -0.57452,0.243068 -0.92808,0.342505 -0.3646,0.53033 0.0221,0.60767 0.37565,-0.408796 c 0,0 0.7955,-0.09944 0.87284,-0.09944 0.0773,0 2.33124,0.05524 2.33124,0.05524 l 0.47509,0.05524 0.53033,0.452991 -0.0884,-0.83969 -1.138,-0.320407 -0.66291,-0.364602 V 69.318562 Z"
         id="path976" /><path
         style="fill:#dc2121;fill-opacity:1;stroke:#000000;stroke-width:0.120945;stroke-dasharray:none;stroke-opacity:1"
         d="m 113.51274,175.90386 c -0.31841,-0.10139 -0.56039,-0.3649 -0.85074,-0.53033 -0.29196,-0.16635 -0.68859,-0.19882 -0.89493,-0.46404 -0.10916,-0.14031 -0.13491,-0.34201 -0.12154,-0.51928 0.0104,-0.13844 0.0598,-0.28533 0.15468,-0.3867 0.13394,-0.14313 0.33751,-0.21884 0.53033,-0.25412 0.17088,-0.0313 0.34578,0.0356 0.51928,0.0442 0.25383,0.0126 0.5085,0.0233 0.76235,0.0111 0.13325,-0.006 0.29279,0.0381 0.39775,-0.0442 0.21909,-0.17187 0.22244,-0.51363 0.28726,-0.78444 0.0579,-0.24168 -0.008,-0.51122 0.0884,-0.74026 0.0661,-0.15691 0.16628,-0.32543 0.32041,-0.39774 0.21674,-0.10169 0.48678,-0.0505 0.71815,0.011 0.27241,0.0725 0.53579,0.21477 0.74026,0.4088 0.16679,0.15828 0.2942,0.36668 0.3646,0.58557 0.0689,0.21432 -0.0827,0.48802 0.0442,0.67396 0.0734,0.1075 0.22388,0.15454 0.35356,0.16573 0.16734,0.0144 0.35671,-0.0255 0.48613,-0.13258 0.14214,-0.11759 0.0945,-0.38776 0.24307,-0.49718 0.17403,-0.12822 0.42465,-0.1 0.64081,-0.0994 0.20888,5.6e-4 0.42299,0.0264 0.61872,0.0994 0.17046,0.0635 0.39159,0.12039 0.46404,0.28726 0.0673,0.15503 -0.0811,0.32916 -0.0994,0.49718 -0.0207,0.19042 0.003,0.38348 -0.011,0.57453 -0.0106,0.14808 -0.14355,0.32256 -0.0553,0.44194 0.0889,0.12026 0.29797,0.0369 0.44195,0.0773 0.10666,0.03 0.23278,0.0415 0.30935,0.12153 0.10223,0.1069 0.14489,0.27194 0.14364,0.41985 -0.001,0.14096 -0.0508,0.29163 -0.14364,0.39774 -0.13122,0.15003 -0.34484,0.20327 -0.53033,0.27622 -0.1031,0.0406 -0.21022,0.0768 -0.3204,0.0884 -1.86017,0.19614 -3.81935,0.23608 -5.60166,-0.33144 z"
         id="path978"
         transform="translate(14.446329,-126.1066)"
         sodipodi:nodetypes="ssssssssssssssssssssssssssssssss" /><path
         style="fill:#ffffff;fill-opacity:1;stroke:#000000;stroke-width:0.120945;stroke-dasharray:none;stroke-opacity:1"
         d="m 127.70775,53.83044 c -0.009,-0.03668 -0.41887,-2.725898 -0.34473,-2.803103 l 0.53825,-1.209903 1.16781,-0.673521 0.97228,-0.198874 1.30372,-0.06629 0.88389,0.0221 0.61872,0.265165 0.53033,0.640816 0.57452,1.21534 0.30936,0.994369 0.37565,0.839689 0.37565,0.994369 0.81759,0.441941 1.23744,0.243068 1.56889,1.104855 1.5468,1.370019 0.81759,1.347922 1.5026,2.253903 1.21534,1.568893 1.14905,1.303729 1.10486,1.215339 1.54679,1.193243 0.50824,0.640816 c 0,0 -0.0884,0.574524 -0.17678,0.574524 -0.0884,0 -0.33257,0.07789 -0.33257,0.07789 l -0.56917,-0.196533 -0.60086,-0.190716 -1.25954,-0.53033 -0.15468,1.325825 -1.33687,1.259531 -2.96102,1.281634 -1.93348,0.375656 -2.27324,0.132582 -2.2622,0.08839 -2.11855,-0.784446 -2.01912,-1.734622 -1.95283,-2.353339 -0.92532,-3.104641 -0.2403,-3.170932 0.29002,-3.391903 z"
         id="path980"
         sodipodi:nodetypes="ccccccccccccccccccccccccsccccccccccccccccc" /><path
         style="fill:#ffffff;fill-opacity:1;stroke:#000000;stroke-width:0.120945;stroke-dasharray:none;stroke-opacity:1"
         d="m 134.19561,58.966076 0.20992,0.68501 0.51928,0.696058 0.90598,0.883884 1.04961,0.729204 1.04962,0.497184 1.10485,0.430893 1.01647,0.464039 0.7071,0.45299 0.83969,1.049612 0.88389,1.005418 1.12766,1.133961 0.90969,0.61025 1.35865,0.676318 1.21718,0.342409 0.79542,0.392313 0.75,0.226563 0.86719,0.234375 0.42187,-0.05469 0.30078,-0.546877 -0.69921,-0.980469 -1.30469,-1.261719 -0.67187,-0.71875 -1.53907,-1.179687 -2.25,-2.453125 -3.3125,-4.804688 -0.26562,-0.523437 -1.32813,-1.117188"
         id="path982"
         sodipodi:nodetypes="cccccccccccccccccccccccccccc" /><path
         style="display:inline;fill:#dc9733;fill-opacity:1;stroke:#000000;stroke-width:0.120945;stroke-dasharray:none;stroke-opacity:1"
         d="m 128.12235,53.476887 -0.64426,-0.178725 -1.41421,-0.110486 -2.96101,-0.464039 0.37565,-0.508233 1.14905,-0.685009 1.65728,-0.419845 1.12695,-0.04419 c 0.0155,-0.003 0.71055,2.410527 0.71055,2.410527 z"
         id="path984"
         sodipodi:nodetypes="ccccccccc" /><circle
         style="fill:#000000;fill-opacity:1;stroke:#000000;stroke-width:0.120945;stroke-dasharray:none;stroke-opacity:1"
         id="circle986"
         cx="130.11523"
         cy="51.244141"
         r="0.42773438" /></g><g
       id="g1000"
       inkscape:label="Bird"
       transform="translate(94.907123,18.548962)"><path
         style="fill:#dc9733;fill-opacity:1;stroke:#000000;stroke-width:0.120945;stroke-dasharray:none;stroke-opacity:1"
         d="m 135.46619,64.258329 v 9.954737 l -0.57452,0.243068 -0.92808,0.342505 -0.3646,0.53033 0.0221,0.60767 0.37565,-0.408796 c 0,0 0.7955,-0.09944 0.87284,-0.09944 0.0773,0 2.33124,0.05524 2.33124,0.05524 l 0.47509,0.05524 0.53033,0.452991 -0.0884,-0.83969 -1.138,-0.320407 -0.66291,-0.364602 V 64.346717 Z"
         id="path990" /><path
         style="fill:#d38d5f;fill-opacity:1;stroke:#000000;stroke-width:0.120945;stroke-dasharray:none;stroke-opacity:1"
         d="m 128.14969,53.476887 c -0.009,-0.03668 -0.86081,-2.372345 -0.78667,-2.44955 l 0.53825,-1.209903 1.16781,-0.673521 0.97228,-0.198874 1.30372,-0.06629 0.88389,0.0221 0.61872,0.265165 0.53033,0.640816 0.57452,1.21534 0.30936,0.994369 0.37565,0.839689 0.37565,0.994369 0.81759,0.441941 1.23744,0.243068 1.56889,1.104855 1.5468,1.370019 0.81759,1.347922 1.5026,2.253903 1.21534,1.568893 1.14905,1.303729 1.10486,1.215339 1.54679,1.193243 0.50824,0.640816 c 0,0 -0.0884,0.574524 -0.17678,0.574524 -0.0884,0 -0.0453,-0.165178 -0.0453,-0.165178 l -0.56917,-0.196533 -0.62295,-0.268056 -1.12696,-0.397747 -1.41421,-0.883884 -1.11231,1.129764 -1.98097,0.282363 -2.76532,-0.658925 -1.80135,-0.768957 -0.84327,-0.402649 -0.91792,-0.823279 -1.09594,-0.902515 -1.72363,-1.504497 -1.01103,-1.54176 -1.49252,-1.977039 -0.87446,-2.107591 z"
         id="path992"
         sodipodi:nodetypes="ccccccccccccccccccccccccsccccccccccccccccc" /><path
         style="fill:#784421;fill-opacity:1;stroke:#000000;stroke-width:0.120945;stroke-dasharray:none;stroke-opacity:1"
         d="m 134.85852,58.601474 0.20992,0.68501 0.51928,0.696058 0.90598,0.883884 1.04961,0.729204 0.659,0.497184 0.75328,0.501205 0.54772,0.354665 0.50398,0.45299 0.71871,0.730219 1.3475,0.79651 1.40582,1.027307 0.85222,0.414153 0.625,0.210938 0.78125,0.179687 0.75781,0.3125 0.66161,0.266965 0.67188,0.171876 0.68749,0.249999 2.02735,0.499998 1.0039,0.113281 -0.47776,-0.695428 -1.92968,-1.304688 -3.12501,-1.640624 -2.25,-2.453125 -3.3125,-4.804688 -0.26562,-0.523437 -1.32813,-1.117188"
         id="path994"
         sodipodi:nodetypes="cccccccccccccccccccccccccccc" /><path
         style="display:inline;fill:#dc9733;fill-opacity:1;stroke:#000000;stroke-width:0.120945;stroke-dasharray:none;stroke-opacity:1"
         d="m 128.12235,53.476887 -0.64426,-0.178725 -1.41421,-0.110486 -2.96101,-0.464039 0.37565,-0.508233 1.14905,-0.685009 1.65728,-0.419845 1.12695,-0.04419 c 0.0155,-0.003 0.71055,2.410527 0.71055,2.410527 z"
         id="path996"
         sodipodi:nodetypes="ccccccccc" /><circle
         style="fill:#000000;fill-opacity:1;stroke:#000000;stroke-width:0.120945;stroke-dasharray:none;stroke-opacity:1"
         id="circle998"
         cx="130.11523"
         cy="51.244141"
         r="0.42773438" /></g><g
       id="g1012"
       inkscape:label="Bird"
       transform="translate(170.90712,29.548962)"><path
         style="fill:#dc9733;fill-opacity:1;stroke:#000000;stroke-width:0.120945;stroke-dasharray:none;stroke-opacity:1"
         d="m 135.46619,64.258329 v 9.954737 l -0.57452,0.243068 -0.92808,0.342505 -0.3646,0.53033 0.0221,0.60767 0.37565,-0.408796 c 0,0 0.7955,-0.09944 0.87284,-0.09944 0.0773,0 2.33124,0.05524 2.33124,0.05524 l 0.47509,0.05524 0.53033,0.452991 -0.0884,-0.83969 -1.138,-0.320407 -0.66291,-0.364602 V 64.346717 Z"
         id="path1002" /><path
         style="fill:#d38d5f;fill-opacity:1;stroke:#000000;stroke-width:0.120945;stroke-dasharray:none;stroke-opacity:1"
         d="m 128.14969,53.476887 c -0.009,-0.03668 -0.86081,-2.372345 -0.78667,-2.44955 l 0.53825,-1.209903 1.16781,-0.673521 0.97228,-0.198874 1.30372,-0.06629 0.88389,0.0221 0.61872,0.265165 0.53033,0.640816 0.57452,1.21534 0.30936,0.994369 0.37565,0.839689 0.37565,0.994369 0.81759,0.441941 1.23744,0.243068 1.56889,1.104855 1.5468,1.370019 0.81759,1.347922 1.5026,2.253903 1.21534,1.568893 1.14905,1.303729 1.10486,1.215339 1.54679,1.193243 0.50824,0.640816 c 0,0 -0.0884,0.574524 -0.17678,0.574524 -0.0884,0 -0.0453,-0.165178 -0.0453,-0.165178 l -0.56917,-0.196533 -0.62295,-0.268056 -1.12696,-0.397747 -1.41421,-0.883884 -2.53757,1.185007 -2.23498,-0.522656 -1.04174,-0.511608 -0.1468,1.620761 -0.45616,1.123577 -0.38988,1.200917 -0.0474,1.85278 -1.3069,-0.10281 -1.19641,0.05187 0.008,-2.128382 -0.24351,-1.453966 -0.36818,-1.46331 -0.55332,-1.596677 -0.002,-1.399699 -1.72363,-1.504497 -1.01103,-1.54176 -1.49252,-1.977039 -0.87446,-2.107591 z"
         id="path1004"
         sodipodi:nodetypes="ccccccccccccccccccccccccscccccccccccccccccccccccc" /><path
         style="fill:#784421;fill-opacity:1;stroke:#000000;stroke-width:0.120945;stroke-dasharray:none;stroke-opacity:1"
         d="m 134.85852,58.601474 0.20992,0.68501 0.51928,0.696058 0.90598,0.883884 1.04961,0.729204 0.659,0.497184 0.75328,0.501205 0.54772,0.354665 0.50398,0.45299 0.71871,0.730219 1.3475,0.79651 1.40582,1.027307 0.85222,0.414153 0.625,0.210938 0.78125,0.179687 0.75781,0.3125 0.66161,0.266965 0.67188,0.171876 0.68749,0.249999 2.02735,0.499998 1.0039,0.113281 -0.47776,-0.695428 -1.92968,-1.304688 -3.12501,-1.640624 -2.25,-2.453125 -3.3125,-4.804688 -0.26562,-0.523437 -1.32813,-1.117188"
         id="path1006"
         sodipodi:nodetypes="cccccccccccccccccccccccccccc" /><path
         style="display:inline;fill:#dc9733;fill-opacity:1;stroke:#000000;stroke-width:0.120945;stroke-dasharray:none;stroke-opacity:1"
         d="m 128.12235,53.476887 -0.64426,-0.178725 -1.41421,-0.110486 -2.96101,-0.464039 0.37565,-0.508233 1.14905,-0.685009 1.65728,-0.419845 1.12695,-0.04419 c 0.0155,-0.003 0.71055,2.410527 0.71055,2.410527 z"
         id="path1008"
         sodipodi:nodetypes="ccccccccc" /><circle
         style="fill:#000000;fill-opacity:1;stroke:#000000;stroke-width:0.120945;stroke-dasharray:none;stroke-opacity:1"
         id="circle1010"
         cx="130.11523"
         cy="51.244141"
         r="0.42773438" /></g><g
       id="g1026"
       inkscape:label="Bird"
       transform="translate(117.92838,-32.420188)"><path
         style="fill:#dc9733;fill-opacity:1;stroke:#000000;stroke-width:0.120945;stroke-dasharray:none;stroke-opacity:1"
         d="m 135.46619,64.258329 v 9.954737 l -0.57452,0.243068 -0.92808,0.342505 -0.3646,0.53033 0.0221,0.60767 0.37565,-0.408796 c 0,0 0.7955,-0.09944 0.87284,-0.09944 0.0773,0 2.33124,0.05524 2.33124,0.05524 l 0.47509,0.05524 0.53033,0.452991 -0.0884,-0.83969 -1.138,-0.320407 -0.66291,-0.364602 V 64.346717 Z"
         id="path1014" /><path
         style="fill:#784421;fill-opacity:1;stroke:#000000;stroke-width:0.120945;stroke-dasharray:none;stroke-opacity:1"
         d="m 137.87414,63.476474 0.20992,0.68501 0.51928,0.696058 0.90598,0.883884 1.04961,0.729204 0.659,0.497184 0.75328,0.501205 0.54772,0.354665 0.50398,0.45299 0.93746,0.667719 1.12875,0.85901 1.40582,1.027307 0.57097,0.476653 0.6875,0.742188 5,5.617187 0.375,-0.04687 -2.86964,-4.15491 0.63281,-0.945312 0.42187,0.398437 2.98047,3.093748 0.45703,0.222656 -0.18089,-0.781366 -3.49217,-3.414063 -2.41702,-2.031938 -1.84672,-2.221106 -3.12468,-3.335232 -0.48659,-2.62266 -1.32813,-1.117188"
         id="path1016"
         sodipodi:nodetypes="cccccccccccccccccccccccccccc" /><path
         style="fill:#d38d5f;fill-opacity:1;stroke:#000000;stroke-width:0.120945;stroke-dasharray:none;stroke-opacity:1"
         d="m 128.14969,53.476887 c -0.009,-0.03668 -0.86081,-2.372345 -0.78667,-2.44955 l 0.53825,-1.209903 1.16781,-0.673521 0.97228,-0.198874 1.30372,-0.06629 0.88389,0.0221 0.61872,0.265165 0.53033,0.640816 0.57452,1.21534 0.30936,0.994369 0.37565,0.839689 0.37565,0.994369 0.81759,0.441941 1.23744,0.243068 1.56889,1.104855 1.5468,1.370019 0.81759,1.347922 1.5026,2.253903 1.21534,1.568893 1.14905,1.303729 1.10486,1.215339 1.54679,1.193243 0.50824,0.640816 c 0,0 -0.0884,0.574524 -0.17678,0.574524 -0.0884,0 -0.0453,-0.165178 -0.0453,-0.165178 l -0.56917,-0.196533 -0.62295,-0.268056 -1.12696,-0.397747 -1.41421,-0.883884 -1.11231,1.129764 -1.98097,0.282363 -2.76532,-0.658925 -1.80135,-0.768957 -0.84327,-0.402649 -0.91792,-0.823279 -1.09594,-0.902515 -1.72363,-1.504497 -1.01103,-1.54176 -1.49252,-1.977039 -0.87446,-2.107591 z"
         id="path1018"
         sodipodi:nodetypes="ccccccccccccccccccccccccsccccccccccccccccc" /><path
         style="fill:#784421;fill-opacity:1;stroke:#000000;stroke-width:0.120945;stroke-dasharray:none;stroke-opacity:1"
         d="m 134.85852,58.601474 0.20992,0.68501 0.51928,0.696058 0.90598,0.883884 1.04961,0.729204 0.659,0.497184 0.75328,0.501205 0.54772,0.354665 0.50398,0.45299 0.71871,0.730219 1.3475,0.79651 1.40582,1.027307 0.85222,0.414153 0.625,0.210938 0.78125,0.179687 0.75781,0.3125 0.66161,0.266965 0.67188,0.171876 0.68749,0.249999 2.02735,0.499998 1.0039,0.113281 -0.47776,-0.695428 -1.92968,-1.304688 -3.12501,-1.640624 -2.25,-2.453125 -3.3125,-4.804688 -0.26562,-0.523437 -1.32813,-1.117188"
         id="path1020"
         sodipodi:nodetypes="cccccccccccccccccccccccccccc" /><path
         style="display:inline;fill:#dc9733;fill-opacity:1;stroke:#000000;stroke-width:0.120945;stroke-dasharray:none;stroke-opacity:1"
         d="m 128.12235,53.476887 -0.64426,-0.178725 -1.41421,-0.110486 -2.96101,-0.464039 0.37565,-0.508233 1.14905,-0.685009 1.65728,-0.419845 1.12695,-0.04419 c 0.0155,-0.003 0.71055,2.410527 0.71055,2.410527 z"
         id="path1022"
         sodipodi:nodetypes="ccccccccc" /><circle
         style="fill:#000000;fill-opacity:1;stroke:#000000;stroke-width:0.120945;stroke-dasharray:none;stroke-opacity:1"
         id="circle1024"
         cx="130.11523"
         cy="51.244141"
         r="0.42773438" /></g><path
       style="fill:none;stroke:#000000;stroke-width:2.0105;stroke-linejoin:round;stroke-dasharray:none;stroke-opacity:0.976471"
       d="m 158.11829,82.90567 24.39519,31.8198"
       id="path1762" /><path
       style="fill:none;stroke:#000000;stroke-width:2.0105;stroke-linejoin:round;stroke-dasharray:none;stroke-opacity:0.976471"
       d="m 205.67123,140.3581 10.6066,4.24264"
       id="path1764" /><path
       style="fill:none;stroke:#000000;stroke-width:2.0105;stroke-linejoin:round;stroke-dasharray:none;stroke-opacity:0.976471"
       d="M 162.71449,71.061631 218.7527,78.1327"
       id="path1766" /><path
       style="fill:none;stroke:#000000;stroke-width:2.0105;stroke-linejoin:round;stroke-dasharray:none;stroke-opacity:0.976471"
       d="M 234.48583,69.647416 246.68342,38.888272"
       id="path1768" /><path
       style="fill:none;stroke:#000000;stroke-width:2.0105;stroke-linejoin:round;stroke-dasharray:none;stroke-opacity:0.976471"
       d="M 246.8602,82.552115 298.47899,92.98194"
       id="path1770" /><path
       style="fill:none;stroke:#000000;stroke-width:2.0105;stroke-linejoin:round;stroke-dasharray:none;stroke-opacity:0.976471"
       d="M 142.38517,76.718485 97.130334,94.396155"
       id="path1772" /><path
       style="fill:none;stroke:#000000;stroke-width:2.0105;stroke-linejoin:round;stroke-dasharray:none;stroke-opacity:0.976471"
       d="M 79.80622,83.082445 69.376395,41.893476"
       id="path1774" /><path
       style="fill:none;stroke:#000000;stroke-width:2.0105;stroke-linejoin:round;stroke-dasharray:none;stroke-opacity:0.976471"
       d="M 79.27589,103.41177 58.062686,134.52446"
       id="path1776" /><path
       style="fill:none;stroke:#000000;stroke-width:2.0105;stroke-linejoin:round;stroke-dasharray:none;stroke-opacity:0.976471"
       d="m 184.28124,139.65099 -23.68807,29.87526"
       id="path1778" /><text
       xml:space="preserve"
       style="font-size:8px;font-family:sans-serif;-inkscape-font-specification:'sans-serif, Normal';fill:#000000;fill-opacity:1;stroke:none;stroke-width:0.755906;stroke-linecap:butt;stroke-linejoin:round;stroke-dasharray:none;stroke-dashoffset:0;stroke-opacity:0.976471"
       x="48.38522"
       y="98.506042"
       id="text1886"><tspan
         sodipodi:role="line"
         x="48.38522"
         y="98.506042"
         id="tspan1884"
         style="font-size:8px;text-align:center;text-anchor:middle">branch</tspan></text><g
       id="g1892"
       transform="rotate(118.68665,244.33895,100.58459)"><path
         style="fill:none;fill-opacity:1;stroke:#000000;stroke-width:0.755906;stroke-linecap:butt;stroke-linejoin:round;stroke-dasharray:1.51181, 0.755906;stroke-dashoffset:0;stroke-opacity:0.976471"
         d="m 338.15413,271.09808 5.62341,-19.06109"
         id="path1888"
         sodipodi:nodetypes="cc" /><path
         style="fill:#000000;fill-opacity:1;stroke:none;stroke-width:0.755906;stroke-linecap:butt;stroke-linejoin:round;stroke-dasharray:none;stroke-dashoffset:0;stroke-opacity:0.976471"
         d="m 341.93337,251.35649 3.66824,1.31412 -0.419,-4.50266 z"
         id="path1890"
         sodipodi:nodetypes="cccc" /></g><text
       xml:space="preserve"
       style="font-size:8px;font-family:sans-serif;-inkscape-font-specification:'sans-serif, Normal';fill:#000000;fill-opacity:1;stroke:none;stroke-width:0.755906;stroke-linecap:butt;stroke-linejoin:round;stroke-dasharray:none;stroke-dashoffset:0;stroke-opacity:0.976471"
       x="90.450638"
       y="182.60089"
       id="text1896"><tspan
         sodipodi:role="line"
         x="90.450638"
         y="182.60089"
         id="tspan1894"
         style="font-size:8px;text-align:center;text-anchor:middle">external nodes</tspan><tspan
         sodipodi:role="line"
         x="90.450638"
         y="192.60089"
         style="font-size:8px;text-align:center;text-anchor:middle"
         id="tspan1904">(leaves)</tspan></text><g
       id="g1902"
       transform="rotate(43.68665,332.49052,-37.523477)"><path
         style="fill:none;fill-opacity:1;stroke:#000000;stroke-width:0.755906;stroke-linecap:butt;stroke-linejoin:round;stroke-dasharray:1.51181, 0.755906;stroke-dashoffset:0;stroke-opacity:0.976471"
         d="m 333.21659,268.64546 10.36517,-16.95615"
         id="path1898"
         sodipodi:nodetypes="cc" /><path
         style="fill:#000000;fill-opacity:1;stroke:none;stroke-width:0.755906;stroke-linecap:butt;stroke-linejoin:round;stroke-dasharray:none;stroke-dashoffset:0;stroke-opacity:0.976471"
         d="m 341.97656,250.55469 3.20313,2.21875 0.76065,-4.45768 z"
         id="path1900"
         sodipodi:nodetypes="cccc" /></g><g
       id="g1910"
       transform="rotate(-64.633492,129.57415,427.32387)"><path
         style="fill:none;fill-opacity:1;stroke:#000000;stroke-width:0.755906;stroke-linecap:butt;stroke-linejoin:round;stroke-dasharray:1.51181, 0.755906;stroke-dashoffset:0;stroke-opacity:0.976471"
         d="m 333.21659,268.64546 10.36517,-16.95615"
         id="path1906"
         sodipodi:nodetypes="cc" /><path
         style="fill:#000000;fill-opacity:1;stroke:none;stroke-width:0.755906;stroke-linecap:butt;stroke-linejoin:round;stroke-dasharray:none;stroke-dashoffset:0;stroke-opacity:0.976471"
         d="m 341.97656,250.55469 3.20313,2.21875 0.76065,-4.45768 z"
         id="path1908"
         sodipodi:nodetypes="cccc" /></g><text
       xml:space="preserve"
       style="font-size:14.6667px;font-family:sans-serif;-inkscape-font-specification:'sans-serif, Normal';text-align:center;text-anchor:middle;fill:none;stroke:#000000;stroke-width:2.0105;stroke-linejoin:round;stroke-dasharray:none;stroke-opacity:0.976471"
       x="39.672783"
       y="22.094484"
       id="text3545"><tspan
         sodipodi:role="line"
         id="tspan3543"
         style="font-size:14.6667px;fill:#000000;fill-opacity:1;stroke:none;stroke-width:2.0105"
         x="39.672783"
         y="22.094484">A</tspan></text><text
       xml:space="preserve"
       style="font-size:14.6667px;font-family:sans-serif;-inkscape-font-specification:'sans-serif, Normal';text-align:center;text-anchor:middle;fill:none;stroke:#000000;stroke-width:2.0105;stroke-linejoin:round;stroke-dasharray:none;stroke-opacity:0.976471"
       x="350.34143"
       y="22.094484"
       id="text3601"><tspan
         sodipodi:role="line"
         id="tspan3599"
         style="font-size:14.6667px;fill:#000000;fill-opacity:1;stroke:none;stroke-width:2.0105"
         x="350.34143"
         y="22.094484">B</tspan></text></g></svg>
