<?xml version="1.0" encoding="UTF-8" standalone="no"?>
<!-- Created with Inkscape (http://www.inkscape.org/) -->

<svg
   version="1.0"
   width="1467.5966"
   height="640.685"
   id="svg2"
   sodipodi:docname="dogma_alt.svg"
   viewBox="0 0 209.65665 91.526421"
   inkscape:version="1.2.2 (732a01da63, 2022-12-09)"
   xmlns:inkscape="http://www.inkscape.org/namespaces/inkscape"
   xmlns:sodipodi="http://sodipodi.sourceforge.net/DTD/sodipodi-0.dtd"
   xmlns:xlink="http://www.w3.org/1999/xlink"
   xmlns="http://www.w3.org/2000/svg"
   xmlns:svg="http://www.w3.org/2000/svg">
  <sodipodi:namedview
     id="namedview57"
     pagecolor="#ffffff"
     bordercolor="#000000"
     borderopacity="0.25"
     inkscape:showpageshadow="2"
     inkscape:pageopacity="0.0"
     inkscape:pagecheckerboard="0"
     inkscape:deskcolor="#d1d1d1"
     showgrid="false"
     inkscape:zoom="1.3592067"
     inkscape:cx="919.65409"
     inkscape:cy="495.14176"
     inkscape:window-width="3840"
     inkscape:window-height="2054"
     inkscape:window-x="-11"
     inkscape:window-y="-11"
     inkscape:window-maximized="1"
     inkscape:current-layer="svg2" />
  <defs
     id="defs4">
    <linearGradient
       id="linearGradient3250">
      <stop
         id="stop3252"
         style="stop-color:#ffe9cd;stop-opacity:1"
         offset="0" />
      <stop
         id="stop3254"
         style="stop-color:#fea93b;stop-opacity:1"
         offset="1" />
    </linearGradient>
    <radialGradient
       cx="30.012808"
       cy="190.75786"
       r="9.9542618"
       fx="30.012808"
       fy="190.75786"
       id="radialGradient3256"
       xlink:href="#linearGradient3250"
       gradientUnits="userSpaceOnUse"
       gradientTransform="matrix(-0.9706967,0.1687529,-0.2730853,-1.493508,111.23929,470.10985)" />
  </defs>
  <rect
     width="209.65665"
     height="22.324863"
     x="0"
     y="43.073547"
     id="rect3546"
     style="display:inline;overflow:visible;visibility:visible;fill:#c6c6ff;fill-opacity:1;fill-rule:nonzero;stroke:none;stroke-width:1;marker:none;enable-background:accumulate" />
  <g
     transform="matrix(-0.01218621,-0.9998642,0.7393954,-0.01647908,19.402956,133.63947)"
     id="g282">
    <g
       id="g284">
      <line
         x1="78.838997"
         y1="49.366001"
         x2="78.838997"
         y2="91.365997"
         id="line286"
         style="fill:none;stroke:#000000;stroke-width:2.32575" />
      <path
         d="m 80.376,94.909 c 0.75,-2.48 1.439,-4.092 2.238,-6.082 h -7.567 c 0.338,0.713 1.489,3.602 2.238,6.082 0.802,2.654 1.351,5.061 1.546,6.621 0.195,-1.56 0.744,-3.967 1.545,-6.621 z"
         id="path288" />
    </g>
  </g>
  <g
     transform="matrix(1.0832924,-0.52478713,0.52478713,1.0832924,14.183259,-63.433462)"
     id="g356"
     style="stroke-width:0.20769077;stroke-dasharray:none">
    <g
       id="g358"
       transform="matrix(1.4441541,0,0,1.4441541,4.6051991,-81.274023)"
       style="stroke-width:0.14381482;stroke-dasharray:none">
      <path
         d=""
         id="path360"
         style="fill:none;stroke:#000000;stroke-width:0.14381482;stroke-dasharray:none" />
      <path
         d="m 6.95439,143.00167 c -0.289,0.028 -0.552,-0.114 -0.585,-0.317 L 6.1874685,140.161 c -0.033,-0.203 0.175,-0.39 0.465,-0.418 v 0 c 0.29,-0.028 0.552,0.114 0.585,0.317 l 0.1829215,2.52367 c 0.033,0.202 -0.175,0.39 -0.466,0.418 z"
         id="path370"
         style="fill:#fdbb63;stroke:#000000;stroke-width:0.14381482;stroke-dasharray:none"
         sodipodi:nodetypes="cccssccc" />
      <path
         d="m 8.8524849,142.86386 c -0.289,0.028 -0.552,-0.114 -0.585,-0.317 l -0.1819215,-2.52367 c -0.033,-0.203 0.175,-0.39 0.465,-0.418 v 0 c 0.29,-0.028 0.552,0.114 0.585,0.317 l 0.1829215,2.52367 c 0.033,0.202 -0.175,0.39 -0.466,0.418 z"
         id="path1135"
         style="fill:#fdbb63;stroke:#000000;stroke-width:0.14381482;stroke-dasharray:none"
         sodipodi:nodetypes="cccssccc" />
      <path
         d="m 10.750579,142.72605 c -0.289,0.028 -0.551999,-0.114 -0.584999,-0.317 l -0.1819217,-2.52367 c -0.033,-0.203 0.1750007,-0.39 0.4649997,-0.418 v 0 c 0.29,-0.028 0.552,0.114 0.585,0.317 l 0.182921,2.52367 c 0.033,0.202 -0.175,0.39 -0.466,0.418 z"
         id="path1137"
         style="fill:#fdbb63;stroke:#000000;stroke-width:0.14381482;stroke-dasharray:none"
         sodipodi:nodetypes="cccssccc" />
      <path
         d="m 12.650255,142.61001 c -0.289,0.028 -0.552,-0.114 -0.585,-0.317 l -0.181921,-2.52367 c -0.033,-0.203 0.175,-0.39 0.465,-0.418 v 0 c 0.29,-0.028 0.552,0.114 0.585,0.317 l 0.182921,2.52367 c 0.033,0.202 -0.175,0.39 -0.466,0.418 z"
         id="path1139"
         style="fill:#fdbb63;stroke:#000000;stroke-width:0.14381482;stroke-dasharray:none"
         sodipodi:nodetypes="cccssccc" />
      <path
         d="m 14.54835,142.4722 c -0.289,0.028 -0.552,-0.114 -0.585,-0.317 l -0.181921,-2.52367 c -0.033,-0.203 0.175,-0.39 0.465,-0.418 v 0 c 0.29,-0.028 0.552,0.114 0.585,0.317 l 0.182921,2.52367 c 0.033,0.202 -0.175,0.39 -0.466,0.418 z"
         id="path1141"
         style="fill:#fdbb63;stroke:#000000;stroke-width:0.14381482;stroke-dasharray:none"
         sodipodi:nodetypes="cccssccc" />
      <path
         d="m 16.446444,142.33438 c -0.289,0.028 -0.552,-0.114 -0.585,-0.317 l -0.181921,-2.52367 c -0.033,-0.203 0.175,-0.39 0.465,-0.418 v 0 c 0.29,-0.028 0.552,0.114 0.585,0.317 l 0.182921,2.52367 c 0.033,0.202 -0.175,0.39 -0.466,0.418 z"
         id="path1143"
         style="fill:#fdbb63;stroke:#000000;stroke-width:0.14381482;stroke-dasharray:none"
         sodipodi:nodetypes="cccssccc" />
      <path
         d="m 18.342957,142.17479 c -0.289,0.028 -0.552,-0.114 -0.585,-0.317 l -0.181921,-2.52367 c -0.033,-0.203 0.175,-0.39 0.465,-0.418 v 0 c 0.29,-0.028 0.552,0.114 0.585,0.317 l 0.182921,2.52367 c 0.033,0.202 -0.175,0.39 -0.466,0.418 z"
         id="path1145"
         style="fill:#fdbb63;stroke:#000000;stroke-width:0.14381482;stroke-dasharray:none"
         sodipodi:nodetypes="cccssccc" />
      <path
         d="m 20.241052,142.03698 c -0.289,0.028 -0.552,-0.114 -0.585,-0.317 l -0.181922,-2.52367 c -0.033,-0.203 0.175,-0.39 0.465,-0.418 v 0 c 0.29,-0.028 0.552,0.114 0.585,0.317 l 0.182922,2.52367 c 0.033,0.202 -0.175,0.39 -0.466,0.418 z"
         id="path1147"
         style="fill:#fdbb63;stroke:#000000;stroke-width:0.14381482;stroke-dasharray:none"
         sodipodi:nodetypes="cccssccc" />
      <path
         d="m 22.139147,141.89917 c -0.289,0.028 -0.552,-0.114 -0.585,-0.317 l -0.181921,-2.52367 c -0.033,-0.203 0.175,-0.39 0.465,-0.418 v 0 c 0.29,-0.028 0.552,0.114 0.585,0.317 l 0.182921,2.52367 c 0.033,0.202 -0.175,0.39 -0.466,0.418 z"
         id="path1149"
         style="fill:#fdbb63;stroke:#000000;stroke-width:0.14381482;stroke-dasharray:none"
         sodipodi:nodetypes="cccssccc" />
      <path
         d="m 24.038822,141.78313 c -0.289,0.028 -0.552,-0.114 -0.585,-0.317 l -0.181921,-2.52367 c -0.033,-0.203 0.175,-0.39 0.465,-0.418 v 0 c 0.29,-0.028 0.552,0.114 0.585,0.317 l 0.182921,2.52367 c 0.033,0.202 -0.175,0.39 -0.466,0.418 z"
         id="path1151"
         style="fill:#fdbb63;stroke:#000000;stroke-width:0.14381482;stroke-dasharray:none"
         sodipodi:nodetypes="cccssccc" />
      <path
         d="m 25.936917,141.64532 c -0.289,0.028 -0.552,-0.114 -0.585,-0.317 l -0.181921,-2.52367 c -0.033,-0.203 0.175,-0.39 0.465,-0.418 v 0 c 0.29,-0.028 0.552,0.114 0.585,0.317 l 0.182921,2.52367 c 0.033,0.202 -0.175,0.39 -0.466,0.418 z"
         id="path1153"
         style="fill:#fdbb63;stroke:#000000;stroke-width:0.14381482;stroke-dasharray:none"
         sodipodi:nodetypes="cccssccc" />
      <path
         d="m 27.835011,141.5075 c -0.289,0.028 -0.552,-0.114 -0.585,-0.317 l -0.181921,-2.52367 c -0.033,-0.203 0.175,-0.39 0.465,-0.418 v 0 c 0.29,-0.028 0.552,0.114 0.585,0.317 l 0.182921,2.52367 c 0.033,0.202 -0.175,0.39 -0.466,0.418 z"
         id="path1155"
         style="fill:#fdbb63;stroke:#000000;stroke-width:0.14381482;stroke-dasharray:none"
         sodipodi:nodetypes="cccssccc" />
    </g>
    <path
       style="fill:#e44145;fill-opacity:1;stroke:#000000;stroke-width:0.20769077;stroke-linecap:square;stroke-dasharray:none"
       d="m 12.567605,124.8583 c -0.547976,0.0879 -1.613846,0.40953 -1.613846,0.40953 0,0 1.45197,0.56678 2.215382,0.69255 0.864562,0.1424 1.034488,0.18051 2.627921,0.0619 1.530796,-0.1138 3.023927,-0.53503 4.545085,-0.74089 1.786957,-0.24184 3.579234,-0.46108 5.378546,-0.58016 1.317396,-0.0872 2.639672,-0.12709 3.959627,-0.0979 1.639483,0.0362 3.278364,0.52243 4.907959,0.33902 1.717616,-0.19332 3.242392,-1.34682 4.964203,-1.4983 1.550997,-0.13647 3.082381,0.59437 4.638682,0.54819 1.409909,-0.0418 1.87943,-0.0991 2.732881,-0.45128 0.523072,-0.21591 1.382393,-0.98536 1.382393,-0.98536 0,0 -1.133387,-0.23283 -1.708373,-0.23946 -0.841399,-0.0101 -1.097433,0.25084 -2.507342,0.29267 -1.556301,0.0462 -3.087685,-0.68463 -4.638682,-0.54818 -1.721811,0.15147 -3.246586,1.30498 -4.964203,1.49829 -1.629596,0.18341 -3.268476,-0.30273 -4.907961,-0.33902 -1.319955,-0.0292 -2.642228,0.0101 -3.959624,0.0979 -1.799312,0.11914 -3.59159,0.33832 -5.378548,0.58016 -1.521157,0.20586 -3.014289,0.62704 -4.545085,0.74089 -1.593432,0.11857 -2.096681,0.0536 -3.129015,0.21936 z"
       id="path1133"
       sodipodi:nodetypes="scssssssssscssssssssss" />
  </g>
  <g
     transform="matrix(1.4367607,0,0,1.473486,153.13941,-232.66515)"
     id="g382">
    <path
       d="m 22.285,188.617 c 0,0 -5.5,0.375 -6.25,2.375 -0.75,2 -0.25,1.875 -0.625,4.125 -0.375,2.25 1.375,1.5 1.5,4.375 0.125,2.875 1.625,-0.125 4.5,1.625 2.875,1.75 3.875,-11.625 0.875,-12.5 z"
       id="path384"
       style="fill:#ddab6a;stroke:#000000;stroke-width:0.17182" />
    <path
       d="m 20.816,203.38 c 0,0 -2.404,-2.746 -1.202,-4.291 1.202,-1.547 0.858,-2.748 0.172,-3.436 -0.687,-0.686 -2.576,-3.262 -1.202,-3.949 1.374,-0.686 -2.232,-2.402 -0.515,-3.949 1.717,-1.545 -0.171,-5.666 6.01,-5.838 6.181,-0.17 4.808,-1.889 10.474,4.293 5.106,5.57 1.545,4.809 1.889,8.07 0.343,3.262 1.717,9.443 -3.091,9.787 -4.808,0.344 -5.323,2.405 -12.535,-0.687 z"
       id="path386"
       style="fill:url(#radialGradient3256);fill-opacity:1;stroke:#000000;stroke-width:0.17182" />
    <path
       d=""
       id="path390"
       style="fill:#fdbb63;stroke:#000000;stroke-width:0.17182" />
  </g>
  <g
     transform="matrix(-0.01218621,-0.9998642,0.7393954,-0.01647908,92.322115,133.63947)"
     id="g3548">
    <g
       id="g3550">
      <line
         x1="78.838997"
         y1="49.366001"
         x2="78.838997"
         y2="91.365997"
         id="line3552"
         style="fill:none;stroke:#000000;stroke-width:2.32575" />
      <path
         d="m 80.376,94.909 c 0.75,-2.48 1.439,-4.092 2.238,-6.082 h -7.567 c 0.338,0.713 1.489,3.602 2.238,6.082 0.802,2.654 1.351,5.061 1.546,6.621 0.195,-1.56 0.744,-3.967 1.545,-6.621 z"
         id="path3554" />
    </g>
  </g>
  <g
     id="g386"
     transform="translate(0.73572317,29.318104)">
    <path
       d=""
       id="path326"
       style="fill:none;stroke:#000000;stroke-width:0.25" />
    <path
       d="m 56.882042,17.245586 c -0.352779,0.188691 -0.790129,0.05511 -0.979906,-0.296843 L 49.224946,4.4113584 C 49.037341,4.0577496 49.169839,3.6212285 49.522619,3.4325377 v 0 c 0.351693,-0.1878612 0.790959,-0.054021 0.97882,0.2976728 l 6.677447,12.5354685 c 0.18952,0.353865 0.05785,0.791472 -0.296844,0.979907 z"
       id="path328"
       style="fill:#fdbb63;stroke:#000000;stroke-width:0.25" />
    <path
       d="m 52.154879,14.859361 c -0.309585,0.251983 -0.753432,0.217933 -0.992973,-0.07536 L 42.689422,4.3643838 C 42.450711,4.0721712 42.509086,3.6286556 42.818671,3.3766721 v 0 c 0.310672,-0.2528129 0.754518,-0.2187628 0.99323,0.07345 l 8.472227,10.4215269 c 0.238456,0.294128 0.181422,0.734899 -0.129249,0.987712 z"
       id="path330"
       style="fill:#fdbb63;stroke:#000000;stroke-width:0.25" />
    <path
       d="m 24.26636,38.321067 c -0.318136,0.243041 -0.770972,0.181469 -1.013183,-0.135582 L 14.629789,26.897613 c -0.242211,-0.31705 -0.182554,-0.770142 0.135583,-1.013183 v 0 c 0.318136,-0.243041 0.770972,-0.181469 1.013183,0.135582 l 8.622558,11.286786 c 0.244127,0.317307 0.183384,0.771228 -0.134753,1.014269 z"
       id="path332"
       style="fill:#fdbb63;stroke:#000000;stroke-width:0.25" />
    <path
       d="m 29.424234,38.42836 c -0.3085,0.251154 -0.75675,0.21359 -0.999609,-0.08405 L 19.802954,27.742918 c -0.241773,-0.298471 -0.187802,-0.745501 0.122613,-0.996398 v 0 c 0.310671,-0.252813 0.758092,-0.216335 1.000695,0.08322 l 8.620585,10.60222 c 0.241773,0.298471 0.188058,0.743585 -0.122613,0.996398 v 0 z"
       id="path334"
       style="fill:#fdbb63;stroke:#000000;stroke-width:0.25" />
    <path
       d="m 30.819443,33.538362 c -0.259107,0.304553 -0.628961,0.416875 -0.823934,0.24944 l -6.980989,-5.9329 c -0.197143,-0.165776 -0.146969,-0.548003 0.111052,-0.851727 v 0 c 0.260194,-0.305383 0.628962,-0.416875 0.823934,-0.24944 l 6.980159,5.931814 c 0.197974,0.166862 0.1478,0.549089 -0.110222,0.852813 z"
       id="path336"
       style="fill:#fdbb63;stroke:#000000;stroke-width:0.25" />
    <path
       d="m 37.312503,10.798168 c -0.01227,0.0908 -0.05145,0.230183 -0.0625,0.3125 -0.272251,2.027196 1.781907,15.360836 1.40625,17.46875 -0.3754,2.105998 0.467126,3.607709 -5.46875,1.6875 -0.559652,-0.181043 -1.164247,-0.47953 -1.75,-0.6875 -0.696215,-0.247189 -1.380616,-0.508645 -2.09375,-0.78125 -5.050574,-1.930646 -10.275473,-4.230393 -11.78125,-4.65625 -1.898356,-0.535748 -3.125,0.4375 -3.125,0.4375 0,0 -1.94862,1.148941 -1.90625,2.9375 0.0205,0.865498 0.602899,3.199235 1.15625,5.59375 0.579871,0.244294 0.736982,0.295311 1.375,0.5625 0.341392,0.142968 0.740117,0.259518 1.09375,0.40625 -0.601565,-3.707359 -1.28125,-8.03125 -1.28125,-8.03125 0,0 9.823609,4.408822 12.59375,5.4375 0.646111,0.239174 1.391648,0.374474 2.125,0.5625 0.743442,0.190613 1.472802,0.427353 2.15625,0.5625 1.534232,0.303385 2.75,0.46875 2.75,0.46875 1.946736,0.166929 2.58043,-0.49636 4.4375,-1.75 1.857068,-1.253641 1.84267,-3.240559 1.78125,-4.1875 -0.06033,-0.94777 -1.078772,-11.409227 -1.5,-14.5625 -0.07067,-0.525198 0.08365,-0.981254 0.09375,-1.5 -0.31915,-0.07073 -0.658647,-0.198651 -0.96875,-0.25 -0.370167,-0.0613 -0.67722,-6.81e-4 -1.03125,-0.03125 z"
       id="path2974"
       style="fill:#e76f34;stroke:#000000;stroke-width:0.25" />
    <path
       d="m 37.552991,31.231401 c -0.318137,0.243041 -0.751894,0.206441 -0.97088,-0.08021 l -7.789749,-10.19665 c -0.218985,-0.286649 -0.141079,-0.715853 0.177057,-0.958894 v 0 c 0.317051,-0.242211 0.751894,-0.206442 0.971709,0.08129 l 7.789749,10.196653 c 0.220071,0.285819 0.139165,0.715596 -0.177886,0.957808 v 0 z"
       id="path338"
       style="fill:#fdbb63;stroke:#000000;stroke-width:0.25" />
    <path
       d="m 45.696526,12.574849 c -0.251129,0.310495 -0.59533,0.449645 -0.769564,0.309355 L 38.748011,7.8998728 c -0.174235,-0.14029 -0.112705,-0.505401 0.138425,-0.815895 v 0 c 0.251129,-0.310495 0.594244,-0.448816 0.768479,-0.308525 l 6.181122,4.9826712 c 0.173405,0.139205 0.110789,0.505145 -0.139511,0.816725 z"
       id="path340"
       style="fill:#fdbb63;stroke:#000000;stroke-width:0.25" />
    <path
       d="m 16.718753,37.610668 c -0.880774,-0.365417 -1.345009,-0.58986 -2.4375,-1.0625 0.185597,1.044147 0.532606,2.41911 0.5,3 -0.137849,2.421451 0.927936,7.052575 -3.46875,12.5625 0,0 1.001544,0.04004 3.5,-3.1875 2.497053,-3.231628 1.877356,-7.714864 2.09375,-10.03125 0.01085,-0.117355 -0.158018,-0.97777 -0.1875,-1.28125 z"
       id="path2978"
       style="fill:#e76f34;stroke:#000000;stroke-width:0.25" />
    <path
       d="m 46.468753,1.7981678 c -0.846429,0.065077 -1.655542,0.2056119 -2.40625,0.46875 -4.391178,1.5388676 -5.859789,4.459392 -6.4375,6.71875 0.127849,0.0023 0.212002,-0.03804 0.34375,-0.03125 0.458748,0.02363 1.000022,0.145162 1.5,0.21875 0.331573,-1.794764 0.853173,-3.355823 1.46875,-4.03125 0.990589,-1.0869028 3.40625,-1.4375 3.40625,-1.4375 6.938034,-0.6663213 17.71875,6.3125002 17.71875,6.3125002 1.504931,0.671236 -2.0625,-4.8750002 -2.0625,-4.8750002 0,0 -7.606245,-3.7992896 -13.53125,-3.34375 z"
       id="path344"
       style="fill:#e76f34;stroke:#000000;stroke-width:0.25" />
    <path
       d="m 40.036109,24.949743 c -0.318136,0.24304 -0.765995,0.187983 -1.0024,-0.121467 L 30.628478,13.825967 c -0.236405,-0.30945 -0.171771,-0.756028 0.146365,-0.999069 v 0 c 0.318137,-0.24304 0.765996,-0.187983 1.002401,0.121467 l 8.404401,11.001224 c 0.237235,0.310535 0.172601,0.757113 -0.145536,1.000154 z"
       id="path346"
       style="fill:#fdbb63;stroke:#000000;stroke-width:0.25" />
    <path
       d="m 39.836397,29.239384 c -0.31705,0.242211 -0.789221,0.157581 -1.053828,-0.188786 L 29.36287,16.720368 c -0.264608,-0.346367 -0.222943,-0.825262 0.09411,-1.067473 v 0 c 0.318136,-0.243041 0.789221,-0.157581 1.054658,0.189871 l 9.419698,12.33023 c 0.265694,0.345538 0.2232,0.823347 -0.09494,1.066388 z"
       id="path348"
       style="fill:#fdbb63;stroke:#000000;stroke-width:0.25" />
    <path
       d="m 39.309638,18.963827 c -0.337788,0.215066 -0.722335,0.211372 -0.859821,-0.0069 l -4.905495,-7.733413 c -0.137486,-0.218229 0.02338,-0.568097 0.362,-0.782078 v 0 c 0.337532,-0.213151 0.722335,-0.211372 0.860651,0.0079 l 4.905495,7.733412 c 0.136656,0.217144 -0.02504,0.565926 -0.36283,0.780993 v 0 z"
       id="path350"
       style="fill:#fdbb63;stroke:#000000;stroke-width:0.25" />
    <path
       d="m 14.791558,48.124823 c -0.317051,0.242211 -0.770973,0.181469 -1.014013,-0.136668 L 5.154987,36.701369 C 4.9127756,36.384318 4.9735185,35.930397 5.2905691,35.688186 v 0 c 0.3170507,-0.242212 0.772058,-0.182298 1.0142694,0.134752 l 8.6225575,11.286786 c 0.243297,0.316221 0.181212,0.772888 -0.135838,1.015099 z"
       id="path352"
       style="fill:#fdbb63;stroke:#000000;stroke-width:0.25" />
    <path
       d="m 16.092488,42.650008 c -0.283931,0.278811 -0.72295,0.296096 -0.979426,0.03465 L 6.005901,33.423945 C 5.7502548,33.163584 5.7728738,32.725032 6.057891,32.445391 v 0 c 0.2850174,-0.279641 0.7229502,-0.296096 0.9794259,-0.03465 l 9.1082471,9.259883 c 0.255647,0.260361 0.233028,0.698914 -0.05308,0.979384 v 0 z"
       id="path354"
       style="fill:#fdbb63;stroke:#000000;stroke-width:0.25" />
    <path
       d="m 7.4687533,30.985668 c -1.1544989,0.0388 -1.875,0.5625 -1.875,0.5625 0,0 -1.916543,1.150026 -1.875,2.9375 0.04154,1.787474 1.689347,9.708548 2.4375,12.53125 0.147739,0.542257 0.931058,0.241561 1.25,-0.21875 0.959571,-1.379591 -1.34375,-13.78125 -1.34375,-13.78125 0,0 4.5434447,1.941219 8.2187497,3.53125 1.092491,0.47264 1.556726,0.697083 2.4375,1.0625 0.699997,0.290416 1.51058,0.685405 1.9375,0.84375 2.771227,1.027848 7.03125,1.59375 7.03125,1.59375 1.947822,0.166099 2.580431,-0.496359 4.4375,-1.75 1.855984,-1.252811 1.841838,-3.210395 1.78125,-4.15625 -0.0064,-0.09942 -0.130071,-1.241104 -0.15625,-1.53125 -0.683448,-0.135147 -1.412808,-0.371887 -2.15625,-0.5625 0.08169,1.13798 0.325328,3.078364 0.25,3.5 -0.375657,2.107913 0.466041,3.639788 -5.46875,1.71875 -2.620571,-0.848255 -5.546736,-2.078813 -8.21875,-3.1875 -1.014529,-0.420954 -1.578601,-0.593739 -2.46875,-0.96875 -2.074834,-0.874108 -4.1948027,-1.760036 -4.9374997,-1.96875 -0.4743175,-0.134144 -0.896417,-0.169184 -1.28125,-0.15625 z"
       id="path2936"
       style="fill:#e76f34;stroke:#000000;stroke-width:0.25" />
    <path
       d="m 37.625003,8.9856678 c -0.884623,-0.01592 -1.719206,0.02018 -2.375,0.25 -6.005663,2.1051052 -6.539994,6.8458882 -6.8125,8.8750002 -0.16607,1.245489 0.417325,6.136765 0.90625,10.6875 0.713134,0.272605 1.397535,0.534061 2.09375,0.78125 -0.355692,-3.609539 -0.772466,-7.834984 -1.0625,-10 -0.422314,-3.152443 0.75941,-6.381848 1.75,-7.46875 0.989759,-1.087988 3.40625,-1.40625 3.40625,-1.40625 0.54946,-0.05277 1.169137,0.0409 1.78125,0.09375 0.650615,0.05618 1.299884,0.126079 2,0.28125 6.958401,1.542238 15.8125,7.40625 15.8125,7.40625 1.548836,-0.356166 3.25,-2 3.25,-2 0,0 -11.446386,-6.214533 -18.90625,-7.3125002 -0.643567,-0.09472 -1.270729,-0.177186 -1.84375,-0.1875 z"
       id="path2928"
       style="fill:#e76f34;stroke:#000000;stroke-width:0.25" />
  </g>
  <text
     xml:space="preserve"
     style="font-style:normal;font-variant:normal;font-weight:normal;font-stretch:normal;font-size:9.14286px;font-family:sans-serif;-inkscape-font-specification:'sans-serif, Normal';font-variant-ligatures:normal;font-variant-caps:normal;font-variant-numeric:normal;font-variant-east-asian:normal;fill:#ffffff;stroke-width:0.190476;stroke-linecap:square;paint-order:markers fill stroke"
     x="25.045219"
     y="89.739677"
     id="text340"><tspan
       sodipodi:role="line"
       id="tspan338"
       style="font-style:normal;font-variant:normal;font-weight:normal;font-stretch:normal;font-size:9.14286px;font-family:sans-serif;-inkscape-font-specification:'sans-serif, Normal';font-variant-ligatures:normal;font-variant-caps:normal;font-variant-numeric:normal;font-variant-east-asian:normal;fill:#000000;stroke-width:0.190476"
       x="25.045219"
       y="89.739677">DNA</tspan></text>
  <text
     xml:space="preserve"
     style="font-size:9.14286px;font-family:sans-serif;-inkscape-font-specification:'sans-serif, Normal';fill:#ffffff;stroke-width:0.190476;stroke-linecap:square;paint-order:markers fill stroke;font-weight:normal;font-style:normal;font-stretch:normal;font-variant:normal;font-variant-ligatures:normal;font-variant-caps:normal;font-variant-numeric:normal;font-variant-east-asian:normal"
     x="103.65878"
     y="89.739677"
     id="text500"><tspan
       sodipodi:role="line"
       id="tspan498"
       style="font-size:9.14286003px;fill:#000000;stroke-width:0.190476;-inkscape-font-specification:'sans-serif, Normal';font-family:sans-serif;font-weight:normal;font-style:normal;font-stretch:normal;font-variant:normal;font-variant-ligatures:normal;font-variant-caps:normal;font-variant-numeric:normal;font-variant-east-asian:normal"
       x="103.65878"
       y="89.739677">RNA</tspan></text>
  <text
     xml:space="preserve"
     style="font-style:normal;font-variant:normal;font-weight:normal;font-stretch:normal;font-size:9.14286px;font-family:sans-serif;-inkscape-font-specification:'sans-serif, Normal';font-variant-ligatures:normal;font-variant-caps:normal;font-variant-numeric:normal;font-variant-east-asian:normal;fill:#ffffff;stroke-width:0.190476;stroke-linecap:square;paint-order:markers fill stroke"
     x="172.3111"
     y="89.739677"
     id="text504"><tspan
       sodipodi:role="line"
       id="tspan502"
       style="font-style:normal;font-variant:normal;font-weight:normal;font-stretch:normal;font-size:9.14286px;font-family:sans-serif;-inkscape-font-specification:'sans-serif, Normal';font-variant-ligatures:normal;font-variant-caps:normal;font-variant-numeric:normal;font-variant-east-asian:normal;fill:#000000;stroke-width:0.190476"
       x="172.3111"
       y="89.739677">Proteins</tspan></text>
  <text
     xml:space="preserve"
     style="font-style:normal;font-variant:normal;font-weight:normal;font-stretch:normal;font-size:5.33333px;font-family:sans-serif;-inkscape-font-specification:'sans-serif, Normal';font-variant-ligatures:normal;font-variant-caps:normal;font-variant-numeric:normal;font-variant-east-asian:normal;fill:#ffffff;stroke-width:0.190476;stroke-linecap:square;paint-order:markers fill stroke"
     x="56.287914"
     y="62.538822"
     id="text508"><tspan
       sodipodi:role="line"
       id="tspan506"
       style="font-style:normal;font-variant:normal;font-weight:normal;font-stretch:normal;font-size:5.33333px;font-family:sans-serif;-inkscape-font-specification:'sans-serif, Normal';font-variant-ligatures:normal;font-variant-caps:normal;font-variant-numeric:normal;font-variant-east-asian:normal;fill:#000000;stroke-width:0.190476"
       x="56.287914"
       y="62.538822">Transcription</tspan></text>
  <text
     xml:space="preserve"
     style="font-style:normal;font-variant:normal;font-weight:normal;font-stretch:normal;font-size:5.33333px;font-family:sans-serif;-inkscape-font-specification:'sans-serif, Normal';font-variant-ligatures:normal;font-variant-caps:normal;font-variant-numeric:normal;font-variant-east-asian:normal;fill:#ffffff;stroke-width:0.190476;stroke-linecap:square;paint-order:markers fill stroke"
     x="131.78755"
     y="62.538822"
     id="text512"><tspan
       sodipodi:role="line"
       id="tspan510"
       style="font-style:normal;font-variant:normal;font-weight:normal;font-stretch:normal;font-size:5.33333px;font-family:sans-serif;-inkscape-font-specification:'sans-serif, Normal';font-variant-ligatures:normal;font-variant-caps:normal;font-variant-numeric:normal;font-variant-east-asian:normal;fill:#000000;stroke-width:0.190476"
       x="131.78755"
       y="62.538822">Translation</tspan></text>
  <path
     sodipodi:type="spiral"
     style="fill:none;fill-rule:evenodd;stroke:#fdbb63;stroke-width:3.24639;stroke-dasharray:none;stroke-opacity:1"
     id="path557"
     sodipodi:cx="22.281904"
     sodipodi:cy="-27.22176"
     sodipodi:expansion="0"
     sodipodi:revolution="0.80000001"
     sodipodi:radius="30.375587"
     sodipodi:argument="-6.0063114"
     sodipodi:t0="0"
     d="M 51.500627,-18.918595 C 46.977624,-3.002208 29.895126,6.5199666 13.978739,1.9969631 -1.9376476,-2.5260404 -11.459822,-19.608538 -6.9368186,-35.524925 -2.4138151,-51.441312 14.668682,-60.963486 30.585069,-56.440483 c 3.060575,0.869732 5.980681,2.222953 8.622698,3.995887"
     transform="matrix(-0.14947961,0.40789562,-0.40789562,-0.14947961,13.815214,8.8110797)" />
  <path
     d="m 27.364678,35.932832 c 1.906901,-0.512357 3.267033,-0.684013 4.915229,-0.937217 L 27.749304,28.93541 c -0.216764,0.590688 -1.225904,2.80906 -2.235307,4.521925 -1.079954,1.8334 -2.166191,3.353328 -2.966475,4.209618 1.03379,-0.543949 2.777434,-1.184519 4.817156,-1.734121 z"
     id="path1131"
     style="fill:#fdbb63;fill-opacity:1;stroke:#fdbb63;stroke-width:0.859939;stroke-opacity:1" />
  <g
     id="g1123"
     transform="translate(13.032812,29.160449)"
     style="stroke:#fdbb63;stroke-opacity:1">
    <path
       sodipodi:type="spiral"
       style="fill:none;fill-rule:evenodd;stroke:#fdbb63;stroke-width:2.34026;stroke-dasharray:none;stroke-opacity:1"
       id="path1113"
       sodipodi:cx="22.281904"
       sodipodi:cy="-27.22176"
       sodipodi:expansion="0"
       sodipodi:revolution="0.30000001"
       sodipodi:radius="30.375587"
       sodipodi:argument="-6.0063114"
       sodipodi:t0="0"
       d="M 51.500627,-18.918595 C 46.977624,-3.002208 29.895126,6.5199666 13.978739,1.9969631 10.918165,1.1272312 7.9980584,-0.22598956 5.3560413,-1.9989234"
       transform="matrix(-0.56575645,-0.20755149,0.20755149,-0.56575645,84.435612,2.7063245)" />
    <path
       d="m 82.654281,2.4641028 c -0.45588,-1.92118618 -0.587338,-3.28578908 -0.79181,-4.9407378 l -6.19122,4.3498549 c 0.584036,0.2340946 2.771673,1.3082378 4.454015,2.3677313 1.800744,1.1335698 3.287967,2.2641709 4.120276,3.0893672 -0.513216,-1.0493865 -1.10207,-2.8111686 -1.591261,-4.8662156 z"
       id="path1117"
       style="fill:#fdbb63;fill-opacity:1;stroke:#fdbb63;stroke-width:0.859939;stroke-opacity:1" />
  </g>
  <g
     id="g1129"
     transform="translate(78.512182,29.160449)"
     style="stroke:#fdbb63;stroke-opacity:1">
    <path
       sodipodi:type="spiral"
       style="fill:none;fill-rule:evenodd;stroke:#fdbb63;stroke-width:2.34026;stroke-dasharray:none;stroke-opacity:1"
       id="path1125"
       sodipodi:cx="22.281904"
       sodipodi:cy="-27.22176"
       sodipodi:expansion="0"
       sodipodi:revolution="0.30000001"
       sodipodi:radius="30.375587"
       sodipodi:argument="-6.0063114"
       sodipodi:t0="0"
       d="M 51.500627,-18.918595 C 46.977624,-3.002208 29.895126,6.5199666 13.978739,1.9969631 10.918165,1.1272312 7.9980584,-0.22598956 5.3560413,-1.9989234"
       transform="matrix(-0.56575645,-0.20755149,0.20755149,-0.56575645,84.435612,2.7063245)" />
    <path
       d="m 82.654281,2.4641028 c -0.45588,-1.92118618 -0.587338,-3.28578908 -0.79181,-4.9407378 l -6.19122,4.3498549 c 0.584036,0.2340946 2.771673,1.3082378 4.454015,2.3677313 1.800744,1.1335698 3.287967,2.2641709 4.120276,3.0893672 -0.513216,-1.0493865 -1.10207,-2.8111686 -1.591261,-4.8662156 z"
       id="path1127"
       style="fill:#fdbb63;fill-opacity:1;stroke:#fdbb63;stroke-width:0.859939;stroke-opacity:1" />
  </g>
  <text
     xml:space="preserve"
     style="font-style:normal;font-variant:normal;font-weight:normal;font-stretch:normal;font-size:5.33333px;font-family:sans-serif;-inkscape-font-specification:'sans-serif, Normal';font-variant-ligatures:normal;font-variant-caps:normal;font-variant-numeric:normal;font-variant-east-asian:normal;fill:#ffffff;stroke-width:0.190476;stroke-linecap:square;paint-order:markers fill stroke"
     x="7.4929652"
     y="5.7095656"
     id="text1136"><tspan
       sodipodi:role="line"
       id="tspan1134"
       style="font-style:normal;font-variant:normal;font-weight:normal;font-stretch:normal;font-size:5.33333px;font-family:sans-serif;-inkscape-font-specification:'sans-serif, Normal';font-variant-ligatures:normal;font-variant-caps:normal;font-variant-numeric:normal;font-variant-east-asian:normal;fill:#000000;stroke-width:0.190476"
       x="7.4929652"
       y="5.7095656">Replication</tspan></text>
  <text
     xml:space="preserve"
     style="font-style:normal;font-variant:normal;font-weight:normal;font-stretch:normal;font-size:4.19048px;font-family:sans-serif;-inkscape-font-specification:'sans-serif, Normal';font-variant-ligatures:normal;font-variant-caps:normal;font-variant-numeric:normal;font-variant-east-asian:normal;fill:#ffffff;stroke-width:0.190476;stroke-linecap:square;paint-order:markers fill stroke"
     x="21.466185"
     y="16.90307"
     id="text5559"><tspan
       sodipodi:role="line"
       id="tspan5557"
       style="font-style:normal;font-variant:normal;font-weight:normal;font-stretch:normal;font-size:4.19048px;font-family:sans-serif;-inkscape-font-specification:'sans-serif, Normal';font-variant-ligatures:normal;font-variant-caps:normal;font-variant-numeric:normal;font-variant-east-asian:normal;text-align:center;text-anchor:middle;fill:#000000;stroke-width:0.190476"
       x="21.466185"
       y="16.90307">DNA</tspan><tspan
       sodipodi:role="line"
       style="font-style:normal;font-variant:normal;font-weight:normal;font-stretch:normal;font-size:4.19048px;font-family:sans-serif;-inkscape-font-specification:'sans-serif, Normal';font-variant-ligatures:normal;font-variant-caps:normal;font-variant-numeric:normal;font-variant-east-asian:normal;text-align:center;text-anchor:middle;fill:#000000;stroke-width:0.190476"
       x="21.466185"
       y="22.141171"
       id="tspan5663">Polymerase</tspan></text>
  <text
     xml:space="preserve"
     style="font-style:normal;font-variant:normal;font-weight:normal;font-stretch:normal;font-size:4.19048px;font-family:sans-serif;-inkscape-font-specification:'sans-serif, Normal';font-variant-ligatures:normal;font-variant-caps:normal;font-variant-numeric:normal;font-variant-east-asian:normal;fill:#ffffff;stroke-width:0.190476;stroke-linecap:square;paint-order:markers fill stroke"
     x="79.378113"
     y="15.957141"
     id="text5669"><tspan
       sodipodi:role="line"
       id="tspan5665"
       style="font-style:normal;font-variant:normal;font-weight:normal;font-stretch:normal;font-size:4.19048px;font-family:sans-serif;-inkscape-font-specification:'sans-serif, Normal';font-variant-ligatures:normal;font-variant-caps:normal;font-variant-numeric:normal;font-variant-east-asian:normal;text-align:center;text-anchor:middle;fill:#000000;stroke-width:0.190476"
       x="79.378113"
       y="15.957141">RNA</tspan><tspan
       sodipodi:role="line"
       style="font-style:normal;font-variant:normal;font-weight:normal;font-stretch:normal;font-size:4.19048px;font-family:sans-serif;-inkscape-font-specification:'sans-serif, Normal';font-variant-ligatures:normal;font-variant-caps:normal;font-variant-numeric:normal;font-variant-east-asian:normal;text-align:center;text-anchor:middle;fill:#000000;stroke-width:0.190476"
       x="79.378113"
       y="21.195242"
       id="tspan5667">Polymerase</tspan></text>
  <text
     xml:space="preserve"
     style="font-style:normal;font-variant:normal;font-weight:normal;font-stretch:normal;font-size:4.19048px;font-family:sans-serif;-inkscape-font-specification:'sans-serif, Normal';font-variant-ligatures:normal;font-variant-caps:normal;font-variant-numeric:normal;font-variant-east-asian:normal;fill:#ffffff;stroke-width:0.190476;stroke-linecap:square;paint-order:markers fill stroke"
     x="144.1102"
     y="15.957141"
     id="text5675"><tspan
       sodipodi:role="line"
       id="tspan5671"
       style="font-style:normal;font-variant:normal;font-weight:normal;font-stretch:normal;font-size:4.19048px;font-family:sans-serif;-inkscape-font-specification:'sans-serif, Normal';font-variant-ligatures:normal;font-variant-caps:normal;font-variant-numeric:normal;font-variant-east-asian:normal;text-align:center;text-anchor:middle;fill:#000000;stroke-width:0.190476"
       x="144.1102"
       y="15.957141" /><tspan
       sodipodi:role="line"
       style="font-style:normal;font-variant:normal;font-weight:normal;font-stretch:normal;font-size:4.19048px;font-family:sans-serif;-inkscape-font-specification:'sans-serif, Normal';font-variant-ligatures:normal;font-variant-caps:normal;font-variant-numeric:normal;font-variant-east-asian:normal;text-align:center;text-anchor:middle;fill:#000000;stroke-width:0.190476"
       x="144.1102"
       y="21.195242"
       id="tspan5673">Ribosome</tspan></text>
</svg>
