<?xml version="1.0" encoding="UTF-8" standalone="no"?>
<!-- Generator: Adobe Illustrator 27.6.1, SVG Export Plug-In . SVG Version: 6.00 Build 0)  -->

<svg
   version="1.1"
   id="Layer_1"
   x="0px"
   y="0px"
   viewBox="0 0 287.72 79.78"
   style="enable-background:new 0 0 287.72 79.78;"
   xml:space="preserve"
   sodipodi:docname="msa.svg"
   inkscape:version="1.2.2 (732a01da63, 2022-12-09)"
   inkscape:export-filename="msa.png"
   inkscape:export-xdpi="600"
   inkscape:export-ydpi="600"
   xmlns:inkscape="http://www.inkscape.org/namespaces/inkscape"
   xmlns:sodipodi="http://sodipodi.sourceforge.net/DTD/sodipodi-0.dtd"
   xmlns="http://www.w3.org/2000/svg"
   xmlns:svg="http://www.w3.org/2000/svg"><defs
   id="defs227" /><sodipodi:namedview
   id="namedview225"
   pagecolor="#ffffff"
   bordercolor="#000000"
   borderopacity="0.25"
   inkscape:showpageshadow="2"
   inkscape:pageopacity="0.0"
   inkscape:pagecheckerboard="0"
   inkscape:deskcolor="#d1d1d1"
   showgrid="false"
   inkscape:zoom="6.4487981"
   inkscape:cx="239.19186"
   inkscape:cy="39.929921"
   inkscape:window-width="1920"
   inkscape:window-height="991"
   inkscape:window-x="-9"
   inkscape:window-y="-9"
   inkscape:window-maximized="1"
   inkscape:current-layer="Layer_1" />
<style
   type="text/css"
   id="style2">
	.st0{fill:#FFFFFF;stroke:#939598;stroke-width:2;stroke-miterlimit:10;}
	.st1{fill:#FFFFFF;}
	.st2{fill:none;stroke:#000000;stroke-width:0.25;stroke-miterlimit:10;}
	.st3{fill:none;stroke:#000000;stroke-width:0.25;stroke-miterlimit:10;stroke-dasharray:1.0072,1.0072;}
	.st4{fill:none;stroke:#000000;stroke-width:0.25;stroke-miterlimit:10;stroke-dasharray:0.9948,0.9948;}
	.st5{fill:none;stroke:#000000;stroke-width:0.25;stroke-miterlimit:10;stroke-dasharray:0.9952,0.9952;}
	.st6{fill:none;stroke:#000000;stroke-miterlimit:10;}
	.st7{fill:#FFFFFF;stroke:#ED1C24;stroke-width:2;stroke-miterlimit:10;}
	.st8{fill:#FFFFFF;stroke:#FBB040;stroke-width:2;stroke-miterlimit:10;}
	.st9{fill:#FFFFFF;stroke:#00A651;stroke-width:2;stroke-miterlimit:10;}
	.st10{fill:#FFFFFF;stroke:#00AEEF;stroke-width:2;stroke-miterlimit:10;}
	.st11{font-family:'Helvetica';}
	.st12{font-size:8px;}
	.st13{font-size:5px;}
</style>
<rect
   style="enable-background:new 0 0 287.72 79.78;fill:#ffffff;stroke-width:2.5285;stroke-linecap:square"
   id="rect508"
   width="288.00992"
   height="79.995872"
   x="-0.23260148"
   y="-0.15506765"
   inkscape:label="Background" /><line
   class="st0"
   x1="5.25"
   y1="17.79"
   x2="55.47"
   y2="17.79"
   id="line4" />
<line
   class="st0"
   x1="5.25"
   y1="27.03"
   x2="94.44"
   y2="27.03"
   id="line6" />
<line
   class="st0"
   x1="5.25"
   y1="36.27"
   x2="60.96"
   y2="36.27"
   id="line8" />
<line
   class="st0"
   x1="5.25"
   y1="45.51"
   x2="70.9"
   y2="45.51"
   id="line10" />
<line
   class="st0"
   x1="5.25"
   y1="54.75"
   x2="48.67"
   y2="54.75"
   id="line12" />
<line
   class="st0"
   x1="5.25"
   y1="64"
   x2="79.27"
   y2="64"
   id="line14" />
<line
   class="st0"
   x1="5.25"
   y1="73.24"
   x2="70.9"
   y2="73.24"
   id="line16" />
<g
   id="g28">
	<line
   class="st1"
   x1="180.1"
   y1="17.79"
   x2="278.8"
   y2="17.79"
   id="line18" />
	<g
   id="g26">
		<line
   class="st2"
   x1="180.1"
   y1="17.79"
   x2="180.6"
   y2="17.79"
   id="line20" />
		<line
   class="st3"
   x1="181.61"
   y1="17.79"
   x2="277.79"
   y2="17.79"
   id="line22" />
		<line
   class="st2"
   x1="278.3"
   y1="17.79"
   x2="278.8"
   y2="17.79"
   id="line24" />
	</g>
</g>
<g
   id="g40">
	<line
   class="st1"
   x1="179.32"
   y1="27.03"
   x2="278.8"
   y2="27.03"
   id="line30" />
	<g
   id="g38">
		<line
   class="st2"
   x1="179.32"
   y1="27.03"
   x2="179.82"
   y2="27.03"
   id="line32" />
		<line
   class="st4"
   x1="180.81"
   y1="27.03"
   x2="277.8"
   y2="27.03"
   id="line34" />
		<line
   class="st2"
   x1="278.3"
   y1="27.03"
   x2="278.8"
   y2="27.03"
   id="line36" />
	</g>
</g>
<g
   id="g52">
	<line
   class="st1"
   x1="180.1"
   y1="36.27"
   x2="278.8"
   y2="36.27"
   id="line42" />
	<g
   id="g50">
		<line
   class="st2"
   x1="180.1"
   y1="36.27"
   x2="180.6"
   y2="36.27"
   id="line44" />
		<line
   class="st3"
   x1="181.61"
   y1="36.27"
   x2="277.79"
   y2="36.27"
   id="line46" />
		<line
   class="st2"
   x1="278.3"
   y1="36.27"
   x2="278.8"
   y2="36.27"
   id="line48" />
	</g>
</g>
<g
   id="g64">
	<line
   class="st1"
   x1="180.1"
   y1="45.51"
   x2="278.8"
   y2="45.51"
   id="line54" />
	<g
   id="g62">
		<line
   class="st2"
   x1="180.1"
   y1="45.51"
   x2="180.6"
   y2="45.51"
   id="line56" />
		<line
   class="st3"
   x1="181.61"
   y1="45.51"
   x2="277.79"
   y2="45.51"
   id="line58" />
		<line
   class="st2"
   x1="278.3"
   y1="45.51"
   x2="278.8"
   y2="45.51"
   id="line60" />
	</g>
</g>
<g
   id="g76">
	<line
   class="st1"
   x1="180.1"
   y1="54.75"
   x2="278.8"
   y2="54.75"
   id="line66" />
	<g
   id="g74">
		<line
   class="st2"
   x1="180.1"
   y1="54.75"
   x2="180.6"
   y2="54.75"
   id="line68" />
		<line
   class="st3"
   x1="181.61"
   y1="54.75"
   x2="277.79"
   y2="54.75"
   id="line70" />
		<line
   class="st2"
   x1="278.3"
   y1="54.75"
   x2="278.8"
   y2="54.75"
   id="line72" />
	</g>
</g>
<g
   id="g88">
	<line
   class="st1"
   x1="179.32"
   y1="64"
   x2="278.8"
   y2="64"
   id="line78" />
	<g
   id="g86">
		<line
   class="st2"
   x1="179.32"
   y1="64"
   x2="179.82"
   y2="64"
   id="line80" />
		<line
   class="st4"
   x1="180.81"
   y1="64"
   x2="277.8"
   y2="64"
   id="line82" />
		<line
   class="st2"
   x1="278.3"
   y1="64"
   x2="278.8"
   y2="64"
   id="line84" />
	</g>
</g>
<g
   id="g100">
	<line
   class="st1"
   x1="180.1"
   y1="73.24"
   x2="279.62"
   y2="73.24"
   id="line90" />
	<g
   id="g98">
		<line
   class="st2"
   x1="180.1"
   y1="73.24"
   x2="180.6"
   y2="73.24"
   id="line92" />
		<line
   class="st5"
   x1="181.6"
   y1="73.24"
   x2="278.63"
   y2="73.24"
   id="line94" />
		<line
   class="st2"
   x1="279.12"
   y1="73.24"
   x2="279.62"
   y2="73.24"
   id="line96" />
	</g>
</g>
<line
   class="st0"
   x1="179.32"
   y1="17.79"
   x2="214.23"
   y2="17.79"
   id="line102" />
<line
   class="st0"
   x1="257.72"
   y1="17.79"
   x2="279.62"
   y2="17.79"
   id="line104" />
<line
   class="st0"
   x1="193.31"
   y1="27.03"
   x2="279.62"
   y2="27.03"
   id="line106" />
<line
   class="st0"
   x1="179.32"
   y1="36.27"
   x2="193.31"
   y2="36.27"
   id="line108" />
<line
   class="st0"
   x1="254.51"
   y1="36.27"
   x2="279.62"
   y2="36.27"
   id="line110" />
<line
   class="st0"
   x1="179.32"
   y1="45.51"
   x2="220.77"
   y2="45.51"
   id="line112" />
<line
   class="st0"
   x1="254.51"
   y1="45.51"
   x2="279.62"
   y2="45.51"
   id="line114" />
<line
   class="st0"
   x1="205.21"
   y1="64"
   x2="279.62"
   y2="64"
   id="line116" />
<line
   class="st0"
   x1="179.32"
   y1="54.75"
   x2="193.31"
   y2="54.75"
   id="line118" />
<line
   class="st0"
   x1="235.81"
   y1="54.75"
   x2="279.62"
   y2="54.75"
   id="line120" />
<line
   class="st0"
   x1="179.32"
   y1="73.24"
   x2="244.97"
   y2="73.24"
   id="line122" />
<g
   id="g132">
	<g
   id="g130">
		<line
   class="st6"
   x1="122.49"
   y1="45.13"
   x2="142.66"
   y2="45.13"
   id="line124" />
		<g
   id="g128">
			<polygon
   points="141.93,47.62 146.24,45.13 141.93,42.63    "
   id="polygon126" />
		</g>
	</g>
</g>
<line
   class="st7"
   x1="7.34"
   y1="17.79"
   x2="15.45"
   y2="17.79"
   id="line134" />
<line
   class="st7"
   x1="7.34"
   y1="36.27"
   x2="15.45"
   y2="36.27"
   id="line136" />
<line
   class="st7"
   x1="7.34"
   y1="45.51"
   x2="15.45"
   y2="45.51"
   id="line138" />
<line
   class="st7"
   x1="7.34"
   y1="54.75"
   x2="15.45"
   y2="54.75"
   id="line140" />
<line
   class="st7"
   x1="7.34"
   y1="73.24"
   x2="15.45"
   y2="73.24"
   id="line142" />
<line
   class="st7"
   x1="181.93"
   y1="17.79"
   x2="190.04"
   y2="17.79"
   id="line144" />
<line
   class="st7"
   x1="181.93"
   y1="36.27"
   x2="190.04"
   y2="36.27"
   id="line146" />
<line
   class="st7"
   x1="181.93"
   y1="45.51"
   x2="190.04"
   y2="45.51"
   id="line148" />
<line
   class="st7"
   x1="181.93"
   y1="54.75"
   x2="190.04"
   y2="54.75"
   id="line150" />
<line
   class="st7"
   x1="181.93"
   y1="73.24"
   x2="190.04"
   y2="73.24"
   id="line152" />
<line
   class="st8"
   x1="42.26"
   y1="27.01"
   x2="50.37"
   y2="27.01"
   id="line154" />
<line
   class="st8"
   x1="22.9"
   y1="36.27"
   x2="31.01"
   y2="36.27"
   id="line156" />
<line
   class="st8"
   x1="26.96"
   y1="64"
   x2="35.07"
   y2="64"
   id="line158" />
<line
   class="st8"
   x1="48.01"
   y1="73.24"
   x2="56.12"
   y2="73.24"
   id="line160" />
<line
   class="st8"
   x1="224.37"
   y1="27.03"
   x2="232.48"
   y2="27.03"
   id="line162" />
<line
   class="st8"
   x1="224.37"
   y1="64"
   x2="232.48"
   y2="64"
   id="line164" />
<line
   class="st8"
   x1="224.37"
   y1="73.24"
   x2="232.48"
   y2="73.24"
   id="line166" />
<line
   class="st9"
   x1="53.57"
   y1="27.01"
   x2="58.67"
   y2="27.01"
   id="line168" />
<line
   class="st9"
   x1="17.8"
   y1="54.78"
   x2="22.9"
   y2="54.78"
   id="line170" />
<line
   class="st0"
   x1="217.86"
   y1="36.27"
   x2="234.73"
   y2="36.27"
   id="line172" />
<line
   class="st8"
   x1="224.37"
   y1="36.27"
   x2="232.48"
   y2="36.27"
   id="line174" />
<line
   class="st9"
   x1="40.36"
   y1="64"
   x2="45.46"
   y2="64"
   id="line176" />
<line
   class="st9"
   x1="62.33"
   y1="73.24"
   x2="67.43"
   y2="73.24"
   id="line178" />
<line
   class="st9"
   x1="236.47"
   y1="27.03"
   x2="241.57"
   y2="27.03"
   id="line180" />
<line
   class="st9"
   x1="236.47"
   y1="54.75"
   x2="241.57"
   y2="54.75"
   id="line182" />
<line
   class="st9"
   x1="236.47"
   y1="64"
   x2="241.57"
   y2="64"
   id="line184" />
<line
   class="st9"
   x1="236.47"
   y1="73.24"
   x2="241.57"
   y2="73.24"
   id="line186" />
<line
   class="st10"
   x1="42.91"
   y1="17.79"
   x2="52.92"
   y2="17.79"
   id="line188" />
<line
   class="st10"
   x1="82.11"
   y1="27.01"
   x2="92.12"
   y2="27.01"
   id="line190" />
<line
   class="st10"
   x1="48.57"
   y1="36.27"
   x2="58.57"
   y2="36.27"
   id="line192" />
<line
   class="st10"
   x1="58.67"
   y1="45.51"
   x2="68.68"
   y2="45.51"
   id="line194" />
<line
   class="st10"
   x1="35.36"
   y1="54.75"
   x2="45.36"
   y2="54.75"
   id="line196" />
<line
   class="st10"
   x1="65.9"
   y1="64"
   x2="75.9"
   y2="64"
   id="line198" />
<line
   class="st10"
   x1="267.07"
   y1="27.03"
   x2="277.07"
   y2="27.03"
   id="line200" />
<line
   class="st10"
   x1="267.07"
   y1="17.79"
   x2="277.07"
   y2="17.79"
   id="line202" />
<line
   class="st10"
   x1="267.07"
   y1="36.27"
   x2="277.07"
   y2="36.27"
   id="line204" />
<line
   class="st10"
   x1="267.07"
   y1="45.51"
   x2="277.07"
   y2="45.51"
   id="line206" />
<line
   class="st10"
   x1="267.07"
   y1="54.73"
   x2="277.07"
   y2="54.73"
   id="line208" />
<line
   class="st10"
   x1="267.07"
   y1="64"
   x2="277.07"
   y2="64"
   id="line210" />
<text
   transform="matrix(1 0 0 1 3.7438 10.5614)"
   class="st11 st12"
   id="text212">Unaligned</text>
<text
   transform="matrix(1 0 0 1 179.316 10.5612)"
   class="st11 st12"
   id="text214">Aligned</text>
<text
   transform="matrix(1 0 0 1 122.4907 53.2453)"
   id="text222"><tspan
     x="0"
     y="0"
     class="st11 st13"
     id="tspan216">Multiple </tspan><tspan
     x="0"
     y="6"
     class="st11 st13"
     id="tspan218">Sequence </tspan><tspan
     x="0"
     y="12"
     class="st11 st13"
     id="tspan220">Alignment</tspan></text>
</svg>
