<?xml version="1.0" encoding="utf-8"?>
<!-- Generator: Adobe Illustrator 27.6.1, SVG Export Plug-In . SVG Version: 6.00 Build 0)  -->
<svg version="1.1" id="Layer_1" xmlns="http://www.w3.org/2000/svg" xmlns:xlink="http://www.w3.org/1999/xlink" x="0px" y="0px"
	 viewBox="0 0 589.19 396" style="enable-background:new 0 0 589.19 396;" xml:space="preserve">
<style type="text/css">
	.st0{fill:#FFFFFF;stroke:#000000;stroke-miterlimit:10;}
	.st1{fill:#BCBEC0;stroke:#000000;stroke-miterlimit:10;}
	.st2{fill:none;stroke:#000000;stroke-miterlimit:10;}
	.st3{font-family:'Menlo-Regular';}
	.st4{font-size:12px;}
	.st5{font-size:8px;}
	.st6{font-family:'Helvetica';}
	.st7{font-family:'Courier';}
	.st8{fill:none;}
	.st9{fill:none;stroke:#000000;stroke-miterlimit:10;stroke-dasharray:1.0006,2.0011;}
	.st10{fill:none;stroke:#000000;stroke-miterlimit:10;stroke-dasharray:0.971,1.9419;}
	.st11{fill:none;stroke:#000000;stroke-miterlimit:10;stroke-dasharray:1.0207,2.0415;}
	.st12{fill:none;stroke:#000000;stroke-miterlimit:10;stroke-dasharray:1.0144,2.0288;}
	.st13{fill:#EE2A7B;}
	.st14{fill:#1C75BC;}
	.st15{fill:#EC008C;}
	.st16{fill:#FBB040;}
	.st17{fill:#00A651;}
	.st18{fill:#ED1C24;}
	.st19{fill:#00A14B;}
	.st20{fill:#00AEEF;}
	.st21{font-family:'Helvetica-Bold';}
	.st22{font-size:20px;}
</style>
<g>
	<circle class="st0" cx="168.32" cy="83.85" r="10"/>
	<circle class="st1" cx="168.32" cy="136.99" r="10"/>
	<circle class="st1" cx="220.2" cy="136.99" r="10"/>
	<circle class="st1" cx="272.08" cy="136.99" r="10"/>
	<circle class="st1" cx="323.96" cy="136.99" r="10"/>
	<circle class="st1" cx="375.83" cy="136.99" r="10"/>
	<g>
		<g>
			<line class="st2" x1="178.32" y1="83.85" x2="203.02" y2="83.85"/>
			<g>
				<polygon points="201.56,88.83 210.2,83.85 201.56,78.86 				"/>
			</g>
		</g>
	</g>
	<circle class="st0" cx="220.2" cy="83.85" r="10"/>
	<g>
		<g>
			<line class="st2" x1="230.2" y1="83.85" x2="254.9" y2="83.85"/>
			<g>
				<polygon points="253.44,88.83 262.08,83.85 253.44,78.86 				"/>
			</g>
		</g>
	</g>
	<circle class="st0" cx="272.08" cy="83.85" r="10"/>
	<g>
		<g>
			<line class="st2" x1="282.08" y1="83.85" x2="306.78" y2="83.85"/>
			<g>
				<polygon points="305.32,88.83 313.96,83.85 305.32,78.86 				"/>
			</g>
		</g>
	</g>
	<circle class="st0" cx="323.96" cy="83.85" r="10"/>
	<g>
		<g>
			<line class="st2" x1="333.96" y1="83.85" x2="358.66" y2="83.85"/>
			<g>
				<polygon points="357.2,88.83 365.83,83.85 357.2,78.86 				"/>
			</g>
		</g>
	</g>
	<circle class="st0" cx="375.83" cy="83.85" r="10"/>
	<g>
		<g>
			<line class="st2" x1="385.83" y1="83.85" x2="410.54" y2="83.85"/>
			<g>
				<polygon points="409.08,88.83 417.71,83.85 409.08,78.86 				"/>
			</g>
		</g>
	</g>
	<g>
		<g>
			<line class="st2" x1="168.32" y1="93.85" x2="168.32" y2="119.81"/>
			<g>
				<polygon points="163.33,118.36 168.32,126.99 173.31,118.36 				"/>
			</g>
		</g>
	</g>
	<g>
		<g>
			<line class="st2" x1="220.2" y1="93.85" x2="220.2" y2="119.81"/>
			<g>
				<polygon points="215.21,118.36 220.2,126.99 225.18,118.36 				"/>
			</g>
		</g>
	</g>
	<g>
		<g>
			<line class="st2" x1="272.08" y1="93.85" x2="272.08" y2="119.81"/>
			<g>
				<polygon points="267.09,118.36 272.08,126.99 277.06,118.36 				"/>
			</g>
		</g>
	</g>
	<g>
		<g>
			<line class="st2" x1="323.96" y1="93.85" x2="323.96" y2="119.81"/>
			<g>
				<polygon points="318.97,118.36 323.96,126.99 328.94,118.36 				"/>
			</g>
		</g>
	</g>
	<g>
		<g>
			<line class="st2" x1="375.83" y1="93.85" x2="375.83" y2="119.81"/>
			<g>
				<polygon points="370.85,118.36 375.83,126.99 380.82,118.36 				"/>
			</g>
		</g>
	</g>
	<text transform="matrix(1 0 0 1 162.3518 86.4043)" class="st3 st4">l</text>
	<text transform="matrix(0.583 0 0 0.583 169.5764 90.4004)" class="st3 st4">1</text>
	<text transform="matrix(1 0 0 1 214.2381 86.4041)" class="st3 st4">l</text>
	<text transform="matrix(0.583 0 0 0.583 221.4627 90.4002)" class="st3 st4">2</text>
	<text transform="matrix(1 0 0 1 266.124 86.4041)" class="st3 st4">l</text>
	<text transform="matrix(0.583 0 0 0.583 273.3486 90.4002)" class="st3 st4">3</text>
	<text transform="matrix(1 0 0 1 318.0102 86.4038)" class="st3 st5">...</text>
	<text transform="matrix(1 0 0 1 369.8964 86.404)" class="st3 st4">l</text>
	<text transform="matrix(0.583 0 0 0.583 377.121 90.4001)" class="st3 st4">N</text>
	<text transform="matrix(1 0 0 1 162.5119 139.7503)" class="st3 st4">o</text>
	<text transform="matrix(0.583 0 0 0.583 169.7365 143.7464)" class="st3 st4">1</text>
	<text transform="matrix(1 0 0 1 214.3982 139.7502)" class="st3 st4">o</text>
	<text transform="matrix(0.583 0 0 0.583 221.6228 143.7462)" class="st3 st4">2</text>
	<text transform="matrix(1 0 0 1 266.2841 139.7502)" class="st3 st4">o</text>
	<text transform="matrix(0.583 0 0 0.583 273.5087 143.7462)" class="st3 st4">3</text>
	<text transform="matrix(1 0 0 1 318.1703 139.7498)" class="st3 st5">...</text>
	<text transform="matrix(1 0 0 1 370.0564 139.75)" class="st3 st4">o</text>
	<text transform="matrix(0.583 0 0 0.583 377.281 143.7461)" class="st3 st4">N</text>
</g>
<text transform="matrix(1 0 0 1 41.4377 53.0267)" class="st6 st4">Labellings (states)</text>
<text transform="matrix(1 0 0 1 40.0586 151.8714)" class="st6 st4">Observations</text>
<text transform="matrix(1 0 0 1 299.862 31.9259)" class="st6 st4">Transition probabilities </text>
<text transform="matrix(1 0 0 1 329.8913 46.3258)" class="st7 st4">P(l</text>
<text transform="matrix(0.583 0 0 0.583 351.4948 50.3219)" class="st7 st4">i</text>
<text transform="matrix(1 0 0 1 355.693 46.3258)" class="st7 st4">|l</text>
<text transform="matrix(0.583 0 0 0.583 370.0954 50.3219)" class="st7 st4">i-1</text>
<text transform="matrix(1 0 0 1 382.6901 46.3258)" class="st7 st4">)</text>
<text transform="matrix(1 0 0 1 446.8509 107.3204)" class="st6 st4">Emission probabilities </text>
<text transform="matrix(1 0 0 1 479.0745 121.7203)" class="st7 st4">P(o</text>
<text transform="matrix(0.583 0 0 0.583 500.678 125.7163)" class="st7 st4">i</text>
<text transform="matrix(1 0 0 1 504.8763 121.7203)" class="st7 st4">|l</text>
<text transform="matrix(0.583 0 0 0.583 519.2786 125.7163)" class="st7 st4">i</text>
<text transform="matrix(1 0 0 1 523.4768 121.7203)" class="st7 st4">)</text>
<line class="st8" x1="95.97" y1="73.85" x2="148.77" y2="80.84"/>
<g>
	<g>
		<line class="st2" x1="94.18" y1="58.07" x2="94.64" y2="58.26"/>
		<line class="st9" x1="96.51" y1="58.99" x2="148.68" y2="79.44"/>
		<line class="st2" x1="149.61" y1="79.8" x2="150.07" y2="79.98"/>
		<g>
			<polygon points="148.48,82.04 153.41,81.29 150.3,77.4 			"/>
		</g>
	</g>
</g>
<g>
	<g>
		<line class="st2" x1="115.23" y1="143.84" x2="115.72" y2="143.76"/>
		<line class="st10" x1="117.64" y1="143.41" x2="148.21" y2="137.89"/>
		<line class="st2" x1="149.17" y1="137.72" x2="149.66" y2="137.63"/>
		<g>
			<polygon points="149.38,140.21 153.19,136.99 148.5,135.3 			"/>
		</g>
	</g>
</g>
<g>
	<g>
		<line class="st2" x1="353.98" y1="55.69" x2="353.88" y2="56.18"/>
		<line class="st11" x1="353.5" y1="58.19" x2="350.84" y2="72.23"/>
		<line class="st2" x1="350.66" y1="73.23" x2="350.56" y2="73.72"/>
		<g>
			<polygon points="348.25,72.54 349.89,77.25 353.15,73.47 			"/>
		</g>
	</g>
</g>
<g>
	<g>
		<line class="st2" x1="454.47" y1="112.02" x2="453.97" y2="112"/>
		<line class="st12" x1="451.95" y1="111.88" x2="386.11" y2="108.19"/>
		<line class="st2" x1="385.1" y1="108.13" x2="384.6" y2="108.1"/>
		<g>
			<polygon points="385.47,105.65 381.02,107.9 385.19,110.63 			"/>
		</g>
	</g>
</g>
<circle class="st0" cx="162.38" cy="294.8" r="10"/>
<g>
	<g>
		<line class="st2" x1="172.38" y1="294.8" x2="197.08" y2="294.8"/>
		<g>
			<polygon points="195.62,299.79 204.26,294.8 195.62,289.82 			"/>
		</g>
	</g>
</g>
<circle class="st0" cx="214.26" cy="294.8" r="10"/>
<g>
	<g>
		<line class="st2" x1="224.26" y1="294.8" x2="248.96" y2="294.8"/>
		<g>
			<polygon points="247.5,299.79 256.14,294.8 247.5,289.82 			"/>
		</g>
	</g>
</g>
<circle class="st0" cx="266.14" cy="294.8" r="10"/>
<g>
	<g>
		<line class="st2" x1="276.14" y1="294.8" x2="300.84" y2="294.8"/>
		<g>
			<polygon points="299.38,299.79 308.02,294.8 299.38,289.82 			"/>
		</g>
	</g>
</g>
<circle class="st0" cx="318.02" cy="294.8" r="10"/>
<g>
	<g>
		<line class="st2" x1="328.02" y1="294.8" x2="352.72" y2="294.8"/>
		<g>
			<polygon points="351.26,299.79 359.89,294.8 351.26,289.82 			"/>
		</g>
	</g>
</g>
<circle class="st0" cx="369.89" cy="294.8" r="10"/>
<g>
	<g>
		<line class="st2" x1="379.89" y1="294.8" x2="404.6" y2="294.8"/>
		<g>
			<polygon points="403.14,299.79 411.77,294.8 403.14,289.82 			"/>
		</g>
	</g>
</g>
<g>
	<g>
		<line class="st2" x1="162.38" y1="304.8" x2="162.38" y2="330.77"/>
		<g>
			<polygon points="157.39,329.31 162.38,337.95 167.37,329.31 			"/>
		</g>
	</g>
</g>
<g>
	<g>
		<line class="st2" x1="214.26" y1="304.8" x2="214.26" y2="330.77"/>
		<g>
			<polygon points="209.27,329.31 214.26,337.95 219.25,329.31 			"/>
		</g>
	</g>
</g>
<g>
	<g>
		<line class="st2" x1="266.14" y1="304.8" x2="266.14" y2="330.77"/>
		<g>
			<polygon points="261.15,329.31 266.14,337.95 271.12,329.31 			"/>
		</g>
	</g>
</g>
<g>
	<g>
		<line class="st2" x1="318.02" y1="304.8" x2="318.02" y2="330.77"/>
		<g>
			<polygon points="313.03,329.31 318.02,337.95 323,329.31 			"/>
		</g>
	</g>
</g>
<g>
	<g>
		<line class="st2" x1="369.89" y1="304.8" x2="369.89" y2="330.77"/>
		<g>
			<polygon points="364.91,329.31 369.89,337.95 374.88,329.31 			"/>
		</g>
	</g>
</g>
<text transform="matrix(1 0 0 1 155.9625 299.3972)" class="st13 st3 st4">NC</text>
<text transform="matrix(1 0 0 1 209.8474 299.3969)" class="st14 st3 st4">C</text>
<text transform="matrix(1 0 0 1 261.9852 299.3968)" class="st14 st3 st4">C</text>
<text transform="matrix(1 0 0 1 363.7173 299.3969)" class="st15 st3 st4">NC</text>
<text transform="matrix(1 0 0 1 152.3802 351.2639)"><tspan x="0" y="0" class="st16 st3 st4">G</tspan><tspan x="7.22" y="0" class="st17 st3 st4">TT</tspan></text>
<text transform="matrix(1 0 0 1 204.2588 351.4318)"><tspan x="0" y="0" class="st18 st3 st4">A</tspan><tspan x="7.22" y="0" class="st17 st3 st4">T</tspan><tspan x="14.45" y="0" class="st16 st3 st4">G</tspan></text>
<text transform="matrix(1 0 0 1 256.1377 351.2638)"><tspan x="0" y="0" class="st16 st3 st4">G</tspan><tspan x="7.22" y="0" class="st18 st3 st4">A</tspan><tspan x="14.45" y="0" class="st17 st3 st4">T</tspan></text>
<text transform="matrix(1 0 0 1 308.0163 351.4317)"><tspan x="0" y="0" class="st19 st3 st4">T</tspan><tspan x="7.22" y="0" class="st18 st3 st4">AA</tspan></text>
<text transform="matrix(1 0 0 1 357.8206 351.2637)"><tspan x="0" y="0" class="st20 st3 st4">CC</tspan><tspan x="14.45" y="0" class="st16 st3 st4">G</tspan></text>
<text transform="matrix(1 0 0 1 31.5784 262.8229)" class="st6 st4">Coding / non-coding</text>
<text transform="matrix(1 0 0 1 30.1993 361.6675)"><tspan x="0" y="0" class="st6 st4">DNA (codon)</tspan><tspan x="0" y="14.4" class="st6 st4">sequence</tspan></text>
<line class="st8" x1="86.11" y1="283.64" x2="138.91" y2="290.64"/>
<g>
	<g>
		<line class="st2" x1="84.32" y1="267.87" x2="84.79" y2="268.05"/>
		<line class="st9" x1="86.65" y1="268.78" x2="138.82" y2="289.23"/>
		<line class="st2" x1="139.75" y1="289.6" x2="140.21" y2="289.78"/>
		<g>
			<polygon points="138.62,291.84 143.55,291.09 140.44,287.19 			"/>
		</g>
	</g>
</g>
<g>
	<g>
		<line class="st2" x1="105.37" y1="353.64" x2="105.87" y2="353.55"/>
		<line class="st10" x1="107.78" y1="353.21" x2="138.35" y2="347.69"/>
		<line class="st2" x1="139.31" y1="347.51" x2="139.8" y2="347.42"/>
		<g>
			<polygon points="139.52,350.01 143.33,346.79 138.64,345.1 			"/>
		</g>
	</g>
</g>
<text transform="matrix(1 0 0 1 10.0161 23.2979)" class="st21 st22">A</text>
<text transform="matrix(1 0 0 1 10.1921 240.3003)" class="st21 st22">B</text>
<text transform="matrix(1 0 0 1 311.2738 299.3971)" class="st15 st3 st4">NC</text>
</svg>
