<?xml version="1.0" encoding="utf-8"?>
<!-- Generator: Adobe Illustrator 27.6.1, SVG Export Plug-In . SVG Version: 6.00 Build 0)  -->
<svg version="1.1" id="Layer_1" xmlns="http://www.w3.org/2000/svg" xmlns:xlink="http://www.w3.org/1999/xlink" x="0px" y="0px"
	 viewBox="0 0 287.72 69.31" style="enable-background:new 0 0 287.72 69.31;" xml:space="preserve">
<style type="text/css">
	.st0{fill:#FFFFFF;stroke:#939598;stroke-width:2;stroke-miterlimit:10;}
	.st1{fill:#FFFFFF;stroke:#000000;stroke-width:0.25;stroke-miterlimit:10;}
	.st2{fill:#ED1C24;}
	.st3{fill:#00AEEF;}
	.st4{fill:#009444;}
	.st5{fill:#FBB040;}
	.st6{fill:none;stroke:#000000;stroke-miterlimit:10;}
</style>
<line class="st0" x1="5.25" y1="7.31" x2="55.47" y2="7.31"/>
<line class="st0" x1="5.25" y1="16.56" x2="94.44" y2="16.56"/>
<line class="st0" x1="5.25" y1="25.8" x2="60.96" y2="25.8"/>
<line class="st0" x1="5.25" y1="35.04" x2="70.9" y2="35.04"/>
<line class="st0" x1="5.25" y1="44.28" x2="48.67" y2="44.28"/>
<line class="st0" x1="5.25" y1="53.52" x2="79.27" y2="53.52"/>
<line class="st0" x1="5.25" y1="62.77" x2="70.9" y2="62.77"/>
<line class="st1" x1="180.1" y1="7.31" x2="278.8" y2="7.31"/>
<line class="st1" x1="179.32" y1="16.56" x2="278.8" y2="16.56"/>
<line class="st1" x1="180.1" y1="25.8" x2="278.8" y2="25.8"/>
<line class="st1" x1="180.1" y1="35.04" x2="278.8" y2="35.04"/>
<line class="st1" x1="180.1" y1="44.28" x2="278.8" y2="44.28"/>
<line class="st1" x1="179.32" y1="53.52" x2="278.8" y2="53.52"/>
<line class="st1" x1="180.1" y1="62.77" x2="279.62" y2="62.77"/>
<line class="st0" x1="179.32" y1="7.31" x2="220.77" y2="7.31"/>
<line class="st0" x1="257.72" y1="7.31" x2="279.62" y2="7.31"/>
<line class="st0" x1="193.31" y1="16.56" x2="279.62" y2="16.56"/>
<line class="st0" x1="179.32" y1="25.8" x2="232.81" y2="25.8"/>
<line class="st0" x1="254.51" y1="25.8" x2="279.62" y2="25.8"/>
<line class="st0" x1="179.32" y1="35.04" x2="220.77" y2="35.04"/>
<line class="st0" x1="254.51" y1="35.04" x2="279.62" y2="35.04"/>
<line class="st0" x1="205.21" y1="53.52" x2="279.62" y2="53.52"/>
<line class="st0" x1="179.32" y1="44.28" x2="223.52" y2="44.28"/>
<line class="st0" x1="235.81" y1="44.28" x2="279.62" y2="44.28"/>
<line class="st0" x1="179.32" y1="62.77" x2="244.97" y2="62.77"/>
<g>
	<g>
		<path class="st2" d="M8.65,8.48c1.61,0,1.61-2.5,0-2.5C7.04,5.98,7.04,8.48,8.65,8.48L8.65,8.48z"/>
	</g>
</g>
<g>
	<g>
		<path class="st2" d="M8.52,27.05c1.61,0,1.61-2.5,0-2.5C6.91,24.55,6.91,27.05,8.52,27.05L8.52,27.05z"/>
	</g>
</g>
<g>
	<g>
		<path class="st2" d="M9.17,36.29c1.61,0,1.61-2.5,0-2.5C7.56,33.79,7.56,36.29,9.17,36.29L9.17,36.29z"/>
	</g>
</g>
<g>
	<g>
		<path class="st2" d="M8.91,45.53c1.61,0,1.61-2.5,0-2.5C7.3,43.03,7.3,45.53,8.91,45.53L8.91,45.53z"/>
	</g>
</g>
<g>
	<g>
		<path class="st2" d="M8.91,64.02c1.61,0,1.61-2.5,0-2.5C7.3,61.52,7.3,64.02,8.91,64.02L8.91,64.02z"/>
	</g>
</g>
<g>
	<g>
		<path class="st3" d="M48.67,8.48c1.61,0,1.61-2.5,0-2.5C47.06,5.98,47.05,8.48,48.67,8.48L48.67,8.48z"/>
	</g>
</g>
<g>
	<g>
		<path class="st3" d="M52.07,8.48c1.61,0,1.61-2.5,0-2.5C50.46,5.98,50.46,8.48,52.07,8.48L52.07,8.48z"/>
	</g>
</g>
<g>
	<g>
		<path class="st3" d="M87.9,17.79c1.61,0,1.61-2.5,0-2.5C86.29,15.29,86.29,17.79,87.9,17.79L87.9,17.79z"/>
	</g>
</g>
<g>
	<g>
		<path class="st3" d="M91.82,17.79c1.61,0,1.61-2.5,0-2.5C90.22,15.29,90.21,17.79,91.82,17.79L91.82,17.79z"/>
	</g>
</g>
<g>
	<g>
		<path class="st3" d="M54.03,27.05c1.61,0,1.61-2.5,0-2.5C52.42,24.55,52.42,27.05,54.03,27.05L54.03,27.05z"/>
	</g>
</g>
<g>
	<g>
		<path class="st3" d="M57.69,27.05c1.61,0,1.61-2.5,0-2.5C56.08,24.55,56.08,27.05,57.69,27.05L57.69,27.05z"/>
	</g>
</g>
<g>
	<g>
		<path class="st3" d="M65.14,36.29c1.61,0,1.61-2.5,0-2.5C63.54,33.79,63.53,36.29,65.14,36.29L65.14,36.29z"/>
	</g>
</g>
<g>
	<g>
		<path class="st3" d="M68.54,36.29c1.61,0,1.61-2.5,0-2.5C66.94,33.79,66.93,36.29,68.54,36.29L68.54,36.29z"/>
	</g>
</g>
<g>
	<g>
		<path class="st3" d="M42.91,45.53c1.61,0,1.61-2.5,0-2.5C41.3,43.03,41.3,45.53,42.91,45.53L42.91,45.53z"/>
	</g>
</g>
<g>
	<g>
		<path class="st3" d="M46.31,45.53c1.61,0,1.61-2.5,0-2.5C44.7,43.03,44.7,45.53,46.31,45.53L46.31,45.53z"/>
	</g>
</g>
<g>
	<g>
		<path class="st3" d="M74.3,54.86c1.61,0,1.61-2.5,0-2.5C72.69,52.36,72.69,54.86,74.3,54.86L74.3,54.86z"/>
	</g>
</g>
<g>
	<g>
		<path class="st3" d="M77.44,54.86c1.61,0,1.61-2.5,0-2.5C75.83,52.36,75.83,54.86,77.44,54.86L77.44,54.86z"/>
	</g>
</g>
<g>
	<g>
		<path class="st3" d="M274.18,8.56c1.61,0,1.61-2.5,0-2.5C272.57,6.06,272.56,8.56,274.18,8.56L274.18,8.56z"/>
	</g>
</g>
<g>
	<g>
		<path class="st3" d="M278.06,8.56c1.61,0,1.61-2.5,0-2.5C276.45,6.06,276.44,8.56,278.06,8.56L278.06,8.56z"/>
	</g>
</g>
<g>
	<g>
		<path class="st3" d="M274.18,17.81c1.61,0,1.61-2.5,0-2.5C272.57,15.31,272.56,17.81,274.18,17.81L274.18,17.81z"/>
	</g>
</g>
<g>
	<g>
		<path class="st3" d="M278.06,17.81c1.61,0,1.61-2.5,0-2.5C276.45,15.31,276.44,17.81,278.06,17.81L278.06,17.81z"/>
	</g>
</g>
<g>
	<g>
		<path class="st3" d="M274.18,27.01c1.61,0,1.61-2.5,0-2.5C272.57,24.51,272.56,27.01,274.18,27.01L274.18,27.01z"/>
	</g>
</g>
<g>
	<g>
		<path class="st3" d="M278.06,27.01c1.61,0,1.61-2.5,0-2.5C276.45,24.51,276.44,27.01,278.06,27.01L278.06,27.01z"/>
	</g>
</g>
<g>
	<g>
		<path class="st3" d="M274.18,36.46c1.61,0,1.61-2.5,0-2.5C272.57,33.96,272.56,36.46,274.18,36.46L274.18,36.46z"/>
	</g>
</g>
<g>
	<g>
		<path class="st3" d="M278.06,36.46c1.61,0,1.61-2.5,0-2.5C276.45,33.96,276.44,36.46,278.06,36.46L278.06,36.46z"/>
	</g>
</g>
<g>
	<g>
		<path class="st3" d="M274.18,45.51c1.61,0,1.61-2.5,0-2.5C272.57,43.01,272.56,45.51,274.18,45.51L274.18,45.51z"/>
	</g>
</g>
<g>
	<g>
		<path class="st3" d="M278.06,45.51c1.61,0,1.61-2.5,0-2.5C276.45,43.01,276.44,45.51,278.06,45.51L278.06,45.51z"/>
	</g>
</g>
<g>
	<g>
		<path class="st3" d="M274.18,54.73c1.61,0,1.61-2.5,0-2.5C272.57,52.23,272.56,54.73,274.18,54.73L274.18,54.73z"/>
	</g>
</g>
<g>
	<g>
		<path class="st3" d="M278.06,54.73c1.61,0,1.61-2.5,0-2.5C276.45,52.23,276.44,54.73,278.06,54.73L278.06,54.73z"/>
	</g>
</g>
<g>
	<g>
		<path class="st4" d="M64.88,64.02c1.61,0,1.61-2.5,0-2.5C63.27,61.52,63.27,64.02,64.88,64.02L64.88,64.02z"/>
	</g>
</g>
<g>
	<g>
		<path class="st4" d="M42.91,54.86c1.61,0,1.61-2.5,0-2.5C41.3,52.36,41.3,54.86,42.91,54.86L42.91,54.86z"/>
	</g>
</g>
<g>
	<g>
		<path class="st4" d="M18.33,45.53c1.61,0,1.61-2.5,0-2.5C16.72,43.03,16.71,45.53,18.33,45.53L18.33,45.53z"/>
	</g>
</g>
<g>
	<g>
		<path class="st4" d="M64.1,17.79c1.61,0,1.61-2.5,0-2.5C62.49,15.29,62.49,17.79,64.1,17.79L64.1,17.79z"/>
	</g>
</g>
<g>
	<g>
		<path class="st4" d="M240.78,64.1c1.61,0,1.61-2.5,0-2.5C239.17,61.6,239.17,64.1,240.78,64.1L240.78,64.1z"/>
	</g>
</g>
<g>
	<g>
		<path class="st4" d="M240.78,54.73c1.61,0,1.61-2.5,0-2.5C239.17,52.23,239.17,54.73,240.78,54.73L240.78,54.73z"/>
	</g>
</g>
<g>
	<g>
		<path class="st4" d="M240.78,45.51c1.61,0,1.61-2.5,0-2.5C239.17,43.01,239.17,45.51,240.78,45.51L240.78,45.51z"/>
	</g>
</g>
<g>
	<g>
		<path class="st4" d="M240.78,17.81c1.61,0,1.61-2.5,0-2.5C239.17,15.31,239.17,17.81,240.78,17.81L240.78,17.81z"/>
	</g>
</g>
<g>
	<g>
		<path class="st5" d="M228.42,64.1c1.61,0,1.61-2.5,0-2.5C226.82,61.6,226.81,64.1,228.42,64.1L228.42,64.1z"/>
	</g>
</g>
<g>
	<g>
		<path class="st5" d="M228.42,54.73c1.61,0,1.61-2.5,0-2.5C226.82,52.23,226.81,54.73,228.42,54.73L228.42,54.73z"/>
	</g>
</g>
<g>
	<g>
		<path class="st5" d="M228.42,27.01c1.61,0,1.61-2.5,0-2.5C226.82,24.51,226.81,27.01,228.42,27.01L228.42,27.01z"/>
	</g>
</g>
<g>
	<g>
		<path class="st5" d="M228.42,17.81c1.61,0,1.61-2.5,0-2.5C226.82,15.31,226.81,17.81,228.42,17.81L228.42,17.81z"/>
	</g>
</g>
<g>
	<g>
		<path class="st5" d="M53.11,64.02c1.61,0,1.61-2.5,0-2.5C51.5,61.52,51.5,64.02,53.11,64.02L53.11,64.02z"/>
	</g>
</g>
<g>
	<g>
		<path class="st5" d="M31.93,54.86c1.61,0,1.61-2.5,0-2.5C30.32,52.36,30.32,54.86,31.93,54.86L31.93,54.86z"/>
	</g>
</g>
<g>
	<g>
		<path class="st5" d="M28.92,27.05c1.61,0,1.61-2.5,0-2.5C27.31,24.55,27.31,27.05,28.92,27.05L28.92,27.05z"/>
	</g>
</g>
<g>
	<g>
		<path class="st5" d="M53.9,17.79c1.61,0,1.61-2.5,0-2.5C52.29,15.29,52.29,17.79,53.9,17.79L53.9,17.79z"/>
	</g>
</g>
<g>
	<g>
		<path class="st2" d="M183.58,8.56c1.61,0,1.61-2.5,0-2.5C181.97,6.06,181.97,8.56,183.58,8.56L183.58,8.56z"/>
	</g>
</g>
<g>
	<g>
		<path class="st2" d="M183.58,27.01c1.61,0,1.61-2.5,0-2.5C181.97,24.51,181.97,27.01,183.58,27.01L183.58,27.01z"/>
	</g>
</g>
<g>
	<g>
		<path class="st2" d="M183.58,36.46c1.61,0,1.61-2.5,0-2.5C181.97,33.96,181.97,36.46,183.58,36.46L183.58,36.46z"/>
	</g>
</g>
<g>
	<g>
		<path class="st2" d="M183.58,45.51c1.61,0,1.61-2.5,0-2.5C181.97,43.01,181.97,45.51,183.58,45.51L183.58,45.51z"/>
	</g>
</g>
<g>
	<g>
		<path class="st2" d="M183.58,64.1c1.61,0,1.61-2.5,0-2.5C181.97,61.6,181.97,64.1,183.58,64.1L183.58,64.1z"/>
	</g>
</g>
<g>
	<g>
		<line class="st6" x1="122.49" y1="34.66" x2="142.66" y2="34.66"/>
		<g>
			<polygon points="141.93,37.15 146.24,34.66 141.93,32.16 			"/>
		</g>
	</g>
</g>
</svg>
