<?xml version="1.0" encoding="UTF-8" standalone="no"?>
<svg
   width="861.17712"
   height="671.96991"
   viewBox="0 0 861.17712 671.96991"
   fill="none"
   version="1.1"
   id="svg30"
   sodipodi:docname="alphafolddb.svg"
   inkscape:version="1.2.2 (732a01da63, 2022-12-09)"
   inkscape:export-filename="alphafolddb.png"
   inkscape:export-xdpi="96"
   inkscape:export-ydpi="96"
   xmlns:inkscape="http://www.inkscape.org/namespaces/inkscape"
   xmlns:sodipodi="http://sodipodi.sourceforge.net/DTD/sodipodi-0.dtd"
   xmlns="http://www.w3.org/2000/svg"
   xmlns:svg="http://www.w3.org/2000/svg">
  <defs
     id="defs34" />
  <sodipodi:namedview
     id="namedview32"
     pagecolor="#ffffff"
     bordercolor="#000000"
     borderopacity="0.25"
     inkscape:showpageshadow="2"
     inkscape:pageopacity="0.0"
     inkscape:pagecheckerboard="0"
     inkscape:deskcolor="#d1d1d1"
     showgrid="false"
     inkscape:zoom="0.87076948"
     inkscape:cx="337.63241"
     inkscape:cy="304.90274"
     inkscape:window-width="1920"
     inkscape:window-height="991"
     inkscape:window-x="-9"
     inkscape:window-y="-9"
     inkscape:window-maximized="1"
     inkscape:current-layer="svg30" />
  <rect
     style="fill:#ffffff;stroke-width:2.5285;stroke-linecap:square"
     id="rect369"
     width="861.17712"
     height="671.96991"
     x="0"
     y="0"
     inkscape:label="Background" />
  <path
     d="m 279.60964,618.48915 c 139.2,0 252,-112.8 252,-252 0,-139.2 -112.8,-252 -252,-252 -139.2,0 -252.000002,112.8 -252.000002,252 0,139.2 112.800002,252 252.000002,252 z"
     fill="#0053d6"
     id="path4" />
  <path
     d="m 278.60964,571.68915 c 9.499,0 17.2,-7.701 17.2,-17.2 0,-9.499 -7.701,-17.2 -17.2,-17.2 -9.499,0 -17.2,7.701 -17.2,17.2 0,9.499 7.701,17.2 17.2,17.2 z"
     fill="#a8caff"
     id="path6" />
  <path
     d="m 278.60964,569.08915 c 4.197,0 7.6,-3.403 7.6,-7.6 0,-4.197 -3.403,-7.6 -7.6,-7.6 -4.197,0 -7.6,3.403 -7.6,7.6 0,4.197 3.403,7.6 7.6,7.6 z"
     fill="#9967f6"
     id="path8" />
  <path
     d="m 30.029638,39.489157 v -14 h 2.12 l 7.02,10.54 v -10.54 h 2.12 v 14 h -2.12 l -7.02,-10.54 v 10.54 z m 18.1816,0.24 c -1.2,0 -2.1467,-0.3733 -2.84,-1.12 -0.68,-0.7467 -1.02,-1.86 -1.02,-3.34 v -5.7 h 2.12 v 5.48 c 0,1.92 0.7866,2.88 2.36,2.88 0.7866,0 1.4333,-0.28 1.94,-0.84 0.5066,-0.56 0.76,-1.36 0.76,-2.4 v -5.12 h 2.12 v 9.92 h -1.88 l -0.16,-1.74 c -0.3067,0.6133 -0.76,1.1 -1.36,1.46 -0.5867,0.3467 -1.2667,0.52 -2.04,0.52 z m 8.6368,-0.24 v -9.92 h 1.88 l 0.18,1.4 c 0.32,-0.5067 0.74,-0.9067 1.26,-1.2 0.5334,-0.29333 1.1467,-0.44 1.84,-0.44 1.5734,0 2.6667,0.62 3.28,1.86 0.36,-0.5733 0.84,-1.0267 1.44,-1.36 0.6134,-0.3333 1.2734,-0.5 1.98,-0.5 1.24,0 2.2134,0.3733 2.92,1.12 0.7067,0.7467 1.06,1.86 1.06,3.34 v 5.7 h -2.12 v -5.48 c 0,-1.92 -0.7333,-2.88 -2.2,-2.88 -0.7466,0 -1.36,0.28 -1.84,0.84 -0.4666,0.56 -0.7,1.36 -0.7,2.4 v 5.12 h -2.12 v -5.48 c 0,-1.92 -0.74,-2.88 -2.22,-2.88 -0.7333,0 -1.34,0.28 -1.82,0.84 -0.4666,0.56 -0.7,1.36 -0.7,2.4 v 5.12 z m 24.4004,0.24 c -0.7734,0 -1.46,-0.1533 -2.06,-0.46 -0.5867,-0.3067 -1.0534,-0.74 -1.4,-1.3 l -0.22,1.52 h -1.9 v -14.4 h 2.12 v 6.02 c 0.32,-0.4667 0.76,-0.88 1.32,-1.24 0.56,-0.36 1.28,-0.54 2.16,-0.54 0.96,0 1.8066,0.2267 2.54,0.68 0.7333,0.4533 1.3066,1.0733 1.72,1.86 0.4266,0.7867 0.64,1.68 0.64,2.68 0,1 -0.2134,1.8933 -0.64,2.68 -0.4134,0.7733 -0.9867,1.3867 -1.72,1.84 -0.7334,0.44 -1.5867,0.66 -2.56,0.66 z m -0.36,-1.84 c 0.9066,0 1.6533,-0.3067 2.24,-0.92 0.5866,-0.6267 0.88,-1.44 0.88,-2.44 0,-0.6533 -0.1334,-1.2333 -0.4,-1.74 -0.2667,-0.5067 -0.6334,-0.9 -1.1,-1.18 -0.4667,-0.2933 -1.0067,-0.44 -1.62,-0.44 -0.9067,0 -1.6534,0.3133 -2.24,0.94 -0.5734,0.6267 -0.86,1.4333 -0.86,2.42 0,1 0.2866,1.8133 0.86,2.44 0.5866,0.6133 1.3333,0.92 2.24,0.92 z m 12.7129,1.84 c -0.9733,0 -1.84,-0.2133 -2.6,-0.64 -0.7466,-0.44 -1.3333,-1.0467 -1.76,-1.82 -0.4266,-0.7733 -0.64,-1.6733 -0.64,-2.7 0,-1.04 0.2067,-1.9533 0.62,-2.74 0.4267,-0.7867 1.0134,-1.4 1.76,-1.84 0.76,-0.44 1.64,-0.66 2.64,-0.66 0.9734,0 1.82,0.22 2.54,0.66 0.72,0.4267 1.28,1 1.68,1.72 0.4,0.72 0.6,1.5133 0.6,2.38 0,0.1333 -0.0066,0.28 -0.02,0.44 0,0.1467 -0.0066,0.3133 -0.02,0.5 h -7.72 c 0.0667,0.96 0.38,1.6933 0.94,2.2 0.5734,0.4933 1.2334,0.74 1.98,0.74 0.6,0 1.1,-0.1333 1.5,-0.4 0.4134,-0.28 0.72,-0.6533 0.92,-1.12 h 2.12 c -0.2666,0.9333 -0.8,1.7133 -1.6,2.34 -0.7866,0.6267 -1.7666,0.94 -2.94,0.94 z m 0,-8.66 c -0.7066,0 -1.3333,0.2133 -1.88,0.64 -0.5466,0.4133 -0.88,1.04 -1,1.88 h 5.6 c -0.04,-0.7733 -0.3133,-1.3867 -0.82,-1.84 -0.5066,-0.4533 -1.14,-0.68 -1.9,-0.68 z m 7.539702,8.42 v -9.92 h 1.9 l 0.18,1.88 c 0.3467,-0.6533 0.8267,-1.1667 1.44,-1.54 0.6267,-0.3867 1.38,-0.58 2.26,-0.58 v 2.22 h -0.58 c -0.5867,0 -1.1133,0.1 -1.58,0.3 -0.4533,0.1867 -0.82,0.5133 -1.1,0.98 -0.2667,0.4533 -0.4,1.0867 -0.4,1.9 v 4.76 z m 18.2767,0.24 c -0.9466,0 -1.8,-0.2133 -2.56,-0.64 -0.7466,-0.44 -1.34,-1.0467 -1.78,-1.82 -0.44,-0.7867 -0.66,-1.7 -0.66,-2.74 0,-1.04 0.22,-1.9467 0.66,-2.72 0.4534,-0.7867 1.06,-1.3933 1.82,-1.82 0.76,-0.44 1.6067,-0.66 2.54,-0.66 0.9467,0 1.7934,0.22 2.54,0.66 0.76,0.4267 1.36,1.0333 1.8,1.82 0.4534,0.7733 0.68,1.68 0.68,2.72 0,1.04 -0.2266,1.9533 -0.68,2.74 -0.44,0.7733 -1.04,1.38 -1.8,1.82 -0.76,0.4267 -1.6133,0.64 -2.56,0.64 z m 0,-1.82 c 0.5067,0 0.9734,-0.1267 1.4,-0.38 0.44,-0.2533 0.7934,-0.6267 1.06,-1.12 0.2667,-0.5067 0.4,-1.1333 0.4,-1.88 0,-0.7467 -0.1333,-1.3667 -0.4,-1.86 -0.2533,-0.5067 -0.6,-0.8867 -1.04,-1.14 -0.4266,-0.2533 -0.8933,-0.38 -1.4,-0.38 -0.5066,0 -0.98,0.1267 -1.42,0.38 -0.4266,0.2533 -0.7733,0.6333 -1.04,1.14 -0.2666,0.4933 -0.4,1.1133 -0.4,1.86 0,0.7467 0.1334,1.3733 0.4,1.88 0.2667,0.4933 0.6134,0.8667 1.04,1.12 0.4267,0.2533 0.8934,0.38 1.4,0.38 z m 8.3329,1.58 v -8.14 h -1.4202 v -1.78 h 1.4202 v -1.44 c 0,-1.08 0.266,-1.85333 0.8,-2.32 0.546,-0.48 1.313,-0.72 2.3,-0.72 h 1.04 v 1.8 h -0.72 c -0.467,0 -0.8,0.1 -1,0.3 -0.2,0.18667 -0.3,0.50667 -0.3,0.96 v 1.42 h 2.28 v 1.78 h -2.28 v 8.14 z m 12.533,0 v -14 h 4.9 c 1.093,0 2,0.18667 2.72,0.56 0.72,0.36 1.253,0.86 1.6,1.5 0.36,0.62667 0.54,1.34 0.54,2.14 0,0.76 -0.173,1.46 -0.52,2.1 -0.333,0.6267 -0.86,1.1267 -1.58,1.5 -0.72,0.3733 -1.64,0.56 -2.76,0.56 h -2.78 v 5.64 z m 2.12,-7.38 h 2.68 c 1,0 1.713,-0.2133 2.14,-0.64 0.44,-0.44 0.66,-1.0333 0.66,-1.78 0,-0.77333 -0.22,-1.37333 -0.66,-1.8 -0.427,-0.44 -1.14,-0.66 -2.14,-0.66 h -2.68 z m 10.155,7.38 v -9.92 h 1.9 l 0.18,1.88 c 0.347,-0.6533 0.827,-1.1667 1.44,-1.54 0.627,-0.3867 1.38,-0.58 2.26,-0.58 v 2.22 h -0.58 c -0.586,0 -1.113,0.1 -1.58,0.3 -0.453,0.1867 -0.82,0.5133 -1.1,0.98 -0.266,0.4533 -0.4,1.0867 -0.4,1.9 v 4.76 z m 12.465,0.24 c -0.947,0 -1.8,-0.2133 -2.56,-0.64 -0.747,-0.44 -1.34,-1.0467 -1.78,-1.82 -0.44,-0.7867 -0.66,-1.7 -0.66,-2.74 0,-1.04 0.22,-1.9467 0.66,-2.72 0.453,-0.7867 1.06,-1.3933 1.82,-1.82 0.76,-0.44 1.606,-0.66 2.54,-0.66 0.946,0 1.793,0.22 2.54,0.66 0.76,0.4267 1.36,1.0333 1.8,1.82 0.453,0.7733 0.68,1.68 0.68,2.72 0,1.04 -0.227,1.9533 -0.68,2.74 -0.44,0.7733 -1.04,1.38 -1.8,1.82 -0.76,0.4267 -1.614,0.64 -2.56,0.64 z m 0,-1.82 c 0.506,0 0.973,-0.1267 1.4,-0.38 0.44,-0.2533 0.793,-0.6267 1.06,-1.12 0.266,-0.5067 0.4,-1.1333 0.4,-1.88 0,-0.7467 -0.134,-1.3667 -0.4,-1.86 -0.254,-0.5067 -0.6,-0.8867 -1.04,-1.14 -0.427,-0.2533 -0.894,-0.38 -1.4,-0.38 -0.507,0 -0.98,0.1267 -1.42,0.38 -0.427,0.2533 -0.774,0.6333 -1.04,1.14 -0.267,0.4933 -0.4,1.1133 -0.4,1.86 0,0.7467 0.133,1.3733 0.4,1.88 0.266,0.4933 0.613,0.8667 1.04,1.12 0.426,0.2533 0.893,0.38 1.4,0.38 z m 11.602,1.58 c -0.974,0 -1.747,-0.2333 -2.32,-0.7 -0.574,-0.48 -0.86,-1.3267 -0.86,-2.54 v -4.9 h -1.7 v -1.78 h 1.7 l 0.26,-2.52 h 1.86 v 2.52 h 2.8 v 1.78 h -2.8 v 4.9 c 0,0.5467 0.113,0.9267 0.34,1.14 0.24,0.2 0.646,0.3 1.22,0.3 h 1.14 v 1.8 z m 8.812,0.24 c -0.974,0 -1.84,-0.2133 -2.6,-0.64 -0.747,-0.44 -1.334,-1.0467 -1.76,-1.82 -0.427,-0.7733 -0.64,-1.6733 -0.64,-2.7 0,-1.04 0.206,-1.9533 0.62,-2.74 0.426,-0.7867 1.013,-1.4 1.76,-1.84 0.76,-0.44 1.64,-0.66 2.64,-0.66 0.973,0 1.82,0.22 2.54,0.66 0.72,0.4267 1.28,1 1.68,1.72 0.4,0.72 0.6,1.5133 0.6,2.38 0,0.1333 -0.007,0.28 -0.02,0.44 0,0.1467 -0.007,0.3133 -0.02,0.5 h -7.72 c 0.066,0.96 0.38,1.6933 0.94,2.2 0.573,0.4933 1.233,0.74 1.98,0.74 0.6,0 1.1,-0.1333 1.5,-0.4 0.413,-0.28 0.72,-0.6533 0.92,-1.12 h 2.12 c -0.267,0.9333 -0.8,1.7133 -1.6,2.34 -0.787,0.6267 -1.767,0.94 -2.94,0.94 z m 0,-8.66 c -0.707,0 -1.334,0.2133 -1.88,0.64 -0.547,0.4133 -0.88,1.04 -1,1.88 h 5.6 c -0.04,-0.7733 -0.314,-1.3867 -0.82,-1.84 -0.507,-0.4533 -1.14,-0.68 -1.9,-0.68 z m 8.739,-3.38 c -0.4,0 -0.733,-0.12 -1,-0.36 -0.253,-0.25333 -0.38,-0.56667 -0.38,-0.94 0,-0.37333 0.127,-0.68 0.38,-0.92 0.267,-0.25333 0.6,-0.38 1,-0.38 0.4,0 0.727,0.12667 0.98,0.38 0.267,0.24 0.4,0.54667 0.4,0.92 0,0.37333 -0.133,0.68667 -0.4,0.94 -0.253,0.24 -0.58,0.36 -0.98,0.36 z m -1.06,11.8 v -9.92 h 2.12 v 9.92 z m 5.419,0 v -9.92 h 1.88 l 0.16,1.74 c 0.307,-0.6133 0.753,-1.0933 1.34,-1.44 0.6,-0.36 1.287,-0.54 2.06,-0.54 1.2,0 2.14,0.3733 2.82,1.12 0.693,0.7467 1.04,1.86 1.04,3.34 v 5.7 h -2.1 v -5.48 c 0,-1.92 -0.787,-2.88 -2.36,-2.88 -0.787,0 -1.44,0.28 -1.96,0.84 -0.507,0.56 -0.76,1.36 -0.76,2.4 v 5.12 z m 22.536,0.24 c -1.027,0 -1.927,-0.18 -2.7,-0.54 -0.773,-0.36 -1.38,-0.8733 -1.82,-1.54 -0.427,-0.6667 -0.647,-1.46 -0.66,-2.38 h 2.24 c 0.013,0.7467 0.273,1.38 0.78,1.9 0.507,0.52 1.22,0.78 2.14,0.78 0.813,0 1.447,-0.1933 1.9,-0.58 0.467,-0.4 0.7,-0.9067 0.7,-1.52 0,-0.4933 -0.113,-0.8933 -0.34,-1.2 -0.213,-0.3067 -0.513,-0.56 -0.9,-0.76 -0.373,-0.2 -0.807,-0.38 -1.3,-0.54 -0.493,-0.16 -1.013,-0.3333 -1.56,-0.52 -1.08,-0.36 -1.893,-0.8267 -2.44,-1.4 -0.533,-0.5733 -0.8,-1.3267 -0.8,-2.26 -0.013,-0.78667 0.167,-1.47333 0.54,-2.06 0.387,-0.58667 0.92,-1.04 1.6,-1.36 0.693,-0.33333 1.5,-0.5 2.42,-0.5 0.907,0 1.7,0.16667 2.38,0.5 0.693,0.33333 1.233,0.8 1.62,1.4 0.387,0.58667 0.587,1.27333 0.6,2.06 h -2.24 c 0,-0.36 -0.093,-0.7 -0.28,-1.02 -0.187,-0.33333 -0.46,-0.60667 -0.82,-0.82 -0.36,-0.21333 -0.8,-0.32 -1.32,-0.32 -0.667,-0.01333 -1.22,0.15333 -1.66,0.5 -0.427,0.34667 -0.64,0.82667 -0.64,1.44 0,0.5467 0.16,0.9667 0.48,1.26 0.32,0.2933 0.76,0.54 1.32,0.74 0.56,0.1867 1.2,0.4067 1.92,0.66 0.693,0.2267 1.313,0.5 1.86,0.82 0.547,0.32 0.98,0.74 1.3,1.26 0.333,0.52 0.5,1.18 0.5,1.98 0,0.7067 -0.18,1.3667 -0.54,1.98 -0.36,0.6 -0.9,1.0933 -1.62,1.48 -0.72,0.3733 -1.607,0.56 -2.66,0.56 z m 11.718,-0.24 c -0.974,0 -1.747,-0.2333 -2.32,-0.7 -0.574,-0.48 -0.86,-1.3267 -0.86,-2.54 v -4.9 h -1.7 v -1.78 h 1.7 l 0.26,-2.52 h 1.86 v 2.52 h 2.8 v 1.78 h -2.8 v 4.9 c 0,0.5467 0.113,0.9267 0.34,1.14 0.24,0.2 0.646,0.3 1.22,0.3 h 1.14 v 1.8 z m 4.426,0 v -9.92 h 1.9 l 0.18,1.88 c 0.346,-0.6533 0.826,-1.1667 1.44,-1.54 0.626,-0.3867 1.38,-0.58 2.26,-0.58 v 2.22 h -0.58 c -0.587,0 -1.114,0.1 -1.58,0.3 -0.454,0.1867 -0.82,0.5133 -1.1,0.98 -0.267,0.4533 -0.4,1.0867 -0.4,1.9 v 4.76 z m 11.757,0.24 c -1.2,0 -2.146,-0.3733 -2.84,-1.12 -0.68,-0.7467 -1.02,-1.86 -1.02,-3.34 v -5.7 h 2.12 v 5.48 c 0,1.92 0.787,2.88 2.36,2.88 0.787,0 1.434,-0.28 1.94,-0.84 0.507,-0.56 0.76,-1.36 0.76,-2.4 v -5.12 h 2.12 v 9.92 h -1.88 l -0.16,-1.74 c -0.306,0.6133 -0.76,1.1 -1.36,1.46 -0.586,0.3467 -1.266,0.52 -2.04,0.52 z m 13.337,0 c -0.973,0 -1.847,-0.22 -2.62,-0.66 -0.76,-0.44 -1.36,-1.0467 -1.8,-1.82 -0.427,-0.7867 -0.64,-1.6933 -0.64,-2.72 0,-1.0267 0.213,-1.9267 0.64,-2.7 0.44,-0.7867 1.04,-1.4 1.8,-1.84 0.773,-0.44 1.647,-0.66 2.62,-0.66 1.227,0 2.253,0.32 3.08,0.96 0.84,0.64 1.38,1.5067 1.62,2.6 h -2.22 c -0.133,-0.5467 -0.427,-0.9733 -0.88,-1.28 -0.453,-0.3067 -0.987,-0.46 -1.6,-0.46 -0.52,0 -1,0.1333 -1.44,0.4 -0.44,0.2533 -0.793,0.6333 -1.06,1.14 -0.267,0.4933 -0.4,1.1067 -0.4,1.84 0,0.7333 0.133,1.3533 0.4,1.86 0.267,0.4933 0.62,0.8733 1.06,1.14 0.44,0.2667 0.92,0.4 1.44,0.4 0.613,0 1.147,-0.1533 1.6,-0.46 0.453,-0.3067 0.747,-0.74 0.88,-1.3 h 2.22 c -0.227,1.0667 -0.76,1.9267 -1.6,2.58 -0.84,0.6533 -1.873,0.98 -3.1,0.98 z m 11.464,-0.24 c -0.973,0 -1.747,-0.2333 -2.32,-0.7 -0.573,-0.48 -0.86,-1.3267 -0.86,-2.54 v -4.9 h -1.7 v -1.78 h 1.7 l 0.26,-2.52 h 1.86 v 2.52 h 2.8 v 1.78 h -2.8 v 4.9 c 0,0.5467 0.113,0.9267 0.34,1.14 0.24,0.2 0.647,0.3 1.22,0.3 h 1.14 v 1.8 z m 8.086,0.24 c -1.2,0 -2.147,-0.3733 -2.84,-1.12 -0.68,-0.7467 -1.02,-1.86 -1.02,-3.34 v -5.7 h 2.12 v 5.48 c 0,1.92 0.787,2.88 2.36,2.88 0.787,0 1.433,-0.28 1.94,-0.84 0.507,-0.56 0.76,-1.36 0.76,-2.4 v -5.12 h 2.12 v 9.92 h -1.88 l -0.16,-1.74 c -0.307,0.6133 -0.76,1.1 -1.36,1.46 -0.587,0.3467 -1.267,0.52 -2.04,0.52 z m 8.637,-0.24 v -9.92 h 1.9 l 0.18,1.88 c 0.347,-0.6533 0.827,-1.1667 1.44,-1.54 0.627,-0.3867 1.38,-0.58 2.26,-0.58 v 2.22 h -0.58 c -0.587,0 -1.113,0.1 -1.58,0.3 -0.453,0.1867 -0.82,0.5133 -1.1,0.98 -0.267,0.4533 -0.4,1.0867 -0.4,1.9 v 4.76 z m 12.464,0.24 c -0.973,0 -1.84,-0.2133 -2.6,-0.64 -0.747,-0.44 -1.333,-1.0467 -1.76,-1.82 -0.427,-0.7733 -0.64,-1.6733 -0.64,-2.7 0,-1.04 0.207,-1.9533 0.62,-2.74 0.427,-0.7867 1.013,-1.4 1.76,-1.84 0.76,-0.44 1.64,-0.66 2.64,-0.66 0.973,0 1.82,0.22 2.54,0.66 0.72,0.4267 1.28,1 1.68,1.72 0.4,0.72 0.6,1.5133 0.6,2.38 0,0.1333 -0.007,0.28 -0.02,0.44 0,0.1467 -0.007,0.3133 -0.02,0.5 h -7.72 c 0.067,0.96 0.38,1.6933 0.94,2.2 0.573,0.4933 1.233,0.74 1.98,0.74 0.6,0 1.1,-0.1333 1.5,-0.4 0.413,-0.28 0.72,-0.6533 0.92,-1.12 h 2.12 c -0.267,0.9333 -0.8,1.7133 -1.6,2.34 -0.787,0.6267 -1.767,0.94 -2.94,0.94 z m 0,-8.66 c -0.707,0 -1.333,0.2133 -1.88,0.64 -0.547,0.4133 -0.88,1.04 -1,1.88 h 5.6 c -0.04,-0.7733 -0.313,-1.3867 -0.82,-1.84 -0.507,-0.4533 -1.14,-0.68 -1.9,-0.68 z m 11.5,8.66 c -1.254,0 -2.287,-0.3067 -3.1,-0.92 -0.814,-0.6133 -1.28,-1.4267 -1.4,-2.44 h 2.14 c 0.106,0.4533 0.36,0.8467 0.76,1.18 0.4,0.32 0.926,0.48 1.58,0.48 0.64,0 1.106,-0.1333 1.4,-0.4 0.293,-0.2667 0.44,-0.5733 0.44,-0.92 0,-0.5067 -0.207,-0.8467 -0.62,-1.02 -0.4,-0.1867 -0.96,-0.3533 -1.68,-0.5 -0.56,-0.12 -1.12,-0.28 -1.68,-0.48 -0.547,-0.2 -1.007,-0.48 -1.38,-0.84 -0.36,-0.3733 -0.54,-0.8733 -0.54,-1.5 0,-0.8667 0.333,-1.5867 1,-2.16 0.666,-0.5867 1.6,-0.88 2.8,-0.88 1.106,0 2,0.2667 2.68,0.8 0.693,0.5333 1.1,1.2867 1.22,2.26 h -2.04 c -0.067,-0.4267 -0.267,-0.76 -0.6,-1 -0.32,-0.24 -0.754,-0.36 -1.3,-0.36 -0.534,0 -0.947,0.1133 -1.24,0.34 -0.294,0.2133 -0.44,0.4933 -0.44,0.84 0,0.3467 0.2,0.62 0.6,0.82 0.413,0.2 0.953,0.38 1.62,0.54 0.666,0.1467 1.28,0.32 1.84,0.52 0.573,0.1867 1.033,0.4667 1.38,0.84 0.346,0.3733 0.52,0.92 0.52,1.64 0.013,0.9067 -0.34,1.66 -1.06,2.26 -0.707,0.6 -1.674,0.9 -2.9,0.9 z"
     fill="#0053d6"
     id="path10" />
  <path
     d="m 574.15464,270.48915 v 0.5 z m 44.788,0 c 0,1.473 1.194,2.667 2.667,2.667 1.473,0 2.667,-1.194 2.667,-2.667 0,-1.473 -1.194,-2.667 -2.667,-2.667 -1.473,0 -2.667,1.194 -2.667,2.667 z m -171.333,0.5 h 126.545 v -1 h -126.545 z m 126.545,0 h 47.455 v -1 h -47.455 z"
     fill="#0053d6"
     id="path12" />
  <path
     d="m 573.60164,359.48915 v 0.5 z m 45.341,0 c 0,-1.473 1.194,-2.667 2.667,-2.667 1.473,0 2.667,1.194 2.667,2.667 0,1.473 -1.194,2.667 -2.667,2.667 -1.473,0 -2.667,-1.194 -2.667,-2.667 z m -335.333,0 v -0.5 z m -4.5,182 v -178 h 1 v 178 z m 4.5,-182.5 h 289.992 v 1 h -289.992 z m 289.992,0 h 48.008 v 1 h -48.008 z m -294.492,4.5 c 0,-2.485 2.015,-4.5 4.5,-4.5 v 1 c -1.933,0 -3.5,1.567 -3.5,3.5 z"
     fill="#a8caff"
     id="path14" />
  <path
     d="m 618.94264,449.48915 c 0,-1.472 1.194,-2.666 2.667,-2.666 1.473,0 2.667,1.194 2.667,2.666 0,1.473 -1.194,2.667 -2.667,2.667 -1.473,0 -2.667,-1.194 -2.667,-2.667 z m -327.908,3 h -0.5 z m 3,-3 v -0.5 z m -6,112 v -0.5 z m -5.425,-0.5 h 5.425 v 1 h -5.425 z m 7.925,-2.5 v -106 h 1 v 106 z m 3.5,-109.5 h 327.575 v 1 h -327.575 z m -3.5,3.5 c 0,-1.933 1.567,-3.5 3.5,-3.5 v 1 c -1.38,0 -2.5,1.12 -2.5,2.5 z m -2.5,108.5 c 1.381,0 2.5,-1.119 2.5,-2.5 h 1 c 0,1.933 -1.567,3.5 -3.5,3.5 z"
     fill="#a261ff"
     id="path16" />
  <path
     d="m 641.95464,262.48915 3.84,-10.5 h 2.16 l 3.84,10.5 h -2.04 l -0.84,-2.43 h -4.095 l -0.855,2.43 z m 3.39,-3.93 h 3.045 l -1.53,-4.365 z m 8.508,3.93 v -10.8 h 1.92 v 10.8 z m 4.631,3.3 v -10.74 h 1.71 l 0.21,1.065 c 0.24,-0.33 0.555,-0.62 0.945,-0.87 0.4,-0.25 0.915,-0.375 1.545,-0.375 0.7,0 1.325,0.17 1.875,0.51 0.55,0.34 0.985,0.805 1.305,1.395 0.32,0.59 0.48,1.26 0.48,2.01 0,0.75 -0.16,1.42 -0.48,2.01 -0.32,0.58 -0.755,1.04 -1.305,1.38 -0.55,0.33 -1.175,0.495 -1.875,0.495 -0.56,0 -1.05,-0.105 -1.47,-0.315 -0.42,-0.21 -0.76,-0.505 -1.02,-0.885 v 4.32 z m 4.005,-4.8 c 0.61,0 1.115,-0.205 1.515,-0.615 0.4,-0.41 0.6,-0.94 0.6,-1.59 0,-0.65 -0.2,-1.185 -0.6,-1.605 -0.4,-0.42 -0.905,-0.63 -1.515,-0.63 -0.62,0 -1.13,0.21 -1.53,0.63 -0.39,0.41 -0.585,0.94 -0.585,1.59 0,0.65 0.195,1.185 0.585,1.605 0.4,0.41 0.91,0.615 1.53,0.615 z m 6.531,1.5 v -10.8 h 1.92 v 4.5 c 0.25,-0.41 0.585,-0.73 1.005,-0.96 0.43,-0.24 0.92,-0.36 1.47,-0.36 0.92,0 1.63,0.29 2.13,0.87 0.51,0.58 0.765,1.43 0.765,2.55 v 4.2 h -1.905 v -4.02 c 0,-0.64 -0.13,-1.13 -0.39,-1.47 -0.25,-0.34 -0.65,-0.51 -1.2,-0.51 -0.54,0 -0.99,0.19 -1.35,0.57 -0.35,0.38 -0.525,0.91 -0.525,1.59 v 3.84 z m 12.441,0.18 c -0.64,0 -1.165,-0.1 -1.575,-0.3 -0.41,-0.21 -0.715,-0.485 -0.915,-0.825 -0.2,-0.34 -0.3,-0.715 -0.3,-1.125 0,-0.69 0.27,-1.25 0.81,-1.68 0.54,-0.43 1.35,-0.645 2.43,-0.645 h 1.89 v -0.18 c 0,-0.51 -0.145,-0.885 -0.435,-1.125 -0.29,-0.24 -0.65,-0.36 -1.08,-0.36 -0.39,0 -0.73,0.095 -1.02,0.285 -0.29,0.18 -0.47,0.45 -0.54,0.81 h -1.875 c 0.05,-0.54 0.23,-1.01 0.54,-1.41 0.32,-0.4 0.73,-0.705 1.23,-0.915 0.5,-0.22 1.06,-0.33 1.68,-0.33 1.06,0 1.895,0.265 2.505,0.795 0.61,0.53 0.915,1.28 0.915,2.25 v 4.575 h -1.635 l -0.18,-1.2 c -0.22,0.4 -0.53,0.73 -0.93,0.99 -0.39,0.26 -0.895,0.39 -1.515,0.39 z m 0.435,-1.5 c 0.55,0 0.975,-0.18 1.275,-0.54 0.31,-0.36 0.505,-0.805 0.585,-1.335 h -1.635 c -0.51,0 -0.875,0.095 -1.095,0.285 -0.22,0.18 -0.33,0.405 -0.33,0.675 0,0.29 0.11,0.515 0.33,0.675 0.22,0.16 0.51,0.24 0.87,0.24 z m 6.452,1.32 v -10.5 h 6.78 v 1.545 h -4.86 v 2.94 h 3.93 v 1.515 h -3.93 v 4.5 z m 12.141,0.18 c -0.72,0 -1.37,-0.165 -1.95,-0.495 -0.57,-0.33 -1.025,-0.785 -1.365,-1.365 -0.33,-0.59 -0.495,-1.27 -0.495,-2.04 0,-0.77 0.17,-1.445 0.51,-2.025 0.34,-0.59 0.795,-1.05 1.365,-1.38 0.58,-0.33 1.23,-0.495 1.95,-0.495 0.71,0 1.35,0.165 1.92,0.495 0.58,0.33 1.035,0.79 1.365,1.38 0.34,0.58 0.51,1.255 0.51,2.025 0,0.77 -0.17,1.45 -0.51,2.04 -0.33,0.58 -0.785,1.035 -1.365,1.365 -0.58,0.33 -1.225,0.495 -1.935,0.495 z m 0,-1.665 c 0.5,0 0.935,-0.185 1.305,-0.555 0.37,-0.38 0.555,-0.94 0.555,-1.68 0,-0.74 -0.185,-1.295 -0.555,-1.665 -0.37,-0.38 -0.8,-0.57 -1.29,-0.57 -0.51,0 -0.95,0.19 -1.32,0.57 -0.36,0.37 -0.54,0.925 -0.54,1.665 0,0.74 0.18,1.3 0.54,1.68 0.37,0.37 0.805,0.555 1.305,0.555 z m 6.277,1.485 v -10.8 h 1.92 v 10.8 z m 8.052,0.18 c -0.7,0 -1.325,-0.17 -1.875,-0.51 -0.55,-0.34 -0.985,-0.805 -1.305,-1.395 -0.32,-0.59 -0.48,-1.26 -0.48,-2.01 0,-0.75 0.16,-1.415 0.48,-1.995 0.32,-0.59 0.755,-1.05 1.305,-1.38 0.55,-0.34 1.175,-0.51 1.875,-0.51 0.56,0 1.05,0.105 1.47,0.315 0.42,0.21 0.76,0.505 1.02,0.885 v -4.38 h 1.92 v 10.8 h -1.71 l -0.21,-1.065 c -0.24,0.33 -0.56,0.62 -0.96,0.87 -0.39,0.25 -0.9,0.375 -1.53,0.375 z m 0.405,-1.68 c 0.62,0 1.125,-0.205 1.515,-0.615 0.4,-0.42 0.6,-0.955 0.6,-1.605 0,-0.65 -0.2,-1.18 -0.6,-1.59 -0.39,-0.42 -0.895,-0.63 -1.515,-0.63 -0.61,0 -1.115,0.205 -1.515,0.615 -0.4,0.41 -0.6,0.94 -0.6,1.59 0,0.65 0.2,1.185 0.6,1.605 0.4,0.42 0.905,0.63 1.515,0.63 z m 11.079,1.5 v -10.5 h 3.585 c 1.23,0 2.24,0.22 3.03,0.66 0.8,0.43 1.39,1.04 1.77,1.83 0.39,0.78 0.585,1.7 0.585,2.76 0,1.06 -0.195,1.985 -0.585,2.775 -0.38,0.78 -0.97,1.39 -1.77,1.83 -0.79,0.43 -1.8,0.645 -3.03,0.645 z m 1.92,-1.65 h 1.575 c 0.88,0 1.575,-0.14 2.085,-0.42 0.51,-0.29 0.875,-0.7 1.095,-1.23 0.22,-0.54 0.33,-1.19 0.33,-1.95 0,-0.75 -0.11,-1.395 -0.33,-1.935 -0.22,-0.54 -0.585,-0.955 -1.095,-1.245 -0.51,-0.29 -1.205,-0.435 -2.085,-0.435 h -1.575 z m 9.494,1.65 v -10.5 h 4.215 c 1.09,0 1.92,0.255 2.49,0.765 0.58,0.5 0.87,1.145 0.87,1.935 0,0.66 -0.18,1.19 -0.54,1.59 -0.35,0.39 -0.78,0.655 -1.29,0.795 0.6,0.12 1.095,0.42 1.485,0.9 0.39,0.47 0.585,1.02 0.585,1.65 0,0.83 -0.3,1.515 -0.9,2.055 -0.6,0.54 -1.45,0.81 -2.55,0.81 z m 1.92,-6.09 h 2.01 c 0.54,0 0.955,-0.125 1.245,-0.375 0.29,-0.25 0.435,-0.605 0.435,-1.065 0,-0.44 -0.145,-0.785 -0.435,-1.035 -0.28,-0.26 -0.705,-0.39 -1.275,-0.39 h -1.98 z m 0,4.53 h 2.145 c 0.57,0 1.01,-0.13 1.32,-0.39 0.32,-0.27 0.48,-0.645 0.48,-1.125 0,-0.49 -0.165,-0.875 -0.495,-1.155 -0.33,-0.28 -0.775,-0.42 -1.335,-0.42 h -2.115 z m 15.887,1.56 c -0.78,0 -1.405,-0.19 -1.875,-0.57 -0.47,-0.38 -0.705,-1.055 -0.705,-2.025 v -3.24 h -1.275 v -1.605 h 1.275 l 0.225,-1.995 h 1.695 v 1.995 h 2.01 v 1.605 h -2.01 v 3.255 c 0,0.36 0.075,0.61 0.225,0.75 0.16,0.13 0.43,0.195 0.81,0.195 h 0.93 v 1.635 z m 7.128,0.18 c -0.72,0 -1.37,-0.165 -1.95,-0.495 -0.57,-0.33 -1.025,-0.785 -1.365,-1.365 -0.33,-0.59 -0.495,-1.27 -0.495,-2.04 0,-0.77 0.17,-1.445 0.51,-2.025 0.34,-0.59 0.795,-1.05 1.365,-1.38 0.58,-0.33 1.23,-0.495 1.95,-0.495 0.71,0 1.35,0.165 1.92,0.495 0.58,0.33 1.035,0.79 1.365,1.38 0.34,0.58 0.51,1.255 0.51,2.025 0,0.77 -0.17,1.45 -0.51,2.04 -0.33,0.58 -0.785,1.035 -1.365,1.365 -0.58,0.33 -1.225,0.495 -1.935,0.495 z m 0,-1.665 c 0.5,0 0.935,-0.185 1.305,-0.555 0.37,-0.38 0.555,-0.94 0.555,-1.68 0,-0.74 -0.185,-1.295 -0.555,-1.665 -0.37,-0.38 -0.8,-0.57 -1.29,-0.57 -0.51,0 -0.95,0.19 -1.32,0.57 -0.36,0.37 -0.54,0.925 -0.54,1.665 0,0.74 0.18,1.3 0.54,1.68 0.37,0.37 0.805,0.555 1.305,0.555 z m 9.697,1.665 c -0.7,0 -1.325,-0.17 -1.875,-0.51 -0.55,-0.34 -0.985,-0.805 -1.305,-1.395 -0.32,-0.59 -0.48,-1.26 -0.48,-2.01 0,-0.75 0.16,-1.415 0.48,-1.995 0.32,-0.59 0.755,-1.05 1.305,-1.38 0.55,-0.34 1.175,-0.51 1.875,-0.51 0.56,0 1.05,0.105 1.47,0.315 0.42,0.21 0.76,0.505 1.02,0.885 v -4.38 h 1.92 v 10.8 h -1.71 l -0.21,-1.065 c -0.24,0.33 -0.56,0.62 -0.96,0.87 -0.39,0.25 -0.9,0.375 -1.53,0.375 z m 0.405,-1.68 c 0.62,0 1.125,-0.205 1.515,-0.615 0.4,-0.42 0.6,-0.955 0.6,-1.605 0,-0.65 -0.2,-1.18 -0.6,-1.59 -0.39,-0.42 -0.895,-0.63 -1.515,-0.63 -0.61,0 -1.115,0.205 -1.515,0.615 -0.4,0.41 -0.6,0.94 -0.6,1.59 0,0.65 0.2,1.185 0.6,1.605 0.4,0.42 0.905,0.63 1.515,0.63 z m 9.275,1.68 c -0.64,0 -1.165,-0.1 -1.575,-0.3 -0.41,-0.21 -0.715,-0.485 -0.915,-0.825 -0.2,-0.34 -0.3,-0.715 -0.3,-1.125 0,-0.69 0.27,-1.25 0.81,-1.68 0.54,-0.43 1.35,-0.645 2.43,-0.645 h 1.89 v -0.18 c 0,-0.51 -0.145,-0.885 -0.435,-1.125 -0.29,-0.24 -0.65,-0.36 -1.08,-0.36 -0.39,0 -0.73,0.095 -1.02,0.285 -0.29,0.18 -0.47,0.45 -0.54,0.81 h -1.875 c 0.05,-0.54 0.23,-1.01 0.54,-1.41 0.32,-0.4 0.73,-0.705 1.23,-0.915 0.5,-0.22 1.06,-0.33 1.68,-0.33 1.06,0 1.895,0.265 2.505,0.795 0.61,0.53 0.915,1.28 0.915,2.25 v 4.575 h -1.635 l -0.18,-1.2 c -0.22,0.4 -0.53,0.73 -0.93,0.99 -0.39,0.26 -0.895,0.39 -1.515,0.39 z m 0.435,-1.5 c 0.55,0 0.975,-0.18 1.275,-0.54 0.31,-0.36 0.505,-0.805 0.585,-1.335 h -1.635 c -0.51,0 -0.875,0.095 -1.095,0.285 -0.22,0.18 -0.33,0.405 -0.33,0.675 0,0.29 0.11,0.515 0.33,0.675 0.22,0.16 0.51,0.24 0.87,0.24 z m 7.088,4.62 1.725,-3.795 h -0.45 l -2.895,-6.945 h 2.085 l 2.085,5.235 2.175,-5.235 h 2.04 l -4.725,10.74 z"
     fill="#0053d6"
     id="path18" />
  <path
     d="m 642.46464,289.48915 v -1.14 c 0.68,-0.54 1.33,-1.085 1.95,-1.635 0.62,-0.55 1.17,-1.09 1.65,-1.62 0.49,-0.54 0.875,-1.065 1.155,-1.575 0.28,-0.52 0.42,-1.02 0.42,-1.5 0,-0.32 -0.055,-0.62 -0.165,-0.9 -0.11,-0.29 -0.29,-0.52 -0.54,-0.69 -0.25,-0.18 -0.585,-0.27 -1.005,-0.27 -0.63,0 -1.105,0.2 -1.425,0.6 -0.31,0.4 -0.46,0.88 -0.45,1.44 h -1.545 c 0.01,-0.74 0.165,-1.36 0.465,-1.86 0.31,-0.5 0.72,-0.88 1.23,-1.14 0.52,-0.26 1.105,-0.39 1.755,-0.39 0.99,0 1.78,0.28 2.37,0.84 0.6,0.55 0.9,1.32 0.9,2.31 0,0.59 -0.145,1.175 -0.435,1.755 -0.28,0.58 -0.65,1.14 -1.11,1.68 -0.45,0.53 -0.935,1.03 -1.455,1.5 -0.52,0.47 -1.015,0.895 -1.485,1.275 h 4.8 v 1.32 z m 13.627,0.18 c -0.95,0 -1.77,-0.225 -2.46,-0.675 -0.68,-0.46 -1.205,-1.095 -1.575,-1.905 -0.36,-0.82 -0.54,-1.77 -0.54,-2.85 0,-1.08 0.18,-2.025 0.54,-2.835 0.37,-0.82 0.895,-1.455 1.575,-1.905 0.69,-0.46 1.51,-0.69 2.46,-0.69 0.95,0 1.765,0.23 2.445,0.69 0.68,0.45 1.2,1.085 1.56,1.905 0.37,0.81 0.555,1.755 0.555,2.835 0,1.08 -0.185,2.03 -0.555,2.85 -0.36,0.81 -0.88,1.445 -1.56,1.905 -0.68,0.45 -1.495,0.675 -2.445,0.675 z m 0,-1.425 c 0.57,0 1.075,-0.16 1.515,-0.48 0.45,-0.32 0.8,-0.78 1.05,-1.38 0.25,-0.6 0.375,-1.315 0.375,-2.145 0,-0.83 -0.125,-1.545 -0.375,-2.145 -0.25,-0.6 -0.6,-1.06 -1.05,-1.38 -0.44,-0.32 -0.945,-0.48 -1.515,-0.48 -0.58,0 -1.09,0.16 -1.53,0.48 -0.44,0.32 -0.785,0.78 -1.035,1.38 -0.25,0.6 -0.375,1.315 -0.375,2.145 0,0.83 0.125,1.545 0.375,2.145 0.25,0.6 0.595,1.06 1.035,1.38 0.44,0.32 0.95,0.48 1.53,0.48 z m 11.282,1.425 c -0.95,0 -1.77,-0.225 -2.46,-0.675 -0.68,-0.46 -1.205,-1.095 -1.575,-1.905 -0.36,-0.82 -0.54,-1.77 -0.54,-2.85 0,-1.08 0.18,-2.025 0.54,-2.835 0.37,-0.82 0.895,-1.455 1.575,-1.905 0.69,-0.46 1.51,-0.69 2.46,-0.69 0.95,0 1.765,0.23 2.445,0.69 0.68,0.45 1.2,1.085 1.56,1.905 0.37,0.81 0.555,1.755 0.555,2.835 0,1.08 -0.185,2.03 -0.555,2.85 -0.36,0.81 -0.88,1.445 -1.56,1.905 -0.68,0.45 -1.495,0.675 -2.445,0.675 z m 0,-1.425 c 0.57,0 1.075,-0.16 1.515,-0.48 0.45,-0.32 0.8,-0.78 1.05,-1.38 0.25,-0.6 0.375,-1.315 0.375,-2.145 0,-0.83 -0.125,-1.545 -0.375,-2.145 -0.25,-0.6 -0.6,-1.06 -1.05,-1.38 -0.44,-0.32 -0.945,-0.48 -1.515,-0.48 -0.58,0 -1.09,0.16 -1.53,0.48 -0.44,0.32 -0.785,0.78 -1.035,1.38 -0.25,0.6 -0.375,1.315 -0.375,2.145 0,0.83 0.125,1.545 0.375,2.145 0.25,0.6 0.595,1.06 1.035,1.38 0.44,0.32 0.95,0.48 1.53,0.48 z m 7.082,1.245 v -10.5 h 1.875 l 3.555,6.99 3.54,-6.99 h 1.875 v 10.5 h -1.59 v -7.755 l -3.21,6.255 h -1.23 l -3.225,-6.24 v 7.74 z m 13.564,-3.69 v -1.335 h 2.835 v -2.655 h 1.38 v 2.655 h 2.835 v 1.335 h -2.835 v 2.67 h -1.38 v -2.67 z m 17.757,3.87 c -0.77,0 -1.445,-0.135 -2.025,-0.405 -0.58,-0.27 -1.035,-0.655 -1.365,-1.155 -0.32,-0.5 -0.485,-1.095 -0.495,-1.785 h 1.68 c 0.01,0.56 0.205,1.035 0.585,1.425 0.38,0.39 0.915,0.585 1.605,0.585 0.61,0 1.085,-0.145 1.425,-0.435 0.35,-0.3 0.525,-0.68 0.525,-1.14 0,-0.37 -0.085,-0.67 -0.255,-0.9 -0.16,-0.23 -0.385,-0.42 -0.675,-0.57 -0.28,-0.15 -0.605,-0.285 -0.975,-0.405 -0.37,-0.12 -0.76,-0.25 -1.17,-0.39 -0.81,-0.27 -1.42,-0.62 -1.83,-1.05 -0.4,-0.43 -0.6,-0.995 -0.6,-1.695 -0.01,-0.59 0.125,-1.105 0.405,-1.545 0.29,-0.44 0.69,-0.78 1.2,-1.02 0.52,-0.25 1.125,-0.375 1.815,-0.375 0.68,0 1.275,0.125 1.785,0.375 0.52,0.25 0.925,0.6 1.215,1.05 0.29,0.44 0.44,0.955 0.45,1.545 h -1.68 c 0,-0.27 -0.07,-0.525 -0.21,-0.765 -0.14,-0.25 -0.345,-0.455 -0.615,-0.615 -0.27,-0.16 -0.6,-0.24 -0.99,-0.24 -0.5,-0.01 -0.915,0.115 -1.245,0.375 -0.32,0.26 -0.48,0.62 -0.48,1.08 0,0.41 0.12,0.725 0.36,0.945 0.24,0.22 0.57,0.405 0.99,0.555 0.42,0.14 0.9,0.305 1.44,0.495 0.52,0.17 0.985,0.375 1.395,0.615 0.41,0.24 0.735,0.555 0.975,0.945 0.25,0.39 0.375,0.885 0.375,1.485 0,0.53 -0.135,1.025 -0.405,1.485 -0.27,0.45 -0.675,0.82 -1.215,1.11 -0.54,0.28 -1.205,0.42 -1.995,0.42 z m 9.163,-0.18 c -0.73,0 -1.31,-0.175 -1.74,-0.525 -0.43,-0.36 -0.645,-0.995 -0.645,-1.905 v -3.675 h -1.275 v -1.335 h 1.275 l 0.195,-1.89 h 1.395 v 1.89 h 2.1 v 1.335 h -2.1 v 3.675 c 0,0.41 0.085,0.695 0.255,0.855 0.18,0.15 0.485,0.225 0.915,0.225 h 0.855 v 1.35 z m 3.695,0 v -7.44 h 1.425 l 0.135,1.41 c 0.26,-0.49 0.62,-0.875 1.08,-1.155 0.47,-0.29 1.035,-0.435 1.695,-0.435 v 1.665 h -0.435 c -0.44,0 -0.835,0.075 -1.185,0.225 -0.34,0.14 -0.615,0.385 -0.825,0.735 -0.2,0.34 -0.3,0.815 -0.3,1.425 v 3.57 z m 9.193,0.18 c -0.9,0 -1.61,-0.28 -2.13,-0.84 -0.51,-0.56 -0.765,-1.395 -0.765,-2.505 v -4.275 h 1.59 v 4.11 c 0,1.44 0.59,2.16 1.77,2.16 0.59,0 1.075,-0.21 1.455,-0.63 0.38,-0.42 0.57,-1.02 0.57,-1.8 v -3.84 h 1.59 v 7.44 h -1.41 l -0.12,-1.305 c -0.23,0.46 -0.57,0.825 -1.02,1.095 -0.44,0.26 -0.95,0.39 -1.53,0.39 z m 10.377,0 c -0.73,0 -1.385,-0.165 -1.965,-0.495 -0.57,-0.33 -1.02,-0.785 -1.35,-1.365 -0.32,-0.59 -0.48,-1.27 -0.48,-2.04 0,-0.77 0.16,-1.445 0.48,-2.025 0.33,-0.59 0.78,-1.05 1.35,-1.38 0.58,-0.33 1.235,-0.495 1.965,-0.495 0.92,0 1.69,0.24 2.31,0.72 0.63,0.48 1.035,1.13 1.215,1.95 h -1.665 c -0.1,-0.41 -0.32,-0.73 -0.66,-0.96 -0.34,-0.23 -0.74,-0.345 -1.2,-0.345 -0.39,0 -0.75,0.1 -1.08,0.3 -0.33,0.19 -0.595,0.475 -0.795,0.855 -0.2,0.37 -0.3,0.83 -0.3,1.38 0,0.55 0.1,1.015 0.3,1.395 0.2,0.37 0.465,0.655 0.795,0.855 0.33,0.2 0.69,0.3 1.08,0.3 0.46,0 0.86,-0.115 1.2,-0.345 0.34,-0.23 0.56,-0.555 0.66,-0.975 h 1.665 c -0.17,0.8 -0.57,1.445 -1.2,1.935 -0.63,0.49 -1.405,0.735 -2.325,0.735 z m 8.973,-0.18 c -0.73,0 -1.31,-0.175 -1.74,-0.525 -0.43,-0.36 -0.645,-0.995 -0.645,-1.905 v -3.675 h -1.275 v -1.335 h 1.275 l 0.195,-1.89 h 1.395 v 1.89 h 2.1 v 1.335 h -2.1 v 3.675 c 0,0.41 0.085,0.695 0.255,0.855 0.18,0.15 0.485,0.225 0.915,0.225 h 0.855 v 1.35 z m 6.44,0.18 c -0.9,0 -1.61,-0.28 -2.13,-0.84 -0.51,-0.56 -0.765,-1.395 -0.765,-2.505 v -4.275 h 1.59 v 4.11 c 0,1.44 0.59,2.16 1.77,2.16 0.59,0 1.075,-0.21 1.455,-0.63 0.38,-0.42 0.57,-1.02 0.57,-1.8 v -3.84 h 1.59 v 7.44 h -1.41 l -0.12,-1.305 c -0.23,0.46 -0.57,0.825 -1.02,1.095 -0.44,0.26 -0.95,0.39 -1.53,0.39 z m 6.852,-0.18 v -7.44 h 1.425 l 0.135,1.41 c 0.26,-0.49 0.62,-0.875 1.08,-1.155 0.47,-0.29 1.035,-0.435 1.695,-0.435 v 1.665 h -0.435 c -0.44,0 -0.835,0.075 -1.185,0.225 -0.34,0.14 -0.615,0.385 -0.825,0.735 -0.2,0.34 -0.3,0.815 -0.3,1.425 v 3.57 z m 9.724,0.18 c -0.73,0 -1.38,-0.16 -1.95,-0.48 -0.56,-0.33 -1,-0.785 -1.32,-1.365 -0.32,-0.58 -0.48,-1.255 -0.48,-2.025 0,-0.78 0.155,-1.465 0.465,-2.055 0.32,-0.59 0.76,-1.05 1.32,-1.38 0.57,-0.33 1.23,-0.495 1.98,-0.495 0.73,0 1.365,0.165 1.905,0.495 0.54,0.32 0.96,0.75 1.26,1.29 0.3,0.54 0.45,1.135 0.45,1.785 0,0.1 -0.005,0.21 -0.015,0.33 0,0.11 -0.005,0.235 -0.015,0.375 h -5.79 c 0.05,0.72 0.285,1.27 0.705,1.65 0.43,0.37 0.925,0.555 1.485,0.555 0.45,0 0.825,-0.1 1.125,-0.3 0.31,-0.21 0.54,-0.49 0.69,-0.84 h 1.59 c -0.2,0.7 -0.6,1.285 -1.2,1.755 -0.59,0.47 -1.325,0.705 -2.205,0.705 z m 0,-6.495 c -0.53,0 -1,0.16 -1.41,0.48 -0.41,0.31 -0.66,0.78 -0.75,1.41 h 4.2 c -0.03,-0.58 -0.235,-1.04 -0.615,-1.38 -0.38,-0.34 -0.855,-0.51 -1.425,-0.51 z m 8.999,6.495 c -0.94,0 -1.715,-0.23 -2.325,-0.69 -0.61,-0.46 -0.96,-1.07 -1.05,-1.83 h 1.605 c 0.08,0.34 0.27,0.635 0.57,0.885 0.3,0.24 0.695,0.36 1.185,0.36 0.48,0 0.83,-0.1 1.05,-0.3 0.22,-0.2 0.33,-0.43 0.33,-0.69 0,-0.38 -0.155,-0.635 -0.465,-0.765 -0.3,-0.14 -0.72,-0.265 -1.26,-0.375 -0.42,-0.09 -0.84,-0.21 -1.26,-0.36 -0.41,-0.15 -0.755,-0.36 -1.035,-0.63 -0.27,-0.28 -0.405,-0.655 -0.405,-1.125 0,-0.65 0.25,-1.19 0.75,-1.62 0.5,-0.44 1.2,-0.66 2.1,-0.66 0.83,0 1.5,0.2 2.01,0.6 0.52,0.4 0.825,0.965 0.915,1.695 h -1.53 c -0.05,-0.32 -0.2,-0.57 -0.45,-0.75 -0.24,-0.18 -0.565,-0.27 -0.975,-0.27 -0.4,0 -0.71,0.085 -0.93,0.255 -0.22,0.16 -0.33,0.37 -0.33,0.63 0,0.26 0.15,0.465 0.45,0.615 0.31,0.15 0.715,0.285 1.215,0.405 0.5,0.11 0.96,0.24 1.38,0.39 0.43,0.14 0.775,0.35 1.035,0.63 0.26,0.28 0.39,0.69 0.39,1.23 0.01,0.68 -0.255,1.245 -0.795,1.695 -0.53,0.45 -1.255,0.675 -2.175,0.675 z"
     fill="#0053d6"
     id="path20" />
  <path
     d="m 641.99964,351.48915 3.87,-10.5 h 1.74 l 3.84,10.5 h -1.68 l -0.9,-2.565 h -4.29 l -0.9,2.565 z m 3.03,-3.825 h 3.39 l -1.695,-4.785 z m 8.574,3.825 v -10.8 h 1.59 v 10.8 z m 4.354,3.3 v -10.74 h 1.425 l 0.165,1.155 c 0.24,-0.35 0.57,-0.66 0.99,-0.93 0.42,-0.27 0.96,-0.405 1.62,-0.405 0.72,0 1.355,0.17 1.905,0.51 0.55,0.34 0.98,0.805 1.29,1.395 0.32,0.59 0.48,1.26 0.48,2.01 0,0.75 -0.16,1.42 -0.48,2.01 -0.31,0.58 -0.74,1.04 -1.29,1.38 -0.55,0.33 -1.19,0.495 -1.92,0.495 -0.58,0 -1.095,-0.115 -1.545,-0.345 -0.44,-0.23 -0.79,-0.555 -1.05,-0.975 v 4.44 z m 3.915,-4.5 c 0.68,0 1.24,-0.23 1.68,-0.69 0.44,-0.47 0.66,-1.08 0.66,-1.83 0,-0.49 -0.1,-0.925 -0.3,-1.305 -0.2,-0.38 -0.475,-0.675 -0.825,-0.885 -0.35,-0.22 -0.755,-0.33 -1.215,-0.33 -0.68,0 -1.24,0.235 -1.68,0.705 -0.43,0.47 -0.645,1.075 -0.645,1.815 0,0.75 0.215,1.36 0.645,1.83 0.44,0.46 1,0.69 1.68,0.69 z m 6.43,1.2 v -10.8 h 1.59 v 4.56 c 0.25,-0.43 0.595,-0.765 1.035,-1.005 0.45,-0.25 0.945,-0.375 1.485,-0.375 0.89,0 1.59,0.28 2.1,0.84 0.51,0.56 0.765,1.395 0.765,2.505 v 4.275 h -1.575 v -4.11 c 0,-1.44 -0.575,-2.16 -1.725,-2.16 -0.6,0 -1.1,0.21 -1.5,0.63 -0.39,0.42 -0.585,1.02 -0.585,1.8 v 3.84 z m 12.117,0.18 c -0.63,0 -1.15,-0.105 -1.56,-0.315 -0.41,-0.21 -0.715,-0.485 -0.915,-0.825 -0.2,-0.35 -0.3,-0.73 -0.3,-1.14 0,-0.72 0.28,-1.29 0.84,-1.71 0.56,-0.42 1.36,-0.63 2.4,-0.63 h 1.95 v -0.135 c 0,-0.58 -0.16,-1.015 -0.48,-1.305 -0.31,-0.29 -0.715,-0.435 -1.215,-0.435 -0.44,0 -0.825,0.11 -1.155,0.33 -0.32,0.21 -0.515,0.525 -0.585,0.945 h -1.59 c 0.05,-0.54 0.23,-1 0.54,-1.38 0.32,-0.39 0.72,-0.685 1.2,-0.885 0.49,-0.21 1.025,-0.315 1.605,-0.315 1.04,0 1.845,0.275 2.415,0.825 0.57,0.54 0.855,1.28 0.855,2.22 v 4.575 h -1.38 l -0.135,-1.275 c -0.21,0.41 -0.515,0.755 -0.915,1.035 -0.4,0.28 -0.925,0.42 -1.575,0.42 z m 0.315,-1.29 c 0.43,0 0.79,-0.1 1.08,-0.3 0.3,-0.21 0.53,-0.485 0.69,-0.825 0.17,-0.34 0.275,-0.715 0.315,-1.125 h -1.77 c -0.63,0 -1.08,0.11 -1.35,0.33 -0.26,0.22 -0.39,0.495 -0.39,0.825 0,0.34 0.125,0.61 0.375,0.81 0.26,0.19 0.61,0.285 1.05,0.285 z m 6.354,1.11 v -10.5 h 6.585 v 1.29 h -4.995 v 3.315 h 4.14 v 1.275 h -4.14 v 4.62 z m 11.948,0.18 c -0.71,0 -1.35,-0.16 -1.92,-0.48 -0.56,-0.33 -1.005,-0.785 -1.335,-1.365 -0.33,-0.59 -0.495,-1.275 -0.495,-2.055 0,-0.78 0.165,-1.46 0.495,-2.04 0.34,-0.59 0.795,-1.045 1.365,-1.365 0.57,-0.33 1.205,-0.495 1.905,-0.495 0.71,0 1.345,0.165 1.905,0.495 0.57,0.32 1.02,0.775 1.35,1.365 0.34,0.58 0.51,1.26 0.51,2.04 0,0.78 -0.17,1.465 -0.51,2.055 -0.33,0.58 -0.78,1.035 -1.35,1.365 -0.57,0.32 -1.21,0.48 -1.92,0.48 z m 0,-1.365 c 0.38,0 0.73,-0.095 1.05,-0.285 0.33,-0.19 0.595,-0.47 0.795,-0.84 0.2,-0.38 0.3,-0.85 0.3,-1.41 0,-0.56 -0.1,-1.025 -0.3,-1.395 -0.19,-0.38 -0.45,-0.665 -0.78,-0.855 -0.32,-0.19 -0.67,-0.285 -1.05,-0.285 -0.38,0 -0.735,0.095 -1.065,0.285 -0.32,0.19 -0.58,0.475 -0.78,0.855 -0.2,0.37 -0.3,0.835 -0.3,1.395 0,0.56 0.1,1.03 0.3,1.41 0.2,0.37 0.46,0.65 0.78,0.84 0.32,0.19 0.67,0.285 1.05,0.285 z m 6.25,1.185 v -10.8 h 1.59 v 10.8 z m 7.743,0.18 c -0.72,0 -1.355,-0.17 -1.905,-0.51 -0.55,-0.34 -0.98,-0.805 -1.29,-1.395 -0.31,-0.59 -0.465,-1.26 -0.465,-2.01 0,-0.75 0.155,-1.415 0.465,-1.995 0.31,-0.59 0.74,-1.05 1.29,-1.38 0.56,-0.34 1.2,-0.51 1.92,-0.51 0.59,0 1.105,0.115 1.545,0.345 0.45,0.23 0.8,0.555 1.05,0.975 v -4.5 h 1.59 v 10.8 h -1.425 l -0.165,-1.155 c -0.24,0.35 -0.57,0.66 -0.99,0.93 -0.42,0.27 -0.96,0.405 -1.62,0.405 z m 0.285,-1.38 c 0.68,0 1.235,-0.235 1.665,-0.705 0.44,-0.47 0.66,-1.075 0.66,-1.815 0,-0.75 -0.22,-1.355 -0.66,-1.815 -0.43,-0.47 -0.985,-0.705 -1.665,-0.705 -0.68,0 -1.24,0.235 -1.68,0.705 -0.44,0.46 -0.66,1.065 -0.66,1.815 0,0.49 0.1,0.925 0.3,1.305 0.2,0.38 0.475,0.68 0.825,0.9 0.36,0.21 0.765,0.315 1.215,0.315 z m 11.259,1.2 v -10.5 h 3.405 c 1.23,0 2.24,0.215 3.03,0.645 0.8,0.43 1.39,1.04 1.77,1.83 0.39,0.78 0.585,1.71 0.585,2.79 0,1.07 -0.195,2 -0.585,2.79 -0.38,0.78 -0.97,1.385 -1.77,1.815 -0.79,0.42 -1.8,0.63 -3.03,0.63 z m 1.59,-1.35 h 1.755 c 0.95,0 1.7,-0.155 2.25,-0.465 0.56,-0.31 0.96,-0.755 1.2,-1.335 0.25,-0.58 0.375,-1.275 0.375,-2.085 0,-0.81 -0.125,-1.51 -0.375,-2.1 -0.24,-0.59 -0.64,-1.04 -1.2,-1.35 -0.55,-0.32 -1.3,-0.48 -2.25,-0.48 h -1.755 z m 9.707,1.35 v -10.5 h 3.96 c 1.09,0 1.915,0.255 2.475,0.765 0.56,0.51 0.84,1.15 0.84,1.92 0,0.67 -0.18,1.205 -0.54,1.605 -0.36,0.39 -0.795,0.655 -1.305,0.795 0.4,0.08 0.755,0.24 1.065,0.48 0.32,0.24 0.57,0.54 0.75,0.9 0.18,0.36 0.27,0.75 0.27,1.17 0,0.54 -0.135,1.03 -0.405,1.47 -0.26,0.43 -0.645,0.77 -1.155,1.02 -0.51,0.25 -1.135,0.375 -1.875,0.375 z m 1.59,-6 h 2.175 c 0.61,0 1.075,-0.14 1.395,-0.42 0.32,-0.29 0.48,-0.685 0.48,-1.185 0,-0.49 -0.16,-0.88 -0.48,-1.17 -0.31,-0.29 -0.785,-0.435 -1.425,-0.435 h -2.145 z m 0,4.695 h 2.28 c 0.64,0 1.135,-0.15 1.485,-0.45 0.36,-0.3 0.54,-0.72 0.54,-1.26 0,-0.54 -0.185,-0.965 -0.555,-1.275 -0.37,-0.32 -0.87,-0.48 -1.5,-0.48 h -2.25 z m 12.887,4.605 v -10.74 h 1.425 l 0.165,1.155 c 0.24,-0.35 0.57,-0.66 0.99,-0.93 0.42,-0.27 0.96,-0.405 1.62,-0.405 0.72,0 1.355,0.17 1.905,0.51 0.55,0.34 0.98,0.805 1.29,1.395 0.32,0.59 0.48,1.26 0.48,2.01 0,0.75 -0.16,1.42 -0.48,2.01 -0.31,0.58 -0.74,1.04 -1.29,1.38 -0.55,0.33 -1.19,0.495 -1.92,0.495 -0.58,0 -1.095,-0.115 -1.545,-0.345 -0.44,-0.23 -0.79,-0.555 -1.05,-0.975 v 4.44 z m 3.915,-4.5 c 0.68,0 1.24,-0.23 1.68,-0.69 0.44,-0.47 0.66,-1.08 0.66,-1.83 0,-0.49 -0.1,-0.925 -0.3,-1.305 -0.2,-0.38 -0.475,-0.675 -0.825,-0.885 -0.35,-0.22 -0.755,-0.33 -1.215,-0.33 -0.68,0 -1.24,0.235 -1.68,0.705 -0.43,0.47 -0.645,1.075 -0.645,1.815 0,0.75 0.215,1.36 0.645,1.83 0.44,0.46 1,0.69 1.68,0.69 z m 6.43,1.2 v -7.44 h 1.425 l 0.135,1.41 c 0.26,-0.49 0.62,-0.875 1.08,-1.155 0.47,-0.29 1.035,-0.435 1.695,-0.435 v 1.665 h -0.435 c -0.44,0 -0.835,0.075 -1.185,0.225 -0.34,0.14 -0.615,0.385 -0.825,0.735 -0.2,0.34 -0.3,0.815 -0.3,1.425 v 3.57 z m 9.723,0.18 c -0.73,0 -1.38,-0.16 -1.95,-0.48 -0.56,-0.33 -1,-0.785 -1.32,-1.365 -0.32,-0.58 -0.48,-1.255 -0.48,-2.025 0,-0.78 0.155,-1.465 0.465,-2.055 0.32,-0.59 0.76,-1.05 1.32,-1.38 0.57,-0.33 1.23,-0.495 1.98,-0.495 0.73,0 1.365,0.165 1.905,0.495 0.54,0.32 0.96,0.75 1.26,1.29 0.3,0.54 0.45,1.135 0.45,1.785 0,0.1 -0.005,0.21 -0.015,0.33 0,0.11 -0.005,0.235 -0.015,0.375 h -5.79 c 0.05,0.72 0.285,1.27 0.705,1.65 0.43,0.37 0.925,0.555 1.485,0.555 0.45,0 0.825,-0.1 1.125,-0.3 0.31,-0.21 0.54,-0.49 0.69,-0.84 h 1.59 c -0.2,0.7 -0.6,1.285 -1.2,1.755 -0.59,0.47 -1.325,0.705 -2.205,0.705 z m 0,-6.495 c -0.53,0 -1,0.16 -1.41,0.48 -0.41,0.31 -0.66,0.78 -0.75,1.41 h 4.2 c -0.03,-0.58 -0.235,-1.04 -0.615,-1.38 -0.38,-0.34 -0.855,-0.51 -1.425,-0.51 z m 7.822,6.315 -2.79,-7.44 h 1.665 l 2.07,5.925 2.07,-5.925 h 1.65 l -2.775,7.44 z m 7.622,-8.85 c -0.3,0 -0.55,-0.09 -0.75,-0.27 -0.19,-0.19 -0.285,-0.425 -0.285,-0.705 0,-0.28 0.095,-0.51 0.285,-0.69 0.2,-0.19 0.45,-0.285 0.75,-0.285 0.3,0 0.545,0.095 0.735,0.285 0.2,0.18 0.3,0.41 0.3,0.69 0,0.28 -0.1,0.515 -0.3,0.705 -0.19,0.18 -0.435,0.27 -0.735,0.27 z m -0.795,8.85 v -7.44 h 1.59 v 7.44 z m 7.919,0.18 c -0.71,0 -1.35,-0.16 -1.92,-0.48 -0.56,-0.33 -1.005,-0.785 -1.335,-1.365 -0.33,-0.59 -0.495,-1.275 -0.495,-2.055 0,-0.78 0.165,-1.46 0.495,-2.04 0.34,-0.59 0.795,-1.045 1.365,-1.365 0.57,-0.33 1.205,-0.495 1.905,-0.495 0.71,0 1.345,0.165 1.905,0.495 0.57,0.32 1.02,0.775 1.35,1.365 0.34,0.58 0.51,1.26 0.51,2.04 0,0.78 -0.17,1.465 -0.51,2.055 -0.33,0.58 -0.78,1.035 -1.35,1.365 -0.57,0.32 -1.21,0.48 -1.92,0.48 z m 0,-1.365 c 0.38,0 0.73,-0.095 1.05,-0.285 0.33,-0.19 0.595,-0.47 0.795,-0.84 0.2,-0.38 0.3,-0.85 0.3,-1.41 0,-0.56 -0.1,-1.025 -0.3,-1.395 -0.19,-0.38 -0.45,-0.665 -0.78,-0.855 -0.32,-0.19 -0.67,-0.285 -1.05,-0.285 -0.38,0 -0.735,0.095 -1.065,0.285 -0.32,0.19 -0.58,0.475 -0.78,0.855 -0.2,0.37 -0.3,0.835 -0.3,1.395 0,0.56 0.1,1.03 0.3,1.41 0.2,0.37 0.46,0.65 0.78,0.84 0.32,0.19 0.67,0.285 1.05,0.285 z m 8.994,1.365 c -0.9,0 -1.61,-0.28 -2.13,-0.84 -0.51,-0.56 -0.765,-1.395 -0.765,-2.505 v -4.275 h 1.59 v 4.11 c 0,1.44 0.59,2.16 1.77,2.16 0.59,0 1.075,-0.21 1.455,-0.63 0.38,-0.42 0.57,-1.02 0.57,-1.8 v -3.84 h 1.59 v 7.44 h -1.41 l -0.12,-1.305 c -0.23,0.46 -0.57,0.825 -1.02,1.095 -0.44,0.26 -0.95,0.39 -1.53,0.39 z m 9.823,0 c -0.94,0 -1.715,-0.23 -2.325,-0.69 -0.61,-0.46 -0.96,-1.07 -1.05,-1.83 h 1.605 c 0.08,0.34 0.27,0.635 0.57,0.885 0.3,0.24 0.695,0.36 1.185,0.36 0.48,0 0.83,-0.1 1.05,-0.3 0.22,-0.2 0.33,-0.43 0.33,-0.69 0,-0.38 -0.155,-0.635 -0.465,-0.765 -0.3,-0.14 -0.72,-0.265 -1.26,-0.375 -0.42,-0.09 -0.84,-0.21 -1.26,-0.36 -0.41,-0.15 -0.755,-0.36 -1.035,-0.63 -0.27,-0.28 -0.405,-0.655 -0.405,-1.125 0,-0.65 0.25,-1.19 0.75,-1.62 0.5,-0.44 1.2,-0.66 2.1,-0.66 0.83,0 1.5,0.2 2.01,0.6 0.52,0.4 0.825,0.965 0.915,1.695 h -1.53 c -0.05,-0.32 -0.2,-0.57 -0.45,-0.75 -0.24,-0.18 -0.565,-0.27 -0.975,-0.27 -0.4,0 -0.71,0.085 -0.93,0.255 -0.22,0.16 -0.33,0.37 -0.33,0.63 0,0.26 0.15,0.465 0.45,0.615 0.31,0.15 0.715,0.285 1.215,0.405 0.5,0.11 0.96,0.24 1.38,0.39 0.43,0.14 0.775,0.35 1.035,0.63 0.26,0.28 0.39,0.69 0.39,1.23 0.01,0.68 -0.255,1.245 -0.795,1.695 -0.53,0.45 -1.255,0.675 -2.175,0.675 z m 5.456,-0.18 v -10.8 h 1.59 v 10.8 z m 5.223,3.3 1.785,-3.915 h -0.435 l -2.94,-6.825 h 1.725 l 2.28,5.505 2.385,-5.505 h 1.68 l -4.8,10.74 z"
     fill="#14234b"
     id="path22" />
  <path
     d="m 646.66464,374.75415 c -0.29,0 -0.545,-0.05 -0.765,-0.15 -0.22,-0.11 -0.425,-0.23 -0.615,-0.36 -0.19,-0.13 -0.38,-0.245 -0.57,-0.345 -0.19,-0.1 -0.395,-0.15 -0.615,-0.15 -0.27,0 -0.495,0.095 -0.675,0.285 -0.17,0.18 -0.275,0.415 -0.315,0.705 h -0.945 c 0.12,-0.72 0.35,-1.25 0.69,-1.59 0.35,-0.35 0.79,-0.525 1.32,-0.525 0.28,0 0.535,0.05 0.765,0.15 0.23,0.1 0.44,0.215 0.63,0.345 0.19,0.13 0.38,0.245 0.57,0.345 0.19,0.1 0.39,0.15 0.6,0.15 0.27,0 0.49,-0.09 0.66,-0.27 0.18,-0.18 0.29,-0.42 0.33,-0.72 h 0.945 c -0.11,0.72 -0.34,1.255 -0.69,1.605 -0.34,0.35 -0.78,0.525 -1.32,0.525 z m 5.457,3.735 v -9.09 l -1.695,0.375 v -0.87 l 2.115,-0.915 h 0.855 v 10.5 z m 4.242,0 v -10.5 h 1.47 l 3.78,7.32 3.75,-7.32 h 1.485 v 10.5 h -1.26 v -8.25 l -3.51,6.75 h -0.945 l -3.51,-6.735 v 8.235 z m 21.514,0.18 c -0.77,0 -1.44,-0.14 -2.01,-0.42 -0.57,-0.28 -1.01,-0.67 -1.32,-1.17 -0.31,-0.5 -0.465,-1.08 -0.465,-1.74 h 1.32 c 0,0.41 0.095,0.79 0.285,1.14 0.19,0.34 0.465,0.615 0.825,0.825 0.37,0.2 0.825,0.3 1.365,0.3 0.71,0 1.26,-0.17 1.65,-0.51 0.39,-0.34 0.585,-0.765 0.585,-1.275 0,-0.42 -0.09,-0.755 -0.27,-1.005 -0.18,-0.26 -0.425,-0.47 -0.735,-0.63 -0.3,-0.16 -0.65,-0.3 -1.05,-0.42 -0.39,-0.12 -0.8,-0.255 -1.23,-0.405 -0.81,-0.28 -1.41,-0.625 -1.8,-1.035 -0.39,-0.42 -0.585,-0.965 -0.585,-1.635 -0.01,-0.56 0.12,-1.055 0.39,-1.485 0.27,-0.44 0.65,-0.78 1.14,-1.02 0.5,-0.25 1.09,-0.375 1.77,-0.375 0.67,0 1.25,0.125 1.74,0.375 0.5,0.25 0.885,0.595 1.155,1.035 0.28,0.44 0.425,0.94 0.435,1.5 h -1.32 c 0,-0.29 -0.075,-0.575 -0.225,-0.855 -0.15,-0.29 -0.38,-0.525 -0.69,-0.705 -0.3,-0.18 -0.68,-0.27 -1.14,-0.27 -0.57,-0.01 -1.04,0.135 -1.41,0.435 -0.36,0.3 -0.54,0.715 -0.54,1.245 0,0.45 0.125,0.795 0.375,1.035 0.26,0.24 0.62,0.44 1.08,0.6 0.46,0.15 0.99,0.325 1.59,0.525 0.5,0.18 0.95,0.39 1.35,0.63 0.4,0.24 0.71,0.55 0.93,0.93 0.23,0.38 0.345,0.865 0.345,1.455 0,0.5 -0.13,0.975 -0.39,1.425 -0.26,0.44 -0.655,0.8 -1.185,1.08 -0.52,0.28 -1.175,0.42 -1.965,0.42 z m 8.942,-0.18 c -0.68,0 -1.215,-0.165 -1.605,-0.495 -0.39,-0.33 -0.585,-0.925 -0.585,-1.785 v -4.095 h -1.29 v -1.065 h 1.29 l 0.165,-1.785 h 1.095 v 1.785 h 2.19 v 1.065 h -2.19 v 4.095 c 0,0.47 0.095,0.79 0.285,0.96 0.19,0.16 0.525,0.24 1.005,0.24 h 0.78 v 1.08 z m 3.611,0 v -7.44 h 1.14 l 0.105,1.425 c 0.23,-0.49 0.58,-0.88 1.05,-1.17 0.47,-0.29 1.05,-0.435 1.74,-0.435 v 1.32 h -0.345 c -0.44,0 -0.845,0.08 -1.215,0.24 -0.37,0.15 -0.665,0.41 -0.885,0.78 -0.22,0.37 -0.33,0.88 -0.33,1.53 v 3.75 z m 8.914,0.18 c -0.88,0 -1.58,-0.265 -2.1,-0.795 -0.52,-0.54 -0.78,-1.365 -0.78,-2.475 v -4.35 h 1.26 v 4.215 c 0,1.55 0.635,2.325 1.905,2.325 0.65,0 1.185,-0.23 1.605,-0.69 0.43,-0.47 0.645,-1.135 0.645,-1.995 v -3.855 h 1.26 v 7.44 h -1.14 l -0.09,-1.335 c -0.23,0.47 -0.575,0.84 -1.035,1.11 -0.45,0.27 -0.96,0.405 -1.53,0.405 z m 10.039,0 c -0.71,0 -1.35,-0.16 -1.92,-0.48 -0.56,-0.33 -1.005,-0.785 -1.335,-1.365 -0.32,-0.59 -0.48,-1.275 -0.48,-2.055 0,-0.78 0.16,-1.46 0.48,-2.04 0.33,-0.59 0.775,-1.045 1.335,-1.365 0.57,-0.33 1.21,-0.495 1.92,-0.495 0.88,0 1.62,0.23 2.22,0.69 0.61,0.46 0.995,1.075 1.155,1.845 h -1.29 c -0.1,-0.46 -0.345,-0.815 -0.735,-1.065 -0.39,-0.26 -0.845,-0.39 -1.365,-0.39 -0.42,0 -0.815,0.105 -1.185,0.315 -0.37,0.21 -0.67,0.525 -0.9,0.945 -0.23,0.42 -0.345,0.94 -0.345,1.56 0,0.62 0.115,1.14 0.345,1.56 0.23,0.42 0.53,0.74 0.9,0.96 0.37,0.21 0.765,0.315 1.185,0.315 0.52,0 0.975,-0.125 1.365,-0.375 0.39,-0.26 0.635,-0.625 0.735,-1.095 h 1.29 c -0.15,0.75 -0.53,1.36 -1.14,1.83 -0.61,0.47 -1.355,0.705 -2.235,0.705 z m 8.62,-0.18 c -0.68,0 -1.215,-0.165 -1.605,-0.495 -0.39,-0.33 -0.585,-0.925 -0.585,-1.785 v -4.095 h -1.29 v -1.065 h 1.29 l 0.165,-1.785 h 1.095 v 1.785 h 2.19 v 1.065 h -2.19 v 4.095 c 0,0.47 0.095,0.79 0.285,0.96 0.19,0.16 0.525,0.24 1.005,0.24 h 0.78 v 1.08 z m 6.326,0.18 c -0.88,0 -1.58,-0.265 -2.1,-0.795 -0.52,-0.54 -0.78,-1.365 -0.78,-2.475 v -4.35 h 1.26 v 4.215 c 0,1.55 0.635,2.325 1.905,2.325 0.65,0 1.185,-0.23 1.605,-0.69 0.43,-0.47 0.645,-1.135 0.645,-1.995 v -3.855 h 1.26 v 7.44 h -1.14 l -0.09,-1.335 c -0.23,0.47 -0.575,0.84 -1.035,1.11 -0.45,0.27 -0.96,0.405 -1.53,0.405 z m 6.619,-0.18 v -7.44 h 1.14 l 0.105,1.425 c 0.23,-0.49 0.58,-0.88 1.05,-1.17 0.47,-0.29 1.05,-0.435 1.74,-0.435 v 1.32 h -0.345 c -0.44,0 -0.845,0.08 -1.215,0.24 -0.37,0.15 -0.665,0.41 -0.885,0.78 -0.22,0.37 -0.33,0.88 -0.33,1.53 v 3.75 z m 9.266,0.18 c -0.71,0 -1.34,-0.16 -1.89,-0.48 -0.55,-0.33 -0.985,-0.785 -1.305,-1.365 -0.31,-0.58 -0.465,-1.265 -0.465,-2.055 0,-0.78 0.155,-1.46 0.465,-2.04 0.31,-0.59 0.74,-1.045 1.29,-1.365 0.56,-0.33 1.205,-0.495 1.935,-0.495 0.72,0 1.34,0.165 1.86,0.495 0.53,0.32 0.935,0.745 1.215,1.275 0.28,0.53 0.42,1.1 0.42,1.71 0,0.11 -0.005,0.22 -0.015,0.33 0,0.11 0,0.235 0,0.375 h -5.925 c 0.03,0.57 0.16,1.045 0.39,1.425 0.24,0.37 0.535,0.65 0.885,0.84 0.36,0.19 0.74,0.285 1.14,0.285 0.52,0 0.955,-0.12 1.305,-0.36 0.35,-0.24 0.605,-0.565 0.765,-0.975 h 1.245 c -0.2,0.69 -0.585,1.265 -1.155,1.725 -0.56,0.45 -1.28,0.675 -2.16,0.675 z m 0,-6.735 c -0.6,0 -1.135,0.185 -1.605,0.555 -0.46,0.36 -0.725,0.89 -0.795,1.59 h 4.68 c -0.03,-0.67 -0.26,-1.195 -0.69,-1.575 -0.43,-0.38 -0.96,-0.57 -1.59,-0.57 z m 8.795,6.735 c -0.89,0 -1.63,-0.225 -2.22,-0.675 -0.59,-0.45 -0.935,-1.06 -1.035,-1.83 h 1.29 c 0.08,0.39 0.285,0.73 0.615,1.02 0.34,0.28 0.795,0.42 1.365,0.42 0.53,0 0.92,-0.11 1.17,-0.33 0.25,-0.23 0.375,-0.5 0.375,-0.81 0,-0.45 -0.165,-0.75 -0.495,-0.9 -0.32,-0.15 -0.775,-0.285 -1.365,-0.405 -0.4,-0.08 -0.8,-0.195 -1.2,-0.345 -0.4,-0.15 -0.735,-0.36 -1.005,-0.63 -0.27,-0.28 -0.405,-0.645 -0.405,-1.095 0,-0.65 0.24,-1.18 0.72,-1.59 0.49,-0.42 1.15,-0.63 1.98,-0.63 0.79,0 1.435,0.2 1.935,0.6 0.51,0.39 0.805,0.95 0.885,1.68 h -1.245 c -0.05,-0.38 -0.215,-0.675 -0.495,-0.885 -0.27,-0.22 -0.635,-0.33 -1.095,-0.33 -0.45,0 -0.8,0.095 -1.05,0.285 -0.24,0.19 -0.36,0.44 -0.36,0.75 0,0.3 0.155,0.535 0.465,0.705 0.32,0.17 0.75,0.315 1.29,0.435 0.46,0.1 0.895,0.225 1.305,0.375 0.42,0.14 0.76,0.355 1.02,0.645 0.27,0.28 0.405,0.69 0.405,1.23 0.01,0.67 -0.245,1.225 -0.765,1.665 -0.51,0.43 -1.205,0.645 -2.085,0.645 z"
     fill="#14234b"
     id="path24" />
  <path
     d="m 642.67464,441.48915 v -10.5 h 6.675 v 1.29 h -5.085 v 3.27 h 4.635 v 1.26 h -4.635 v 3.39 h 5.085 v 1.29 z m 8.539,0 2.64,-3.72 -2.64,-3.72 h 1.695 l 1.995,2.85 1.98,-2.85 h 1.71 l -2.64,3.72 2.64,3.72 h -1.71 l -1.98,-2.85 -1.995,2.85 z m 9.424,3.3 v -10.74 h 1.425 l 0.165,1.155 c 0.24,-0.35 0.57,-0.66 0.99,-0.93 0.42,-0.27 0.96,-0.405 1.62,-0.405 0.72,0 1.355,0.17 1.905,0.51 0.55,0.34 0.98,0.805 1.29,1.395 0.32,0.59 0.48,1.26 0.48,2.01 0,0.75 -0.16,1.42 -0.48,2.01 -0.31,0.58 -0.74,1.04 -1.29,1.38 -0.55,0.33 -1.19,0.495 -1.92,0.495 -0.58,0 -1.095,-0.115 -1.545,-0.345 -0.44,-0.23 -0.79,-0.555 -1.05,-0.975 v 4.44 z m 3.915,-4.5 c 0.68,0 1.24,-0.23 1.68,-0.69 0.44,-0.47 0.66,-1.08 0.66,-1.83 0,-0.49 -0.1,-0.925 -0.3,-1.305 -0.2,-0.38 -0.475,-0.675 -0.825,-0.885 -0.35,-0.22 -0.755,-0.33 -1.215,-0.33 -0.68,0 -1.24,0.235 -1.68,0.705 -0.43,0.47 -0.645,1.075 -0.645,1.815 0,0.75 0.215,1.36 0.645,1.83 0.44,0.46 1,0.69 1.68,0.69 z m 9.91,1.38 c -0.73,0 -1.38,-0.16 -1.95,-0.48 -0.56,-0.33 -1,-0.785 -1.32,-1.365 -0.32,-0.58 -0.48,-1.255 -0.48,-2.025 0,-0.78 0.155,-1.465 0.465,-2.055 0.32,-0.59 0.76,-1.05 1.32,-1.38 0.57,-0.33 1.23,-0.495 1.98,-0.495 0.73,0 1.365,0.165 1.905,0.495 0.54,0.32 0.96,0.75 1.26,1.29 0.3,0.54 0.45,1.135 0.45,1.785 0,0.1 -0.005,0.21 -0.015,0.33 0,0.11 -0.005,0.235 -0.015,0.375 h -5.79 c 0.05,0.72 0.285,1.27 0.705,1.65 0.43,0.37 0.925,0.555 1.485,0.555 0.45,0 0.825,-0.1 1.125,-0.3 0.31,-0.21 0.54,-0.49 0.69,-0.84 h 1.59 c -0.2,0.7 -0.6,1.285 -1.2,1.755 -0.59,0.47 -1.325,0.705 -2.205,0.705 z m 0,-6.495 c -0.53,0 -1,0.16 -1.41,0.48 -0.41,0.31 -0.66,0.78 -0.75,1.41 h 4.2 c -0.03,-0.58 -0.235,-1.04 -0.615,-1.38 -0.38,-0.34 -0.855,-0.51 -1.425,-0.51 z m 6.03,6.315 v -7.44 h 1.425 l 0.135,1.41 c 0.26,-0.49 0.62,-0.875 1.08,-1.155 0.47,-0.29 1.035,-0.435 1.695,-0.435 v 1.665 h -0.435 c -0.44,0 -0.835,0.075 -1.185,0.225 -0.34,0.14 -0.615,0.385 -0.825,0.735 -0.2,0.34 -0.3,0.815 -0.3,1.425 v 3.57 z m 7.348,-8.85 c -0.3,0 -0.55,-0.09 -0.75,-0.27 -0.19,-0.19 -0.285,-0.425 -0.285,-0.705 0,-0.28 0.095,-0.51 0.285,-0.69 0.2,-0.19 0.45,-0.285 0.75,-0.285 0.3,0 0.545,0.095 0.735,0.285 0.2,0.18 0.3,0.41 0.3,0.69 0,0.28 -0.1,0.515 -0.3,0.705 -0.19,0.18 -0.435,0.27 -0.735,0.27 z m -0.795,8.85 v -7.44 h 1.59 v 7.44 z m 4.439,0 v -7.44 h 1.41 l 0.135,1.05 c 0.24,-0.38 0.555,-0.68 0.945,-0.9 0.4,-0.22 0.86,-0.33 1.38,-0.33 1.18,0 2,0.465 2.46,1.395 0.27,-0.43 0.63,-0.77 1.08,-1.02 0.46,-0.25 0.955,-0.375 1.485,-0.375 0.93,0 1.66,0.28 2.19,0.84 0.53,0.56 0.795,1.395 0.795,2.505 v 4.275 h -1.59 v -4.11 c 0,-1.44 -0.55,-2.16 -1.65,-2.16 -0.56,0 -1.02,0.21 -1.38,0.63 -0.35,0.42 -0.525,1.02 -0.525,1.8 v 3.84 h -1.59 v -4.11 c 0,-1.44 -0.555,-2.16 -1.665,-2.16 -0.55,0 -1.005,0.21 -1.365,0.63 -0.35,0.42 -0.525,1.02 -0.525,1.8 v 3.84 z m 17.97,0.18 c -0.73,0 -1.38,-0.16 -1.95,-0.48 -0.56,-0.33 -1,-0.785 -1.32,-1.365 -0.32,-0.58 -0.48,-1.255 -0.48,-2.025 0,-0.78 0.155,-1.465 0.465,-2.055 0.32,-0.59 0.76,-1.05 1.32,-1.38 0.57,-0.33 1.23,-0.495 1.98,-0.495 0.73,0 1.365,0.165 1.905,0.495 0.54,0.32 0.96,0.75 1.26,1.29 0.3,0.54 0.45,1.135 0.45,1.785 0,0.1 -0.005,0.21 -0.015,0.33 0,0.11 -0.005,0.235 -0.015,0.375 h -5.79 c 0.05,0.72 0.285,1.27 0.705,1.65 0.43,0.37 0.925,0.555 1.485,0.555 0.45,0 0.825,-0.1 1.125,-0.3 0.31,-0.21 0.54,-0.49 0.69,-0.84 h 1.59 c -0.2,0.7 -0.6,1.285 -1.2,1.755 -0.59,0.47 -1.325,0.705 -2.205,0.705 z m 0,-6.495 c -0.53,0 -1,0.16 -1.41,0.48 -0.41,0.31 -0.66,0.78 -0.75,1.41 h 4.2 c -0.03,-0.58 -0.235,-1.04 -0.615,-1.38 -0.38,-0.34 -0.855,-0.51 -1.425,-0.51 z m 6.03,6.315 v -7.44 h 1.41 l 0.12,1.305 c 0.23,-0.46 0.565,-0.82 1.005,-1.08 0.45,-0.27 0.965,-0.405 1.545,-0.405 0.9,0 1.605,0.28 2.115,0.84 0.52,0.56 0.78,1.395 0.78,2.505 v 4.275 h -1.575 v -4.11 c 0,-1.44 -0.59,-2.16 -1.77,-2.16 -0.59,0 -1.08,0.21 -1.47,0.63 -0.38,0.42 -0.57,1.02 -0.57,1.8 v 3.84 z m 12.718,0 c -0.73,0 -1.31,-0.175 -1.74,-0.525 -0.43,-0.36 -0.645,-0.995 -0.645,-1.905 v -3.675 h -1.275 v -1.335 h 1.275 l 0.195,-1.89 h 1.395 v 1.89 h 2.1 v 1.335 h -2.1 v 3.675 c 0,0.41 0.085,0.695 0.255,0.855 0.18,0.15 0.485,0.225 0.915,0.225 h 0.855 v 1.35 z m 6.214,0.18 c -0.63,0 -1.15,-0.105 -1.56,-0.315 -0.41,-0.21 -0.715,-0.485 -0.915,-0.825 -0.2,-0.35 -0.3,-0.73 -0.3,-1.14 0,-0.72 0.28,-1.29 0.84,-1.71 0.56,-0.42 1.36,-0.63 2.4,-0.63 h 1.95 v -0.135 c 0,-0.58 -0.16,-1.015 -0.48,-1.305 -0.31,-0.29 -0.715,-0.435 -1.215,-0.435 -0.44,0 -0.825,0.11 -1.155,0.33 -0.32,0.21 -0.515,0.525 -0.585,0.945 h -1.59 c 0.05,-0.54 0.23,-1 0.54,-1.38 0.32,-0.39 0.72,-0.685 1.2,-0.885 0.49,-0.21 1.025,-0.315 1.605,-0.315 1.04,0 1.845,0.275 2.415,0.825 0.57,0.54 0.855,1.28 0.855,2.22 v 4.575 h -1.38 l -0.135,-1.275 c -0.21,0.41 -0.515,0.755 -0.915,1.035 -0.4,0.28 -0.925,0.42 -1.575,0.42 z m 0.315,-1.29 c 0.43,0 0.79,-0.1 1.08,-0.3 0.3,-0.21 0.53,-0.485 0.69,-0.825 0.17,-0.34 0.275,-0.715 0.315,-1.125 h -1.77 c -0.63,0 -1.08,0.11 -1.35,0.33 -0.26,0.22 -0.39,0.495 -0.39,0.825 0,0.34 0.125,0.61 0.375,0.81 0.26,0.19 0.61,0.285 1.05,0.285 z m 6.294,1.11 v -10.8 h 1.59 v 10.8 z m 11.538,2.175 c -0.56,-0.54 -1.065,-1.175 -1.515,-1.905 -0.44,-0.72 -0.795,-1.52 -1.065,-2.4 -0.26,-0.89 -0.39,-1.845 -0.39,-2.865 0,-1.02 0.13,-1.97 0.39,-2.85 0.27,-0.89 0.625,-1.695 1.065,-2.415 0.45,-0.73 0.955,-1.365 1.515,-1.905 h 1.59 v 0.15 c -0.9,0.93 -1.625,1.995 -2.175,3.195 -0.54,1.2 -0.81,2.475 -0.81,3.825 0,1.35 0.27,2.625 0.81,3.825 0.55,1.2 1.28,2.265 2.19,3.195 v 0.15 z m 3.941,-2.175 v -10.5 h 3.675 c 0.82,0 1.5,0.14 2.04,0.42 0.54,0.27 0.94,0.645 1.2,1.125 0.27,0.47 0.405,1.005 0.405,1.605 0,0.57 -0.13,1.095 -0.39,1.575 -0.25,0.47 -0.645,0.845 -1.185,1.125 -0.54,0.28 -1.23,0.42 -2.07,0.42 h -2.085 v 4.23 z m 1.59,-5.535 h 2.01 c 0.75,0 1.285,-0.16 1.605,-0.48 0.33,-0.33 0.495,-0.775 0.495,-1.335 0,-0.58 -0.165,-1.03 -0.495,-1.35 -0.32,-0.33 -0.855,-0.495 -1.605,-0.495 h -2.01 z m 8.052,5.535 v -10.5 h 3.405 c 1.23,0 2.24,0.215 3.03,0.645 0.8,0.43 1.39,1.04 1.77,1.83 0.39,0.78 0.585,1.71 0.585,2.79 0,1.07 -0.195,2 -0.585,2.79 -0.38,0.78 -0.97,1.385 -1.77,1.815 -0.79,0.42 -1.8,0.63 -3.03,0.63 z m 1.59,-1.35 h 1.755 c 0.95,0 1.7,-0.155 2.25,-0.465 0.56,-0.31 0.96,-0.755 1.2,-1.335 0.25,-0.58 0.375,-1.275 0.375,-2.085 0,-0.81 -0.125,-1.51 -0.375,-2.1 -0.24,-0.59 -0.64,-1.04 -1.2,-1.35 -0.55,-0.32 -1.3,-0.48 -2.25,-0.48 h -1.755 z m 9.707,1.35 v -10.5 h 3.96 c 1.09,0 1.915,0.255 2.475,0.765 0.56,0.51 0.84,1.15 0.84,1.92 0,0.67 -0.18,1.205 -0.54,1.605 -0.36,0.39 -0.795,0.655 -1.305,0.795 0.4,0.08 0.755,0.24 1.065,0.48 0.32,0.24 0.57,0.54 0.75,0.9 0.18,0.36 0.27,0.75 0.27,1.17 0,0.54 -0.135,1.03 -0.405,1.47 -0.26,0.43 -0.645,0.77 -1.155,1.02 -0.51,0.25 -1.135,0.375 -1.875,0.375 z m 1.59,-6 h 2.175 c 0.61,0 1.075,-0.14 1.395,-0.42 0.32,-0.29 0.48,-0.685 0.48,-1.185 0,-0.49 -0.16,-0.88 -0.48,-1.17 -0.31,-0.29 -0.785,-0.435 -1.425,-0.435 h -2.145 z m 0,4.695 h 2.28 c 0.64,0 1.135,-0.15 1.485,-0.45 0.36,-0.3 0.54,-0.72 0.54,-1.26 0,-0.54 -0.185,-0.965 -0.555,-1.275 -0.37,-0.32 -0.87,-0.48 -1.5,-0.48 h -2.25 z m 7.877,3.48 v -0.15 c 0.9,-0.93 1.625,-1.995 2.175,-3.195 0.55,-1.2 0.825,-2.475 0.825,-3.825 0,-1.35 -0.275,-2.625 -0.825,-3.825 -0.54,-1.2 -1.26,-2.265 -2.16,-3.195 v -0.15 h 1.59 c 0.55,0.54 1.05,1.175 1.5,1.905 0.45,0.72 0.805,1.525 1.065,2.415 0.27,0.88 0.405,1.83 0.405,2.85 0,1.02 -0.135,1.975 -0.405,2.865 -0.26,0.88 -0.615,1.68 -1.065,2.4 -0.45,0.73 -0.95,1.365 -1.5,1.905 z m 14.666,-2.175 c -0.73,0 -1.31,-0.175 -1.74,-0.525 -0.43,-0.36 -0.645,-0.995 -0.645,-1.905 v -3.675 h -1.275 v -1.335 h 1.275 l 0.195,-1.89 h 1.395 v 1.89 h 2.1 v 1.335 h -2.1 v 3.675 c 0,0.41 0.085,0.695 0.255,0.855 0.18,0.15 0.485,0.225 0.915,0.225 h 0.855 v 1.35 z m 6.984,0.18 c -0.71,0 -1.35,-0.16 -1.92,-0.48 -0.56,-0.33 -1.005,-0.785 -1.335,-1.365 -0.33,-0.59 -0.495,-1.275 -0.495,-2.055 0,-0.78 0.165,-1.46 0.495,-2.04 0.34,-0.59 0.795,-1.045 1.365,-1.365 0.57,-0.33 1.205,-0.495 1.905,-0.495 0.71,0 1.345,0.165 1.905,0.495 0.57,0.32 1.02,0.775 1.35,1.365 0.34,0.58 0.51,1.26 0.51,2.04 0,0.78 -0.17,1.465 -0.51,2.055 -0.33,0.58 -0.78,1.035 -1.35,1.365 -0.57,0.32 -1.21,0.48 -1.92,0.48 z m 0,-1.365 c 0.38,0 0.73,-0.095 1.05,-0.285 0.33,-0.19 0.595,-0.47 0.795,-0.84 0.2,-0.38 0.3,-0.85 0.3,-1.41 0,-0.56 -0.1,-1.025 -0.3,-1.395 -0.19,-0.38 -0.45,-0.665 -0.78,-0.855 -0.32,-0.19 -0.67,-0.285 -1.05,-0.285 -0.38,0 -0.735,0.095 -1.065,0.285 -0.32,0.19 -0.58,0.475 -0.78,0.855 -0.2,0.37 -0.3,0.835 -0.3,1.395 0,0.56 0.1,1.03 0.3,1.41 0.2,0.37 0.46,0.65 0.78,0.84 0.32,0.19 0.67,0.285 1.05,0.285 z m 9.639,1.365 c -0.72,0 -1.355,-0.17 -1.905,-0.51 -0.55,-0.34 -0.98,-0.805 -1.29,-1.395 -0.31,-0.59 -0.465,-1.26 -0.465,-2.01 0,-0.75 0.155,-1.415 0.465,-1.995 0.31,-0.59 0.74,-1.05 1.29,-1.38 0.56,-0.34 1.2,-0.51 1.92,-0.51 0.59,0 1.105,0.115 1.545,0.345 0.45,0.23 0.8,0.555 1.05,0.975 v -4.5 h 1.59 v 10.8 h -1.425 l -0.165,-1.155 c -0.24,0.35 -0.57,0.66 -0.99,0.93 -0.42,0.27 -0.96,0.405 -1.62,0.405 z m 0.285,-1.38 c 0.68,0 1.235,-0.235 1.665,-0.705 0.44,-0.47 0.66,-1.075 0.66,-1.815 0,-0.75 -0.22,-1.355 -0.66,-1.815 -0.43,-0.47 -0.985,-0.705 -1.665,-0.705 -0.68,0 -1.24,0.235 -1.68,0.705 -0.44,0.46 -0.66,1.065 -0.66,1.815 0,0.49 0.1,0.925 0.3,1.305 0.2,0.38 0.475,0.68 0.825,0.9 0.36,0.21 0.765,0.315 1.215,0.315 z m 9.19,1.38 c -0.63,0 -1.15,-0.105 -1.56,-0.315 -0.41,-0.21 -0.715,-0.485 -0.915,-0.825 -0.2,-0.35 -0.3,-0.73 -0.3,-1.14 0,-0.72 0.28,-1.29 0.84,-1.71 0.56,-0.42 1.36,-0.63 2.4,-0.63 h 1.95 v -0.135 c 0,-0.58 -0.16,-1.015 -0.48,-1.305 -0.31,-0.29 -0.715,-0.435 -1.215,-0.435 -0.44,0 -0.825,0.11 -1.155,0.33 -0.32,0.21 -0.515,0.525 -0.585,0.945 h -1.59 c 0.05,-0.54 0.23,-1 0.54,-1.38 0.32,-0.39 0.72,-0.685 1.2,-0.885 0.49,-0.21 1.025,-0.315 1.605,-0.315 1.04,0 1.845,0.275 2.415,0.825 0.57,0.54 0.855,1.28 0.855,2.22 v 4.575 h -1.38 l -0.135,-1.275 c -0.21,0.41 -0.515,0.755 -0.915,1.035 -0.4,0.28 -0.925,0.42 -1.575,0.42 z m 0.315,-1.29 c 0.43,0 0.79,-0.1 1.08,-0.3 0.3,-0.21 0.53,-0.485 0.69,-0.825 0.17,-0.34 0.275,-0.715 0.315,-1.125 h -1.77 c -0.63,0 -1.08,0.11 -1.35,0.33 -0.26,0.22 -0.39,0.495 -0.39,0.825 0,0.34 0.125,0.61 0.375,0.81 0.26,0.19 0.61,0.285 1.05,0.285 z m 6.93,4.41 1.785,-3.915 h -0.435 l -2.94,-6.825 h 1.725 l 2.28,5.505 2.385,-5.505 h 1.68 l -4.8,10.74 z"
     fill="#14234b"
     id="path26" />
  <path
     d="m 643.75464,463.48915 v -9.09 l -1.695,0.375 v -0.87 l 2.115,-0.915 h 0.855 v 10.5 z m 7.706,0.18 c -0.66,0 -1.225,-0.13 -1.695,-0.39 -0.47,-0.26 -0.845,-0.605 -1.125,-1.035 -0.27,-0.44 -0.435,-0.925 -0.495,-1.455 h 1.17 c 0.1,0.57 0.34,1.01 0.72,1.32 0.38,0.31 0.86,0.465 1.44,0.465 0.8,0 1.465,-0.37 1.995,-1.11 0.53,-0.75 0.815,-1.915 0.855,-3.495 -0.24,0.47 -0.625,0.88 -1.155,1.23 -0.52,0.34 -1.15,0.51 -1.89,0.51 -0.59,0 -1.15,-0.14 -1.68,-0.42 -0.53,-0.28 -0.96,-0.67 -1.29,-1.17 -0.33,-0.51 -0.495,-1.105 -0.495,-1.785 0,-0.59 0.145,-1.155 0.435,-1.695 0.3,-0.54 0.72,-0.98 1.26,-1.32 0.54,-0.34 1.185,-0.51 1.935,-0.51 0.76,0 1.4,0.145 1.92,0.435 0.52,0.28 0.935,0.66 1.245,1.14 0.32,0.48 0.55,1.02 0.69,1.62 0.15,0.59 0.225,1.195 0.225,1.815 0,1.16 -0.16,2.18 -0.48,3.06 -0.32,0.87 -0.785,1.555 -1.395,2.055 -0.6,0.49 -1.33,0.735 -2.19,0.735 z m 0.075,-5.055 c 0.47,0 0.89,-0.105 1.26,-0.315 0.37,-0.22 0.665,-0.51 0.885,-0.87 0.22,-0.36 0.33,-0.75 0.33,-1.17 0,-0.45 -0.11,-0.85 -0.33,-1.2 -0.22,-0.36 -0.515,-0.64 -0.885,-0.84 -0.37,-0.2 -0.79,-0.3 -1.26,-0.3 -0.47,0 -0.89,0.1 -1.26,0.3 -0.37,0.2 -0.66,0.48 -0.87,0.84 -0.21,0.35 -0.315,0.755 -0.315,1.215 0,0.71 0.23,1.28 0.69,1.71 0.47,0.42 1.055,0.63 1.755,0.63 z m 10.754,5.055 c -0.93,0 -1.735,-0.225 -2.415,-0.675 -0.67,-0.46 -1.185,-1.095 -1.545,-1.905 -0.36,-0.82 -0.54,-1.77 -0.54,-2.85 0,-1.08 0.18,-2.025 0.54,-2.835 0.36,-0.82 0.875,-1.455 1.545,-1.905 0.68,-0.46 1.485,-0.69 2.415,-0.69 0.93,0 1.73,0.23 2.4,0.69 0.67,0.45 1.185,1.085 1.545,1.905 0.36,0.81 0.54,1.755 0.54,2.835 0,1.08 -0.18,2.03 -0.54,2.85 -0.36,0.81 -0.875,1.445 -1.545,1.905 -0.67,0.45 -1.47,0.675 -2.4,0.675 z m 0,-1.11 c 0.61,0 1.155,-0.17 1.635,-0.51 0.49,-0.35 0.87,-0.845 1.14,-1.485 0.28,-0.65 0.42,-1.425 0.42,-2.325 0,-0.9 -0.14,-1.67 -0.42,-2.31 -0.27,-0.64 -0.65,-1.13 -1.14,-1.47 -0.48,-0.35 -1.025,-0.525 -1.635,-0.525 -0.62,0 -1.17,0.175 -1.65,0.525 -0.48,0.34 -0.86,0.83 -1.14,1.47 -0.28,0.64 -0.42,1.41 -0.42,2.31 0,0.9 0.14,1.675 0.42,2.325 0.28,0.64 0.66,1.135 1.14,1.485 0.48,0.34 1.03,0.51 1.65,0.51 z m 7.055,0.93 v -10.5 h 1.26 v 4.755 l 4.38,-4.755 h 1.59 l -3.9,4.185 3.96,6.315 h -1.53 l -3.33,-5.34 -1.17,1.245 v 4.095 z m 17.545,0.18 c -0.77,0 -1.44,-0.14 -2.01,-0.42 -0.57,-0.28 -1.01,-0.67 -1.32,-1.17 -0.31,-0.5 -0.465,-1.08 -0.465,-1.74 h 1.32 c 0,0.41 0.095,0.79 0.285,1.14 0.19,0.34 0.465,0.615 0.825,0.825 0.37,0.2 0.825,0.3 1.365,0.3 0.71,0 1.26,-0.17 1.65,-0.51 0.39,-0.34 0.585,-0.765 0.585,-1.275 0,-0.42 -0.09,-0.755 -0.27,-1.005 -0.18,-0.26 -0.425,-0.47 -0.735,-0.63 -0.3,-0.16 -0.65,-0.3 -1.05,-0.42 -0.39,-0.12 -0.8,-0.255 -1.23,-0.405 -0.81,-0.28 -1.41,-0.625 -1.8,-1.035 -0.39,-0.42 -0.585,-0.965 -0.585,-1.635 -0.01,-0.56 0.12,-1.055 0.39,-1.485 0.27,-0.44 0.65,-0.78 1.14,-1.02 0.5,-0.25 1.09,-0.375 1.77,-0.375 0.67,0 1.25,0.125 1.74,0.375 0.5,0.25 0.885,0.595 1.155,1.035 0.28,0.44 0.425,0.94 0.435,1.5 h -1.32 c 0,-0.29 -0.075,-0.575 -0.225,-0.855 -0.15,-0.29 -0.38,-0.525 -0.69,-0.705 -0.3,-0.18 -0.68,-0.27 -1.14,-0.27 -0.57,-0.01 -1.04,0.135 -1.41,0.435 -0.36,0.3 -0.54,0.715 -0.54,1.245 0,0.45 0.125,0.795 0.375,1.035 0.26,0.24 0.62,0.44 1.08,0.6 0.46,0.15 0.99,0.325 1.59,0.525 0.5,0.18 0.95,0.39 1.35,0.63 0.4,0.24 0.71,0.55 0.93,0.93 0.23,0.38 0.345,0.865 0.345,1.455 0,0.5 -0.13,0.975 -0.39,1.425 -0.26,0.44 -0.655,0.8 -1.185,1.08 -0.52,0.28 -1.175,0.42 -1.965,0.42 z m 8.942,-0.18 c -0.68,0 -1.215,-0.165 -1.605,-0.495 -0.39,-0.33 -0.585,-0.925 -0.585,-1.785 v -4.095 h -1.29 v -1.065 h 1.29 l 0.165,-1.785 h 1.095 v 1.785 h 2.19 v 1.065 h -2.19 v 4.095 c 0,0.47 0.095,0.79 0.285,0.96 0.19,0.16 0.525,0.24 1.005,0.24 h 0.78 v 1.08 z m 3.611,0 v -7.44 h 1.14 l 0.105,1.425 c 0.23,-0.49 0.58,-0.88 1.05,-1.17 0.47,-0.29 1.05,-0.435 1.74,-0.435 v 1.32 h -0.345 c -0.44,0 -0.845,0.08 -1.215,0.24 -0.37,0.15 -0.665,0.41 -0.885,0.78 -0.22,0.37 -0.33,0.88 -0.33,1.53 v 3.75 z m 8.914,0.18 c -0.88,0 -1.58,-0.265 -2.1,-0.795 -0.52,-0.54 -0.78,-1.365 -0.78,-2.475 v -4.35 h 1.26 v 4.215 c 0,1.55 0.635,2.325 1.905,2.325 0.65,0 1.185,-0.23 1.605,-0.69 0.43,-0.47 0.645,-1.135 0.645,-1.995 v -3.855 h 1.26 v 7.44 h -1.14 l -0.09,-1.335 c -0.23,0.47 -0.575,0.84 -1.035,1.11 -0.45,0.27 -0.96,0.405 -1.53,0.405 z m 10.039,0 c -0.71,0 -1.35,-0.16 -1.92,-0.48 -0.56,-0.33 -1.005,-0.785 -1.335,-1.365 -0.32,-0.59 -0.48,-1.275 -0.48,-2.055 0,-0.78 0.16,-1.46 0.48,-2.04 0.33,-0.59 0.775,-1.045 1.335,-1.365 0.57,-0.33 1.21,-0.495 1.92,-0.495 0.88,0 1.62,0.23 2.22,0.69 0.61,0.46 0.995,1.075 1.155,1.845 h -1.29 c -0.1,-0.46 -0.345,-0.815 -0.735,-1.065 -0.39,-0.26 -0.845,-0.39 -1.365,-0.39 -0.42,0 -0.815,0.105 -1.185,0.315 -0.37,0.21 -0.67,0.525 -0.9,0.945 -0.23,0.42 -0.345,0.94 -0.345,1.56 0,0.62 0.115,1.14 0.345,1.56 0.23,0.42 0.53,0.74 0.9,0.96 0.37,0.21 0.765,0.315 1.185,0.315 0.52,0 0.975,-0.125 1.365,-0.375 0.39,-0.26 0.635,-0.625 0.735,-1.095 h 1.29 c -0.15,0.75 -0.53,1.36 -1.14,1.83 -0.61,0.47 -1.355,0.705 -2.235,0.705 z m 8.62,-0.18 c -0.68,0 -1.215,-0.165 -1.605,-0.495 -0.39,-0.33 -0.585,-0.925 -0.585,-1.785 v -4.095 h -1.29 v -1.065 h 1.29 l 0.165,-1.785 h 1.095 v 1.785 h 2.19 v 1.065 h -2.19 v 4.095 c 0,0.47 0.095,0.79 0.285,0.96 0.19,0.16 0.525,0.24 1.005,0.24 h 0.78 v 1.08 z m 6.325,0.18 c -0.88,0 -1.58,-0.265 -2.1,-0.795 -0.52,-0.54 -0.78,-1.365 -0.78,-2.475 v -4.35 h 1.26 v 4.215 c 0,1.55 0.635,2.325 1.905,2.325 0.65,0 1.185,-0.23 1.605,-0.69 0.43,-0.47 0.645,-1.135 0.645,-1.995 v -3.855 h 1.26 v 7.44 h -1.14 l -0.09,-1.335 c -0.23,0.47 -0.575,0.84 -1.035,1.11 -0.45,0.27 -0.96,0.405 -1.53,0.405 z m 6.619,-0.18 v -7.44 h 1.14 l 0.105,1.425 c 0.23,-0.49 0.58,-0.88 1.05,-1.17 0.47,-0.29 1.05,-0.435 1.74,-0.435 v 1.32 h -0.345 c -0.44,0 -0.845,0.08 -1.215,0.24 -0.37,0.15 -0.665,0.41 -0.885,0.78 -0.22,0.37 -0.33,0.88 -0.33,1.53 v 3.75 z m 9.266,0.18 c -0.71,0 -1.34,-0.16 -1.89,-0.48 -0.55,-0.33 -0.985,-0.785 -1.305,-1.365 -0.31,-0.58 -0.465,-1.265 -0.465,-2.055 0,-0.78 0.155,-1.46 0.465,-2.04 0.31,-0.59 0.74,-1.045 1.29,-1.365 0.56,-0.33 1.205,-0.495 1.935,-0.495 0.72,0 1.34,0.165 1.86,0.495 0.53,0.32 0.935,0.745 1.215,1.275 0.28,0.53 0.42,1.1 0.42,1.71 0,0.11 -0.005,0.22 -0.015,0.33 0,0.11 0,0.235 0,0.375 h -5.925 c 0.03,0.57 0.16,1.045 0.39,1.425 0.24,0.37 0.535,0.65 0.885,0.84 0.36,0.19 0.74,0.285 1.14,0.285 0.52,0 0.955,-0.12 1.305,-0.36 0.35,-0.24 0.605,-0.565 0.765,-0.975 h 1.245 c -0.2,0.69 -0.585,1.265 -1.155,1.725 -0.56,0.45 -1.28,0.675 -2.16,0.675 z m 0,-6.735 c -0.6,0 -1.135,0.185 -1.605,0.555 -0.46,0.36 -0.725,0.89 -0.795,1.59 h 4.68 c -0.03,-0.67 -0.26,-1.195 -0.69,-1.575 -0.43,-0.38 -0.96,-0.57 -1.59,-0.57 z m 8.795,6.735 c -0.89,0 -1.63,-0.225 -2.22,-0.675 -0.59,-0.45 -0.935,-1.06 -1.035,-1.83 h 1.29 c 0.08,0.39 0.285,0.73 0.615,1.02 0.34,0.28 0.795,0.42 1.365,0.42 0.53,0 0.92,-0.11 1.17,-0.33 0.25,-0.23 0.375,-0.5 0.375,-0.81 0,-0.45 -0.165,-0.75 -0.495,-0.9 -0.32,-0.15 -0.775,-0.285 -1.365,-0.405 -0.4,-0.08 -0.8,-0.195 -1.2,-0.345 -0.4,-0.15 -0.735,-0.36 -1.005,-0.63 -0.27,-0.28 -0.405,-0.645 -0.405,-1.095 0,-0.65 0.24,-1.18 0.72,-1.59 0.49,-0.42 1.15,-0.63 1.98,-0.63 0.79,0 1.435,0.2 1.935,0.6 0.51,0.39 0.805,0.95 0.885,1.68 h -1.245 c -0.05,-0.38 -0.215,-0.675 -0.495,-0.885 -0.27,-0.22 -0.635,-0.33 -1.095,-0.33 -0.45,0 -0.8,0.095 -1.05,0.285 -0.24,0.19 -0.36,0.44 -0.36,0.75 0,0.3 0.155,0.535 0.465,0.705 0.32,0.17 0.75,0.315 1.29,0.435 0.46,0.1 0.895,0.225 1.305,0.375 0.42,0.14 0.76,0.355 1.02,0.645 0.27,0.28 0.405,0.69 0.405,1.23 0.01,0.67 -0.245,1.225 -0.765,1.665 -0.51,0.43 -1.205,0.645 -2.085,0.645 z"
     fill="#14234b"
     id="path28" />
</svg>
