<?xml version="1.0" encoding="UTF-8" standalone="no"?>
<!-- Created with Inkscape (http://www.inkscape.org/) -->

<svg
   version="1.1"
   width="620"
   height="148.39999"
   id="svg2"
   sodipodi:docname="signal-peptide.svg"
   inkscape:version="1.2.2 (732a01da63, 2022-12-09)"
   inkscape:export-filename="signal-peptide.png"
   inkscape:export-xdpi="300"
   inkscape:export-ydpi="300"
   xmlns:inkscape="http://www.inkscape.org/namespaces/inkscape"
   xmlns:sodipodi="http://sodipodi.sourceforge.net/DTD/sodipodi-0.dtd"
   xmlns="http://www.w3.org/2000/svg"
   xmlns:svg="http://www.w3.org/2000/svg">
  <sodipodi:namedview
     id="namedview57"
     pagecolor="#ffffff"
     bordercolor="#000000"
     borderopacity="0.25"
     inkscape:showpageshadow="2"
     inkscape:pageopacity="0.0"
     inkscape:pagecheckerboard="0"
     inkscape:deskcolor="#d1d1d1"
     showgrid="false"
     inkscape:zoom="3.4876331"
     inkscape:cx="331.45688"
     inkscape:cy="111.68033"
     inkscape:window-width="1920"
     inkscape:window-height="991"
     inkscape:window-x="-9"
     inkscape:window-y="-9"
     inkscape:window-maximized="1"
     inkscape:current-layer="svg2" />
  <defs
     id="defs4" />
  <rect
     style="fill:#ffffff;stroke-width:4.13977;stroke-linecap:square"
     id="rect278"
     width="1015.0846"
     height="243.05385"
     x="-177.13318"
     y="275.65158"
     transform="matrix(0.6107832,0,0,0.6107832,108.18997,-168.36784)"
     inkscape:label="Background" />
  <g
     transform="translate(160.76076,-353.85676)"
     id="layer1">
    <g
       transform="matrix(0.6107832,0,0,0.6107832,-52.570788,185.48892)"
       id="g4332">
      <path
         d="M 16.666195,361.53818 H 331.55964 v 31.92747 H 16.666195 Z"
         id="rect2816"
         style="fill:#ade4a0;fill-opacity:1;fill-rule:evenodd;stroke:#000000;stroke-width:1.96552;stroke-linecap:round;stroke-linejoin:round;stroke-miterlimit:4;stroke-dashoffset:7.8;stroke-opacity:1" />
      <path
         d="m 331.51081,361.56088 h 126.1946 v 31.89706 h -126.1946 z"
         id="rect2816-1"
         style="fill:#8493dc;fill-opacity:1;fill-rule:evenodd;stroke:#000000;stroke-width:2;stroke-linecap:round;stroke-linejoin:round;stroke-miterlimit:4;stroke-dashoffset:7.8;stroke-opacity:1"
         sodipodi:nodetypes="ccccc" />
      <path
         d="m -98.008614,361.54504 114.674172,0 0,31.91371 -114.674172,0 0,-31.91371 z"
         id="rect2816-1-7"
         style="fill:#d4c667;fill-opacity:1;fill-rule:evenodd;stroke:#000000;stroke-width:2;stroke-linecap:round;stroke-linejoin:round;stroke-miterlimit:4;stroke-opacity:1;stroke-dashoffset:7.8" />
      <path
         d="m 466.05619,361.64987 h 279.80328 v 31.89502 H 466.05619 Z"
         id="rect2816-1-4"
         style="fill:none;stroke:#000000;stroke-width:1.99798;stroke-linecap:round;stroke-linejoin:round;stroke-miterlimit:4;stroke-dashoffset:7.8;stroke-opacity:1" />
      <path
         d="m 785.86553,377.59588 h -38.30248 l 38.30248,0.003 z"
         id="rect4388-0-3-6-2-7-0"
         style="fill:none;stroke:#000000;stroke-width:1.99938;stroke-linecap:round;stroke-linejoin:round;stroke-miterlimit:4;stroke-dasharray:none;stroke-dashoffset:0;stroke-opacity:1" />
      <g
         id="text3689"
         style="font-style:normal;font-variant:normal;font-weight:normal;font-stretch:normal;font-size:36px;line-height:125%;font-family:Arial;-inkscape-font-specification:Arial;text-align:start;writing-mode:lr-tb;text-anchor:start;fill:#000000;fill-opacity:1;stroke:none"
         transform="translate(-10.093007)">
        <path
           d="m 818.17438,381.44699 3.41015,0.86133 c -0.71486,2.80079 -2.001,4.93653 -3.85839,6.40723 -1.85745,1.4707 -4.12795,2.20605 -6.81153,2.20605 -2.77735,0 -5.03614,-0.56543 -6.77637,-1.69629 -1.74024,-1.13086 -3.06445,-2.76855 -3.97265,-4.91308 -0.90821,-2.14453 -1.36231,-4.44726 -1.36231,-6.90821 0,-2.68358 0.5127,-5.02439 1.53809,-7.02246 1.02539,-1.99802 2.48437,-3.5156 4.37695,-4.55273 1.89257,-1.03709 3.97558,-1.55564 6.24903,-1.55567 2.5781,3e-5 4.74607,0.65628 6.5039,1.96875 1.75779,1.31253 2.9824,3.15823 3.67383,5.53711 l -3.35742,0.79102 c -0.59768,-1.87498 -1.46486,-3.24022 -2.60156,-4.09571 -1.13674,-0.85544 -2.56643,-1.28318 -4.28907,-1.2832 -1.98048,2e-5 -3.63575,0.47463 -4.96582,1.42383 -1.33008,0.94924 -2.26465,2.22365 -2.80371,3.82324 -0.53907,1.59963 -0.8086,3.24904 -0.80859,4.94824 -10e-6,2.19142 0.31933,4.10451 0.95801,5.73926 0.63866,1.63477 1.63182,2.85645 2.97949,3.66504 1.34764,0.8086 2.80663,1.21289 4.37695,1.21289 1.91014,0 3.52733,-0.55078 4.85156,-1.65234 1.3242,-1.10156 2.22069,-2.73632 2.68946,-4.9043 z"
           id="path4326" />
      </g>
      <g
         id="text3689-8-5"
         style="font-size:36px;font-style:normal;font-variant:normal;font-weight:normal;font-stretch:normal;text-align:start;line-height:125%;writing-mode:lr-tb;text-anchor:start;fill:#000000;fill-opacity:1;stroke:none;font-family:Arial;-inkscape-font-specification:Arial">
        <path
           d="m -160.76076,390.38666 0,-25.76953 3.49805,0 13.53516,20.23242 0,-20.23242 3.26953,0 0,25.76953 -3.49805,0 -13.53516,-20.25 0,20.25 z"
           id="path4323" />
      </g>
      <path
         d="m -98.04676,377.50039 -38.30248,0 38.30248,0.003 0,-0.003 z"
         id="rect4388-0-3-6-2-7-0-1"
         style="fill:none;stroke:#000000;stroke-width:1.9993751;stroke-linecap:round;stroke-linejoin:round;stroke-miterlimit:4;stroke-opacity:1;stroke-dasharray:none;stroke-dashoffset:0" />
      <g
         id="text3689-8-5-15"
         style="font-style:normal;font-variant:normal;font-weight:normal;font-stretch:normal;font-size:28px;line-height:125%;font-family:Arial;-inkscape-font-specification:Arial;text-align:start;writing-mode:lr-tb;text-anchor:start;fill:#000000;fill-opacity:1;stroke:none"
         transform="translate(-5.5745096)">
        <text
           xml:space="preserve"
           style="font-size:26.1959px;font-family:sans-serif;-inkscape-font-specification:sans-serif;text-align:center;text-anchor:middle;fill:#ffffff;stroke-width:1.15699;stroke-linecap:square"
           x="179.62347"
           y="417.42764"
           id="text394"><tspan
             sodipodi:role="line"
             style="font-size:26.1959px;fill:#000000;fill-opacity:1;stroke-width:1.15698"
             x="179.62347"
             y="417.42764"
             id="tspan1584">5-15 aa</tspan></text>
      </g>
      <g
         id="text3689-8-5-15-7"
         style="font-size:36px;font-style:normal;font-variant:normal;font-weight:normal;font-stretch:normal;text-align:start;line-height:125%;writing-mode:lr-tb;text-anchor:start;fill:#000000;fill-opacity:1;stroke:none;font-family:Arial;-inkscape-font-specification:Arial">
        <text
           xml:space="preserve"
           style="font-size:30.5619px;font-family:sans-serif;-inkscape-font-specification:sans-serif;text-align:center;text-anchor:middle;fill:#000000;fill-opacity:1;stroke-width:1.15699;stroke-linecap:square"
           x="175.88736"
           y="500.5217"
           id="text1637"><tspan
             sodipodi:role="line"
             id="tspan1635"
             style="stroke-width:1.15698"
             x="175.88736"
             y="500.5217">15-30 aa</tspan></text>
      </g>
      <g
         id="text3689-8-5-15-1"
         style="font-size:32px;font-style:normal;font-variant:normal;font-weight:bold;font-stretch:normal;text-align:start;line-height:125%;writing-mode:lr-tb;text-anchor:start;fill:#000000;fill-opacity:1;stroke:none;font-family:Arial;-inkscape-font-specification:Arial Bold">
        <path
           d="m -33.238911,385.98627 -4.390625,0 0,-8.46875 c -1.3e-5,-1.79166 -0.09376,-2.95051 -0.28125,-3.47657 -0.187512,-0.52602 -0.492199,-0.93488 -0.914062,-1.22656 -0.421887,-0.29165 -0.929699,-0.43748 -1.523438,-0.4375 -0.760426,2e-5 -1.442717,0.20835 -2.046875,0.625 -0.604174,0.41668 -1.018236,0.96876 -1.242187,1.65625 -0.223965,0.68751 -0.335944,1.95834 -0.335938,3.8125 l 0,7.51563 -4.390625,0 0,-16.59375 4.078125,0 0,2.4375 c 1.447909,-1.87499 3.270824,-2.81249 5.46875,-2.8125 0.968738,1e-5 1.854153,0.17449 2.65625,0.52343 0.802068,0.34898 1.408839,0.79429 1.820313,1.33594 0.411441,0.54168 0.6979,1.15627 0.859375,1.84375 0.161441,0.68751 0.24217,1.67189 0.242187,2.95313 z"
           id="path4292" />
      </g>
      <g
         transform="translate(212.67772,152.04826)"
         id="g3998">
        <path
           d="m -250.23921,214.42299 c -9.47442,-2.35664 -15.24451,-11.9476 -12.88787,-21.42202 2.35664,-9.47441 11.94761,-15.2445 21.42202,-12.88786 9.47441,2.35664 15.24451,11.94761 12.88786,21.42202 -2.34228,9.41668 -11.83737,15.18501 -21.2739,12.92403"
           transform="matrix(0.61765763,0,0,0.61765763,-101.18843,68.281077)"
           id="path3971"
           style="fill:none;stroke:#000000;stroke-width:3.23803973;stroke-linecap:round;stroke-linejoin:round;stroke-miterlimit:4;stroke-opacity:1;stroke-dashoffset:7.8" />
        <g
           id="text3689-8-5-15-1-2"
           style="font-size:29.95513535px;font-style:normal;font-variant:normal;font-weight:normal;font-stretch:normal;text-align:start;line-height:125%;writing-mode:lr-tb;text-anchor:start;fill:#000000;fill-opacity:1;stroke:none;font-family:Arial;-inkscape-font-specification:Arial">
          <path
             d="m -254.35825,197.21167 0,-5.87986 -5.83599,0 0,-2.45726 5.83599,0 0,-5.83598 2.48651,0 0,5.83598 5.83598,0 0,2.45726 -5.83598,0 0,5.87986 z"
             id="path4289" />
        </g>
      </g>
      <g
         id="text3689-8-5-15-1-22"
         style="font-style:normal;font-variant:normal;font-weight:bold;font-stretch:normal;font-size:32px;line-height:125%;font-family:Arial;-inkscape-font-specification:'Arial Bold';text-align:start;writing-mode:lr-tb;text-anchor:start;fill:#000000;fill-opacity:1;stroke:none"
         transform="translate(-10.093007)">
        <path
           d="m 175.99887,366.0488 v 8.42187 c 1.41666,-1.65623 3.10937,-2.48436 5.07813,-2.48437 1.0104,10e-6 1.92186,0.18751 2.73437,0.5625 0.81249,0.37501 1.42446,0.85418 1.83594,1.4375 0.41144,0.58335 0.69269,1.22918 0.84375,1.9375 0.15102,0.70834 0.22654,1.8073 0.22656,3.29687 v 9.73438 H 182.327 v -8.76563 c -2e-5,-1.73957 -0.0833,-2.84374 -0.25,-3.3125 -0.16668,-0.46873 -0.46095,-0.84113 -0.88282,-1.11718 -0.42188,-0.27603 -0.95053,-0.41405 -1.58593,-0.41407 -0.72918,2e-5 -1.38022,0.1771 -1.95313,0.53125 -0.57292,0.35418 -0.99219,0.88804 -1.25781,1.60157 -0.26563,0.71355 -0.39845,1.76823 -0.39844,3.16406 v 8.3125 h -4.39062 V 366.0488 Z"
           id="path4285" />
      </g>
      <g
         id="text3689-8-5-15-1-22-6"
         style="font-style:normal;font-variant:normal;font-weight:bold;font-stretch:normal;font-size:32px;line-height:125%;font-family:Arial;-inkscape-font-specification:'Arial Bold';text-align:start;writing-mode:lr-tb;text-anchor:start;fill:#000000;fill-opacity:1;stroke:none"
         transform="translate(-4.079815)">
        <path
           d="m 406.2973,374.11877 -4.32812,0.78125 c -0.14585,-0.86457 -0.47658,-1.51561 -0.99219,-1.95312 -0.51564,-0.43749 -1.18491,-0.65624 -2.00781,-0.65625 -1.09376,10e-6 -1.96616,0.37762 -2.61719,1.13281 -0.65105,0.75522 -0.97657,2.01824 -0.97656,3.78906 -10e-6,1.96876 0.33072,3.35938 0.99218,4.17188 0.66146,0.8125 1.54948,1.21875 2.66407,1.21875 0.83332,0 1.51561,-0.23698 2.04687,-0.71094 0.53124,-0.47395 0.90624,-1.28906 1.125,-2.44531 l 4.3125,0.73437 c -0.44793,1.97917 -1.30731,3.47396 -2.57812,4.48438 -1.27085,1.01042 -2.97397,1.51562 -5.10938,1.51562 -2.42709,0 -4.36198,-0.76562 -5.80469,-2.29687 -1.44271,-1.53125 -2.16406,-3.65104 -2.16406,-6.35938 0,-2.73957 0.72396,-4.87238 2.17188,-6.39843 1.44791,-1.52603 3.40624,-2.28905 5.875,-2.28907 2.02082,2e-5 3.62759,0.43492 4.82031,1.30469 1.19269,0.86981 2.04946,2.19533 2.57031,3.97656 z"
           id="path4282" />
      </g>
      <path
         d="m 465.14386,377.59405 -7.27013,0 7.27013,0.006 z"
         id="rect4388-0-3-6-2-7-0-9"
         style="fill:none;stroke:#000000;stroke-width:1.99587;stroke-linecap:round;stroke-linejoin:round;stroke-miterlimit:4;stroke-dasharray:none;stroke-dashoffset:0;stroke-opacity:1"
         sodipodi:nodetypes="cccc" />
      <path
         d="m 442.18277,493.73092 11.7525,-4.2473 -11.3742,-4.7759 2.1644,4.6018 -2.5427,4.4214 z"
         id="path2556-1-6-4-9-7-0-2-87"
         style="fill:#000000;fill-opacity:1;fill-rule:evenodd;stroke:#000000;stroke-width:1.93625712;stroke-linecap:round;stroke-linejoin:miter;stroke-miterlimit:10;stroke-opacity:1;stroke-dasharray:none" />
      <path
         d="m 98.33515,489.09929 -190.670308,0 190.670308,5.2e-4 0,-5.2e-4 z"
         id="rect4388-0-3-6-2-7-7"
         style="fill:none;stroke:#000000;stroke-width:2.00147271;stroke-linecap:round;stroke-linejoin:round;stroke-miterlimit:4;stroke-opacity:1;stroke-dasharray:none;stroke-dashoffset:0" />
      <path
         d="m 447.478,489.09929 -190.67029,0 190.67029,5.2e-4 0,-5.2e-4 z"
         id="rect4388-0-3-6-2-7-7-9"
         style="fill:none;stroke:#000000;stroke-width:2.00147271;stroke-linecap:round;stroke-linejoin:round;stroke-miterlimit:4;stroke-opacity:1;stroke-dasharray:none;stroke-dashoffset:0" />
      <path
         d="m -84.11602,493.29024 -11.7525,-4.2473 11.3742,-4.7759 -2.1644,4.6018 2.5427,4.4214 z"
         id="path2556-1-6-4-9-7-0-2-87-5"
         style="fill:#000000;fill-opacity:1;fill-rule:evenodd;stroke:#000000;stroke-width:1.93625712;stroke-linecap:round;stroke-linejoin:miter;stroke-miterlimit:10;stroke-opacity:1;stroke-dasharray:none" />
      <g
         id="g1645"
         style="font-style:normal;font-variant:normal;font-weight:normal;font-stretch:normal;font-size:28px;line-height:125%;font-family:Arial;-inkscape-font-specification:Arial;text-align:start;writing-mode:lr-tb;text-anchor:start;fill:#000000;fill-opacity:1;stroke:none"
         transform="translate(-218.75225)">
        <text
           xml:space="preserve"
           style="font-size:26.1959px;font-family:sans-serif;-inkscape-font-specification:sans-serif;text-align:center;text-anchor:middle;fill:#ffffff;stroke-width:1.15699;stroke-linecap:square"
           x="177.43478"
           y="417.42764"
           id="text1643"><tspan
             sodipodi:role="line"
             style="font-size:26.1959px;fill:#000000;fill-opacity:1;stroke-width:1.15698"
             x="177.43478"
             y="417.42764"
             id="tspan1641">1-5 aa</tspan></text>
        <text
           xml:space="preserve"
           style="font-size:26.1959px;font-family:sans-serif;-inkscape-font-specification:sans-serif;text-align:center;text-anchor:middle;fill:#ffffff;stroke-width:1.15699;stroke-linecap:square"
           x="613.42432"
           y="417.42764"
           id="text1651"><tspan
             sodipodi:role="line"
             style="font-size:26.1959px;fill:#000000;fill-opacity:1;stroke-width:1.15698"
             x="613.42432"
             y="417.42764"
             id="tspan1649">3-7 aa</tspan></text>
        <text
           xml:space="preserve"
           style="font-size:26.1959px;font-family:sans-serif;-inkscape-font-specification:sans-serif;text-align:center;text-anchor:middle;fill:#ffffff;stroke-width:1.15699;stroke-linecap:square"
           x="613.42432"
           y="317.11618"
           id="text1816"><tspan
             sodipodi:role="line"
             style="font-size:26.1959px;fill:#000000;fill-opacity:1;stroke-width:1.15698"
             x="613.42432"
             y="317.11618"
             id="tspan1814">polar</tspan><tspan
             sodipodi:role="line"
             style="font-size:26.1959px;fill:#000000;fill-opacity:1;stroke-width:1.15698"
             x="613.42432"
             y="352.11618"
             id="tspan1818">uncharged</tspan></text>
      </g>
      <text
         xml:space="preserve"
         style="font-size:30.5619px;font-family:sans-serif;-inkscape-font-specification:sans-serif;text-align:center;text-anchor:middle;fill:#000000;fill-opacity:1;stroke-width:1.15699;stroke-linecap:square"
         x="549.27271"
         y="385.97653"
         id="text1655"><tspan
           sodipodi:role="line"
           id="tspan1653"
           style="font-style:normal;font-variant:normal;font-weight:bold;font-stretch:normal;font-size:30.5619px;font-family:sans-serif;-inkscape-font-specification:'sans-serif Bold';stroke-width:1.15698"
           x="549.27271"
           y="385.97653">o</tspan></text>
      <g
         id="g1812"
         style="font-style:normal;font-variant:normal;font-weight:normal;font-stretch:normal;font-size:28px;line-height:125%;font-family:Arial;-inkscape-font-specification:Arial;text-align:start;writing-mode:lr-tb;text-anchor:start;fill:#000000;fill-opacity:1;stroke:none"
         transform="translate(-5.5745096,-61.741911)">
        <text
           xml:space="preserve"
           style="font-size:26.1959px;font-family:sans-serif;-inkscape-font-specification:sans-serif;text-align:center;text-anchor:middle;fill:#ffffff;stroke-width:1.15699;stroke-linecap:square"
           x="179.62347"
           y="414.44012"
           id="text1810"><tspan
             sodipodi:role="line"
             style="font-size:26.1959px;fill:#000000;fill-opacity:1;stroke-width:1.15698"
             x="179.62347"
             y="414.44012"
             id="tspan1808">hydrophobic</tspan></text>
      </g>
      <text
         xml:space="preserve"
         style="font-size:17.4639px;font-family:sans-serif;-inkscape-font-specification:sans-serif;text-align:center;text-anchor:middle;fill:#000000;fill-opacity:1;stroke-width:1.15699;stroke-linecap:square"
         x="648.32501"
         y="382.47501"
         id="text438"><tspan
           sodipodi:role="line"
           id="tspan436"
           style="font-style:normal;font-variant:normal;font-weight:bold;font-stretch:normal;font-size:17.4639px;font-family:sans-serif;-inkscape-font-specification:'sans-serif Bold';stroke-width:1.15698"
           x="648.32501"
           y="382.47501">(mature protein)</tspan></text>
    </g>
  </g>
</svg>
