<?xml version="1.0" encoding="UTF-8" standalone="no"?>
<!-- Created with Inkscape (http://www.inkscape.org/) -->

<svg
   version="1.1"
   id="svg132"
   width="810.50232"
   height="950.95758"
   viewBox="0 0 405.25116 475.47878"
   sodipodi:docname="nested-clades_alt.svg"
   inkscape:version="1.2.2 (732a01da63, 2022-12-09)"
   xmlns:inkscape="http://www.inkscape.org/namespaces/inkscape"
   xmlns:sodipodi="http://sodipodi.sourceforge.net/DTD/sodipodi-0.dtd"
   xmlns="http://www.w3.org/2000/svg"
   xmlns:svg="http://www.w3.org/2000/svg">
  <defs
     id="defs136" />
  <sodipodi:namedview
     id="namedview134"
     pagecolor="#ffffff"
     bordercolor="#000000"
     borderopacity="0.25"
     inkscape:showpageshadow="2"
     inkscape:pageopacity="0.0"
     inkscape:pagecheckerboard="0"
     inkscape:deskcolor="#d1d1d1"
     showgrid="false"
     inkscape:zoom="1.4142135"
     inkscape:cx="188.09041"
     inkscape:cy="470.22603"
     inkscape:window-width="3840"
     inkscape:window-height="2054"
     inkscape:window-x="-11"
     inkscape:window-y="-11"
     inkscape:window-maximized="1"
     inkscape:current-layer="g13229" />
  <g
     inkscape:groupmode="layer"
     inkscape:label="Image"
     id="g138"
     transform="translate(-8.7419859,-2.4722719)">
    <g
       id="g2303"
       inkscape:label="Bird"
       style="display:inline"
       transform="translate(89.155593,1.5)">
      <path
         style="fill:#dc9733;fill-opacity:1;stroke:#000000;stroke-width:0.120945;stroke-dasharray:none;stroke-opacity:1"
         d="m 135.46619,65.495766 v 9.954737 l -0.57452,0.243068 -0.92808,0.342505 -0.3646,0.53033 0.0221,0.60767 0.37565,-0.408796 c 0,0 0.7955,-0.09944 0.87284,-0.09944 0.0773,0 2.33124,0.05524 2.33124,0.05524 l 0.47509,0.05524 0.53033,0.452991 -0.0884,-0.83969 -1.138,-0.320407 -0.66291,-0.364602 V 65.584154 Z"
         id="path1334" />
      <path
         style="fill:#d38d5f;fill-opacity:1;stroke:#000000;stroke-width:0.120945;stroke-dasharray:none;stroke-opacity:1"
         d="m 128.14969,53.476887 c -0.009,-0.03668 -0.86081,-2.372345 -0.78667,-2.44955 l 0.53825,-1.209903 1.16781,-0.673521 0.97228,-0.198874 1.30372,-0.06629 0.88389,0.0221 0.61872,0.265165 0.53033,0.640816 0.57452,1.21534 0.30936,0.994369 0.37565,0.839689 0.37565,0.994369 0.81759,0.441941 1.23744,0.243068 1.56889,1.104855 1.5468,1.370019 0.81759,1.347922 1.5026,2.253903 1.21534,1.568893 1.14905,1.303729 1.10486,1.215339 1.54679,1.193243 0.50824,0.640816 c 0,0 -0.0884,0.574524 -0.17678,0.574524 -0.0884,0 -0.33257,0.07789 -0.33257,0.07789 l -0.56917,-0.196533 -0.60086,-0.190716 -1.25954,-0.53033 -1.41421,-0.883884 -1.29268,0.441939 -1.21535,0.110488 -3.54657,0.0442 -2.5826,-0.331457 -1.31202,-0.574524 -1.43354,-0.917029 -1.26782,-1.027515 -1.22363,-1.535747 -1.0579,-1.82301 -0.46127,-1.602039 -0.21821,-2.154466 z"
         id="path1393"
         sodipodi:nodetypes="ccccccccccccccccccccccccsccccccccccccccccc" />
      <path
         style="fill:#784421;fill-opacity:1;stroke:#000000;stroke-width:0.120945;stroke-dasharray:none;stroke-opacity:1"
         d="m 134.19561,58.966076 0.20992,0.68501 0.51928,0.696058 0.90598,0.883884 1.04961,0.729204 1.04962,0.497184 1.10485,0.430893 1.01647,0.464039 0.7071,0.45299 0.7734,0.519282 0.83969,0.585573 0.66363,0.316369 0.66015,0.17187 0.40625,0.242188 0.82813,0.507812 0.39062,0.234375 0.63281,0.234375 0.44532,0.179688 0.54687,0.195312 0.58203,0.22656 0.73047,0.167969 -0.20312,-0.855469 -0.5,-0.617188 -1.53907,-1.179687 -2.25,-2.453125 -3.3125,-4.804688 -0.26562,-0.523437 -1.32813,-1.117188"
         id="path1391"
         sodipodi:nodetypes="cccccccccccccccccccccccccccc" />
      <path
         style="display:inline;fill:#dc9733;fill-opacity:1;stroke:#000000;stroke-width:0.120945;stroke-dasharray:none;stroke-opacity:1"
         d="m 128.12235,53.476887 -0.64426,-0.178725 -1.41421,-0.110486 -2.96101,-0.464039 0.37565,-0.508233 1.14905,-0.685009 1.65728,-0.419845 1.12695,-0.04419 c 0.0155,-0.003 0.71055,2.410527 0.71055,2.410527 z"
         id="path1060"
         sodipodi:nodetypes="ccccccccc" />
      <circle
         style="fill:#000000;fill-opacity:1;stroke:#000000;stroke-width:0.120945;stroke-dasharray:none;stroke-opacity:1"
         id="path2140"
         cx="130.11523"
         cy="51.244141"
         r="0.42773438" />
    </g>
    <g
       id="g2315"
       inkscape:label="Bird"
       transform="translate(52.209264,12.106602)">
      <path
         style="fill:#dc9733;fill-opacity:1;stroke:#000000;stroke-width:0.120945;stroke-dasharray:none;stroke-opacity:1"
         d="m 135.46619,65.495766 v 9.954737 l -0.57452,0.243068 -0.92808,0.342505 -0.3646,0.53033 0.0221,0.60767 0.37565,-0.408796 c 0,0 0.7955,-0.09944 0.87284,-0.09944 0.0773,0 2.33124,0.05524 2.33124,0.05524 l 0.47509,0.05524 0.53033,0.452991 -0.0884,-0.83969 -1.138,-0.320407 -0.66291,-0.364602 V 65.584154 Z"
         id="path2305" />
      <path
         style="fill:#ffffff;fill-opacity:1;stroke:#000000;stroke-width:0.120945;stroke-dasharray:none;stroke-opacity:1"
         d="m 128.14969,53.476887 c -0.009,-0.03668 -0.86081,-2.372345 -0.78667,-2.44955 l 0.53825,-1.209903 1.16781,-0.673521 0.97228,-0.198874 1.30372,-0.06629 0.88389,0.0221 0.61872,0.265165 0.53033,0.640816 0.57452,1.21534 0.30936,0.994369 0.37565,0.839689 0.37565,0.994369 0.81759,0.441941 1.23744,0.243068 1.56889,1.104855 1.5468,1.370019 0.81759,1.347922 1.5026,2.253903 1.21534,1.568893 1.14905,1.303729 1.10486,1.215339 1.54679,1.193243 0.50824,0.640816 c 0,0 -0.0884,0.574524 -0.17678,0.574524 -0.0884,0 -0.33257,0.07789 -0.33257,0.07789 l -0.56917,-0.196533 -0.60086,-0.190716 -1.25954,-0.53033 -1.41421,-0.883884 -1.29268,0.441939 -1.21535,0.110488 -3.54657,0.0442 -2.5826,-0.331457 -1.31202,-0.574524 -1.43354,-0.917029 -1.26782,-1.027515 -1.22363,-1.535747 -1.0579,-1.82301 -0.46127,-1.602039 -0.21821,-2.154466 z"
         id="path2307"
         sodipodi:nodetypes="ccccccccccccccccccccccccsccccccccccccccccc" />
      <path
         style="fill:#ffffff;fill-opacity:1;stroke:#000000;stroke-width:0.120945;stroke-dasharray:none;stroke-opacity:1"
         d="m 134.19561,58.966076 0.20992,0.68501 0.51928,0.696058 0.90598,0.883884 1.04961,0.729204 1.04962,0.497184 1.10485,0.430893 1.01647,0.464039 0.7071,0.45299 0.7734,0.519282 0.83969,0.585573 0.66363,0.316369 0.66015,0.17187 0.40625,0.242188 0.82813,0.507812 0.39062,0.234375 0.63281,0.234375 0.44532,0.179688 0.54687,0.195312 0.58203,0.22656 0.73047,0.167969 -0.20312,-0.855469 -0.5,-0.617188 -1.53907,-1.179687 -2.25,-2.453125 -3.3125,-4.804688 -0.26562,-0.523437 -1.32813,-1.117188"
         id="path2309"
         sodipodi:nodetypes="cccccccccccccccccccccccccccc" />
      <path
         style="display:inline;fill:#dc9733;fill-opacity:1;stroke:#000000;stroke-width:0.120945;stroke-dasharray:none;stroke-opacity:1"
         d="m 128.12235,53.476887 -0.64426,-0.178725 -1.41421,-0.110486 -2.96101,-0.464039 0.37565,-0.508233 1.14905,-0.685009 1.65728,-0.419845 1.12695,-0.04419 c 0.0155,-0.003 0.71055,2.410527 0.71055,2.410527 z"
         id="path2311"
         sodipodi:nodetypes="ccccccccc" />
      <circle
         style="fill:#000000;fill-opacity:1;stroke:#000000;stroke-width:0.120945;stroke-dasharray:none;stroke-opacity:1"
         id="circle2313"
         cx="130.11523"
         cy="51.244141"
         r="0.42773438" />
    </g>
    <g
       id="g2327"
       inkscape:label="Bird"
       transform="translate(17.405593,68)">
      <path
         style="fill:#dc9733;fill-opacity:1;stroke:#000000;stroke-width:0.120945;stroke-dasharray:none;stroke-opacity:1"
         d="m 135.46619,65.495766 v 9.954737 l -0.57452,0.243068 -0.92808,0.342505 -0.3646,0.53033 0.0221,0.60767 0.37565,-0.408796 c 0,0 0.7955,-0.09944 0.87284,-0.09944 0.0773,0 2.33124,0.05524 2.33124,0.05524 l 0.47509,0.05524 0.53033,0.452991 -0.0884,-0.83969 -1.138,-0.320407 -0.66291,-0.364602 V 65.584154 Z"
         id="path2317" />
      <path
         style="fill:#ffffff;fill-opacity:1;stroke:#000000;stroke-width:0.120945;stroke-dasharray:none;stroke-opacity:1"
         d="m 128.14969,53.476887 c -0.009,-0.03668 -0.86081,-2.372345 -0.78667,-2.44955 l 0.53825,-1.209903 1.16781,-0.673521 0.97228,-0.198874 1.30372,-0.06629 0.88389,0.0221 0.70466,0.226103 0.69439,0.570503 0.56671,1.035653 0.57498,1.088119 0.26628,0.886564 0.58658,0.666244 0.73166,0.426316 1.20566,0.525337 1.86369,1.19553 0.76034,1.489266 0.81759,1.347922 1.5026,2.253903 1.21534,1.568893 1.14905,1.303729 1.10486,1.215339 1.54679,1.193243 0.50824,0.640816 c 0,0 -0.0884,0.574524 -0.17678,0.574524 -0.0884,0 -0.33257,0.07789 -0.33257,0.07789 l -0.56917,-0.196533 -0.60086,-0.190716 -1.25954,-0.53033 -1.41421,-0.883884 -1.29268,0.441939 -1.21535,0.110488 -3.54657,0.0442 -2.5826,-0.331457 -1.31202,-0.574524 -1.43354,-0.917029 -1.26782,-1.027515 -1.22363,-1.535747 -1.0579,-1.82301 -0.46127,-1.602039 -0.21821,-2.154466 z"
         id="path2319"
         sodipodi:nodetypes="ccccccccccccccccccccccccsccccccccccccccccc" />
      <path
         style="fill:#ffffff;fill-opacity:1;stroke:#000000;stroke-width:0.120945;stroke-dasharray:none;stroke-opacity:1"
         d="m 134.19561,58.966076 0.20992,0.68501 0.51928,0.696058 0.90598,0.883884 1.04961,0.729204 1.04962,0.497184 1.10485,0.430893 1.01647,0.464039 0.7071,0.45299 0.7734,0.519282 0.83969,0.585573 0.66363,0.316369 0.66015,0.17187 0.40625,0.242188 0.21876,0.273437 0.70312,0.578125 1.16405,0.84375 2.91407,2.054688 4.82812,3.195312 1.11328,0.648435 0.98047,0.152344 0.0625,-0.699219 -0.25,-0.929688 -8.57032,-7.242187 -2.60938,-2.5 -3.07812,-4.085938 -1.10937,-1.320312 -1.17551,-0.950837"
         id="path2321"
         sodipodi:nodetypes="cccccccccccccccccccccccccccc" />
      <path
         style="display:inline;fill:#dc9733;fill-opacity:1;stroke:#000000;stroke-width:0.120945;stroke-dasharray:none;stroke-opacity:1"
         d="m 128.12235,53.476887 -0.64426,-0.178725 -1.41421,-0.110486 -2.96101,-0.464039 0.37565,-0.508233 1.14905,-0.685009 1.65728,-0.419845 1.12695,-0.04419 c 0.0155,-0.003 0.71055,2.410527 0.71055,2.410527 z"
         id="path2323"
         sodipodi:nodetypes="ccccccccc" />
      <circle
         style="fill:#000000;fill-opacity:1;stroke:#000000;stroke-width:0.120945;stroke-dasharray:none;stroke-opacity:1"
         id="circle2325"
         cx="130.11523"
         cy="51.244141"
         r="0.42773438" />
    </g>
    <g
       id="g2339"
       inkscape:label="Bird"
       transform="translate(29.655592,145.375)">
      <path
         style="fill:#dc9733;fill-opacity:1;stroke:#000000;stroke-width:0.120945;stroke-dasharray:none;stroke-opacity:1"
         d="m 135.46619,65.495766 v 9.954737 l -0.57452,0.243068 -0.92808,0.342505 -0.3646,0.53033 0.0221,0.60767 0.37565,-0.408796 c 0,0 0.7955,-0.09944 0.87284,-0.09944 0.0773,0 2.33124,0.05524 2.33124,0.05524 l 0.47509,0.05524 0.53033,0.452991 -0.0884,-0.83969 -1.138,-0.320407 -0.66291,-0.364602 V 65.584154 Z"
         id="path2329" />
      <path
         style="fill:#ffffff;fill-opacity:1;stroke:#000000;stroke-width:0.120945;stroke-dasharray:none;stroke-opacity:1"
         d="m 128.14969,53.476887 c -0.009,-0.03668 -0.86081,-2.372345 -0.78667,-2.44955 l 0.53825,-1.209903 1.16781,-0.673521 0.97228,-0.198874 1.30372,-0.06629 0.88389,0.0221 0.70466,0.226103 0.69439,0.570503 0.56671,1.035653 0.57498,1.088119 0.26628,0.886564 0.58658,0.666244 0.73166,0.426316 1.20566,0.525337 1.86369,1.19553 0.76034,1.489266 0.81759,1.347922 1.5026,2.253903 1.21534,1.568893 1.14905,1.303729 1.10486,1.215339 1.54679,1.193243 0.50824,0.640816 c 0,0 -0.0884,0.574524 -0.17678,0.574524 -0.0884,0 -0.33257,0.07789 -0.33257,0.07789 l -0.56917,-0.196533 -0.60086,-0.190716 -1.25954,-0.53033 -1.41421,-0.883884 -1.29268,0.441939 -1.21535,0.110488 -3.54657,0.0442 -2.5826,-0.331457 -1.31202,-0.574524 -1.43354,-0.917029 -1.26782,-1.027515 -1.22363,-1.535747 -1.0579,-1.82301 -0.46127,-1.602039 -0.21821,-2.154466 z"
         id="path2331"
         sodipodi:nodetypes="ccccccccccccccccccccccccsccccccccccccccccc" />
      <path
         style="fill:#ffffff;fill-opacity:1;stroke:#000000;stroke-width:0.120945;stroke-dasharray:none;stroke-opacity:1"
         d="m 134.19561,58.966076 0.20992,0.68501 0.51928,0.696058 0.90598,0.883884 1.04961,0.729204 1.04962,0.497184 1.10485,0.430893 1.01647,0.464039 0.7071,0.45299 0.7734,0.519282 0.83969,0.585573 0.66363,0.316369 0.66015,0.17187 0.40625,0.242188 0.21876,0.273437 0.70312,0.578125 1.16405,0.84375 2.91407,2.054688 4.82812,3.195312 1.11328,0.648435 0.98047,0.152344 0.0625,-0.699219 -0.25,-0.929688 -8.57032,-7.242187 -2.60938,-2.5 -3.07812,-4.085938 -1.10937,-1.320312 -1.17551,-0.950837"
         id="path2333"
         sodipodi:nodetypes="cccccccccccccccccccccccccccc" />
      <path
         style="display:inline;fill:#dc9733;fill-opacity:1;stroke:#000000;stroke-width:0.120945;stroke-dasharray:none;stroke-opacity:1"
         d="m 128.12235,53.476887 -0.64426,-0.178725 -1.41421,-0.110486 -3.29799,-0.513757 1.03304,-0.823117 0.88941,-0.574523 1.54127,-0.42537 1.23191,-0.05524 c 0.0155,-0.003 0.66083,2.681216 0.66083,2.681216 z"
         id="path2335"
         sodipodi:nodetypes="ccccccccc" />
      <circle
         style="fill:#000000;fill-opacity:1;stroke:#000000;stroke-width:0.120945;stroke-dasharray:none;stroke-opacity:1"
         id="circle2337"
         cx="130.11523"
         cy="51.244141"
         r="0.42773438" />
      <path
         style="display:inline;fill:#dc9733;fill-opacity:1;stroke:#000000;stroke-width:0.120945;stroke-dasharray:none;stroke-opacity:1"
         d="m 128.10539,53.420068 -0.59361,0.307645 -1.3611,0.399522 -3.12135,1.182303 1.18049,0.592588 0.9887,0.378926 1.59584,0.09865 1.21686,-0.199785 c 0.0158,-3.08e-4 0.0942,-2.759846 0.0942,-2.759846 z"
         id="path2353"
         sodipodi:nodetypes="ccccccccc" />
    </g>
    <g
       id="g2351"
       inkscape:label="Bird"
       transform="translate(-19.594407,136.75)">
      <path
         style="fill:#dc9733;fill-opacity:1;stroke:#000000;stroke-width:0.120945;stroke-dasharray:none;stroke-opacity:1"
         d="m 135.46619,65.495766 v 9.954737 l -0.57452,0.243068 -0.92808,0.342505 -0.3646,0.53033 0.0221,0.60767 0.37565,-0.408796 c 0,0 0.7955,-0.09944 0.87284,-0.09944 0.0773,0 2.33124,0.05524 2.33124,0.05524 l 0.47509,0.05524 0.53033,0.452991 -0.0884,-0.83969 -1.138,-0.320407 -0.66291,-0.364602 V 65.584154 Z"
         id="path2341" />
      <path
         style="fill:#ffffff;fill-opacity:1;stroke:#000000;stroke-width:0.120945;stroke-dasharray:none;stroke-opacity:1"
         d="m 128.14969,53.476887 c -0.009,-0.03668 -0.86081,-2.372345 -0.78667,-2.44955 l 0.53825,-1.209903 1.16781,-0.673521 0.97228,-0.198874 1.30372,-0.06629 0.88389,0.0221 0.70466,0.226103 0.69439,0.570503 0.56671,1.035653 0.57498,1.088119 0.26628,0.886564 0.58658,0.666244 0.73166,0.426316 1.20566,0.525337 1.86369,1.19553 0.76034,1.489266 0.81759,1.347922 1.5026,2.253903 1.21534,1.568893 1.14905,1.303729 1.10486,1.215339 1.54679,1.193243 0.50824,0.640816 c 0,0 -0.0884,0.574524 -0.17678,0.574524 -0.0884,0 -0.33257,0.07789 -0.33257,0.07789 l -0.56917,-0.196533 -0.60086,-0.190716 -1.25954,-0.53033 -1.41421,-0.883884 -1.29268,0.441939 -1.21535,0.110488 -3.54657,0.0442 -2.5826,-0.331457 -1.31202,-0.574524 -1.43354,-0.917029 -1.26782,-1.027515 -1.22363,-1.535747 -1.0579,-1.82301 -0.46127,-1.602039 -0.21821,-2.154466 z"
         id="path2343"
         sodipodi:nodetypes="ccccccccccccccccccccccccsccccccccccccccccc" />
      <path
         style="fill:#ffffff;fill-opacity:1;stroke:#000000;stroke-width:0.120945;stroke-dasharray:none;stroke-opacity:1"
         d="m 134.19561,58.966076 0.20992,0.68501 0.51928,0.696058 0.90598,0.883884 1.04961,0.729204 1.04962,0.497184 1.10485,0.430893 1.01647,0.464039 0.7071,0.45299 0.7734,0.519282 0.83969,0.585573 0.66363,0.316369 0.66015,0.17187 0.40625,0.242188 0.21876,0.273437 0.70312,0.578125 1.16405,0.84375 2.91407,2.054688 4.82812,3.195312 1.11328,0.648435 0.98047,0.152344 0.0625,-0.699219 -0.25,-0.929688 -8.57032,-7.242187 -2.60938,-2.5 -3.07812,-4.085938 -1.10937,-1.320312 -1.17551,-0.950837"
         id="path2345"
         sodipodi:nodetypes="cccccccccccccccccccccccccccc" />
      <path
         style="display:inline;fill:#dc9733;fill-opacity:1;stroke:#000000;stroke-width:0.120945;stroke-dasharray:none;stroke-opacity:1"
         d="m 127.7786,52.461262 -0.59738,9.63e-4 -1.05484,-0.133925 -1.84767,-0.262494 -2.60549,-0.184368 -1.40237,-0.184369 -1.50392,-0.278119 3.81315,-0.484796 1.58656,-0.09126 1.81352,-0.09953 1.46289,0.08862 c 0.0155,-0.003 0.33555,1.629277 0.33555,1.629276 z"
         id="path2347"
         sodipodi:nodetypes="ccccccccccccc" />
      <circle
         style="fill:#000000;fill-opacity:1;stroke:#000000;stroke-width:0.120945;stroke-dasharray:none;stroke-opacity:1"
         id="circle2349"
         cx="130.11523"
         cy="51.244141"
         r="0.42773438" />
    </g>
    <g
       id="g2365"
       inkscape:label="Bird"
       transform="translate(97.209264,71.231602)">
      <path
         style="fill:#dc9733;fill-opacity:1;stroke:#000000;stroke-width:0.120945;stroke-dasharray:none;stroke-opacity:1"
         d="m 135.46619,69.230174 v 9.954737 l -0.57452,0.243068 -0.92808,0.342505 -0.3646,0.53033 0.0221,0.60767 0.37565,-0.408796 c 0,0 0.7955,-0.09944 0.87284,-0.09944 0.0773,0 2.33124,0.05524 2.33124,0.05524 l 0.47509,0.05524 0.53033,0.452991 -0.0884,-0.83969 -1.138,-0.320407 -0.66291,-0.364602 V 69.318562 Z"
         id="path2355" />
      <path
         style="fill:#ffffff;fill-opacity:1;stroke:#000000;stroke-width:0.120945;stroke-dasharray:none;stroke-opacity:1"
         d="m 127.70775,53.83044 c -0.009,-0.03668 -0.41887,-2.725898 -0.34473,-2.803103 l 0.53825,-1.209903 1.16781,-0.673521 0.97228,-0.198874 1.30372,-0.06629 0.88389,0.0221 0.61872,0.265165 0.53033,0.640816 0.57452,1.21534 0.30936,0.994369 0.37565,0.839689 0.37565,0.994369 0.81759,0.441941 1.23744,0.243068 1.56889,1.104855 1.5468,1.370019 0.81759,1.347922 1.5026,2.253903 1.21534,1.568893 1.14905,1.303729 1.10486,1.215339 1.54679,1.193243 0.50824,0.640816 c 0,0 -0.0884,0.574524 -0.17678,0.574524 -0.0884,0 -0.33257,0.07789 -0.33257,0.07789 l -0.56917,-0.196533 -0.60086,-0.190716 -1.25954,-0.53033 -0.15468,1.325825 -1.33687,1.259531 -2.96102,1.281634 -1.93348,0.375656 -2.27324,0.132582 -2.2622,0.08839 -2.11855,-0.784446 -2.01912,-1.734622 -1.95283,-2.353339 -0.92532,-3.104641 -0.2403,-3.170932 0.29002,-3.391903 z"
         id="path2357"
         sodipodi:nodetypes="ccccccccccccccccccccccccsccccccccccccccccc" />
      <path
         style="fill:#ffffff;fill-opacity:1;stroke:#000000;stroke-width:0.120945;stroke-dasharray:none;stroke-opacity:1"
         d="m 134.19561,58.966076 0.20992,0.68501 0.51928,0.696058 0.90598,0.883884 1.04961,0.729204 1.04962,0.497184 1.10485,0.430893 1.01647,0.464039 0.7071,0.45299 0.83969,1.049612 0.88389,1.005418 1.12766,1.133961 0.90969,0.61025 1.35865,0.676318 1.21718,0.342409 0.79542,0.392313 0.75,0.226563 0.86719,0.234375 0.42187,-0.05469 0.30078,-0.546877 -0.69921,-0.980469 -1.30469,-1.261719 -0.67187,-0.71875 -1.53907,-1.179687 -2.25,-2.453125 -3.3125,-4.804688 -0.26562,-0.523437 -1.32813,-1.117188"
         id="path2359"
         sodipodi:nodetypes="cccccccccccccccccccccccccccc" />
      <path
         style="display:inline;fill:#dc9733;fill-opacity:1;stroke:#000000;stroke-width:0.120945;stroke-dasharray:none;stroke-opacity:1"
         d="m 128.12235,53.476887 -0.64426,-0.178725 -1.41421,-0.110486 -2.96101,-0.464039 0.37565,-0.508233 1.14905,-0.685009 1.65728,-0.419845 1.12695,-0.04419 c 0.0155,-0.003 0.71055,2.410527 0.71055,2.410527 z"
         id="path2361"
         sodipodi:nodetypes="ccccccccc" />
      <circle
         style="fill:#000000;fill-opacity:1;stroke:#000000;stroke-width:0.120945;stroke-dasharray:none;stroke-opacity:1"
         id="circle2363"
         cx="130.11523"
         cy="51.244141"
         r="0.42773438" />
    </g>
    <g
       id="g2377"
       inkscape:label="Bird"
       transform="translate(114.70926,107.3566)">
      <path
         style="fill:#dc9733;fill-opacity:1;stroke:#000000;stroke-width:0.120945;stroke-dasharray:none;stroke-opacity:1"
         d="m 135.46619,69.230174 v 9.954737 l -0.57452,0.243068 -0.92808,0.342505 -0.3646,0.53033 0.0221,0.60767 0.37565,-0.408796 c 0,0 0.7955,-0.09944 0.87284,-0.09944 0.0773,0 2.33124,0.05524 2.33124,0.05524 l 0.47509,0.05524 0.53033,0.452991 -0.0884,-0.83969 -1.138,-0.320407 -0.66291,-0.364602 V 69.318562 Z"
         id="path2367" />
      <path
         style="fill:#ffffff;fill-opacity:1;stroke:#000000;stroke-width:0.120945;stroke-dasharray:none;stroke-opacity:1"
         d="m 127.70775,53.83044 c -0.009,-0.03668 -0.41887,-2.725898 -0.34473,-2.803103 l 0.53825,-1.209903 1.16781,-0.673521 0.97228,-0.198874 1.30372,-0.06629 0.88389,0.0221 0.61872,0.265165 0.53033,0.640816 0.57452,1.21534 0.30936,0.994369 0.37565,0.839689 0.37565,0.994369 0.81759,0.441941 1.23744,0.243068 1.56889,1.104855 1.5468,1.370019 0.81759,1.347922 1.5026,2.253903 1.21534,1.568893 1.14905,1.303729 1.10486,1.215339 1.54679,1.193243 0.50824,0.640816 c 0,0 -0.0884,0.574524 -0.17678,0.574524 -0.0884,0 -0.33257,0.07789 -0.33257,0.07789 l -0.56917,-0.196533 -0.60086,-0.190716 -1.25954,-0.53033 -0.15468,1.325825 -1.33687,1.259531 -2.96102,1.281634 -1.93348,0.375656 -2.27324,0.132582 -2.2622,0.08839 -2.11855,-0.784446 -2.01912,-1.734622 -1.95283,-2.353339 -0.92532,-3.104641 -0.2403,-3.170932 0.29002,-3.391903 z"
         id="path2369"
         sodipodi:nodetypes="ccccccccccccccccccccccccsccccccccccccccccc" />
      <path
         style="fill:#ffffff;fill-opacity:1;stroke:#000000;stroke-width:0.120945;stroke-dasharray:none;stroke-opacity:1"
         d="m 134.19561,58.966076 0.20992,0.68501 0.51928,0.696058 0.90598,0.883884 1.04961,0.729204 1.04962,0.497184 1.10485,0.430893 1.01647,0.464039 0.7071,0.45299 0.83969,1.049612 0.88389,1.005418 1.12766,1.133961 0.90969,0.61025 1.35865,0.676318 1.21718,0.342409 0.79542,0.392313 0.75,0.226563 0.86719,0.234375 0.42187,-0.05469 0.30078,-0.546877 -0.69921,-0.980469 -1.30469,-1.261719 -0.67187,-0.71875 -1.53907,-1.179687 -2.25,-2.453125 -3.3125,-4.804688 -0.26562,-0.523437 -1.32813,-1.117188"
         id="path2371"
         sodipodi:nodetypes="cccccccccccccccccccccccccccc" />
      <path
         style="fill:#dc2121;fill-opacity:1;stroke:#000000;stroke-width:0.120945;stroke-dasharray:none;stroke-opacity:1"
         d="m 152.46875,158.96094 -0.0859,0.42187 -0.50781,0.22656 -0.47656,0.49219 -0.0781,0.89063 0.10156,0.45312 c 0,0 0.25782,0.125 0.33594,0.13281 0.0781,0.008 0.70313,-0.0781 0.70313,-0.0781 l 0.42187,-0.0937 c 0,0 0.22656,-0.46094 0.26563,-0.48438 0.0391,-0.0234 0.38281,-0.79687 0.38281,-0.85937 0,-0.0625 -0.0859,-0.57031 -0.0859,-0.57031 l -0.16406,-0.29688 z"
         id="path2504"
         transform="translate(-25.553671,-105.8566)" />
      <path
         style="display:inline;fill:#dc9733;fill-opacity:1;stroke:#000000;stroke-width:0.120945;stroke-dasharray:none;stroke-opacity:1"
         d="m 128.12235,53.476887 -0.64426,-0.178725 -1.41421,-0.110486 -2.96101,-0.464039 0.37565,-0.508233 1.14905,-0.685009 1.65728,-0.419845 1.12695,-0.04419 c 0.0155,-0.003 0.71055,2.410527 0.71055,2.410527 z"
         id="path2373"
         sodipodi:nodetypes="ccccccccc" />
      <circle
         style="fill:#000000;fill-opacity:1;stroke:#000000;stroke-width:0.120945;stroke-dasharray:none;stroke-opacity:1"
         id="circle2375"
         cx="130.11523"
         cy="51.244141"
         r="0.42773438" />
    </g>
    <g
       id="g2389"
       inkscape:label="Bird"
       transform="translate(74.709264,127.6066)">
      <path
         style="fill:#dc9733;fill-opacity:1;stroke:#000000;stroke-width:0.120945;stroke-dasharray:none;stroke-opacity:1"
         d="m 135.46619,69.230174 v 9.954737 l -0.57452,0.243068 -0.92808,0.342505 -0.3646,0.53033 0.0221,0.60767 0.37565,-0.408796 c 0,0 0.7955,-0.09944 0.87284,-0.09944 0.0773,0 2.33124,0.05524 2.33124,0.05524 l 0.47509,0.05524 0.53033,0.452991 -0.0884,-0.83969 -1.138,-0.320407 -0.66291,-0.364602 V 69.318562 Z"
         id="path2379" />
      <path
         style="fill:#dc2121;fill-opacity:1;stroke:#000000;stroke-width:0.120945;stroke-dasharray:none;stroke-opacity:1"
         d="m 113.51274,175.90386 c -0.31841,-0.10139 -0.56039,-0.3649 -0.85074,-0.53033 -0.29196,-0.16635 -0.68859,-0.19882 -0.89493,-0.46404 -0.10916,-0.14031 -0.13491,-0.34201 -0.12154,-0.51928 0.0104,-0.13844 0.0598,-0.28533 0.15468,-0.3867 0.13394,-0.14313 0.33751,-0.21884 0.53033,-0.25412 0.17088,-0.0313 0.34578,0.0356 0.51928,0.0442 0.25383,0.0126 0.5085,0.0233 0.76235,0.0111 0.13325,-0.006 0.29279,0.0381 0.39775,-0.0442 0.21909,-0.17187 0.22244,-0.51363 0.28726,-0.78444 0.0579,-0.24168 -0.008,-0.51122 0.0884,-0.74026 0.0661,-0.15691 0.16628,-0.32543 0.32041,-0.39774 0.21674,-0.10169 0.48678,-0.0505 0.71815,0.011 0.27241,0.0725 0.53579,0.21477 0.74026,0.4088 0.16679,0.15828 0.2942,0.36668 0.3646,0.58557 0.0689,0.21432 -0.0827,0.48802 0.0442,0.67396 0.0734,0.1075 0.22388,0.15454 0.35356,0.16573 0.16734,0.0144 0.35671,-0.0255 0.48613,-0.13258 0.14214,-0.11759 0.0945,-0.38776 0.24307,-0.49718 0.17403,-0.12822 0.42465,-0.1 0.64081,-0.0994 0.20888,5.6e-4 0.42299,0.0264 0.61872,0.0994 0.17046,0.0635 0.39159,0.12039 0.46404,0.28726 0.0673,0.15503 -0.0811,0.32916 -0.0994,0.49718 -0.0207,0.19042 0.003,0.38348 -0.011,0.57453 -0.0106,0.14808 -0.14355,0.32256 -0.0553,0.44194 0.0889,0.12026 0.29797,0.0369 0.44195,0.0773 0.10666,0.03 0.23278,0.0415 0.30935,0.12153 0.10223,0.1069 0.14489,0.27194 0.14364,0.41985 -0.001,0.14096 -0.0508,0.29163 -0.14364,0.39774 -0.13122,0.15003 -0.34484,0.20327 -0.53033,0.27622 -0.1031,0.0406 -0.21022,0.0768 -0.3204,0.0884 -1.86017,0.19614 -3.81935,0.23608 -5.60166,-0.33144 z"
         id="path2445"
         transform="translate(14.446329,-126.1066)"
         sodipodi:nodetypes="ssssssssssssssssssssssssssssssss" />
      <path
         style="fill:#ffffff;fill-opacity:1;stroke:#000000;stroke-width:0.120945;stroke-dasharray:none;stroke-opacity:1"
         d="m 127.70775,53.83044 c -0.009,-0.03668 -0.41887,-2.725898 -0.34473,-2.803103 l 0.53825,-1.209903 1.16781,-0.673521 0.97228,-0.198874 1.30372,-0.06629 0.88389,0.0221 0.61872,0.265165 0.53033,0.640816 0.57452,1.21534 0.30936,0.994369 0.37565,0.839689 0.37565,0.994369 0.81759,0.441941 1.23744,0.243068 1.56889,1.104855 1.5468,1.370019 0.81759,1.347922 1.5026,2.253903 1.21534,1.568893 1.14905,1.303729 1.10486,1.215339 1.54679,1.193243 0.50824,0.640816 c 0,0 -0.0884,0.574524 -0.17678,0.574524 -0.0884,0 -0.33257,0.07789 -0.33257,0.07789 l -0.56917,-0.196533 -0.60086,-0.190716 -1.25954,-0.53033 -0.15468,1.325825 -1.33687,1.259531 -2.96102,1.281634 -1.93348,0.375656 -2.27324,0.132582 -2.2622,0.08839 -2.11855,-0.784446 -2.01912,-1.734622 -1.95283,-2.353339 -0.92532,-3.104641 -0.2403,-3.170932 0.29002,-3.391903 z"
         id="path2381"
         sodipodi:nodetypes="ccccccccccccccccccccccccsccccccccccccccccc" />
      <path
         style="fill:#ffffff;fill-opacity:1;stroke:#000000;stroke-width:0.120945;stroke-dasharray:none;stroke-opacity:1"
         d="m 134.19561,58.966076 0.20992,0.68501 0.51928,0.696058 0.90598,0.883884 1.04961,0.729204 1.04962,0.497184 1.10485,0.430893 1.01647,0.464039 0.7071,0.45299 0.83969,1.049612 0.88389,1.005418 1.12766,1.133961 0.90969,0.61025 1.35865,0.676318 1.21718,0.342409 0.79542,0.392313 0.75,0.226563 0.86719,0.234375 0.42187,-0.05469 0.30078,-0.546877 -0.69921,-0.980469 -1.30469,-1.261719 -0.67187,-0.71875 -1.53907,-1.179687 -2.25,-2.453125 -3.3125,-4.804688 -0.26562,-0.523437 -1.32813,-1.117188"
         id="path2383"
         sodipodi:nodetypes="cccccccccccccccccccccccccccc" />
      <path
         style="display:inline;fill:#dc9733;fill-opacity:1;stroke:#000000;stroke-width:0.120945;stroke-dasharray:none;stroke-opacity:1"
         d="m 128.12235,53.476887 -0.64426,-0.178725 -1.41421,-0.110486 -2.96101,-0.464039 0.37565,-0.508233 1.14905,-0.685009 1.65728,-0.419845 1.12695,-0.04419 c 0.0155,-0.003 0.71055,2.410527 0.71055,2.410527 z"
         id="path2385"
         sodipodi:nodetypes="ccccccccc" />
      <circle
         style="fill:#000000;fill-opacity:1;stroke:#000000;stroke-width:0.120945;stroke-dasharray:none;stroke-opacity:1"
         id="circle2387"
         cx="130.11523"
         cy="51.244141"
         r="0.42773438" />
    </g>
    <g
       id="g2518"
       inkscape:label="Bird"
       transform="translate(153.35004,39.298963)">
      <path
         style="fill:#dc9733;fill-opacity:1;stroke:#000000;stroke-width:0.120945;stroke-dasharray:none;stroke-opacity:1"
         d="m 135.46619,64.258329 v 9.954737 l -0.57452,0.243068 -0.92808,0.342505 -0.3646,0.53033 0.0221,0.60767 0.37565,-0.408796 c 0,0 0.7955,-0.09944 0.87284,-0.09944 0.0773,0 2.33124,0.05524 2.33124,0.05524 l 0.47509,0.05524 0.53033,0.452991 -0.0884,-0.83969 -1.138,-0.320407 -0.66291,-0.364602 V 64.346717 Z"
         id="path2508" />
      <path
         style="fill:#d38d5f;fill-opacity:1;stroke:#000000;stroke-width:0.120945;stroke-dasharray:none;stroke-opacity:1"
         d="m 128.14969,53.476887 c -0.009,-0.03668 -0.86081,-2.372345 -0.78667,-2.44955 l 0.53825,-1.209903 1.16781,-0.673521 0.97228,-0.198874 1.30372,-0.06629 0.88389,0.0221 0.61872,0.265165 0.53033,0.640816 0.57452,1.21534 0.30936,0.994369 0.37565,0.839689 0.37565,0.994369 0.81759,0.441941 1.23744,0.243068 1.56889,1.104855 1.5468,1.370019 0.81759,1.347922 1.5026,2.253903 1.21534,1.568893 1.14905,1.303729 1.10486,1.215339 1.54679,1.193243 0.50824,0.640816 c 0,0 -0.0884,0.574524 -0.17678,0.574524 -0.0884,0 -0.0453,-0.165178 -0.0453,-0.165178 l -0.56917,-0.196533 -0.62295,-0.268056 -1.12696,-0.397747 -1.41421,-0.883884 -1.11231,1.129764 -1.98097,0.282363 -2.76532,-0.658925 -1.80135,-0.768957 -0.84327,-0.402649 -0.91792,-0.823279 -1.09594,-0.902515 -1.72363,-1.504497 -1.01103,-1.54176 -1.49252,-1.977039 -0.87446,-2.107591 z"
         id="path2510"
         sodipodi:nodetypes="ccccccccccccccccccccccccsccccccccccccccccc" />
      <path
         style="fill:#784421;fill-opacity:1;stroke:#000000;stroke-width:0.120945;stroke-dasharray:none;stroke-opacity:1"
         d="m 134.85852,58.601474 0.20992,0.68501 0.51928,0.696058 0.90598,0.883884 1.04961,0.729204 0.659,0.497184 0.75328,0.501205 0.54772,0.354665 0.50398,0.45299 0.71871,0.730219 1.3475,0.79651 1.40582,1.027307 0.85222,0.414153 0.625,0.210938 0.78125,0.179687 0.75781,0.3125 0.66161,0.266965 0.67188,0.171876 0.68749,0.249999 2.02735,0.499998 1.0039,0.113281 -0.47776,-0.695428 -1.92968,-1.304688 -3.12501,-1.640624 -2.25,-2.453125 -3.3125,-4.804688 -0.26562,-0.523437 -1.32813,-1.117188"
         id="path2512"
         sodipodi:nodetypes="cccccccccccccccccccccccccccc" />
      <path
         style="display:inline;fill:#dc9733;fill-opacity:1;stroke:#000000;stroke-width:0.120945;stroke-dasharray:none;stroke-opacity:1"
         d="m 128.12235,53.476887 -0.64426,-0.178725 -1.41421,-0.110486 -2.96101,-0.464039 0.37565,-0.508233 1.14905,-0.685009 1.65728,-0.419845 1.12695,-0.04419 c 0.0155,-0.003 0.71055,2.410527 0.71055,2.410527 z"
         id="path2514"
         sodipodi:nodetypes="ccccccccc" />
      <circle
         style="fill:#000000;fill-opacity:1;stroke:#000000;stroke-width:0.120945;stroke-dasharray:none;stroke-opacity:1"
         id="circle2516"
         cx="130.11523"
         cy="51.244141"
         r="0.42773438" />
    </g>
    <g
       id="g2530"
       inkscape:label="Bird"
       transform="translate(229.10004,48.798963)">
      <path
         style="fill:#dc9733;fill-opacity:1;stroke:#000000;stroke-width:0.120945;stroke-dasharray:none;stroke-opacity:1"
         d="m 135.46619,64.258329 v 9.954737 l -0.57452,0.243068 -0.92808,0.342505 -0.3646,0.53033 0.0221,0.60767 0.37565,-0.408796 c 0,0 0.7955,-0.09944 0.87284,-0.09944 0.0773,0 2.33124,0.05524 2.33124,0.05524 l 0.47509,0.05524 0.53033,0.452991 -0.0884,-0.83969 -1.138,-0.320407 -0.66291,-0.364602 V 64.346717 Z"
         id="path2520" />
      <path
         style="fill:#d38d5f;fill-opacity:1;stroke:#000000;stroke-width:0.120945;stroke-dasharray:none;stroke-opacity:1"
         d="m 128.14969,53.476887 c -0.009,-0.03668 -0.86081,-2.372345 -0.78667,-2.44955 l 0.53825,-1.209903 1.16781,-0.673521 0.97228,-0.198874 1.30372,-0.06629 0.88389,0.0221 0.61872,0.265165 0.53033,0.640816 0.57452,1.21534 0.30936,0.994369 0.37565,0.839689 0.37565,0.994369 0.81759,0.441941 1.23744,0.243068 1.56889,1.104855 1.5468,1.370019 0.81759,1.347922 1.5026,2.253903 1.21534,1.568893 1.14905,1.303729 1.10486,1.215339 1.54679,1.193243 0.50824,0.640816 c 0,0 -0.0884,0.574524 -0.17678,0.574524 -0.0884,0 -0.0453,-0.165178 -0.0453,-0.165178 l -0.56917,-0.196533 -0.62295,-0.268056 -1.12696,-0.397747 -1.41421,-0.883884 -2.53757,1.185007 -2.23498,-0.522656 -1.04174,-0.511608 -0.1468,1.620761 -0.45616,1.123577 -0.38988,1.200917 -0.0474,1.85278 -1.3069,-0.10281 -1.19641,0.05187 0.008,-2.128382 -0.24351,-1.453966 -0.36818,-1.46331 -0.55332,-1.596677 -0.002,-1.399699 -1.72363,-1.504497 -1.01103,-1.54176 -1.49252,-1.977039 -0.87446,-2.107591 z"
         id="path2522"
         sodipodi:nodetypes="ccccccccccccccccccccccccscccccccccccccccccccccccc" />
      <path
         style="fill:#784421;fill-opacity:1;stroke:#000000;stroke-width:0.120945;stroke-dasharray:none;stroke-opacity:1"
         d="m 134.85852,58.601474 0.20992,0.68501 0.51928,0.696058 0.90598,0.883884 1.04961,0.729204 0.659,0.497184 0.75328,0.501205 0.54772,0.354665 0.50398,0.45299 0.71871,0.730219 1.3475,0.79651 1.40582,1.027307 0.85222,0.414153 0.625,0.210938 0.78125,0.179687 0.75781,0.3125 0.66161,0.266965 0.67188,0.171876 0.68749,0.249999 2.02735,0.499998 1.0039,0.113281 -0.47776,-0.695428 -1.92968,-1.304688 -3.12501,-1.640624 -2.25,-2.453125 -3.3125,-4.804688 -0.26562,-0.523437 -1.32813,-1.117188"
         id="path2524"
         sodipodi:nodetypes="cccccccccccccccccccccccccccc" />
      <path
         style="display:inline;fill:#dc9733;fill-opacity:1;stroke:#000000;stroke-width:0.120945;stroke-dasharray:none;stroke-opacity:1"
         d="m 128.12235,53.476887 -0.64426,-0.178725 -1.41421,-0.110486 -2.96101,-0.464039 0.37565,-0.508233 1.14905,-0.685009 1.65728,-0.419845 1.12695,-0.04419 c 0.0155,-0.003 0.71055,2.410527 0.71055,2.410527 z"
         id="path2526"
         sodipodi:nodetypes="ccccccccc" />
      <circle
         style="fill:#000000;fill-opacity:1;stroke:#000000;stroke-width:0.120945;stroke-dasharray:none;stroke-opacity:1"
         id="circle2528"
         cx="130.11523"
         cy="51.244141"
         r="0.42773438" />
    </g>
    <g
       id="g2542"
       inkscape:label="Bird"
       transform="translate(174.1213,99.579816)">
      <path
         style="fill:#dc9733;fill-opacity:1;stroke:#000000;stroke-width:0.120945;stroke-dasharray:none;stroke-opacity:1"
         d="m 135.46619,64.258329 v 9.954737 l -0.57452,0.243068 -0.92808,0.342505 -0.3646,0.53033 0.0221,0.60767 0.37565,-0.408796 c 0,0 0.7955,-0.09944 0.87284,-0.09944 0.0773,0 2.33124,0.05524 2.33124,0.05524 l 0.47509,0.05524 0.53033,0.452991 -0.0884,-0.83969 -1.138,-0.320407 -0.66291,-0.364602 V 64.346717 Z"
         id="path2532" />
      <path
         style="fill:#784421;fill-opacity:1;stroke:#000000;stroke-width:0.120945;stroke-dasharray:none;stroke-opacity:1"
         d="m 137.87414,63.476474 0.20992,0.68501 0.51928,0.696058 0.90598,0.883884 1.04961,0.729204 0.659,0.497184 0.75328,0.501205 0.54772,0.354665 0.50398,0.45299 0.93746,0.667719 1.12875,0.85901 1.40582,1.027307 0.57097,0.476653 0.6875,0.742188 5,5.617187 0.375,-0.04687 -2.86964,-4.15491 0.63281,-0.945312 0.42187,0.398437 2.98047,3.093748 0.45703,0.222656 -0.18089,-0.781366 -3.49217,-3.414063 -2.41702,-2.031938 -1.84672,-2.221106 -3.12468,-3.335232 -0.48659,-2.62266 -1.32813,-1.117188"
         id="path2544"
         sodipodi:nodetypes="cccccccccccccccccccccccccccc" />
      <path
         style="fill:#d38d5f;fill-opacity:1;stroke:#000000;stroke-width:0.120945;stroke-dasharray:none;stroke-opacity:1"
         d="m 128.14969,53.476887 c -0.009,-0.03668 -0.86081,-2.372345 -0.78667,-2.44955 l 0.53825,-1.209903 1.16781,-0.673521 0.97228,-0.198874 1.30372,-0.06629 0.88389,0.0221 0.61872,0.265165 0.53033,0.640816 0.57452,1.21534 0.30936,0.994369 0.37565,0.839689 0.37565,0.994369 0.81759,0.441941 1.23744,0.243068 1.56889,1.104855 1.5468,1.370019 0.81759,1.347922 1.5026,2.253903 1.21534,1.568893 1.14905,1.303729 1.10486,1.215339 1.54679,1.193243 0.50824,0.640816 c 0,0 -0.0884,0.574524 -0.17678,0.574524 -0.0884,0 -0.0453,-0.165178 -0.0453,-0.165178 l -0.56917,-0.196533 -0.62295,-0.268056 -1.12696,-0.397747 -1.41421,-0.883884 -1.11231,1.129764 -1.98097,0.282363 -2.76532,-0.658925 -1.80135,-0.768957 -0.84327,-0.402649 -0.91792,-0.823279 -1.09594,-0.902515 -1.72363,-1.504497 -1.01103,-1.54176 -1.49252,-1.977039 -0.87446,-2.107591 z"
         id="path2534"
         sodipodi:nodetypes="ccccccccccccccccccccccccsccccccccccccccccc" />
      <path
         style="fill:#784421;fill-opacity:1;stroke:#000000;stroke-width:0.120945;stroke-dasharray:none;stroke-opacity:1"
         d="m 134.85852,58.601474 0.20992,0.68501 0.51928,0.696058 0.90598,0.883884 1.04961,0.729204 0.659,0.497184 0.75328,0.501205 0.54772,0.354665 0.50398,0.45299 0.71871,0.730219 1.3475,0.79651 1.40582,1.027307 0.85222,0.414153 0.625,0.210938 0.78125,0.179687 0.75781,0.3125 0.66161,0.266965 0.67188,0.171876 0.68749,0.249999 2.02735,0.499998 1.0039,0.113281 -0.47776,-0.695428 -1.92968,-1.304688 -3.12501,-1.640624 -2.25,-2.453125 -3.3125,-4.804688 -0.26562,-0.523437 -1.32813,-1.117188"
         id="path2536"
         sodipodi:nodetypes="cccccccccccccccccccccccccccc" />
      <path
         style="display:inline;fill:#dc9733;fill-opacity:1;stroke:#000000;stroke-width:0.120945;stroke-dasharray:none;stroke-opacity:1"
         d="m 128.12235,53.476887 -0.64426,-0.178725 -1.41421,-0.110486 -2.96101,-0.464039 0.37565,-0.508233 1.14905,-0.685009 1.65728,-0.419845 1.12695,-0.04419 c 0.0155,-0.003 0.71055,2.410527 0.71055,2.410527 z"
         id="path2538"
         sodipodi:nodetypes="ccccccccc" />
      <circle
         style="fill:#000000;fill-opacity:1;stroke:#000000;stroke-width:0.120945;stroke-dasharray:none;stroke-opacity:1"
         id="circle2540"
         cx="130.11523"
         cy="51.244141"
         r="0.42773438" />
    </g>
    <path
       style="fill:none;fill-opacity:1;stroke:#70ad47;stroke-width:2.01071;stroke-dasharray:none;stroke-opacity:1"
       d="m 224.78059,116.375 c -7.80912,2.34489 -11.21795,12.03815 -15.25,19.125 -6.41005,11.26649 -11.36401,23.63414 -13.75,36.375 -1.7334,9.25613 -2.4198,19.08635 -0.25,28.25 1.68313,7.10832 3.97533,15.36908 10,19.5 6.8765,4.71499 16.56928,3.35459 24.875,2.625 8.24995,-0.72469 17.13576,-2.06154 23.875,-6.875 4.96654,-3.54732 7.95415,-9.45305 10.5,-15 2.6009,-5.6669 4.75,-17.5 4.625,-18.125 -0.125,-0.625 -3.63852,-13.64373 -6.625,-20 -3.84463,-8.1827 -9.39972,-15.4512 -14.375,-23 -4.38248,-6.64936 -7.233,-14.87501 -13.625,-19.625 -2.81324,-2.09056 -6.64312,-4.25799 -10,-3.25 z"
       id="path3724"
       sodipodi:nodetypes="sssssssssssss" />
    <path
       style="fill:none;fill-opacity:1;stroke:#ed7d31;stroke-width:2.01071;stroke-dasharray:none;stroke-opacity:1"
       d="m 163.90559,111.5 c -2.22504,-0.56264 -4.58559,-0.53613 -6.875,-0.375 -3.43173,0.24153 -6.94717,0.68225 -10.125,2 -3.38395,1.40322 -6.37465,3.70514 -9.125,6.125 -5.32056,4.68122 -9.76336,10.31905 -14,16 -3.82858,5.13379 -7.06801,10.69223 -10.25,16.25 -4.77778,8.34505 -10.05402,16.55567 -13.25,25.625 -1.808787,5.13287 -3.027762,10.56229 -3.249997,16 -0.186775,4.57004 -0.325682,9.48797 1.625,13.625 1.646507,3.49192 4.969607,5.9831 7.999997,8.375 3.63495,2.86908 11.5,6.75 12,7 0.5,0.25 10.20915,2.53008 15.375,3.5 5.29917,0.99495 10.6288,1.90449 16,2.375 6.0624,0.53106 12.16447,0.46822 18.25,0.5 4.91731,0.0257 10.19063,1.59192 14.75,-0.25 2.37806,-0.9607 4.48546,-2.95227 5.625,-5.25 1.46997,-2.96401 2.44422,-6.48648 2.67938,-9.78661 0.4298,-6.03154 -0.32886,-12.43266 -0.22227,-18.47856 0.12046,-6.8324 0.63098,-13.49656 0.93566,-20.23483 0.25713,-5.68669 -0.14277,-16.5 -0.14277,-17 0,-0.5 -0.65748,-8.28711 -1.375,-12.375 -0.64469,-3.67296 -1.43961,-7.33931 -2.625,-10.875 -1.66089,-4.95397 -2.61259,-10.62405 -6.25,-14.375 -4.55441,-4.69657 -11.40744,-6.77117 -17.75,-8.375 z"
       id="path3728"
       sodipodi:nodetypes="ssssssssssssssssssssssss" />
    <path
       style="fill:none;fill-opacity:1;stroke:#000000;stroke-width:0.87685;stroke-dasharray:3.5074, 0.87685;stroke-dashoffset:0;stroke-opacity:1"
       d="m 180.90559,50.625 c -5.07346,-0.388107 -9.63599,3.814403 -13.5,7.125 -3.23378,2.770627 -5.14932,6.785224 -7.625,10.25 -7.10875,9.94885 -14.46737,19.759889 -20.75,30.25 -10.00611,16.70722 -18.40571,34.86543 -28,51.8125 -5.02794,8.88121 -9.59625,20.27105 -12.838024,26.96591 -1.303159,2.69126 -1.362355,3.38913 -2.161973,4.90909 -0.437593,0.8318 -0.786374,3.84798 -1.0625,6.125 -0.545594,4.49914 -1.171165,11.41348 0.6875,16.5625 1.369935,3.7951 4.599127,7.57426 7.562497,10.3125 3.88372,3.58867 9.25505,6.25208 14.125,8.3125 6.79514,2.87495 14.42413,3.82787 21.6875,5.125 7.24889,1.29455 14.64475,1.64998 22,2 9.36449,0.44564 18.75037,0.21847 28.125,0.125 8.54378,-0.0852 17.11568,0.14636 25.625,-0.625 11.72062,-1.06246 23.78177,-1.57037 34.875,-5.5 5.49026,-1.94485 14.375,-8 15.125,-8.75 0.75,-0.75 3.20369,-6.1729 4.125,-9.5 1.53647,-5.54859 1.96039,-11.3749 2.25,-17.125 0.20969,-4.16326 -0.24561,-7.93926 -1.1875,-12 -1.00279,-4.32326 -2.72956,-8.64221 -4.6875,-12.625 -2.70543,-5.50332 -5.49199,-10.97836 -8.625,-16.25 -5.05391,-8.50376 -11.08679,-16.38993 -16.375,-24.75 -7.36502,-11.64326 -13.89825,-23.803171 -21.375,-35.375 -3.9829,-6.164363 -7.44117,-12.807939 -12.5,-18.125 -4.01534,-4.220313 -7.59823,-7.993574 -12.25,-11.5 -3.85305,-2.904358 -8.43899,-7.38197 -13.25,-7.75 z"
       id="path3853"
       sodipodi:nodetypes="sssssssssssssssssssssssssss" />
    <path
       style="fill:none;fill-opacity:1;stroke:#4472c4;stroke-width:2.01071;stroke-dasharray:none;stroke-dashoffset:0;stroke-opacity:0.976471"
       d="m 278.93717,78.459442 c -3.62367,1.507263 -10.41816,5.562189 -11.59067,9.307585 -1.38225,4.415386 -0.14591,9.287779 0.44194,13.876973 0.53681,4.19076 2.11506,8.31451 2.91682,12.46275 1.77368,9.17689 4.05573,18.26393 6.71751,27.22362 1.52845,5.14484 3.11854,10.30051 5.3033,15.20279 2.19002,4.91409 4.81195,9.65371 7.77818,14.14214 2.10572,3.18633 3.94877,6.81604 7.07106,9.01561 2.74201,1.93168 6.28156,2.41137 9.54594,3.18198 2.43313,0.57438 4.92493,1.02161 7.42463,1.06066 5.33529,0.0833 10.73948,-0.44907 15.9099,-1.76777 5.12132,-1.30618 10.02014,-3.50245 14.67246,-6.01041 5.97056,-3.2186 11.78927,-6.91208 16.79379,-11.49048 4.78735,-4.37972 8.73819,-9.65211 12.37437,-15.02602 3.57631,-5.28543 6.9421,-10.82203 9.19239,-16.79379 1.80973,-4.80262 2.92157,-9.91239 3.35875,-15.02601 0.40707,-4.76142 0.94545,-9.83496 -0.7071,-14.31892 -2.1357,-5.794924 -6.59504,-10.687928 -11.31371,-14.672463 -5.65947,-4.778963 -12.54872,-8.231251 -19.62221,-10.429825 -8.89229,-2.763889 -18.00759,-2.998099 -27.31201,-3.270368 -12.23802,0.278601 -38.76382,-0.501456 -48.95534,3.331948 z"
       id="path4728"
       sodipodi:nodetypes="csssssssssssssssssscc" />
    <path
       style="fill:none;fill-opacity:1;stroke:#000000;stroke-width:2.01071;stroke-dasharray:none;stroke-opacity:1"
       d="M 224.8317,2.4722719 V 45.605785"
       id="path2547" />
    <path
       style="fill:none;fill-opacity:1;stroke:#000000;stroke-width:2.01071;stroke-dasharray:none;stroke-opacity:1"
       d="m 215.41834,64.786057 -17.58928,4.331029"
       id="path2549" />
    <path
       style="fill:none;fill-opacity:1;stroke:#000000;stroke-width:2.01071;stroke-dasharray:none;stroke-opacity:1"
       d="M 182.22852,79.679493 156.53059,118.125"
       id="path2551" />
    <path
       style="fill:none;fill-opacity:1;stroke:#000000;stroke-width:2.01071;stroke-dasharray:none;stroke-opacity:1"
       d="m 147.84309,135.9375 -23.44264,53.675"
       id="path2553" />
    <path
       style="fill:none;fill-opacity:1;stroke:#000000;stroke-width:2.01071;stroke-dasharray:none;stroke-opacity:1"
       d="m 154.87434,146.84375 6.8125,44"
       id="path2555" />
    <path
       style="fill:none;fill-opacity:1;stroke:#000000;stroke-width:2.01071;stroke-dasharray:none;stroke-opacity:1"
       d="M 196.99934,82.78125 221.8486,117.5318"
       id="path2557" />
    <path
       style="fill:none;fill-opacity:1;stroke:#000000;stroke-width:2.01071;stroke-dasharray:none;stroke-opacity:1"
       d="m 229.25112,143.98202 -14.00955,36.06244"
       id="path2559" />
    <path
       style="fill:none;fill-opacity:1;stroke:#000000;stroke-width:2.01071;stroke-dasharray:none;stroke-opacity:1"
       d="m 238.4877,142.96555 5.52427,10.03208"
       id="path2561" />
    <path
       style="fill:none;fill-opacity:1;stroke:#000000;stroke-width:2.01071;stroke-dasharray:none;stroke-opacity:1"
       d="m 238.40559,71.3125 34.375,18.625"
       id="path2563" />
    <path
       style="fill:none;fill-opacity:1;stroke:#000000;stroke-width:2.01071;stroke-dasharray:none;stroke-opacity:1"
       d="m 294.03978,117.90745 7.24784,27.00264"
       id="path2565" />
    <path
       style="fill:none;fill-opacity:1;stroke:#000000;stroke-width:2.01071;stroke-dasharray:none;stroke-opacity:1"
       d="m 303.67411,100.8927 52.01654,8.3527"
       id="path2567" />
    <text
       xml:space="preserve"
       style="font-size:10.6667px;font-family:sans-serif;-inkscape-font-specification:'sans-serif, Normal';fill:none;fill-opacity:1;stroke:#4472c4;stroke-width:2.01071;stroke-dasharray:none;stroke-dashoffset:0;stroke-opacity:0.976471"
       x="234.68684"
       y="58.21875"
       id="text6222"><tspan
         sodipodi:role="line"
         id="tspan6220"
         x="234.68684"
         y="58.21875"
         style="font-size:10.6667px;fill:#000000;fill-opacity:1;stroke:none">root</tspan></text>
    <text
       xml:space="preserve"
       style="font-size:10.6667px;font-family:sans-serif;-inkscape-font-specification:'sans-serif, Normal';fill:none;fill-opacity:1;stroke:#4472c4;stroke-width:2.01071;stroke-dasharray:none;stroke-dashoffset:0;stroke-opacity:0.976471"
       x="145.18285"
       y="266.94852"
       id="text6378"><tspan
         sodipodi:role="line"
         id="tspan6376"
         x="145.18285"
         y="266.94852"
         style="font-size:10.6667px;fill:#000000;fill-opacity:1;stroke:none">2 sister groups</tspan></text>
    <rect
       style="fill:none;fill-opacity:1;stroke:#000000;stroke-width:0.755906;stroke-dasharray:none;stroke-dashoffset:0;stroke-opacity:0.976471"
       id="rect7978"
       width="404.49524"
       height="193.8049"
       x="9.1199389"
       y="283.76819" />
    <path
       style="fill:none;fill-opacity:1;stroke:#000000;stroke-width:0.755906;stroke-dasharray:none;stroke-dashoffset:0;stroke-opacity:0.976471"
       d="M 220.9426,283.7682 V 477.68773"
       id="path8242" />
    <rect
       style="display:inline;fill:#e2f3f8;fill-opacity:1;stroke:#000000;stroke-width:0.755906;stroke-linejoin:round;stroke-dasharray:0.755906, 0.755906;stroke-dashoffset:0;stroke-opacity:0.976471"
       id="rect8340"
       width="66.676865"
       height="50.226204"
       x="49.886478"
       y="324.77441"
       ry="10.875" />
    <rect
       style="display:inline;fill:#d49d20;fill-opacity:1;stroke:#000000;stroke-width:0.755906;stroke-linejoin:round;stroke-dasharray:0.755906, 0.755906;stroke-dashoffset:0;stroke-opacity:0.976471"
       id="rect8342"
       width="27.410234"
       height="19.890984"
       x="53.609928"
       y="329.11053"
       ry="3.4945729"
       rx="3.4945729" />
    <rect
       style="display:inline;fill:#e5f257;fill-opacity:1;stroke:#000000;stroke-width:0.755906;stroke-linejoin:round;stroke-dasharray:0.755906, 0.755906;stroke-dashoffset:0;stroke-opacity:0.976471"
       id="rect8396"
       width="27.410234"
       height="19.890984"
       x="85.694893"
       y="329.11053"
       ry="3.4945729"
       rx="3.4945729" />
    <rect
       style="display:inline;fill:#e2f3f8;fill-opacity:1;stroke:#000000;stroke-width:0.755906;stroke-linejoin:round;stroke-dasharray:0.755906, 0.755906;stroke-dashoffset:0;stroke-opacity:0.976471"
       id="rect11986"
       width="80.73938"
       height="93.101204"
       x="256.88644"
       y="330.02441"
       ry="10.875" />
    <rect
       style="display:inline;fill:#d49d20;fill-opacity:1;stroke:#000000;stroke-width:0.755906;stroke-linejoin:round;stroke-dasharray:0.755906, 0.755906;stroke-dashoffset:0;stroke-opacity:0.976471"
       id="rect11988"
       width="31.722717"
       height="64.328484"
       x="260.60989"
       y="334.36053"
       ry="3.4945729"
       rx="3.4945729" />
    <rect
       style="display:inline;fill:#e5f257;fill-opacity:1;stroke:#000000;stroke-width:0.755906;stroke-linejoin:round;stroke-dasharray:0.755906, 0.755906;stroke-dashoffset:0;stroke-opacity:0.976471"
       id="rect11990"
       width="34.097717"
       height="64.828484"
       x="299.69485"
       y="334.36053"
       ry="3.4945729"
       rx="3.4945729" />
    <path
       style="fill:none;fill-opacity:1;stroke:#000000;stroke-width:1.88976;stroke-linecap:butt;stroke-linejoin:round;stroke-dasharray:none;stroke-dashoffset:0;stroke-opacity:0.976471"
       d="m 56.805441,331.63049 57.540809,89.449"
       id="path12202" />
    <path
       style="fill:none;fill-opacity:1;stroke:#000000;stroke-width:1.88976;stroke-linecap:butt;stroke-linejoin:round;stroke-dasharray:none;stroke-dashoffset:0;stroke-opacity:0.976471"
       d="m 69.628601,331.56273 -7,8.3125"
       id="path12204" />
    <path
       style="fill:none;fill-opacity:1;stroke:#000000;stroke-width:1.88976;stroke-linecap:butt;stroke-linejoin:round;stroke-dasharray:none;stroke-dashoffset:0;stroke-opacity:0.976471"
       d="m 78.691101,331.59398 -12.125,14.6875"
       id="path12206" />
    <path
       style="fill:none;fill-opacity:1;stroke:#000000;stroke-width:1.88976;stroke-linecap:butt;stroke-linejoin:round;stroke-dasharray:none;stroke-dashoffset:0;stroke-opacity:0.976471"
       d="M 89.159851,331.81273 100.1286,346.40648"
       id="path12208" />
    <path
       style="fill:none;fill-opacity:1;stroke:#000000;stroke-width:1.88976;stroke-linecap:butt;stroke-linejoin:round;stroke-dasharray:none;stroke-dashoffset:0;stroke-opacity:0.976471"
       d="m 98.066101,331.50023 6.812499,8.59375"
       id="path12210" />
    <path
       style="fill:none;fill-opacity:1;stroke:#000000;stroke-width:1.88976;stroke-linecap:butt;stroke-linejoin:round;stroke-dasharray:none;stroke-dashoffset:0;stroke-opacity:0.976471"
       d="M 110.6286,331.78148 82.472351,371.25023"
       id="path12212" />
    <path
       style="fill:none;fill-opacity:1;stroke:#000000;stroke-width:1.88976;stroke-linecap:butt;stroke-linejoin:round;stroke-dasharray:none;stroke-dashoffset:0;stroke-opacity:0.976471"
       d="m 114.61142,420.94691 34.82501,-47.15519"
       id="path12216" />
    <path
       style="fill:none;fill-opacity:1;stroke:#000000;stroke-width:1.88976;stroke-linecap:butt;stroke-linejoin:round;stroke-dasharray:none;stroke-dashoffset:0;stroke-opacity:0.976471"
       d="m 120.75441,331.36532 26.20714,45.4758"
       id="path12218" />
    <path
       style="fill:none;fill-opacity:1;stroke:#000000;stroke-width:1.88976;stroke-linecap:butt;stroke-linejoin:round;stroke-dasharray:none;stroke-dashoffset:0;stroke-opacity:0.976471"
       d="m 139.58113,331.71888 -10.12047,13.96535"
       id="path12220" />
    <path
       style="fill:none;fill-opacity:1;stroke:#000000;stroke-width:1.88976;stroke-linecap:butt;stroke-linejoin:round;stroke-dasharray:1.88976, 1.88976;stroke-dashoffset:0;stroke-opacity:0.976471"
       d="m 150.21185,372.78617 13.16986,-17.45669"
       id="path12228" />
    <path
       style="fill:none;fill-opacity:1;stroke:#000000;stroke-width:1.88976;stroke-linecap:butt;stroke-linejoin:round;stroke-dasharray:none;stroke-dashoffset:0;stroke-opacity:0.976471"
       d="m 150.78347,331.21297 13.125,23.98438 18.40625,-24.26563"
       id="path12293"
       sodipodi:nodetypes="ccc" />
    <path
       style="fill:none;fill-opacity:1;stroke:#000000;stroke-width:0.755906;stroke-linecap:butt;stroke-linejoin:round;stroke-dasharray:1.51181, 0.755906;stroke-dashoffset:0;stroke-opacity:0.976471"
       d="m 42.132971,376.84112 17.36831,-23.02516"
       id="path12295" />
    <path
       style="fill:none;fill-opacity:1;stroke:#000000;stroke-width:0.755906;stroke-linecap:butt;stroke-linejoin:round;stroke-dasharray:1.51181, 0.755906;stroke-dashoffset:0;stroke-opacity:0.976471"
       d="m 56.717051,404.68345 21.71206,-28.90016"
       id="path12297"
       sodipodi:nodetypes="cc" />
    <path
       style="fill:none;fill-opacity:1;stroke:#000000;stroke-width:0.755906;stroke-linecap:butt;stroke-linejoin:round;stroke-dasharray:1.51181, 0.755906;stroke-dashoffset:0;stroke-opacity:0.976471"
       d="m 103.31332,381.50369 31.08706,48.40016"
       id="path12299"
       sodipodi:nodetypes="cc" />
    <path
       style="fill:none;fill-opacity:1;stroke:#000000;stroke-width:0.755906;stroke-linecap:butt;stroke-linejoin:round;stroke-dasharray:1.51181, 0.755906;stroke-dashoffset:0;stroke-opacity:0.976471"
       d="m 161.06752,371.23548 14.38166,21.92785"
       id="path12301"
       sodipodi:nodetypes="cc" />
    <path
       style="fill:#000000;fill-opacity:1;stroke:none;stroke-width:0.755906;stroke-linecap:butt;stroke-linejoin:round;stroke-dasharray:none;stroke-dashoffset:0;stroke-opacity:0.976471"
       d="m 58.011411,352.52367 3.20313,2.21875 0.76065,-4.45767 z"
       id="path12303"
       sodipodi:nodetypes="cccc" />
    <path
       style="fill:#000000;fill-opacity:1;stroke:none;stroke-width:0.755906;stroke-linecap:butt;stroke-linejoin:round;stroke-dasharray:none;stroke-dashoffset:0;stroke-opacity:0.976471"
       d="m 76.823911,374.64867 3.20313,2.21875 0.76065,-4.45768 z"
       id="path12413"
       sodipodi:nodetypes="cccc" />
    <path
       style="fill:#000000;fill-opacity:1;stroke:none;stroke-width:0.755906;stroke-linecap:butt;stroke-linejoin:round;stroke-dasharray:none;stroke-dashoffset:0;stroke-opacity:0.976471"
       d="m 104.13925,379.28929 -3.20313,2.21875 -0.76065,-4.45768 z"
       id="path12415"
       sodipodi:nodetypes="cccc" />
    <path
       style="fill:#000000;fill-opacity:1;stroke:none;stroke-width:0.755906;stroke-linecap:butt;stroke-linejoin:round;stroke-dasharray:none;stroke-dashoffset:0;stroke-opacity:0.976471"
       d="m 162.4148,369.77097 -3.20313,2.21875 -0.76065,-4.45768 z"
       id="path12417"
       sodipodi:nodetypes="cccc" />
    <text
       xml:space="preserve"
       style="font-size:8px;font-family:sans-serif;-inkscape-font-specification:'sans-serif, Normal';fill:#000000;fill-opacity:1;stroke:none;stroke-width:0.755906;stroke-linecap:butt;stroke-linejoin:round;stroke-dasharray:none;stroke-dashoffset:0;stroke-opacity:0.976471"
       x="34.582737"
       y="384.41092"
       id="text12421"><tspan
         sodipodi:role="line"
         id="tspan12419"
         x="34.582737"
         y="384.41092"
         style="font-size:8px;text-align:center;text-anchor:middle">A nested</tspan><tspan
         sodipodi:role="line"
         x="34.582737"
         y="394.41092"
         id="tspan12423"
         style="font-size:8px;text-align:center;text-anchor:middle">clade</tspan></text>
    <text
       xml:space="preserve"
       style="font-size:8px;font-family:sans-serif;-inkscape-font-specification:'sans-serif, Normal';fill:#000000;fill-opacity:1;stroke:none;stroke-width:0.755906;stroke-linecap:butt;stroke-linejoin:round;stroke-dasharray:none;stroke-dashoffset:0;stroke-opacity:0.976471"
       x="51.597507"
       y="412.20908"
       id="text12429"><tspan
         sodipodi:role="line"
         x="51.597507"
         y="412.20908"
         id="tspan12427"
         style="font-size:8px;text-align:center;text-anchor:middle">MRCA of lineages</tspan><tspan
         sodipodi:role="line"
         x="51.597507"
         y="422.20908"
         style="font-size:8px;text-align:center;text-anchor:middle"
         id="tspan13159">splitting from</tspan><tspan
         sodipodi:role="line"
         x="51.597507"
         y="432.20908"
         style="font-size:8px;text-align:center;text-anchor:middle"
         id="tspan13161">this node</tspan></text>
    <text
       xml:space="preserve"
       style="font-size:8px;font-family:sans-serif;-inkscape-font-specification:'sans-serif, Normal';fill:#000000;fill-opacity:1;stroke:none;stroke-width:0.755906;stroke-linecap:butt;stroke-linejoin:round;stroke-dasharray:none;stroke-dashoffset:0;stroke-opacity:0.976471"
       x="134.3732"
       y="436.82523"
       id="text13167"><tspan
         sodipodi:role="line"
         id="tspan13163"
         x="134.3732"
         y="436.82523"
         style="font-size:8px;text-align:center;text-anchor:middle">Larger</tspan><tspan
         sodipodi:role="line"
         x="134.3732"
         y="446.82523"
         id="tspan13165"
         style="font-size:8px;text-align:center;text-anchor:middle">clade</tspan></text>
    <text
       xml:space="preserve"
       style="font-size:8px;font-family:sans-serif;-inkscape-font-specification:'sans-serif, Normal';fill:#000000;fill-opacity:1;stroke:none;stroke-width:0.755906;stroke-linecap:butt;stroke-linejoin:round;stroke-dasharray:none;stroke-dashoffset:0;stroke-opacity:0.976471"
       x="158.09032"
       y="16.187412"
       id="text13175"><tspan
         sodipodi:role="line"
         x="158.09032"
         y="16.187412"
         id="tspan13169"
         style="font-size:8px;text-align:center;text-anchor:middle">MRCA of lineages</tspan><tspan
         sodipodi:role="line"
         x="158.09032"
         y="26.187412"
         style="font-size:8px;text-align:center;text-anchor:middle"
         id="tspan13171">splitting from</tspan><tspan
         sodipodi:role="line"
         x="158.09032"
         y="36.187412"
         style="font-size:8px;text-align:center;text-anchor:middle"
         id="tspan13173">this node</tspan></text>
    <text
       xml:space="preserve"
       style="font-size:8px;font-family:sans-serif;-inkscape-font-specification:'sans-serif, Normal';fill:#000000;fill-opacity:1;stroke:none;stroke-width:0.755906;stroke-linecap:butt;stroke-linejoin:round;stroke-dasharray:none;stroke-dashoffset:0;stroke-opacity:0.976471"
       x="57.504044"
       y="159.14053"
       id="text13181"><tspan
         sodipodi:role="line"
         id="tspan13177"
         x="57.504044"
         y="159.14053"
         style="font-size:8px;text-align:center;text-anchor:middle">A nested</tspan><tspan
         sodipodi:role="line"
         x="57.504044"
         y="169.14053"
         id="tspan13179"
         style="font-size:8px;text-align:center;text-anchor:middle">clade</tspan></text>
    <text
       xml:space="preserve"
       style="font-size:8px;font-family:sans-serif;-inkscape-font-specification:'sans-serif, Normal';fill:#000000;fill-opacity:1;stroke:none;stroke-width:0.755906;stroke-linecap:butt;stroke-linejoin:round;stroke-dasharray:none;stroke-dashoffset:0;stroke-opacity:0.976471"
       x="69.14286"
       y="104.82349"
       id="text13187"><tspan
         sodipodi:role="line"
         id="tspan13183"
         x="69.14286"
         y="104.82349"
         style="font-size:8px;text-align:center;text-anchor:middle">Larger</tspan><tspan
         sodipodi:role="line"
         x="69.14286"
         y="114.82349"
         id="tspan13185"
         style="font-size:8px;text-align:center;text-anchor:middle">clade</tspan></text>
    <text
       xml:space="preserve"
       style="font-size:8px;font-family:sans-serif;-inkscape-font-specification:'sans-serif, Normal';fill:#000000;fill-opacity:1;stroke:none;stroke-width:0.755906;stroke-linecap:butt;stroke-linejoin:round;stroke-dasharray:none;stroke-dashoffset:0;stroke-opacity:0.976471"
       x="181.49814"
       y="400.07523"
       id="text13193"><tspan
         sodipodi:role="line"
         x="181.49814"
         y="400.07523"
         id="tspan13191"
         style="font-size:8px;text-align:center;text-anchor:middle">Shared evolutionary</tspan><tspan
         sodipodi:role="line"
         x="181.49814"
         y="410.07523"
         style="font-size:8px;text-align:center;text-anchor:middle"
         id="tspan13197">history of lineages</tspan><tspan
         sodipodi:role="line"
         x="181.49814"
         y="420.07523"
         style="font-size:8px;text-align:center;text-anchor:middle"
         id="tspan13199">originating from</tspan><tspan
         sodipodi:role="line"
         x="181.49814"
         y="430.07523"
         style="font-size:8px;text-align:center;text-anchor:middle"
         id="tspan13201">this branch</tspan></text>
    <text
       xml:space="preserve"
       style="font-size:8px;font-family:sans-serif;-inkscape-font-specification:'sans-serif, Normal';fill:#000000;fill-opacity:1;stroke:none;stroke-width:0.755906;stroke-linecap:butt;stroke-linejoin:round;stroke-dasharray:none;stroke-dashoffset:0;stroke-opacity:0.976471"
       x="85.643494"
       y="46.908009"
       id="text13211"><tspan
         sodipodi:role="line"
         x="85.643494"
         y="46.908009"
         id="tspan13203"
         style="font-size:8px;text-align:center;text-anchor:middle">Shared evolutionary</tspan><tspan
         sodipodi:role="line"
         x="85.643494"
         y="56.908009"
         style="font-size:8px;text-align:center;text-anchor:middle"
         id="tspan13205">history of lineages</tspan><tspan
         sodipodi:role="line"
         x="85.643494"
         y="66.908005"
         style="font-size:8px;text-align:center;text-anchor:middle"
         id="tspan13207">originating from</tspan><tspan
         sodipodi:role="line"
         x="85.643494"
         y="76.908005"
         style="font-size:8px;text-align:center;text-anchor:middle"
         id="tspan13209">this branch</tspan></text>
    <g
       id="g13229"
       transform="rotate(140.95957,280.27604,116.46709)">
      <path
         style="fill:none;fill-opacity:1;stroke:#000000;stroke-width:0.755906;stroke-linecap:butt;stroke-linejoin:round;stroke-dasharray:1.51181, 0.755906;stroke-dashoffset:0;stroke-opacity:0.976471"
         d="m 320.99787,250.60181 2.47312,-23.24645"
         id="path13213"
         sodipodi:nodetypes="cc" />
      <path
         style="fill:#000000;fill-opacity:1;stroke:none;stroke-width:0.755906;stroke-linecap:butt;stroke-linejoin:round;stroke-dasharray:none;stroke-dashoffset:0;stroke-opacity:0.976471"
         d="m 321.51354,227.17535 3.88336,0.31993 -1.57009,-4.24079 z"
         id="path13215"
         sodipodi:nodetypes="cccc" />
    </g>
    <g
       id="g13235"
       transform="rotate(75,310.73237,42.230326)">
      <path
         style="fill:none;fill-opacity:1;stroke:#000000;stroke-width:0.755906;stroke-linecap:butt;stroke-linejoin:round;stroke-dasharray:1.51181, 0.755906;stroke-dashoffset:0;stroke-opacity:0.976471"
         d="m 321.8697,280.58947 21.71206,-28.90016"
         id="path13231"
         sodipodi:nodetypes="cc" />
      <path
         style="fill:#000000;fill-opacity:1;stroke:none;stroke-width:0.755906;stroke-linecap:butt;stroke-linejoin:round;stroke-dasharray:none;stroke-dashoffset:0;stroke-opacity:0.976471"
         d="m 341.97656,250.55469 3.20313,2.21875 0.76065,-4.45768 z"
         id="path13233"
         sodipodi:nodetypes="cccc" />
    </g>
    <g
       id="g13241"
       transform="rotate(86.843,336.53148,77.577454)">
      <path
         style="fill:none;fill-opacity:1;stroke:#000000;stroke-width:0.755906;stroke-linecap:butt;stroke-linejoin:round;stroke-dasharray:1.51181, 0.755906;stroke-dashoffset:0;stroke-opacity:0.976471"
         d="m 313.93063,289.71203 29.65113,-38.02272"
         id="path13237"
         sodipodi:nodetypes="cc" />
      <path
         style="fill:#000000;fill-opacity:1;stroke:none;stroke-width:0.755906;stroke-linecap:butt;stroke-linejoin:round;stroke-dasharray:none;stroke-dashoffset:0;stroke-opacity:0.976471"
         d="m 341.97656,250.55469 3.20313,2.21875 0.76065,-4.45768 z"
         id="path13239"
         sodipodi:nodetypes="cccc" />
    </g>
    <g
       id="g13247"
       transform="rotate(-75,240.15201,359.33717)">
      <path
         style="fill:none;fill-opacity:1;stroke:#000000;stroke-width:0.755906;stroke-linecap:butt;stroke-linejoin:round;stroke-dasharray:1.51181, 0.755906;stroke-dashoffset:0;stroke-opacity:0.976471"
         d="M 323.02064,278.90848 344.7327,250.00832"
         id="path13243"
         sodipodi:nodetypes="cc" />
      <path
         style="fill:#000000;fill-opacity:1;stroke:none;stroke-width:0.755906;stroke-linecap:butt;stroke-linejoin:round;stroke-dasharray:none;stroke-dashoffset:0;stroke-opacity:0.976471"
         d="m 341.97656,250.55469 3.20313,2.21875 0.76065,-4.45768 z"
         id="path13245"
         sodipodi:nodetypes="cccc" />
    </g>
    <g
       id="g13253"
       transform="matrix(-0.25881905,-0.96592583,-0.96592583,0.25881905,540.69037,496.84378)">
      <path
         style="fill:none;fill-opacity:1;stroke:#000000;stroke-width:0.755906;stroke-linecap:butt;stroke-linejoin:round;stroke-dasharray:1.51181, 0.755906;stroke-dashoffset:0;stroke-opacity:0.976471"
         d="m 321.8697,280.58947 25.55745,-34.18558"
         id="path13249"
         sodipodi:nodetypes="cc" />
      <path
         style="fill:#000000;fill-opacity:1;stroke:none;stroke-width:0.755906;stroke-linecap:butt;stroke-linejoin:round;stroke-dasharray:none;stroke-dashoffset:0;stroke-opacity:0.976471"
         d="m 345.06889,246.38612 3.20313,2.21875 0.76065,-4.45768 z"
         id="path13251"
         sodipodi:nodetypes="cccc" />
    </g>
    <g
       id="g13425"
       transform="rotate(75,274.13282,59.871913)">
      <path
         style="fill:none;fill-opacity:1;stroke:#000000;stroke-width:0.755906;stroke-linecap:butt;stroke-linejoin:round;stroke-dasharray:1.51181, 0.755906;stroke-dashoffset:0;stroke-opacity:0.976471"
         d="m 321.8697,280.58947 21.71206,-28.90016"
         id="path13421"
         sodipodi:nodetypes="cc" />
      <path
         style="fill:#000000;fill-opacity:1;stroke:none;stroke-width:0.755906;stroke-linecap:butt;stroke-linejoin:round;stroke-dasharray:none;stroke-dashoffset:0;stroke-opacity:0.976471"
         d="m 341.97656,250.55469 3.20313,2.21875 0.76065,-4.45768 z"
         id="path13423"
         sodipodi:nodetypes="cccc" />
    </g>
    <text
       xml:space="preserve"
       style="font-size:8px;font-family:sans-serif;-inkscape-font-specification:'sans-serif, Normal';fill:#000000;fill-opacity:1;stroke:none;stroke-width:0.755906;stroke-linecap:butt;stroke-linejoin:round;stroke-dasharray:none;stroke-dashoffset:0;stroke-opacity:0.976471"
       x="257.12314"
       y="457.57523"
       id="text13600"><tspan
         sodipodi:role="line"
         x="257.12314"
         y="457.57523"
         id="tspan13598"
         style="font-size:8px;text-align:center;text-anchor:middle">Larger clade</tspan><tspan
         sodipodi:role="line"
         x="257.12314"
         y="467.57523"
         style="font-size:8px;text-align:center;text-anchor:middle"
         id="tspan13604">(cluster)</tspan></text>
    <path
       style="fill:none;fill-opacity:1;stroke:#000000;stroke-width:0.755906;stroke-linecap:butt;stroke-linejoin:round;stroke-dasharray:1.51181, 0.755906;stroke-dashoffset:0;stroke-opacity:0.976471"
       d="m 271.11857,427.72335 -18.01542,22.64356"
       id="path13606"
       sodipodi:nodetypes="cc" />
    <path
       style="fill:#000000;fill-opacity:1;stroke:none;stroke-width:0.755906;stroke-linecap:butt;stroke-linejoin:round;stroke-dasharray:none;stroke-dashoffset:0;stroke-opacity:0.976471"
       d="m 272.92896,428.54946 -3.10346,-2.35615 4.00134,-2.10683 z"
       id="path13608"
       sodipodi:nodetypes="cccc" />
    <path
       style="fill:none;fill-opacity:1;stroke:#000000;stroke-width:0.755906;stroke-linecap:butt;stroke-linejoin:round;stroke-dasharray:1.51181, 0.755906;stroke-dashoffset:0;stroke-opacity:0.976471"
       d="m 280.10105,329.4003 16.83293,-18.97131"
       id="path13610"
       sodipodi:nodetypes="cc" />
    <path
       style="fill:#000000;fill-opacity:1;stroke:none;stroke-width:0.755906;stroke-linecap:butt;stroke-linejoin:round;stroke-dasharray:none;stroke-dashoffset:0;stroke-opacity:0.976471"
       d="m 278.34394,328.4662 2.95527,2.53955 -4.12144,1.86096 z"
       id="path13612"
       sodipodi:nodetypes="cccc" />
    <path
       style="fill:none;fill-opacity:1;stroke:#000000;stroke-width:0.755906;stroke-linecap:butt;stroke-linejoin:round;stroke-dasharray:1.51181, 0.755906;stroke-dashoffset:0;stroke-opacity:0.976471"
       d="M 313.23061,329.4003 296.39768,310.42899"
       id="path13614"
       sodipodi:nodetypes="cc" />
    <path
       style="fill:#000000;fill-opacity:1;stroke:none;stroke-width:0.755906;stroke-linecap:butt;stroke-linejoin:round;stroke-dasharray:none;stroke-dashoffset:0;stroke-opacity:0.976471"
       d="m 314.98772,328.4662 -2.95527,2.53955 4.12144,1.86096 z"
       id="path13616"
       sodipodi:nodetypes="cccc" />
    <text
       xml:space="preserve"
       style="font-size:8px;font-family:sans-serif;-inkscape-font-specification:'sans-serif, Normal';fill:#000000;fill-opacity:1;stroke:none;stroke-width:0.755906;stroke-linecap:butt;stroke-linejoin:round;stroke-dasharray:none;stroke-dashoffset:0;stroke-opacity:0.976471"
       x="298.93082"
       y="299.09491"
       id="text13622"><tspan
         sodipodi:role="line"
         x="298.93082"
         y="299.09491"
         id="tspan13618"
         style="font-size:8px;text-align:center;text-anchor:middle">Nested clades</tspan><tspan
         sodipodi:role="line"
         x="298.93082"
         y="309.09491"
         style="font-size:8px;text-align:center;text-anchor:middle"
         id="tspan13620">(clusters)</tspan></text>
    <path
       style="fill:none;fill-opacity:1;stroke:#000000;stroke-width:1.88976;stroke-linecap:butt;stroke-linejoin:round;stroke-dasharray:none;stroke-dashoffset:0;stroke-opacity:0.976471"
       d="M 114.4411,447.78148 V 420.50023"
       id="path13805" />
    <path
       style="fill:none;fill-opacity:1;stroke:#000000;stroke-width:1.88976;stroke-linecap:butt;stroke-linejoin:round;stroke-dasharray:none;stroke-dashoffset:0;stroke-opacity:0.976471"
       d="M 334.94793,458.73059 V 442.93983"
       id="path13807"
       sodipodi:nodetypes="cc" />
    <path
       style="fill:none;fill-opacity:1;stroke:#000000;stroke-width:1.88976;stroke-linecap:butt;stroke-linejoin:round;stroke-dasharray:none;stroke-dashoffset:0;stroke-opacity:0.976471"
       d="m 295.5851,419.57689 v 23.57298 h 77.72826 v -23.84993"
       id="path13809"
       sodipodi:nodetypes="cccc" />
    <path
       style="fill:none;fill-opacity:1;stroke:#000000;stroke-width:1.88976;stroke-linecap:butt;stroke-linejoin:round;stroke-dasharray:none;stroke-dashoffset:0;stroke-opacity:0.976471"
       d="m 279.63246,395.78148 v 23.57444 h 31.66513 v -23.56663"
       id="path13811"
       sodipodi:nodetypes="cccc" />
    <path
       style="fill:none;fill-opacity:1;stroke:#000000;stroke-width:1.88976;stroke-linecap:butt;stroke-linejoin:round;stroke-dasharray:none;stroke-dashoffset:0;stroke-opacity:0.976471"
       d="m 357.65867,395.78148 v 23.57444 h 31.66513 v -23.56663"
       id="path13813"
       sodipodi:nodetypes="cccc" />
    <path
       style="fill:none;fill-opacity:1;stroke:#000000;stroke-width:1.88976;stroke-linecap:butt;stroke-linejoin:round;stroke-dasharray:none;stroke-dashoffset:0;stroke-opacity:0.976471"
       d="m 287.49903,338.14747 v 57.60876 H 272.42881 V 360.3125"
       id="path13815"
       sodipodi:nodetypes="cccc" />
    <path
       style="fill:none;fill-opacity:1;stroke:#000000;stroke-width:1.88976;stroke-linecap:butt;stroke-linejoin:round;stroke-dasharray:none;stroke-dashoffset:0;stroke-opacity:0.976471"
       d="m 322.67787,375.08274 v 21.24801 h -18.56156 v -58.20372"
       id="path13817"
       sodipodi:nodetypes="cccc" />
    <path
       style="fill:none;fill-opacity:1;stroke:#000000;stroke-width:1.88976;stroke-linecap:butt;stroke-linejoin:round;stroke-dasharray:none;stroke-dashoffset:0;stroke-opacity:0.976471"
       d="m 365.81153,374.1408 v 21.61543 H 350.74131 V 373.8125"
       id="path13819"
       sodipodi:nodetypes="cccc" />
    <path
       style="fill:none;fill-opacity:1;stroke:#000000;stroke-width:1.88976;stroke-linecap:butt;stroke-linejoin:round;stroke-dasharray:none;stroke-dashoffset:0;stroke-opacity:0.976471"
       d="m 397.07041,361.20577 v 34.55046 h -15.9541 V 360.3125"
       id="path13821"
       sodipodi:nodetypes="cccc" />
    <path
       style="fill:none;fill-opacity:1;stroke:#000000;stroke-width:1.88976;stroke-linecap:butt;stroke-linejoin:round;stroke-dasharray:none;stroke-dashoffset:0;stroke-opacity:0.976471"
       d="m 265.37984,338.14913 v 21.97555 h 14.53989 v -21.97003"
       id="path13823" />
    <path
       style="fill:none;fill-opacity:1;stroke:#000000;stroke-width:1.88976;stroke-linecap:butt;stroke-linejoin:round;stroke-dasharray:none;stroke-dashoffset:0;stroke-opacity:0.976471"
       d="m 314.70054,338.19332 v 36.83584 h 15.21384 v -36.83584"
       id="path13825"
       sodipodi:nodetypes="cccc" />
    <path
       style="fill:none;fill-opacity:1;stroke:#000000;stroke-width:1.88976;stroke-linecap:butt;stroke-linejoin:round;stroke-dasharray:none;stroke-dashoffset:0;stroke-opacity:0.976471"
       d="m 346.76922,338.56273 v 35.64062 h 8.09375 v -35.60937"
       id="path13827" />
    <path
       style="fill:none;fill-opacity:1;stroke:#000000;stroke-width:1.88976;stroke-linecap:butt;stroke-linejoin:round;stroke-dasharray:none;stroke-dashoffset:0;stroke-opacity:0.976471"
       d="m 361.11297,338.56273 v 35.64062 h 8.09375 v -35.60937"
       id="path13829" />
    <path
       style="fill:none;fill-opacity:1;stroke:#000000;stroke-width:1.88976;stroke-linecap:butt;stroke-linejoin:round;stroke-dasharray:none;stroke-dashoffset:0;stroke-opacity:0.976471"
       d="m 376.75771,338.51971 v 21.45312 h 8.09375 v -21.42187"
       id="path13831"
       sodipodi:nodetypes="cccc" />
    <path
       style="fill:none;fill-opacity:1;stroke:#000000;stroke-width:1.88976;stroke-linecap:butt;stroke-linejoin:round;stroke-dasharray:none;stroke-dashoffset:0;stroke-opacity:0.976471"
       d="m 393.41891,338.51971 v 22.77895 h 8.09375 v -22.7477"
       id="path13833"
       sodipodi:nodetypes="cccc" />
  </g>
</svg>
