<svg width="1735" height="553" xmlns="http://www.w3.org/2000/svg" xmlns:xlink="http://www.w3.org/1999/xlink" overflow="hidden"><defs><clipPath id="clip0"><rect x="545" y="1847" width="1735" height="553"/></clipPath></defs><g clip-path="url(#clip0)" transform="translate(-545 -1847)"><path d="M545.5 2063.5 1792.93 2063.5" stroke="#C3D69B" stroke-width="20.625" stroke-linejoin="round" stroke-miterlimit="10" fill="none" fill-rule="evenodd"/><path d="M627.5 2063.5 939.358 2063.5" stroke="#77933C" stroke-width="20.625" stroke-linejoin="round" stroke-miterlimit="10" fill="none" fill-rule="evenodd"/><path d="M1077.5 2063.5 1260.93 2063.5" stroke="#558ED5" stroke-width="20.625" stroke-linejoin="round" stroke-miterlimit="10" fill="none" fill-rule="evenodd"/><path d="M1376.5 2063.5 1740.33 2063.5" stroke="#E46C0A" stroke-width="20.625" stroke-linejoin="round" stroke-miterlimit="10" fill="none" fill-rule="evenodd"/><text font-family="Calibri,Calibri_MSFontService,sans-serif" font-weight="400" font-size="50" transform="matrix(1 0 0 1 733.429 2040)">exon 1<tspan font-size="50" x="361.778" y="0">exon 2</tspan><tspan font-size="50" x="727.669" y="0">exon 3</tspan><tspan font-size="50" x="1111.72" y="40">genomic reference</tspan></text><path d="M1636 2141 1739.95 2141" stroke="#E46C0A" stroke-width="10.3125" stroke-linejoin="round" stroke-miterlimit="10" fill="none" fill-rule="evenodd"/><path d="M1586 2167 1689.95 2167" stroke="#E46C0A" stroke-width="10.3125" stroke-linejoin="round" stroke-miterlimit="10" fill="none" fill-rule="evenodd"/><path d="M1506 2141 1609.95 2141" stroke="#E46C0A" stroke-width="10.3125" stroke-linejoin="round" stroke-miterlimit="10" fill="none" fill-rule="evenodd"/><path d="M1500 2193 1603.95 2193" stroke="#E46C0A" stroke-width="10.3125" stroke-linejoin="round" stroke-miterlimit="10" fill="none" fill-rule="evenodd"/><path d="M1437 2167 1540.95 2167" stroke="#E46C0A" stroke-width="10.3125" stroke-linejoin="round" stroke-miterlimit="10" fill="none" fill-rule="evenodd"/><path d="M1402 2219 1505.95 2219" stroke="#E46C0A" stroke-width="10.3125" stroke-linejoin="round" stroke-miterlimit="10" fill="none" fill-rule="evenodd"/><path d="M1643 2219 1746.95 2219" stroke="#E46C0A" stroke-width="10.3125" stroke-linejoin="round" stroke-miterlimit="10" fill="none" fill-rule="evenodd"/><path d="M1515 2220 1618.95 2220" stroke="#E46C0A" stroke-width="10.3125" stroke-linejoin="round" stroke-miterlimit="10" fill="none" fill-rule="evenodd"/><path d="M821 2147 924.953 2147" stroke="#77933C" stroke-width="10.3125" stroke-linejoin="round" stroke-miterlimit="10" fill="none" fill-rule="evenodd"/><path d="M785 2173 888.953 2173" stroke="#77933C" stroke-width="10.3125" stroke-linejoin="round" stroke-miterlimit="10" fill="none" fill-rule="evenodd"/><path d="M697 2147 800.953 2147" stroke="#77933C" stroke-width="10.3125" stroke-linejoin="round" stroke-miterlimit="10" fill="none" fill-rule="evenodd"/><path d="M699 2199 802.953 2199" stroke="#77933C" stroke-width="10.3125" stroke-linejoin="round" stroke-miterlimit="10" fill="none" fill-rule="evenodd"/><path d="M636 2173 739.953 2173" stroke="#77933C" stroke-width="10.3125" stroke-linejoin="round" stroke-miterlimit="10" fill="none" fill-rule="evenodd"/><path d="M648 2225 751.953 2225" stroke="#77933C" stroke-width="10.3125" stroke-linejoin="round" stroke-miterlimit="10" fill="none" fill-rule="evenodd"/><path d="M817 2225 920.953 2225" stroke="#77933C" stroke-width="10.3125" stroke-linejoin="round" stroke-miterlimit="10" fill="none" fill-rule="evenodd"/><path d="M1148 2146 1251.95 2146" stroke="#558ED5" stroke-width="10.3125" stroke-linejoin="round" stroke-miterlimit="10" fill="none" fill-rule="evenodd"/><path d="M1150 2198 1253.95 2198" stroke="#558ED5" stroke-width="10.3125" stroke-linejoin="round" stroke-miterlimit="10" fill="none" fill-rule="evenodd"/><path d="M1087 2172 1190.95 2172" stroke="#558ED5" stroke-width="10.3125" stroke-linejoin="round" stroke-miterlimit="10" fill="none" fill-rule="evenodd"/><path d="M1100 2224 1203.95 2224" stroke="#558ED5" stroke-width="10.3125" stroke-linejoin="round" stroke-miterlimit="10" fill="none" fill-rule="evenodd"/><path d="M1076 2323 1127.98 2323" stroke="#558ED5" stroke-width="10.3125" stroke-linejoin="round" stroke-miterlimit="10" fill="none" fill-rule="evenodd"/><path d="M880 2323 942.248 2323" stroke="#77933C" stroke-width="10.3125" stroke-linejoin="round" stroke-miterlimit="10" fill="none" fill-rule="evenodd"/><path d="M942.5 2323.5 1076.57 2323.5" stroke="#000000" stroke-width="4.58333" stroke-linejoin="round" stroke-miterlimit="10" stroke-dasharray="18.3333 13.75" fill="none" fill-rule="evenodd"/><path d="M1077 2297 1152.21 2297.28" stroke="#558ED5" stroke-width="10.3125" stroke-linejoin="round" stroke-miterlimit="10" fill="none" fill-rule="evenodd"/><path d="M915 2297 941.874 2297" stroke="#77933C" stroke-width="10.3125" stroke-linejoin="round" stroke-miterlimit="10" fill="none" fill-rule="evenodd"/><path d="M942.5 2297.5 1076.57 2297.5" stroke="#000000" stroke-width="4.58333" stroke-linejoin="round" stroke-miterlimit="10" stroke-dasharray="18.3333 13.75" fill="none" fill-rule="evenodd"/><path d="M1262.98 2323 1211 2323" stroke="#558ED5" stroke-width="10.3125" stroke-linejoin="round" stroke-miterlimit="10" fill="none" fill-rule="evenodd"/><path d="M1449.25 2323 1387 2323" stroke="#E46C0A" stroke-width="10.3125" stroke-linejoin="round" stroke-miterlimit="10" fill="none" fill-rule="evenodd"/><path d="M0 0 121.553 0.558661" stroke="#000000" stroke-width="4.58333" stroke-linejoin="round" stroke-miterlimit="10" stroke-dasharray="18.3333 13.75" fill="none" fill-rule="evenodd" transform="matrix(-1 0 0 1 1385.05 2323.5)"/><path d="M1264.21 2297.28 1189 2297" stroke="#558ED5" stroke-width="10.3125" stroke-linejoin="round" stroke-miterlimit="10" fill="none" fill-rule="evenodd"/><path d="M1411.87 2297 1385 2297" stroke="#E46C0A" stroke-width="10.3125" stroke-linejoin="round" stroke-miterlimit="10" fill="none" fill-rule="evenodd"/><path d="M1376.7 2297.78 1264.5 2297.5" stroke="#000000" stroke-width="4.58333" stroke-linejoin="round" stroke-miterlimit="10" stroke-dasharray="18.3333 13.75" fill="none" fill-rule="evenodd"/><path d="M0 0 89.7958 0.279331" stroke="#558ED5" stroke-width="10.3125" stroke-linejoin="round" stroke-miterlimit="10" fill="none" fill-rule="evenodd" transform="matrix(1 0 0 -1 1078 2378.28)"/><path d="M921 2378 944.307 2378.28" stroke="#77933C" stroke-width="10.3125" stroke-linejoin="round" stroke-miterlimit="10" fill="none" fill-rule="evenodd"/><path d="M945.5 2378.5 1079.57 2378.5" stroke="#000000" stroke-width="4.58333" stroke-linejoin="round" stroke-miterlimit="10" stroke-dasharray="18.3333 13.75" fill="none" fill-rule="evenodd"/><path d="M1079 2352 1100.08 2352.42" stroke="#558ED5" stroke-width="10.3125" stroke-linejoin="round" stroke-miterlimit="10" fill="none" fill-rule="evenodd"/><path d="M0 0 74.9321 0.139665" stroke="#77933C" stroke-width="10.3125" stroke-linejoin="round" stroke-miterlimit="10" fill="none" fill-rule="evenodd" transform="matrix(1 0 0 -1 869 2352.14)"/><path d="M945.5 2352.5 1079.57 2352.5" stroke="#000000" stroke-width="4.58333" stroke-linejoin="round" stroke-miterlimit="10" stroke-dasharray="18.3333 13.75" fill="none" fill-rule="evenodd"/><path d="M0 0 65.288 0.279331" stroke="#558ED5" stroke-width="10.3125" stroke-linejoin="round" stroke-miterlimit="10" fill="none" fill-rule="evenodd" transform="matrix(-1 0 0 1 1265.29 2378)"/><path d="M0 0 60.0889 0.279331" stroke="#E46C0A" stroke-width="10.3125" stroke-linejoin="round" stroke-miterlimit="10" fill="none" fill-rule="evenodd" transform="matrix(-1 0 0 1 1450.09 2378)"/><path d="M0 0 121.553 0.558661" stroke="#000000" stroke-width="4.58333" stroke-linejoin="round" stroke-miterlimit="10" stroke-dasharray="18.3333 13.75" fill="none" fill-rule="evenodd" transform="matrix(-1 0 0 1 1387.05 2378.5)"/><path d="M1265.79 2352.14 1237 2352" stroke="#558ED5" stroke-width="10.3125" stroke-linejoin="round" stroke-miterlimit="10" fill="none" fill-rule="evenodd"/><path d="M0 0 50.0428 0.279331" stroke="#E46C0A" stroke-width="10.3125" stroke-linejoin="round" stroke-miterlimit="10" fill="none" fill-rule="evenodd" transform="matrix(-1 0 0 1 1437.04 2352)"/><path d="M1378.7 2352.78 1266.5 2352.5" stroke="#000000" stroke-width="4.58333" stroke-linejoin="round" stroke-miterlimit="10" stroke-dasharray="18.3333 13.75" fill="none" fill-rule="evenodd"/><text font-family="Calibri,Calibri_MSFontService,sans-serif" font-weight="400" font-size="50" transform="matrix(1 0 0 1 1845.14 2163)">normal <tspan font-size="50" x="0" y="62">aligning reads</tspan><tspan font-size="50" x="0" y="192">spliced reads</tspan></text><path d="M1370 1859 1473.95 1859" stroke="#E46C0A" stroke-width="10.3125" stroke-linejoin="round" stroke-miterlimit="10" fill="none" fill-rule="evenodd"/><path d="M1274 1898 1377.95 1898" stroke="#E46C0A" stroke-width="10.3125" stroke-linejoin="round" stroke-miterlimit="10" fill="none" fill-rule="evenodd"/><path d="M858 1872 961.953 1872" stroke="#E46C0A" stroke-width="10.3125" stroke-linejoin="round" stroke-miterlimit="10" fill="none" fill-rule="evenodd"/><path d="M1123 1908 1226.95 1908" stroke="#E46C0A" stroke-width="10.3125" stroke-linejoin="round" stroke-miterlimit="10" fill="none" fill-rule="evenodd"/><path d="M985 1878 1088.95 1878" stroke="#E46C0A" stroke-width="10.3125" stroke-linejoin="round" stroke-miterlimit="10" fill="none" fill-rule="evenodd"/><path d="M1457 1924 1560.95 1924" stroke="#E46C0A" stroke-width="10.3125" stroke-linejoin="round" stroke-miterlimit="10" fill="none" fill-rule="evenodd"/><path d="M1370 1951 1473.95 1951" stroke="#E46C0A" stroke-width="10.3125" stroke-linejoin="round" stroke-miterlimit="10" fill="none" fill-rule="evenodd"/><path d="M993 1930 1096.95 1930" stroke="#E46C0A" stroke-width="10.3125" stroke-linejoin="round" stroke-miterlimit="10" fill="none" fill-rule="evenodd"/><path d="M1350 1878 1453.95 1878" stroke="#77933C" stroke-width="10.3125" stroke-linejoin="round" stroke-miterlimit="10" fill="none" fill-rule="evenodd"/><path d="M999 1898 1102.95 1898" stroke="#77933C" stroke-width="10.3125" stroke-linejoin="round" stroke-miterlimit="10" fill="none" fill-rule="evenodd"/><path d="M1218 1854 1321.95 1854" stroke="#77933C" stroke-width="10.3125" stroke-linejoin="round" stroke-miterlimit="10" fill="none" fill-rule="evenodd"/><path d="M1239 1952 1342.95 1952" stroke="#77933C" stroke-width="10.3125" stroke-linejoin="round" stroke-miterlimit="10" fill="none" fill-rule="evenodd"/><path d="M691 1878 794.953 1878" stroke="#77933C" stroke-width="10.3125" stroke-linejoin="round" stroke-miterlimit="10" fill="none" fill-rule="evenodd"/><path d="M703 1930 806.953 1930" stroke="#77933C" stroke-width="10.3125" stroke-linejoin="round" stroke-miterlimit="10" fill="none" fill-rule="evenodd"/><path d="M872 1930 975.953 1930" stroke="#77933C" stroke-width="10.3125" stroke-linejoin="round" stroke-miterlimit="10" fill="none" fill-rule="evenodd"/><path d="M1097 1854 1200.95 1854" stroke="#558ED5" stroke-width="10.3125" stroke-linejoin="round" stroke-miterlimit="10" fill="none" fill-rule="evenodd"/><path d="M740 1852 843.953 1852" stroke="#558ED5" stroke-width="10.3125" stroke-linejoin="round" stroke-miterlimit="10" fill="none" fill-rule="evenodd"/><path d="M863 1901 966.953 1901" stroke="#558ED5" stroke-width="10.3125" stroke-linejoin="round" stroke-miterlimit="10" fill="none" fill-rule="evenodd"/><path d="M1471 1878 1574.95 1878" stroke="#558ED5" stroke-width="10.3125" stroke-linejoin="round" stroke-miterlimit="10" fill="none" fill-rule="evenodd"/><path d="M1555 1952 1606.98 1952" stroke="#558ED5" stroke-width="10.3125" stroke-linejoin="round" stroke-miterlimit="10" fill="none" fill-rule="evenodd"/><path d="M1494 1952 1556.25 1952" stroke="#77933C" stroke-width="10.3125" stroke-linejoin="round" stroke-miterlimit="10" fill="none" fill-rule="evenodd"/><path d="M850 1952 925.214 1952.28" stroke="#558ED5" stroke-width="10.3125" stroke-linejoin="round" stroke-miterlimit="10" fill="none" fill-rule="evenodd"/><path d="M831 1951 857.874 1951" stroke="#77933C" stroke-width="10.3125" stroke-linejoin="round" stroke-miterlimit="10" fill="none" fill-rule="evenodd"/><path d="M949.976 1852 898 1852" stroke="#558ED5" stroke-width="10.3125" stroke-linejoin="round" stroke-miterlimit="10" fill="none" fill-rule="evenodd"/><path d="M1013.25 1852 951 1852" stroke="#E46C0A" stroke-width="10.3125" stroke-linejoin="round" stroke-miterlimit="10" fill="none" fill-rule="evenodd"/><path d="M1225.21 1878.28 1150 1878" stroke="#558ED5" stroke-width="10.3125" stroke-linejoin="round" stroke-miterlimit="10" fill="none" fill-rule="evenodd"/><path d="M1251.87 1878 1225 1878" stroke="#E46C0A" stroke-width="10.3125" stroke-linejoin="round" stroke-miterlimit="10" fill="none" fill-rule="evenodd"/><path d="M0 0 89.7958 0.279331" stroke="#558ED5" stroke-width="10.3125" stroke-linejoin="round" stroke-miterlimit="10" fill="none" fill-rule="evenodd" transform="matrix(1 0 0 -1 1120 1952.28)"/><path d="M1099 1952 1122.31 1952.28" stroke="#77933C" stroke-width="10.3125" stroke-linejoin="round" stroke-miterlimit="10" fill="none" fill-rule="evenodd"/><path d="M1359 1923 1380.08 1923.42" stroke="#558ED5" stroke-width="10.3125" stroke-linejoin="round" stroke-miterlimit="10" fill="none" fill-rule="evenodd"/><path d="M0 0 74.9321 0.139665" stroke="#77933C" stroke-width="10.3125" stroke-linejoin="round" stroke-miterlimit="10" fill="none" fill-rule="evenodd" transform="matrix(1 0 0 -1 1288 1922.14)"/><path d="M0 0 65.288 0.279331" stroke="#558ED5" stroke-width="10.3125" stroke-linejoin="round" stroke-miterlimit="10" fill="none" fill-rule="evenodd" transform="matrix(-1 0 0 1 1022.29 1951)"/><path d="M0 0 60.0889 0.279331" stroke="#E46C0A" stroke-width="10.3125" stroke-linejoin="round" stroke-miterlimit="10" fill="none" fill-rule="evenodd" transform="matrix(-1 0 0 1 1066.09 1951)"/><path d="M757.97 1902 703 1902" stroke="#558ED5" stroke-width="10.3125" stroke-linejoin="round" stroke-miterlimit="10" fill="none" fill-rule="evenodd"/><path d="M0 0 50.0428 0.279331" stroke="#E46C0A" stroke-width="10.3125" stroke-linejoin="round" stroke-miterlimit="10" fill="none" fill-rule="evenodd" transform="matrix(-1 0 0 1 807.043 1902)"/><text font-family="Calibri,Calibri_MSFontService,sans-serif" font-weight="400" font-size="50" transform="matrix(1 0 0 1 1845.42 1920)">sequence reads</text></g></svg>