<svg width="829" height="674" viewBox="0 0 829 674" fill="none" xmlns="http://www.w3.org/2000/svg">
<rect width="829" height="674" fill="white"/>
<path d="M252 599C391.2 599 504 486.2 504 347C504 207.8 391.2 95 252 95C112.8 95 0 207.8 0 347C0 486.2 112.8 599 252 599Z" fill="#0053D6"/>
<path d="M251 552.2C260.499 552.2 268.2 544.499 268.2 535C268.2 525.501 260.499 517.8 251 517.8C241.501 517.8 233.8 525.501 233.8 535C233.8 544.499 241.501 552.2 251 552.2Z" fill="#A8CAFF"/>
<path d="M251 549.6C255.197 549.6 258.6 546.197 258.6 542C258.6 537.803 255.197 534.4 251 534.4C246.803 534.4 243.4 537.803 243.4 542C243.4 546.197 246.803 549.6 251 549.6Z" fill="#9967F6"/>
<path d="M2.42 20L2.42 6L4.54 6L11.56 16.54V6H13.68L13.68 20L11.56 20L4.54 9.46L4.54 20H2.42ZM20.6016 20.24C19.4016 20.24 18.4549 19.8667 17.7616 19.12C17.0816 18.3733 16.7416 17.26 16.7416 15.78V10.08L18.8616 10.08L18.8616 15.56C18.8616 17.48 19.6482 18.44 21.2216 18.44C22.0082 18.44 22.6549 18.16 23.1616 17.6C23.6682 17.04 23.9216 16.24 23.9216 15.2L23.9216 10.08H26.0416L26.0416 20H24.1616L24.0016 18.26C23.6949 18.8733 23.2416 19.36 22.6416 19.72C22.0549 20.0667 21.3749 20.24 20.6016 20.24ZM29.2384 20L29.2384 10.08H31.1184L31.2984 11.48C31.6184 10.9733 32.0384 10.5733 32.5584 10.28C33.0918 9.98667 33.7051 9.84 34.3984 9.84C35.9718 9.84 37.0651 10.46 37.6784 11.7C38.0384 11.1267 38.5184 10.6733 39.1184 10.34C39.7318 10.0067 40.3918 9.84 41.0984 9.84C42.3384 9.84 43.3118 10.2133 44.0184 10.96C44.7251 11.7067 45.0784 12.82 45.0784 14.3V20H42.9584V14.52C42.9584 12.6 42.2251 11.64 40.7584 11.64C40.0118 11.64 39.3984 11.92 38.9184 12.48C38.4518 13.04 38.2184 13.84 38.2184 14.88V20H36.0984V14.52C36.0984 12.6 35.3584 11.64 33.8784 11.64C33.1451 11.64 32.5384 11.92 32.0584 12.48C31.5918 13.04 31.3584 13.84 31.3584 14.88V20H29.2384ZM53.6388 20.24C52.8654 20.24 52.1788 20.0867 51.5788 19.78C50.9921 19.4733 50.5254 19.04 50.1788 18.48L49.9588 20H48.0588V5.6H50.1788V11.62C50.4988 11.1533 50.9388 10.74 51.4988 10.38C52.0588 10.02 52.7788 9.84 53.6588 9.84C54.6188 9.84 55.4654 10.0667 56.1988 10.52C56.9321 10.9733 57.5054 11.5933 57.9188 12.38C58.3454 13.1667 58.5588 14.06 58.5588 15.06C58.5588 16.06 58.3454 16.9533 57.9188 17.74C57.5054 18.5133 56.9321 19.1267 56.1988 19.58C55.4654 20.02 54.6121 20.24 53.6388 20.24ZM53.2788 18.4C54.1854 18.4 54.9321 18.0933 55.5188 17.48C56.1054 16.8533 56.3988 16.04 56.3988 15.04C56.3988 14.3867 56.2654 13.8067 55.9988 13.3C55.7321 12.7933 55.3654 12.4 54.8988 12.12C54.4321 11.8267 53.8921 11.68 53.2788 11.68C52.3721 11.68 51.6254 11.9933 51.0388 12.62C50.4654 13.2467 50.1788 14.0533 50.1788 15.04C50.1788 16.04 50.4654 16.8533 51.0388 17.48C51.6254 18.0933 52.3721 18.4 53.2788 18.4ZM65.9917 20.24C65.0184 20.24 64.1517 20.0267 63.3917 19.6C62.6451 19.16 62.0584 18.5533 61.6317 17.78C61.2051 17.0067 60.9917 16.1067 60.9917 15.08C60.9917 14.04 61.1984 13.1267 61.6117 12.34C62.0384 11.5533 62.6251 10.94 63.3717 10.5C64.1317 10.06 65.0117 9.84 66.0117 9.84C66.9851 9.84 67.8317 10.06 68.5517 10.5C69.2717 10.9267 69.8317 11.5 70.2317 12.22C70.6317 12.94 70.8317 13.7333 70.8317 14.6C70.8317 14.7333 70.8251 14.88 70.8117 15.04C70.8117 15.1867 70.8051 15.3533 70.7917 15.54H63.0717C63.1384 16.5 63.4517 17.2333 64.0117 17.74C64.5851 18.2333 65.2451 18.48 65.9917 18.48C66.5917 18.48 67.0917 18.3467 67.4917 18.08C67.9051 17.8 68.2117 17.4267 68.4117 16.96H70.5317C70.2651 17.8933 69.7317 18.6733 68.9317 19.3C68.1451 19.9267 67.1651 20.24 65.9917 20.24ZM65.9917 11.58C65.2851 11.58 64.6584 11.7933 64.1117 12.22C63.5651 12.6333 63.2317 13.26 63.1117 14.1H68.7117C68.6717 13.3267 68.3984 12.7133 67.8917 12.26C67.3851 11.8067 66.7517 11.58 65.9917 11.58ZM73.5314 20V10.08H75.4314L75.6114 11.96C75.9581 11.3067 76.4381 10.7933 77.0514 10.42C77.6781 10.0333 78.4314 9.84 79.3114 9.84V12.06H78.7314C78.1447 12.06 77.6181 12.16 77.1514 12.36C76.6981 12.5467 76.3314 12.8733 76.0514 13.34C75.7847 13.7933 75.6514 14.4267 75.6514 15.24V20H73.5314ZM91.8081 20.24C90.8615 20.24 90.0081 20.0267 89.2481 19.6C88.5015 19.16 87.9081 18.5533 87.4681 17.78C87.0281 16.9933 86.8081 16.08 86.8081 15.04C86.8081 14 87.0281 13.0933 87.4681 12.32C87.9215 11.5333 88.5281 10.9267 89.2881 10.5C90.0481 10.06 90.8948 9.84 91.8281 9.84C92.7748 9.84 93.6215 10.06 94.3681 10.5C95.1281 10.9267 95.7281 11.5333 96.1681 12.32C96.6215 13.0933 96.8481 14 96.8481 15.04C96.8481 16.08 96.6215 16.9933 96.1681 17.78C95.7281 18.5533 95.1281 19.16 94.3681 19.6C93.6081 20.0267 92.7548 20.24 91.8081 20.24ZM91.8081 18.42C92.3148 18.42 92.7815 18.2933 93.2081 18.04C93.6481 17.7867 94.0015 17.4133 94.2681 16.92C94.5348 16.4133 94.6681 15.7867 94.6681 15.04C94.6681 14.2933 94.5348 13.6733 94.2681 13.18C94.0148 12.6733 93.6681 12.2933 93.2281 12.04C92.8015 11.7867 92.3348 11.66 91.8281 11.66C91.3215 11.66 90.8481 11.7867 90.4081 12.04C89.9815 12.2933 89.6348 12.6733 89.3681 13.18C89.1015 13.6733 88.9681 14.2933 88.9681 15.04C88.9681 15.7867 89.1015 16.4133 89.3681 16.92C89.6348 17.4133 89.9815 17.7867 90.4081 18.04C90.8348 18.2933 91.3015 18.42 91.8081 18.42ZM100.141 20V11.86H98.7208V10.08H100.141V8.64C100.141 7.56 100.407 6.78667 100.941 6.32C101.487 5.84 102.254 5.6 103.241 5.6H104.281V7.4H103.561C103.094 7.4 102.761 7.5 102.561 7.7C102.361 7.88667 102.261 8.20667 102.261 8.66V10.08H104.541V11.86H102.261V20L100.141 20ZM112.674 20V6L117.574 6C118.667 6 119.574 6.18667 120.294 6.56C121.014 6.92 121.547 7.42 121.894 8.06C122.254 8.68667 122.434 9.4 122.434 10.2C122.434 10.96 122.261 11.66 121.914 12.3C121.581 12.9267 121.054 13.4267 120.334 13.8C119.614 14.1733 118.694 14.36 117.574 14.36L114.794 14.36V20H112.674ZM114.794 12.62L117.474 12.62C118.474 12.62 119.187 12.4067 119.614 11.98C120.054 11.54 120.274 10.9467 120.274 10.2C120.274 9.42667 120.054 8.82667 119.614 8.4C119.187 7.96 118.474 7.74 117.474 7.74H114.794V12.62ZM124.949 20V10.08H126.849L127.029 11.96C127.376 11.3067 127.856 10.7933 128.469 10.42C129.096 10.0333 129.849 9.84 130.729 9.84V12.06H130.149C129.563 12.06 129.036 12.16 128.569 12.36C128.116 12.5467 127.749 12.8733 127.469 13.34C127.203 13.7933 127.069 14.4267 127.069 15.24V20H124.949ZM137.414 20.24C136.467 20.24 135.614 20.0267 134.854 19.6C134.107 19.16 133.514 18.5533 133.074 17.78C132.634 16.9933 132.414 16.08 132.414 15.04C132.414 14 132.634 13.0933 133.074 12.32C133.527 11.5333 134.134 10.9267 134.894 10.5C135.654 10.06 136.5 9.84 137.434 9.84C138.38 9.84 139.227 10.06 139.974 10.5C140.734 10.9267 141.334 11.5333 141.774 12.32C142.227 13.0933 142.454 14 142.454 15.04C142.454 16.08 142.227 16.9933 141.774 17.78C141.334 18.5533 140.734 19.16 139.974 19.6C139.214 20.0267 138.36 20.24 137.414 20.24ZM137.414 18.42C137.92 18.42 138.387 18.2933 138.814 18.04C139.254 17.7867 139.607 17.4133 139.874 16.92C140.14 16.4133 140.274 15.7867 140.274 15.04C140.274 14.2933 140.14 13.6733 139.874 13.18C139.62 12.6733 139.274 12.2933 138.834 12.04C138.407 11.7867 137.94 11.66 137.434 11.66C136.927 11.66 136.454 11.7867 136.014 12.04C135.587 12.2933 135.24 12.6733 134.974 13.18C134.707 13.6733 134.574 14.2933 134.574 15.04C134.574 15.7867 134.707 16.4133 134.974 16.92C135.24 17.4133 135.587 17.7867 136.014 18.04C136.44 18.2933 136.907 18.42 137.414 18.42ZM149.016 20C148.042 20 147.269 19.7667 146.696 19.3C146.122 18.82 145.836 17.9733 145.836 16.76V11.86H144.136V10.08H145.836L146.096 7.56L147.956 7.56V10.08L150.756 10.08V11.86L147.956 11.86V16.76C147.956 17.3067 148.069 17.6867 148.296 17.9C148.536 18.1 148.942 18.2 149.516 18.2H150.656V20H149.016ZM157.828 20.24C156.854 20.24 155.988 20.0267 155.228 19.6C154.481 19.16 153.894 18.5533 153.468 17.78C153.041 17.0067 152.828 16.1067 152.828 15.08C152.828 14.04 153.034 13.1267 153.448 12.34C153.874 11.5533 154.461 10.94 155.208 10.5C155.968 10.06 156.848 9.84 157.848 9.84C158.821 9.84 159.668 10.06 160.388 10.5C161.108 10.9267 161.668 11.5 162.068 12.22C162.468 12.94 162.668 13.7333 162.668 14.6C162.668 14.7333 162.661 14.88 162.648 15.04C162.648 15.1867 162.641 15.3533 162.628 15.54L154.908 15.54C154.974 16.5 155.288 17.2333 155.848 17.74C156.421 18.2333 157.081 18.48 157.828 18.48C158.428 18.48 158.928 18.3467 159.328 18.08C159.741 17.8 160.048 17.4267 160.248 16.96H162.368C162.101 17.8933 161.568 18.6733 160.768 19.3C159.981 19.9267 159.001 20.24 157.828 20.24ZM157.828 11.58C157.121 11.58 156.494 11.7933 155.948 12.22C155.401 12.6333 155.068 13.26 154.948 14.1H160.548C160.508 13.3267 160.234 12.7133 159.728 12.26C159.221 11.8067 158.588 11.58 157.828 11.58ZM166.567 8.2C166.167 8.2 165.834 8.08 165.567 7.84C165.314 7.58667 165.187 7.27333 165.187 6.9C165.187 6.52667 165.314 6.22 165.567 5.98C165.834 5.72667 166.167 5.6 166.567 5.6C166.967 5.6 167.294 5.72667 167.547 5.98C167.814 6.22 167.947 6.52667 167.947 6.9C167.947 7.27333 167.814 7.58667 167.547 7.84C167.294 8.08 166.967 8.2 166.567 8.2ZM165.507 20V10.08H167.627V20L165.507 20ZM170.926 20V10.08L172.806 10.08L172.966 11.82C173.273 11.2067 173.719 10.7267 174.306 10.38C174.906 10.02 175.593 9.84 176.366 9.84C177.566 9.84 178.506 10.2133 179.186 10.96C179.879 11.7067 180.226 12.82 180.226 14.3V20H178.126V14.52C178.126 12.6 177.339 11.64 175.766 11.64C174.979 11.64 174.326 11.92 173.806 12.48C173.299 13.04 173.046 13.84 173.046 14.88V20H170.926ZM193.462 20.24C192.435 20.24 191.535 20.06 190.762 19.7C189.989 19.34 189.382 18.8267 188.942 18.16C188.515 17.4933 188.295 16.7 188.282 15.78H190.522C190.535 16.5267 190.795 17.16 191.302 17.68C191.809 18.2 192.522 18.46 193.442 18.46C194.255 18.46 194.889 18.2667 195.342 17.88C195.809 17.48 196.042 16.9733 196.042 16.36C196.042 15.8667 195.929 15.4667 195.702 15.16C195.489 14.8533 195.189 14.6 194.802 14.4C194.429 14.2 193.995 14.02 193.502 13.86C193.009 13.7 192.489 13.5267 191.942 13.34C190.862 12.98 190.049 12.5133 189.502 11.94C188.969 11.3667 188.702 10.6133 188.702 9.68C188.689 8.89333 188.869 8.20667 189.242 7.62C189.629 7.03333 190.162 6.58 190.842 6.26C191.535 5.92667 192.342 5.76 193.262 5.76C194.169 5.76 194.962 5.92667 195.642 6.26C196.335 6.59333 196.875 7.06 197.262 7.66C197.649 8.24667 197.849 8.93333 197.862 9.72H195.622C195.622 9.36 195.529 9.02 195.342 8.7C195.155 8.36667 194.882 8.09333 194.522 7.88C194.162 7.66667 193.722 7.56 193.202 7.56C192.535 7.54667 191.982 7.71333 191.542 8.06C191.115 8.40667 190.902 8.88667 190.902 9.5C190.902 10.0467 191.062 10.4667 191.382 10.76C191.702 11.0533 192.142 11.3 192.702 11.5C193.262 11.6867 193.902 11.9067 194.622 12.16C195.315 12.3867 195.935 12.66 196.482 12.98C197.029 13.3 197.462 13.72 197.782 14.24C198.115 14.76 198.282 15.42 198.282 16.22C198.282 16.9267 198.102 17.5867 197.742 18.2C197.382 18.8 196.842 19.2933 196.122 19.68C195.402 20.0533 194.515 20.24 193.462 20.24ZM205.18 20C204.206 20 203.433 19.7667 202.86 19.3C202.286 18.82 202 17.9733 202 16.76V11.86H200.3V10.08H202L202.26 7.56L204.12 7.56V10.08L206.92 10.08V11.86L204.12 11.86V16.76C204.12 17.3067 204.233 17.6867 204.46 17.9C204.7 18.1 205.106 18.2 205.68 18.2H206.82V20H205.18ZM209.606 20V10.08H211.506L211.686 11.96C212.032 11.3067 212.512 10.7933 213.126 10.42C213.752 10.0333 214.506 9.84 215.386 9.84V12.06H214.806C214.219 12.06 213.692 12.16 213.226 12.36C212.772 12.5467 212.406 12.8733 212.126 13.34C211.859 13.7933 211.726 14.4267 211.726 15.24V20L209.606 20ZM221.363 20.24C220.163 20.24 219.217 19.8667 218.523 19.12C217.843 18.3733 217.503 17.26 217.503 15.78V10.08H219.623V15.56C219.623 17.48 220.41 18.44 221.983 18.44C222.77 18.44 223.417 18.16 223.923 17.6C224.43 17.04 224.683 16.24 224.683 15.2V10.08H226.803V20H224.923L224.763 18.26C224.457 18.8733 224.003 19.36 223.403 19.72C222.817 20.0667 222.137 20.24 221.363 20.24ZM234.7 20.24C233.727 20.24 232.853 20.02 232.08 19.58C231.32 19.14 230.72 18.5333 230.28 17.76C229.853 16.9733 229.64 16.0667 229.64 15.04C229.64 14.0133 229.853 13.1133 230.28 12.34C230.72 11.5533 231.32 10.94 232.08 10.5C232.853 10.06 233.727 9.84 234.7 9.84C235.927 9.84 236.953 10.16 237.78 10.8C238.62 11.44 239.16 12.3067 239.4 13.4L237.18 13.4C237.047 12.8533 236.753 12.4267 236.3 12.12C235.847 11.8133 235.313 11.66 234.7 11.66C234.18 11.66 233.7 11.7933 233.26 12.06C232.82 12.3133 232.467 12.6933 232.2 13.2C231.933 13.6933 231.8 14.3067 231.8 15.04C231.8 15.7733 231.933 16.3933 232.2 16.9C232.467 17.3933 232.82 17.7733 233.26 18.04C233.7 18.3067 234.18 18.44 234.7 18.44C235.313 18.44 235.847 18.2867 236.3 17.98C236.753 17.6733 237.047 17.24 237.18 16.68H239.4C239.173 17.7467 238.64 18.6067 237.8 19.26C236.96 19.9133 235.927 20.24 234.7 20.24ZM246.164 20C245.191 20 244.417 19.7667 243.844 19.3C243.271 18.82 242.984 17.9733 242.984 16.76V11.86H241.284V10.08H242.984L243.244 7.56H245.104V10.08H247.904V11.86H245.104V16.76C245.104 17.3067 245.217 17.6867 245.444 17.9C245.684 18.1 246.091 18.2 246.664 18.2H247.804V20H246.164ZM254.25 20.24C253.05 20.24 252.103 19.8667 251.41 19.12C250.73 18.3733 250.39 17.26 250.39 15.78V10.08H252.51V15.56C252.51 17.48 253.297 18.44 254.87 18.44C255.657 18.44 256.303 18.16 256.81 17.6C257.317 17.04 257.57 16.24 257.57 15.2V10.08H259.69V20H257.81L257.65 18.26C257.343 18.8733 256.89 19.36 256.29 19.72C255.703 20.0667 255.023 20.24 254.25 20.24ZM262.887 20V10.08H264.787L264.967 11.96C265.314 11.3067 265.794 10.7933 266.407 10.42C267.034 10.0333 267.787 9.84 268.667 9.84V12.06H268.087C267.5 12.06 266.974 12.16 266.507 12.36C266.054 12.5467 265.687 12.8733 265.407 13.34C265.14 13.7933 265.007 14.4267 265.007 15.24V20H262.887ZM275.351 20.24C274.378 20.24 273.511 20.0267 272.751 19.6C272.004 19.16 271.418 18.5533 270.991 17.78C270.564 17.0067 270.351 16.1067 270.351 15.08C270.351 14.04 270.558 13.1267 270.971 12.34C271.398 11.5533 271.984 10.94 272.731 10.5C273.491 10.06 274.371 9.84 275.371 9.84C276.344 9.84 277.191 10.06 277.911 10.5C278.631 10.9267 279.191 11.5 279.591 12.22C279.991 12.94 280.191 13.7333 280.191 14.6C280.191 14.7333 280.184 14.88 280.171 15.04C280.171 15.1867 280.164 15.3533 280.151 15.54H272.431C272.498 16.5 272.811 17.2333 273.371 17.74C273.944 18.2333 274.604 18.48 275.351 18.48C275.951 18.48 276.451 18.3467 276.851 18.08C277.264 17.8 277.571 17.4267 277.771 16.96H279.891C279.624 17.8933 279.091 18.6733 278.291 19.3C277.504 19.9267 276.524 20.24 275.351 20.24ZM275.351 11.58C274.644 11.58 274.018 11.7933 273.471 12.22C272.924 12.6333 272.591 13.26 272.471 14.1H278.071C278.031 13.3267 277.758 12.7133 277.251 12.26C276.744 11.8067 276.111 11.58 275.351 11.58ZM286.851 20.24C285.597 20.24 284.564 19.9333 283.751 19.32C282.937 18.7067 282.471 17.8933 282.351 16.88H284.491C284.597 17.3333 284.851 17.7267 285.251 18.06C285.651 18.38 286.177 18.54 286.831 18.54C287.471 18.54 287.937 18.4067 288.231 18.14C288.524 17.8733 288.671 17.5667 288.671 17.22C288.671 16.7133 288.464 16.3733 288.051 16.2C287.651 16.0133 287.091 15.8467 286.371 15.7C285.811 15.58 285.251 15.42 284.691 15.22C284.144 15.02 283.684 14.74 283.311 14.38C282.951 14.0067 282.771 13.5067 282.771 12.88C282.771 12.0133 283.104 11.2933 283.771 10.72C284.437 10.1333 285.371 9.84 286.571 9.84C287.677 9.84 288.571 10.1067 289.251 10.64C289.944 11.1733 290.351 11.9267 290.471 12.9H288.431C288.364 12.4733 288.164 12.14 287.831 11.9C287.511 11.66 287.077 11.54 286.531 11.54C285.997 11.54 285.584 11.6533 285.291 11.88C284.997 12.0933 284.851 12.3733 284.851 12.72C284.851 13.0667 285.051 13.34 285.451 13.54C285.864 13.74 286.404 13.92 287.071 14.08C287.737 14.2267 288.351 14.4 288.911 14.6C289.484 14.7867 289.944 15.0667 290.291 15.44C290.637 15.8133 290.811 16.36 290.811 17.08C290.824 17.9867 290.471 18.74 289.751 19.34C289.044 19.94 288.077 20.24 286.851 20.24Z" fill="#0053D6"/>
<path d="M546.545 251L546.545 251.5L546.545 251ZM591.333 251C591.333 252.473 592.527 253.667 594 253.667C595.473 253.667 596.667 252.473 596.667 251C596.667 249.527 595.473 248.333 594 248.333C592.527 248.333 591.333 249.527 591.333 251ZM420 251.5L546.545 251.5L546.545 250.5L420 250.5L420 251.5ZM546.545 251.5L594 251.5L594 250.5L546.545 250.5L546.545 251.5Z" fill="#0053D6"/>
<path d="M545.992 340L545.992 340.5L545.992 340ZM591.333 340C591.333 338.527 592.527 337.333 594 337.333C595.473 337.333 596.667 338.527 596.667 340C596.667 341.473 595.473 342.667 594 342.667C592.527 342.667 591.333 341.473 591.333 340ZM256 340L256 339.5L256 340ZM251.5 522L251.5 344L252.5 344L252.5 522L251.5 522ZM256 339.5L545.992 339.5L545.992 340.5L256 340.5L256 339.5ZM545.992 339.5L594 339.5L594 340.5L545.992 340.5L545.992 339.5ZM251.5 344C251.5 341.515 253.515 339.5 256 339.5L256 340.5C254.067 340.5 252.5 342.067 252.5 344L251.5 344Z" fill="#A8CAFF"/>
<path d="M591.333 430C591.333 428.528 592.527 427.334 594 427.334C595.473 427.334 596.667 428.528 596.667 430C596.667 431.473 595.473 432.667 594 432.667C592.527 432.667 591.333 431.473 591.333 430ZM263.425 433L262.925 433L263.425 433ZM266.425 430L266.425 429.5L266.425 430ZM260.425 542L260.425 541.5L260.425 542ZM255 541.5L260.425 541.5L260.425 542.5L255 542.5L255 541.5ZM262.925 539L262.925 433L263.925 433L263.925 539L262.925 539ZM266.425 429.5L594 429.5L594 430.5L266.425 430.5L266.425 429.5ZM262.925 433C262.925 431.067 264.492 429.5 266.425 429.5L266.425 430.5C265.045 430.5 263.925 431.62 263.925 433L262.925 433ZM260.425 541.5C261.806 541.5 262.925 540.381 262.925 539L263.925 539C263.925 540.933 262.358 542.5 260.425 542.5L260.425 541.5Z" fill="#A261FF"/>
<path d="M614.345 243L618.185 232.5H620.345L624.185 243H622.145L621.305 240.57H617.21L616.355 243H614.345ZM617.735 239.07H620.78L619.25 234.705L617.735 239.07ZM626.243 243V232.2H628.163V243H626.243ZM630.874 246.3V235.56H632.584L632.794 236.625C633.034 236.295 633.349 236.005 633.739 235.755C634.139 235.505 634.654 235.38 635.284 235.38C635.984 235.38 636.609 235.55 637.159 235.89C637.709 236.23 638.144 236.695 638.464 237.285C638.784 237.875 638.944 238.545 638.944 239.295C638.944 240.045 638.784 240.715 638.464 241.305C638.144 241.885 637.709 242.345 637.159 242.685C636.609 243.015 635.984 243.18 635.284 243.18C634.724 243.18 634.234 243.075 633.814 242.865C633.394 242.655 633.054 242.36 632.794 241.98V246.3H630.874ZM634.879 241.5C635.489 241.5 635.994 241.295 636.394 240.885C636.794 240.475 636.994 239.945 636.994 239.295C636.994 238.645 636.794 238.11 636.394 237.69C635.994 237.27 635.489 237.06 634.879 237.06C634.259 237.06 633.749 237.27 633.349 237.69C632.959 238.1 632.764 238.63 632.764 239.28C632.764 239.93 632.959 240.465 633.349 240.885C633.749 241.295 634.259 241.5 634.879 241.5ZM641.41 243V232.2H643.33V236.7C643.58 236.29 643.915 235.97 644.335 235.74C644.765 235.5 645.255 235.38 645.805 235.38C646.725 235.38 647.435 235.67 647.935 236.25C648.445 236.83 648.7 237.68 648.7 238.8V243H646.795V238.98C646.795 238.34 646.665 237.85 646.405 237.51C646.155 237.17 645.755 237 645.205 237C644.665 237 644.215 237.19 643.855 237.57C643.505 237.95 643.33 238.48 643.33 239.16V243H641.41ZM653.851 243.18C653.211 243.18 652.686 243.08 652.276 242.88C651.866 242.67 651.561 242.395 651.361 242.055C651.161 241.715 651.061 241.34 651.061 240.93C651.061 240.24 651.331 239.68 651.871 239.25C652.411 238.82 653.221 238.605 654.301 238.605H656.191V238.425C656.191 237.915 656.046 237.54 655.756 237.3C655.466 237.06 655.106 236.94 654.676 236.94C654.286 236.94 653.946 237.035 653.656 237.225C653.366 237.405 653.186 237.675 653.116 238.035H651.241C651.291 237.495 651.471 237.025 651.781 236.625C652.101 236.225 652.511 235.92 653.011 235.71C653.511 235.49 654.071 235.38 654.691 235.38C655.751 235.38 656.586 235.645 657.196 236.175C657.806 236.705 658.111 237.455 658.111 238.425V243H656.476L656.296 241.8C656.076 242.2 655.766 242.53 655.366 242.79C654.976 243.05 654.471 243.18 653.851 243.18ZM654.286 241.68C654.836 241.68 655.261 241.5 655.561 241.14C655.871 240.78 656.066 240.335 656.146 239.805H654.511C654.001 239.805 653.636 239.9 653.416 240.09C653.196 240.27 653.086 240.495 653.086 240.765C653.086 241.055 653.196 241.28 653.416 241.44C653.636 241.6 653.926 241.68 654.286 241.68ZM660.738 243V232.5H667.518V234.045H662.658V236.985H666.588V238.5H662.658V243H660.738ZM672.879 243.18C672.159 243.18 671.509 243.015 670.929 242.685C670.359 242.355 669.904 241.9 669.564 241.32C669.234 240.73 669.069 240.05 669.069 239.28C669.069 238.51 669.239 237.835 669.579 237.255C669.919 236.665 670.374 236.205 670.944 235.875C671.524 235.545 672.174 235.38 672.894 235.38C673.604 235.38 674.244 235.545 674.814 235.875C675.394 236.205 675.849 236.665 676.179 237.255C676.519 237.835 676.689 238.51 676.689 239.28C676.689 240.05 676.519 240.73 676.179 241.32C675.849 241.9 675.394 242.355 674.814 242.685C674.234 243.015 673.589 243.18 672.879 243.18ZM672.879 241.515C673.379 241.515 673.814 241.33 674.184 240.96C674.554 240.58 674.739 240.02 674.739 239.28C674.739 238.54 674.554 237.985 674.184 237.615C673.814 237.235 673.384 237.045 672.894 237.045C672.384 237.045 671.944 237.235 671.574 237.615C671.214 237.985 671.034 238.54 671.034 239.28C671.034 240.02 671.214 240.58 671.574 240.96C671.944 241.33 672.379 241.515 672.879 241.515ZM679.156 243V232.2H681.076V243H679.156ZM687.208 243.18C686.508 243.18 685.883 243.01 685.333 242.67C684.783 242.33 684.348 241.865 684.028 241.275C683.708 240.685 683.548 240.015 683.548 239.265C683.548 238.515 683.708 237.85 684.028 237.27C684.348 236.68 684.783 236.22 685.333 235.89C685.883 235.55 686.508 235.38 687.208 235.38C687.768 235.38 688.258 235.485 688.678 235.695C689.098 235.905 689.438 236.2 689.698 236.58V232.2H691.618V243H689.908L689.698 241.935C689.458 242.265 689.138 242.555 688.738 242.805C688.348 243.055 687.838 243.18 687.208 243.18ZM687.613 241.5C688.233 241.5 688.738 241.295 689.128 240.885C689.528 240.465 689.728 239.93 689.728 239.28C689.728 238.63 689.528 238.1 689.128 237.69C688.738 237.27 688.233 237.06 687.613 237.06C687.003 237.06 686.498 237.265 686.098 237.675C685.698 238.085 685.498 238.615 685.498 239.265C685.498 239.915 685.698 240.45 686.098 240.87C686.498 241.29 687.003 241.5 687.613 241.5ZM698.692 243V232.5H702.277C703.507 232.5 704.517 232.72 705.307 233.16C706.107 233.59 706.697 234.2 707.077 234.99C707.467 235.77 707.662 236.69 707.662 237.75C707.662 238.81 707.467 239.735 707.077 240.525C706.697 241.305 706.107 241.915 705.307 242.355C704.517 242.785 703.507 243 702.277 243H698.692ZM700.612 241.35H702.187C703.067 241.35 703.762 241.21 704.272 240.93C704.782 240.64 705.147 240.23 705.367 239.7C705.587 239.16 705.697 238.51 705.697 237.75C705.697 237 705.587 236.355 705.367 235.815C705.147 235.275 704.782 234.86 704.272 234.57C703.762 234.28 703.067 234.135 702.187 234.135H700.612V241.35ZM710.106 243V232.5H714.321C715.411 232.5 716.241 232.755 716.811 233.265C717.391 233.765 717.681 234.41 717.681 235.2C717.681 235.86 717.501 236.39 717.141 236.79C716.791 237.18 716.361 237.445 715.851 237.585C716.451 237.705 716.946 238.005 717.336 238.485C717.726 238.955 717.921 239.505 717.921 240.135C717.921 240.965 717.621 241.65 717.021 242.19C716.421 242.73 715.571 243 714.471 243H710.106ZM712.026 236.91H714.036C714.576 236.91 714.991 236.785 715.281 236.535C715.571 236.285 715.716 235.93 715.716 235.47C715.716 235.03 715.571 234.685 715.281 234.435C715.001 234.175 714.576 234.045 714.006 234.045H712.026V236.91ZM712.026 241.44H714.171C714.741 241.44 715.181 241.31 715.491 241.05C715.811 240.78 715.971 240.405 715.971 239.925C715.971 239.435 715.806 239.05 715.476 238.77C715.146 238.49 714.701 238.35 714.141 238.35H712.026V241.44ZM727.913 243C727.133 243 726.508 242.81 726.038 242.43C725.568 242.05 725.333 241.375 725.333 240.405V237.165H724.058V235.56H725.333L725.558 233.565H727.253V235.56H729.263V237.165H727.253V240.42C727.253 240.78 727.328 241.03 727.478 241.17C727.638 241.3 727.908 241.365 728.288 241.365H729.218V243H727.913ZM735.041 243.18C734.321 243.18 733.671 243.015 733.091 242.685C732.521 242.355 732.066 241.9 731.726 241.32C731.396 240.73 731.231 240.05 731.231 239.28C731.231 238.51 731.401 237.835 731.741 237.255C732.081 236.665 732.536 236.205 733.106 235.875C733.686 235.545 734.336 235.38 735.056 235.38C735.766 235.38 736.406 235.545 736.976 235.875C737.556 236.205 738.011 236.665 738.341 237.255C738.681 237.835 738.851 238.51 738.851 239.28C738.851 240.05 738.681 240.73 738.341 241.32C738.011 241.9 737.556 242.355 736.976 242.685C736.396 243.015 735.751 243.18 735.041 243.18ZM735.041 241.515C735.541 241.515 735.976 241.33 736.346 240.96C736.716 240.58 736.901 240.02 736.901 239.28C736.901 238.54 736.716 237.985 736.346 237.615C735.976 237.235 735.546 237.045 735.056 237.045C734.546 237.045 734.106 237.235 733.736 237.615C733.376 237.985 733.196 238.54 733.196 239.28C733.196 240.02 733.376 240.58 733.736 240.96C734.106 241.33 734.541 241.515 735.041 241.515ZM744.738 243.18C744.038 243.18 743.413 243.01 742.863 242.67C742.313 242.33 741.878 241.865 741.558 241.275C741.238 240.685 741.078 240.015 741.078 239.265C741.078 238.515 741.238 237.85 741.558 237.27C741.878 236.68 742.313 236.22 742.863 235.89C743.413 235.55 744.038 235.38 744.738 235.38C745.298 235.38 745.788 235.485 746.208 235.695C746.628 235.905 746.968 236.2 747.228 236.58V232.2H749.148V243H747.438L747.228 241.935C746.988 242.265 746.668 242.555 746.268 242.805C745.878 243.055 745.368 243.18 744.738 243.18ZM745.143 241.5C745.763 241.5 746.268 241.295 746.658 240.885C747.058 240.465 747.258 239.93 747.258 239.28C747.258 238.63 747.058 238.1 746.658 237.69C746.268 237.27 745.763 237.06 745.143 237.06C744.533 237.06 744.028 237.265 743.628 237.675C743.228 238.085 743.028 238.615 743.028 239.265C743.028 239.915 743.228 240.45 743.628 240.87C744.028 241.29 744.533 241.5 745.143 241.5ZM754.418 243.18C753.778 243.18 753.253 243.08 752.843 242.88C752.433 242.67 752.128 242.395 751.928 242.055C751.728 241.715 751.628 241.34 751.628 240.93C751.628 240.24 751.898 239.68 752.438 239.25C752.978 238.82 753.788 238.605 754.868 238.605H756.758V238.425C756.758 237.915 756.613 237.54 756.323 237.3C756.033 237.06 755.673 236.94 755.243 236.94C754.853 236.94 754.513 237.035 754.223 237.225C753.933 237.405 753.753 237.675 753.683 238.035H751.808C751.858 237.495 752.038 237.025 752.348 236.625C752.668 236.225 753.078 235.92 753.578 235.71C754.078 235.49 754.638 235.38 755.258 235.38C756.318 235.38 757.153 235.645 757.763 236.175C758.373 236.705 758.678 237.455 758.678 238.425V243H757.043L756.863 241.8C756.643 242.2 756.333 242.53 755.933 242.79C755.543 243.05 755.038 243.18 754.418 243.18ZM754.853 241.68C755.403 241.68 755.828 241.5 756.128 241.14C756.438 240.78 756.633 240.335 756.713 239.805H755.078C754.568 239.805 754.203 239.9 753.983 240.09C753.763 240.27 753.653 240.495 753.653 240.765C753.653 241.055 753.763 241.28 753.983 241.44C754.203 241.6 754.493 241.68 754.853 241.68ZM761.941 246.3L763.666 242.505H763.216L760.321 235.56H762.406L764.491 240.795L766.666 235.56H768.706L763.981 246.3H761.941Z" fill="#0053D6"/>
<path d="M614.855 270V268.86C615.535 268.32 616.185 267.775 616.805 267.225C617.425 266.675 617.975 266.135 618.455 265.605C618.945 265.065 619.33 264.54 619.61 264.03C619.89 263.51 620.03 263.01 620.03 262.53C620.03 262.21 619.975 261.91 619.865 261.63C619.755 261.34 619.575 261.11 619.325 260.94C619.075 260.76 618.74 260.67 618.32 260.67C617.69 260.67 617.215 260.87 616.895 261.27C616.585 261.67 616.435 262.15 616.445 262.71H614.9C614.91 261.97 615.065 261.35 615.365 260.85C615.675 260.35 616.085 259.97 616.595 259.71C617.115 259.45 617.7 259.32 618.35 259.32C619.34 259.32 620.13 259.6 620.72 260.16C621.32 260.71 621.62 261.48 621.62 262.47C621.62 263.06 621.475 263.645 621.185 264.225C620.905 264.805 620.535 265.365 620.075 265.905C619.625 266.435 619.14 266.935 618.62 267.405C618.1 267.875 617.605 268.3 617.135 268.68H621.935V270H614.855ZM628.482 270.18C627.532 270.18 626.712 269.955 626.022 269.505C625.342 269.045 624.817 268.41 624.447 267.6C624.087 266.78 623.907 265.83 623.907 264.75C623.907 263.67 624.087 262.725 624.447 261.915C624.817 261.095 625.342 260.46 626.022 260.01C626.712 259.55 627.532 259.32 628.482 259.32C629.432 259.32 630.247 259.55 630.927 260.01C631.607 260.46 632.127 261.095 632.487 261.915C632.857 262.725 633.042 263.67 633.042 264.75C633.042 265.83 632.857 266.78 632.487 267.6C632.127 268.41 631.607 269.045 630.927 269.505C630.247 269.955 629.432 270.18 628.482 270.18ZM628.482 268.755C629.052 268.755 629.557 268.595 629.997 268.275C630.447 267.955 630.797 267.495 631.047 266.895C631.297 266.295 631.422 265.58 631.422 264.75C631.422 263.92 631.297 263.205 631.047 262.605C630.797 262.005 630.447 261.545 629.997 261.225C629.557 260.905 629.052 260.745 628.482 260.745C627.902 260.745 627.392 260.905 626.952 261.225C626.512 261.545 626.167 262.005 625.917 262.605C625.667 263.205 625.542 263.92 625.542 264.75C625.542 265.58 625.667 266.295 625.917 266.895C626.167 267.495 626.512 267.955 626.952 268.275C627.392 268.595 627.902 268.755 628.482 268.755ZM639.764 270.18C638.814 270.18 637.994 269.955 637.304 269.505C636.624 269.045 636.099 268.41 635.729 267.6C635.369 266.78 635.189 265.83 635.189 264.75C635.189 263.67 635.369 262.725 635.729 261.915C636.099 261.095 636.624 260.46 637.304 260.01C637.994 259.55 638.814 259.32 639.764 259.32C640.714 259.32 641.529 259.55 642.209 260.01C642.889 260.46 643.409 261.095 643.769 261.915C644.139 262.725 644.324 263.67 644.324 264.75C644.324 265.83 644.139 266.78 643.769 267.6C643.409 268.41 642.889 269.045 642.209 269.505C641.529 269.955 640.714 270.18 639.764 270.18ZM639.764 268.755C640.334 268.755 640.839 268.595 641.279 268.275C641.729 267.955 642.079 267.495 642.329 266.895C642.579 266.295 642.704 265.58 642.704 264.75C642.704 263.92 642.579 263.205 642.329 262.605C642.079 262.005 641.729 261.545 641.279 261.225C640.839 260.905 640.334 260.745 639.764 260.745C639.184 260.745 638.674 260.905 638.234 261.225C637.794 261.545 637.449 262.005 637.199 262.605C636.949 263.205 636.824 263.92 636.824 264.75C636.824 265.58 636.949 266.295 637.199 266.895C637.449 267.495 637.794 267.955 638.234 268.275C638.674 268.595 639.184 268.755 639.764 268.755ZM646.846 270V259.5H648.721L652.276 266.49L655.816 259.5H657.691V270H656.101V262.245L652.891 268.5H651.661L648.436 262.26V270H646.846ZM660.41 266.31V264.975H663.245V262.32H664.625V264.975H667.46V266.31H664.625V268.98H663.245V266.31H660.41ZM678.167 270.18C677.397 270.18 676.722 270.045 676.142 269.775C675.562 269.505 675.107 269.12 674.777 268.62C674.457 268.12 674.292 267.525 674.282 266.835H675.962C675.972 267.395 676.167 267.87 676.547 268.26C676.927 268.65 677.462 268.845 678.152 268.845C678.762 268.845 679.237 268.7 679.577 268.41C679.927 268.11 680.102 267.73 680.102 267.27C680.102 266.9 680.017 266.6 679.847 266.37C679.687 266.14 679.462 265.95 679.172 265.8C678.892 265.65 678.567 265.515 678.197 265.395C677.827 265.275 677.437 265.145 677.027 265.005C676.217 264.735 675.607 264.385 675.197 263.955C674.797 263.525 674.597 262.96 674.597 262.26C674.587 261.67 674.722 261.155 675.002 260.715C675.292 260.275 675.692 259.935 676.202 259.695C676.722 259.445 677.327 259.32 678.017 259.32C678.697 259.32 679.292 259.445 679.802 259.695C680.322 259.945 680.727 260.295 681.017 260.745C681.307 261.185 681.457 261.7 681.467 262.29H679.787C679.787 262.02 679.717 261.765 679.577 261.525C679.437 261.275 679.232 261.07 678.962 260.91C678.692 260.75 678.362 260.67 677.972 260.67C677.472 260.66 677.057 260.785 676.727 261.045C676.407 261.305 676.247 261.665 676.247 262.125C676.247 262.535 676.367 262.85 676.607 263.07C676.847 263.29 677.177 263.475 677.597 263.625C678.017 263.765 678.497 263.93 679.037 264.12C679.557 264.29 680.022 264.495 680.432 264.735C680.842 264.975 681.167 265.29 681.407 265.68C681.657 266.07 681.782 266.565 681.782 267.165C681.782 267.695 681.647 268.19 681.377 268.65C681.107 269.1 680.702 269.47 680.162 269.76C679.622 270.04 678.957 270.18 678.167 270.18ZM687.33 270C686.6 270 686.02 269.825 685.59 269.475C685.16 269.115 684.945 268.48 684.945 267.57V263.895H683.67V262.56H684.945L685.14 260.67H686.535V262.56H688.635V263.895H686.535V267.57C686.535 267.98 686.62 268.265 686.79 268.425C686.97 268.575 687.275 268.65 687.705 268.65H688.56V270H687.33ZM691.025 270V262.56H692.45L692.585 263.97C692.845 263.48 693.205 263.095 693.665 262.815C694.135 262.525 694.7 262.38 695.36 262.38V264.045H694.925C694.485 264.045 694.09 264.12 693.74 264.27C693.4 264.41 693.125 264.655 692.915 265.005C692.715 265.345 692.615 265.82 692.615 266.43V270H691.025ZM700.218 270.18C699.318 270.18 698.608 269.9 698.088 269.34C697.578 268.78 697.323 267.945 697.323 266.835V262.56H698.913V266.67C698.913 268.11 699.503 268.83 700.683 268.83C701.273 268.83 701.758 268.62 702.138 268.2C702.518 267.78 702.708 267.18 702.708 266.4V262.56H704.298V270H702.888L702.768 268.695C702.538 269.155 702.198 269.52 701.748 269.79C701.308 270.05 700.798 270.18 700.218 270.18ZM710.595 270.18C709.865 270.18 709.21 270.015 708.63 269.685C708.06 269.355 707.61 268.9 707.28 268.32C706.96 267.73 706.8 267.05 706.8 266.28C706.8 265.51 706.96 264.835 707.28 264.255C707.61 263.665 708.06 263.205 708.63 262.875C709.21 262.545 709.865 262.38 710.595 262.38C711.515 262.38 712.285 262.62 712.905 263.1C713.535 263.58 713.94 264.23 714.12 265.05H712.455C712.355 264.64 712.135 264.32 711.795 264.09C711.455 263.86 711.055 263.745 710.595 263.745C710.205 263.745 709.845 263.845 709.515 264.045C709.185 264.235 708.92 264.52 708.72 264.9C708.52 265.27 708.42 265.73 708.42 266.28C708.42 266.83 708.52 267.295 708.72 267.675C708.92 268.045 709.185 268.33 709.515 268.53C709.845 268.73 710.205 268.83 710.595 268.83C711.055 268.83 711.455 268.715 711.795 268.485C712.135 268.255 712.355 267.93 712.455 267.51H714.12C713.95 268.31 713.55 268.955 712.92 269.445C712.29 269.935 711.515 270.18 710.595 270.18ZM719.568 270C718.838 270 718.258 269.825 717.828 269.475C717.398 269.115 717.183 268.48 717.183 267.57V263.895H715.908V262.56H717.183L717.378 260.67H718.773V262.56H720.873V263.895H718.773V267.57C718.773 267.98 718.858 268.265 719.028 268.425C719.208 268.575 719.513 268.65 719.943 268.65H720.798V270H719.568ZM726.008 270.18C725.108 270.18 724.398 269.9 723.878 269.34C723.368 268.78 723.113 267.945 723.113 266.835V262.56H724.703V266.67C724.703 268.11 725.293 268.83 726.473 268.83C727.063 268.83 727.548 268.62 727.928 268.2C728.308 267.78 728.498 267.18 728.498 266.4V262.56H730.088V270H728.678L728.558 268.695C728.328 269.155 727.988 269.52 727.538 269.79C727.098 270.05 726.588 270.18 726.008 270.18ZM732.86 270V262.56H734.285L734.42 263.97C734.68 263.48 735.04 263.095 735.5 262.815C735.97 262.525 736.535 262.38 737.195 262.38V264.045H736.76C736.32 264.045 735.925 264.12 735.575 264.27C735.235 264.41 734.96 264.655 734.75 265.005C734.55 265.345 734.45 265.82 734.45 266.43V270H732.86ZM742.584 270.18C741.854 270.18 741.204 270.02 740.634 269.7C740.074 269.37 739.634 268.915 739.314 268.335C738.994 267.755 738.834 267.08 738.834 266.31C738.834 265.53 738.989 264.845 739.299 264.255C739.619 263.665 740.059 263.205 740.619 262.875C741.189 262.545 741.849 262.38 742.599 262.38C743.329 262.38 743.964 262.545 744.504 262.875C745.044 263.195 745.464 263.625 745.764 264.165C746.064 264.705 746.214 265.3 746.214 265.95C746.214 266.05 746.209 266.16 746.199 266.28C746.199 266.39 746.194 266.515 746.184 266.655H740.394C740.444 267.375 740.679 267.925 741.099 268.305C741.529 268.675 742.024 268.86 742.584 268.86C743.034 268.86 743.409 268.76 743.709 268.56C744.019 268.35 744.249 268.07 744.399 267.72H745.989C745.789 268.42 745.389 269.005 744.789 269.475C744.199 269.945 743.464 270.18 742.584 270.18ZM742.584 263.685C742.054 263.685 741.584 263.845 741.174 264.165C740.764 264.475 740.514 264.945 740.424 265.575H744.624C744.594 264.995 744.389 264.535 744.009 264.195C743.629 263.855 743.154 263.685 742.584 263.685ZM751.583 270.18C750.643 270.18 749.868 269.95 749.258 269.49C748.648 269.03 748.298 268.42 748.208 267.66H749.813C749.893 268 750.083 268.295 750.383 268.545C750.683 268.785 751.078 268.905 751.568 268.905C752.048 268.905 752.398 268.805 752.618 268.605C752.838 268.405 752.948 268.175 752.948 267.915C752.948 267.535 752.793 267.28 752.483 267.15C752.183 267.01 751.763 266.885 751.223 266.775C750.803 266.685 750.383 266.565 749.963 266.415C749.553 266.265 749.208 266.055 748.928 265.785C748.658 265.505 748.523 265.13 748.523 264.66C748.523 264.01 748.773 263.47 749.273 263.04C749.773 262.6 750.473 262.38 751.373 262.38C752.203 262.38 752.873 262.58 753.383 262.98C753.903 263.38 754.208 263.945 754.298 264.675H752.768C752.718 264.355 752.568 264.105 752.318 263.925C752.078 263.745 751.753 263.655 751.343 263.655C750.943 263.655 750.633 263.74 750.413 263.91C750.193 264.07 750.083 264.28 750.083 264.54C750.083 264.8 750.233 265.005 750.533 265.155C750.843 265.305 751.248 265.44 751.748 265.56C752.248 265.67 752.708 265.8 753.128 265.95C753.558 266.09 753.903 266.3 754.163 266.58C754.423 266.86 754.553 267.27 754.553 267.81C754.563 268.49 754.298 269.055 753.758 269.505C753.228 269.955 752.503 270.18 751.583 270.18Z" fill="#0053D6"/>
<path d="M614.39 332L618.26 321.5H620L623.84 332H622.16L621.26 329.435H616.97L616.07 332H614.39ZM617.42 328.175H620.81L619.115 323.39L617.42 328.175ZM625.994 332V321.2H627.584V332H625.994ZM630.348 335.3V324.56H631.773L631.938 325.715C632.178 325.365 632.508 325.055 632.928 324.785C633.348 324.515 633.888 324.38 634.548 324.38C635.268 324.38 635.903 324.55 636.453 324.89C637.003 325.23 637.433 325.695 637.743 326.285C638.063 326.875 638.223 327.545 638.223 328.295C638.223 329.045 638.063 329.715 637.743 330.305C637.433 330.885 637.003 331.345 636.453 331.685C635.903 332.015 635.263 332.18 634.533 332.18C633.953 332.18 633.438 332.065 632.988 331.835C632.548 331.605 632.198 331.28 631.938 330.86V335.3H630.348ZM634.263 330.8C634.943 330.8 635.503 330.57 635.943 330.11C636.383 329.64 636.603 329.03 636.603 328.28C636.603 327.79 636.503 327.355 636.303 326.975C636.103 326.595 635.828 326.3 635.478 326.09C635.128 325.87 634.723 325.76 634.263 325.76C633.583 325.76 633.023 325.995 632.583 326.465C632.153 326.935 631.938 327.54 631.938 328.28C631.938 329.03 632.153 329.64 632.583 330.11C633.023 330.57 633.583 330.8 634.263 330.8ZM640.693 332V321.2H642.283V325.76C642.533 325.33 642.878 324.995 643.318 324.755C643.768 324.505 644.263 324.38 644.803 324.38C645.693 324.38 646.393 324.66 646.903 325.22C647.413 325.78 647.668 326.615 647.668 327.725V332H646.093V327.89C646.093 326.45 645.518 325.73 644.368 325.73C643.768 325.73 643.268 325.94 642.868 326.36C642.478 326.78 642.283 327.38 642.283 328.16V332H640.693ZM652.81 332.18C652.18 332.18 651.66 332.075 651.25 331.865C650.84 331.655 650.535 331.38 650.335 331.04C650.135 330.69 650.035 330.31 650.035 329.9C650.035 329.18 650.315 328.61 650.875 328.19C651.435 327.77 652.235 327.56 653.275 327.56H655.225V327.425C655.225 326.845 655.065 326.41 654.745 326.12C654.435 325.83 654.03 325.685 653.53 325.685C653.09 325.685 652.705 325.795 652.375 326.015C652.055 326.225 651.86 326.54 651.79 326.96H650.2C650.25 326.42 650.43 325.96 650.74 325.58C651.06 325.19 651.46 324.895 651.94 324.695C652.43 324.485 652.965 324.38 653.545 324.38C654.585 324.38 655.39 324.655 655.96 325.205C656.53 325.745 656.815 326.485 656.815 327.425V332H655.435L655.3 330.725C655.09 331.135 654.785 331.48 654.385 331.76C653.985 332.04 653.46 332.18 652.81 332.18ZM653.125 330.89C653.555 330.89 653.915 330.79 654.205 330.59C654.505 330.38 654.735 330.105 654.895 329.765C655.065 329.425 655.17 329.05 655.21 328.64H653.44C652.81 328.64 652.36 328.75 652.09 328.97C651.83 329.19 651.7 329.465 651.7 329.795C651.7 330.135 651.825 330.405 652.075 330.605C652.335 330.795 652.685 330.89 653.125 330.89ZM659.479 332V321.5H666.064V322.79H661.069V326.105H665.209V327.38H661.069V332H659.479ZM671.427 332.18C670.717 332.18 670.077 332.02 669.507 331.7C668.947 331.37 668.502 330.915 668.172 330.335C667.842 329.745 667.677 329.06 667.677 328.28C667.677 327.5 667.842 326.82 668.172 326.24C668.512 325.65 668.967 325.195 669.537 324.875C670.107 324.545 670.742 324.38 671.442 324.38C672.152 324.38 672.787 324.545 673.347 324.875C673.917 325.195 674.367 325.65 674.697 326.24C675.037 326.82 675.207 327.5 675.207 328.28C675.207 329.06 675.037 329.745 674.697 330.335C674.367 330.915 673.917 331.37 673.347 331.7C672.777 332.02 672.137 332.18 671.427 332.18ZM671.427 330.815C671.807 330.815 672.157 330.72 672.477 330.53C672.807 330.34 673.072 330.06 673.272 329.69C673.472 329.31 673.572 328.84 673.572 328.28C673.572 327.72 673.472 327.255 673.272 326.885C673.082 326.505 672.822 326.22 672.492 326.03C672.172 325.84 671.822 325.745 671.442 325.745C671.062 325.745 670.707 325.84 670.377 326.03C670.057 326.22 669.797 326.505 669.597 326.885C669.397 327.255 669.297 327.72 669.297 328.28C669.297 328.84 669.397 329.31 669.597 329.69C669.797 330.06 670.057 330.34 670.377 330.53C670.697 330.72 671.047 330.815 671.427 330.815ZM677.677 332V321.2H679.267V332H677.677ZM685.42 332.18C684.7 332.18 684.065 332.01 683.515 331.67C682.965 331.33 682.535 330.865 682.225 330.275C681.915 329.685 681.76 329.015 681.76 328.265C681.76 327.515 681.915 326.85 682.225 326.27C682.535 325.68 682.965 325.22 683.515 324.89C684.075 324.55 684.715 324.38 685.435 324.38C686.025 324.38 686.54 324.495 686.98 324.725C687.43 324.955 687.78 325.28 688.03 325.7V321.2H689.62V332H688.195L688.03 330.845C687.79 331.195 687.46 331.505 687.04 331.775C686.62 332.045 686.08 332.18 685.42 332.18ZM685.705 330.8C686.385 330.8 686.94 330.565 687.37 330.095C687.81 329.625 688.03 329.02 688.03 328.28C688.03 327.53 687.81 326.925 687.37 326.465C686.94 325.995 686.385 325.76 685.705 325.76C685.025 325.76 684.465 325.995 684.025 326.465C683.585 326.925 683.365 327.53 683.365 328.28C683.365 328.77 683.465 329.205 683.665 329.585C683.865 329.965 684.14 330.265 684.49 330.485C684.85 330.695 685.255 330.8 685.705 330.8ZM696.964 332V321.5H700.369C701.599 321.5 702.609 321.715 703.399 322.145C704.199 322.575 704.789 323.185 705.169 323.975C705.559 324.755 705.754 325.685 705.754 326.765C705.754 327.835 705.559 328.765 705.169 329.555C704.789 330.335 704.199 330.94 703.399 331.37C702.609 331.79 701.599 332 700.369 332H696.964ZM698.554 330.65H700.309C701.259 330.65 702.009 330.495 702.559 330.185C703.119 329.875 703.519 329.43 703.759 328.85C704.009 328.27 704.134 327.575 704.134 326.765C704.134 325.955 704.009 325.255 703.759 324.665C703.519 324.075 703.119 323.625 702.559 323.315C702.009 322.995 701.259 322.835 700.309 322.835H698.554V330.65ZM708.261 332V321.5H712.221C713.311 321.5 714.136 321.755 714.696 322.265C715.256 322.775 715.536 323.415 715.536 324.185C715.536 324.855 715.356 325.39 714.996 325.79C714.636 326.18 714.201 326.445 713.691 326.585C714.091 326.665 714.446 326.825 714.756 327.065C715.076 327.305 715.326 327.605 715.506 327.965C715.686 328.325 715.776 328.715 715.776 329.135C715.776 329.675 715.641 330.165 715.371 330.605C715.111 331.035 714.726 331.375 714.216 331.625C713.706 331.875 713.081 332 712.341 332H708.261ZM709.851 326H712.026C712.636 326 713.101 325.86 713.421 325.58C713.741 325.29 713.901 324.895 713.901 324.395C713.901 323.905 713.741 323.515 713.421 323.225C713.111 322.935 712.636 322.79 711.996 322.79H709.851V326ZM709.851 330.695H712.131C712.771 330.695 713.266 330.545 713.616 330.245C713.976 329.945 714.156 329.525 714.156 328.985C714.156 328.445 713.971 328.02 713.601 327.71C713.231 327.39 712.731 327.23 712.101 327.23H709.851V330.695ZM722.738 335.3V324.56H724.163L724.328 325.715C724.568 325.365 724.898 325.055 725.318 324.785C725.738 324.515 726.278 324.38 726.938 324.38C727.658 324.38 728.293 324.55 728.843 324.89C729.393 325.23 729.823 325.695 730.133 326.285C730.453 326.875 730.613 327.545 730.613 328.295C730.613 329.045 730.453 329.715 730.133 330.305C729.823 330.885 729.393 331.345 728.843 331.685C728.293 332.015 727.653 332.18 726.923 332.18C726.343 332.18 725.828 332.065 725.378 331.835C724.938 331.605 724.588 331.28 724.328 330.86V335.3H722.738ZM726.653 330.8C727.333 330.8 727.893 330.57 728.333 330.11C728.773 329.64 728.993 329.03 728.993 328.28C728.993 327.79 728.893 327.355 728.693 326.975C728.493 326.595 728.218 326.3 727.868 326.09C727.518 325.87 727.113 325.76 726.653 325.76C725.973 325.76 725.413 325.995 724.973 326.465C724.543 326.935 724.328 327.54 724.328 328.28C724.328 329.03 724.543 329.64 724.973 330.11C725.413 330.57 725.973 330.8 726.653 330.8ZM733.083 332V324.56H734.508L734.643 325.97C734.903 325.48 735.263 325.095 735.723 324.815C736.193 324.525 736.758 324.38 737.418 324.38V326.045H736.983C736.543 326.045 736.148 326.12 735.798 326.27C735.458 326.41 735.183 326.655 734.973 327.005C734.773 327.345 734.673 327.82 734.673 328.43V332H733.083ZM742.806 332.18C742.076 332.18 741.426 332.02 740.856 331.7C740.296 331.37 739.856 330.915 739.536 330.335C739.216 329.755 739.056 329.08 739.056 328.31C739.056 327.53 739.211 326.845 739.521 326.255C739.841 325.665 740.281 325.205 740.841 324.875C741.411 324.545 742.071 324.38 742.821 324.38C743.551 324.38 744.186 324.545 744.726 324.875C745.266 325.195 745.686 325.625 745.986 326.165C746.286 326.705 746.436 327.3 746.436 327.95C746.436 328.05 746.431 328.16 746.421 328.28C746.421 328.39 746.416 328.515 746.406 328.655H740.616C740.666 329.375 740.901 329.925 741.321 330.305C741.751 330.675 742.246 330.86 742.806 330.86C743.256 330.86 743.631 330.76 743.931 330.56C744.241 330.35 744.471 330.07 744.621 329.72H746.211C746.011 330.42 745.611 331.005 745.011 331.475C744.421 331.945 743.686 332.18 742.806 332.18ZM742.806 325.685C742.276 325.685 741.806 325.845 741.396 326.165C740.986 326.475 740.736 326.945 740.646 327.575H744.846C744.816 326.995 744.611 326.535 744.231 326.195C743.851 325.855 743.376 325.685 742.806 325.685ZM750.628 332L747.838 324.56H749.503L751.573 330.485L753.643 324.56H755.293L752.518 332H750.628ZM758.25 323.15C757.95 323.15 757.7 323.06 757.5 322.88C757.31 322.69 757.215 322.455 757.215 322.175C757.215 321.895 757.31 321.665 757.5 321.485C757.7 321.295 757.95 321.2 758.25 321.2C758.55 321.2 758.795 321.295 758.985 321.485C759.185 321.665 759.285 321.895 759.285 322.175C759.285 322.455 759.185 322.69 758.985 322.88C758.795 323.06 758.55 323.15 758.25 323.15ZM757.455 332V324.56H759.045V332H757.455ZM765.374 332.18C764.664 332.18 764.024 332.02 763.454 331.7C762.894 331.37 762.449 330.915 762.119 330.335C761.789 329.745 761.624 329.06 761.624 328.28C761.624 327.5 761.789 326.82 762.119 326.24C762.459 325.65 762.914 325.195 763.484 324.875C764.054 324.545 764.689 324.38 765.389 324.38C766.099 324.38 766.734 324.545 767.294 324.875C767.864 325.195 768.314 325.65 768.644 326.24C768.984 326.82 769.154 327.5 769.154 328.28C769.154 329.06 768.984 329.745 768.644 330.335C768.314 330.915 767.864 331.37 767.294 331.7C766.724 332.02 766.084 332.18 765.374 332.18ZM765.374 330.815C765.754 330.815 766.104 330.72 766.424 330.53C766.754 330.34 767.019 330.06 767.219 329.69C767.419 329.31 767.519 328.84 767.519 328.28C767.519 327.72 767.419 327.255 767.219 326.885C767.029 326.505 766.769 326.22 766.439 326.03C766.119 325.84 765.769 325.745 765.389 325.745C765.009 325.745 764.654 325.84 764.324 326.03C764.004 326.22 763.744 326.505 763.544 326.885C763.344 327.255 763.244 327.72 763.244 328.28C763.244 328.84 763.344 329.31 763.544 329.69C763.744 330.06 764.004 330.34 764.324 330.53C764.644 330.72 764.994 330.815 765.374 330.815ZM774.368 332.18C773.468 332.18 772.758 331.9 772.238 331.34C771.728 330.78 771.473 329.945 771.473 328.835V324.56H773.063V328.67C773.063 330.11 773.653 330.83 774.833 330.83C775.423 330.83 775.908 330.62 776.288 330.2C776.668 329.78 776.858 329.18 776.858 328.4V324.56H778.448V332H777.038L776.918 330.695C776.688 331.155 776.348 331.52 775.898 331.79C775.458 332.05 774.948 332.18 774.368 332.18ZM784.191 332.18C783.251 332.18 782.476 331.95 781.866 331.49C781.256 331.03 780.906 330.42 780.816 329.66H782.421C782.501 330 782.691 330.295 782.991 330.545C783.291 330.785 783.686 330.905 784.176 330.905C784.656 330.905 785.006 330.805 785.226 330.605C785.446 330.405 785.556 330.175 785.556 329.915C785.556 329.535 785.401 329.28 785.091 329.15C784.791 329.01 784.371 328.885 783.831 328.775C783.411 328.685 782.991 328.565 782.571 328.415C782.161 328.265 781.816 328.055 781.536 327.785C781.266 327.505 781.131 327.13 781.131 326.66C781.131 326.01 781.381 325.47 781.881 325.04C782.381 324.6 783.081 324.38 783.981 324.38C784.811 324.38 785.481 324.58 785.991 324.98C786.511 325.38 786.816 325.945 786.906 326.675H785.376C785.326 326.355 785.176 326.105 784.926 325.925C784.686 325.745 784.361 325.655 783.951 325.655C783.551 325.655 783.241 325.74 783.021 325.91C782.801 326.07 782.691 326.28 782.691 326.54C782.691 326.8 782.841 327.005 783.141 327.155C783.451 327.305 783.856 327.44 784.356 327.56C784.856 327.67 785.316 327.8 785.736 327.95C786.166 328.09 786.511 328.3 786.771 328.58C787.031 328.86 787.161 329.27 787.161 329.81C787.171 330.49 786.906 331.055 786.366 331.505C785.836 331.955 785.111 332.18 784.191 332.18ZM789.647 332V321.2H791.237V332H789.647ZM794.87 335.3L796.655 331.385H796.22L793.28 324.56H795.005L797.285 330.065L799.67 324.56H801.35L796.55 335.3H794.87Z" fill="#14234B"/>
<path d="M619.055 355.265C618.765 355.265 618.51 355.215 618.29 355.115C618.07 355.005 617.865 354.885 617.675 354.755C617.485 354.625 617.295 354.51 617.105 354.41C616.915 354.31 616.71 354.26 616.49 354.26C616.22 354.26 615.995 354.355 615.815 354.545C615.645 354.725 615.54 354.96 615.5 355.25H614.555C614.675 354.53 614.905 354 615.245 353.66C615.595 353.31 616.035 353.135 616.565 353.135C616.845 353.135 617.1 353.185 617.33 353.285C617.56 353.385 617.77 353.5 617.96 353.63C618.15 353.76 618.34 353.875 618.53 353.975C618.72 354.075 618.92 354.125 619.13 354.125C619.4 354.125 619.62 354.035 619.79 353.855C619.97 353.675 620.08 353.435 620.12 353.135H621.065C620.955 353.855 620.725 354.39 620.375 354.74C620.035 355.09 619.595 355.265 619.055 355.265ZM624.512 359V349.91L622.817 350.285V349.415L624.932 348.5H625.787V359H624.512ZM628.754 359V348.5H630.224L634.004 355.82L637.754 348.5H639.239V359H637.979V350.75L634.469 357.5H633.524L630.014 350.765V359H628.754ZM650.268 359.18C649.498 359.18 648.828 359.04 648.258 358.76C647.688 358.48 647.248 358.09 646.938 357.59C646.628 357.09 646.473 356.51 646.473 355.85H647.793C647.793 356.26 647.888 356.64 648.078 356.99C648.268 357.33 648.543 357.605 648.903 357.815C649.273 358.015 649.728 358.115 650.268 358.115C650.978 358.115 651.528 357.945 651.918 357.605C652.308 357.265 652.503 356.84 652.503 356.33C652.503 355.91 652.413 355.575 652.233 355.325C652.053 355.065 651.808 354.855 651.498 354.695C651.198 354.535 650.848 354.395 650.448 354.275C650.058 354.155 649.648 354.02 649.218 353.87C648.408 353.59 647.808 353.245 647.418 352.835C647.028 352.415 646.833 351.87 646.833 351.2C646.823 350.64 646.953 350.145 647.223 349.715C647.493 349.275 647.873 348.935 648.363 348.695C648.863 348.445 649.453 348.32 650.133 348.32C650.803 348.32 651.383 348.445 651.873 348.695C652.373 348.945 652.758 349.29 653.028 349.73C653.308 350.17 653.453 350.67 653.463 351.23H652.143C652.143 350.94 652.068 350.655 651.918 350.375C651.768 350.085 651.538 349.85 651.228 349.67C650.928 349.49 650.548 349.4 650.088 349.4C649.518 349.39 649.048 349.535 648.678 349.835C648.318 350.135 648.138 350.55 648.138 351.08C648.138 351.53 648.263 351.875 648.513 352.115C648.773 352.355 649.133 352.555 649.593 352.715C650.053 352.865 650.583 353.04 651.183 353.24C651.683 353.42 652.133 353.63 652.533 353.87C652.933 354.11 653.243 354.42 653.463 354.8C653.693 355.18 653.808 355.665 653.808 356.255C653.808 356.755 653.678 357.23 653.418 357.68C653.158 358.12 652.763 358.48 652.233 358.76C651.713 359.04 651.058 359.18 650.268 359.18ZM659.21 359C658.53 359 657.995 358.835 657.605 358.505C657.215 358.175 657.02 357.58 657.02 356.72V352.625H655.73V351.56H657.02L657.185 349.775H658.28V351.56H660.47V352.625H658.28V356.72C658.28 357.19 658.375 357.51 658.565 357.68C658.755 357.84 659.09 357.92 659.57 357.92H660.35V359H659.21ZM662.821 359V351.56H663.961L664.066 352.985C664.296 352.495 664.646 352.105 665.116 351.815C665.586 351.525 666.166 351.38 666.856 351.38V352.7H666.511C666.071 352.7 665.666 352.78 665.296 352.94C664.926 353.09 664.631 353.35 664.411 353.72C664.191 354.09 664.081 354.6 664.081 355.25V359H662.821ZM671.735 359.18C670.855 359.18 670.155 358.915 669.635 358.385C669.115 357.845 668.855 357.02 668.855 355.91V351.56H670.115V355.775C670.115 357.325 670.75 358.1 672.02 358.1C672.67 358.1 673.205 357.87 673.625 357.41C674.055 356.94 674.27 356.275 674.27 355.415V351.56H675.53V359H674.39L674.3 357.665C674.07 358.135 673.725 358.505 673.265 358.775C672.815 359.045 672.305 359.18 671.735 359.18ZM681.774 359.18C681.064 359.18 680.424 359.02 679.854 358.7C679.294 358.37 678.849 357.915 678.519 357.335C678.199 356.745 678.039 356.06 678.039 355.28C678.039 354.5 678.199 353.82 678.519 353.24C678.849 352.65 679.294 352.195 679.854 351.875C680.424 351.545 681.064 351.38 681.774 351.38C682.654 351.38 683.394 351.61 683.994 352.07C684.604 352.53 684.989 353.145 685.149 353.915H683.859C683.759 353.455 683.514 353.1 683.124 352.85C682.734 352.59 682.279 352.46 681.759 352.46C681.339 352.46 680.944 352.565 680.574 352.775C680.204 352.985 679.904 353.3 679.674 353.72C679.444 354.14 679.329 354.66 679.329 355.28C679.329 355.9 679.444 356.42 679.674 356.84C679.904 357.26 680.204 357.58 680.574 357.8C680.944 358.01 681.339 358.115 681.759 358.115C682.279 358.115 682.734 357.99 683.124 357.74C683.514 357.48 683.759 357.115 683.859 356.645H685.149C684.999 357.395 684.619 358.005 684.009 358.475C683.399 358.945 682.654 359.18 681.774 359.18ZM690.394 359C689.714 359 689.179 358.835 688.789 358.505C688.399 358.175 688.204 357.58 688.204 356.72V352.625H686.914V351.56H688.204L688.369 349.775H689.464V351.56H691.654V352.625H689.464V356.72C689.464 357.19 689.559 357.51 689.749 357.68C689.939 357.84 690.274 357.92 690.754 357.92H691.534V359H690.394ZM696.72 359.18C695.84 359.18 695.14 358.915 694.62 358.385C694.1 357.845 693.84 357.02 693.84 355.91V351.56H695.1V355.775C695.1 357.325 695.735 358.1 697.005 358.1C697.655 358.1 698.19 357.87 698.61 357.41C699.04 356.94 699.255 356.275 699.255 355.415V351.56H700.515V359H699.375L699.285 357.665C699.055 358.135 698.71 358.505 698.25 358.775C697.8 359.045 697.29 359.18 696.72 359.18ZM703.339 359V351.56H704.479L704.584 352.985C704.814 352.495 705.164 352.105 705.634 351.815C706.104 351.525 706.684 351.38 707.374 351.38V352.7H707.029C706.589 352.7 706.184 352.78 705.814 352.94C705.444 353.09 705.149 353.35 704.929 353.72C704.709 354.09 704.599 354.6 704.599 355.25V359H703.339ZM712.605 359.18C711.895 359.18 711.265 359.02 710.715 358.7C710.165 358.37 709.73 357.915 709.41 357.335C709.1 356.755 708.945 356.07 708.945 355.28C708.945 354.5 709.1 353.82 709.41 353.24C709.72 352.65 710.15 352.195 710.7 351.875C711.26 351.545 711.905 351.38 712.635 351.38C713.355 351.38 713.975 351.545 714.495 351.875C715.025 352.195 715.43 352.62 715.71 353.15C715.99 353.68 716.13 354.25 716.13 354.86C716.13 354.97 716.125 355.08 716.115 355.19C716.115 355.3 716.115 355.425 716.115 355.565H710.19C710.22 356.135 710.35 356.61 710.58 356.99C710.82 357.36 711.115 357.64 711.465 357.83C711.825 358.02 712.205 358.115 712.605 358.115C713.125 358.115 713.56 357.995 713.91 357.755C714.26 357.515 714.515 357.19 714.675 356.78H715.92C715.72 357.47 715.335 358.045 714.765 358.505C714.205 358.955 713.485 359.18 712.605 359.18ZM712.605 352.445C712.005 352.445 711.47 352.63 711 353C710.54 353.36 710.275 353.89 710.205 354.59H714.885C714.855 353.92 714.625 353.395 714.195 353.015C713.765 352.635 713.235 352.445 712.605 352.445ZM721.4 359.18C720.51 359.18 719.77 358.955 719.18 358.505C718.59 358.055 718.245 357.445 718.145 356.675H719.435C719.515 357.065 719.72 357.405 720.05 357.695C720.39 357.975 720.845 358.115 721.415 358.115C721.945 358.115 722.335 358.005 722.585 357.785C722.835 357.555 722.96 357.285 722.96 356.975C722.96 356.525 722.795 356.225 722.465 356.075C722.145 355.925 721.69 355.79 721.1 355.67C720.7 355.59 720.3 355.475 719.9 355.325C719.5 355.175 719.165 354.965 718.895 354.695C718.625 354.415 718.49 354.05 718.49 353.6C718.49 352.95 718.73 352.42 719.21 352.01C719.7 351.59 720.36 351.38 721.19 351.38C721.98 351.38 722.625 351.58 723.125 351.98C723.635 352.37 723.93 352.93 724.01 353.66H722.765C722.715 353.28 722.55 352.985 722.27 352.775C722 352.555 721.635 352.445 721.175 352.445C720.725 352.445 720.375 352.54 720.125 352.73C719.885 352.92 719.765 353.17 719.765 353.48C719.765 353.78 719.92 354.015 720.23 354.185C720.55 354.355 720.98 354.5 721.52 354.62C721.98 354.72 722.415 354.845 722.825 354.995C723.245 355.135 723.585 355.35 723.845 355.64C724.115 355.92 724.25 356.33 724.25 356.87C724.26 357.54 724.005 358.095 723.485 358.535C722.975 358.965 722.28 359.18 721.4 359.18Z" fill="#14234B"/>
<path d="M615.065 422V411.5H621.74V412.79H616.655V416.06H621.29V417.32H616.655V420.71H621.74V422H615.065ZM623.604 422L626.244 418.28L623.604 414.56H625.299L627.294 417.41L629.274 414.56H630.984L628.344 418.28L630.984 422H629.274L627.294 419.15L625.299 422H623.604ZM633.028 425.3V414.56H634.453L634.618 415.715C634.858 415.365 635.188 415.055 635.608 414.785C636.028 414.515 636.568 414.38 637.228 414.38C637.948 414.38 638.583 414.55 639.133 414.89C639.683 415.23 640.113 415.695 640.423 416.285C640.743 416.875 640.903 417.545 640.903 418.295C640.903 419.045 640.743 419.715 640.423 420.305C640.113 420.885 639.683 421.345 639.133 421.685C638.583 422.015 637.943 422.18 637.213 422.18C636.633 422.18 636.118 422.065 635.668 421.835C635.228 421.605 634.878 421.28 634.618 420.86V425.3H633.028ZM636.943 420.8C637.623 420.8 638.183 420.57 638.623 420.11C639.063 419.64 639.283 419.03 639.283 418.28C639.283 417.79 639.183 417.355 638.983 416.975C638.783 416.595 638.508 416.3 638.158 416.09C637.808 415.87 637.403 415.76 636.943 415.76C636.263 415.76 635.703 415.995 635.263 416.465C634.833 416.935 634.618 417.54 634.618 418.28C634.618 419.03 634.833 419.64 635.263 420.11C635.703 420.57 636.263 420.8 636.943 420.8ZM646.853 422.18C646.123 422.18 645.473 422.02 644.903 421.7C644.343 421.37 643.903 420.915 643.583 420.335C643.263 419.755 643.103 419.08 643.103 418.31C643.103 417.53 643.258 416.845 643.568 416.255C643.888 415.665 644.328 415.205 644.888 414.875C645.458 414.545 646.118 414.38 646.868 414.38C647.598 414.38 648.233 414.545 648.773 414.875C649.313 415.195 649.733 415.625 650.033 416.165C650.333 416.705 650.483 417.3 650.483 417.95C650.483 418.05 650.478 418.16 650.468 418.28C650.468 418.39 650.463 418.515 650.453 418.655H644.663C644.713 419.375 644.948 419.925 645.368 420.305C645.798 420.675 646.293 420.86 646.853 420.86C647.303 420.86 647.678 420.76 647.978 420.56C648.288 420.35 648.518 420.07 648.668 419.72H650.258C650.058 420.42 649.658 421.005 649.058 421.475C648.468 421.945 647.733 422.18 646.853 422.18ZM646.853 415.685C646.323 415.685 645.853 415.845 645.443 416.165C645.033 416.475 644.783 416.945 644.693 417.575H648.893C648.863 416.995 648.658 416.535 648.278 416.195C647.898 415.855 647.423 415.685 646.853 415.685ZM652.883 422V414.56H654.308L654.443 415.97C654.703 415.48 655.063 415.095 655.523 414.815C655.993 414.525 656.558 414.38 657.218 414.38V416.045H656.783C656.343 416.045 655.948 416.12 655.598 416.27C655.258 416.41 654.983 416.655 654.773 417.005C654.573 417.345 654.473 417.82 654.473 418.43V422H652.883ZM660.231 413.15C659.931 413.15 659.681 413.06 659.481 412.88C659.291 412.69 659.196 412.455 659.196 412.175C659.196 411.895 659.291 411.665 659.481 411.485C659.681 411.295 659.931 411.2 660.231 411.2C660.531 411.2 660.776 411.295 660.966 411.485C661.166 411.665 661.266 411.895 661.266 412.175C661.266 412.455 661.166 412.69 660.966 412.88C660.776 413.06 660.531 413.15 660.231 413.15ZM659.436 422V414.56H661.026V422H659.436ZM663.875 422V414.56H665.285L665.42 415.61C665.66 415.23 665.975 414.93 666.365 414.71C666.765 414.49 667.225 414.38 667.745 414.38C668.925 414.38 669.745 414.845 670.205 415.775C670.475 415.345 670.835 415.005 671.285 414.755C671.745 414.505 672.24 414.38 672.77 414.38C673.7 414.38 674.43 414.66 674.96 415.22C675.49 415.78 675.755 416.615 675.755 417.725V422H674.165V417.89C674.165 416.45 673.615 415.73 672.515 415.73C671.955 415.73 671.495 415.94 671.135 416.36C670.785 416.78 670.61 417.38 670.61 418.16V422H669.02V417.89C669.02 416.45 668.465 415.73 667.355 415.73C666.805 415.73 666.35 415.94 665.99 416.36C665.64 416.78 665.465 417.38 665.465 418.16V422H663.875ZM681.845 422.18C681.115 422.18 680.465 422.02 679.895 421.7C679.335 421.37 678.895 420.915 678.575 420.335C678.255 419.755 678.095 419.08 678.095 418.31C678.095 417.53 678.25 416.845 678.56 416.255C678.88 415.665 679.32 415.205 679.88 414.875C680.45 414.545 681.11 414.38 681.86 414.38C682.59 414.38 683.225 414.545 683.765 414.875C684.305 415.195 684.725 415.625 685.025 416.165C685.325 416.705 685.475 417.3 685.475 417.95C685.475 418.05 685.47 418.16 685.46 418.28C685.46 418.39 685.455 418.515 685.445 418.655H679.655C679.705 419.375 679.94 419.925 680.36 420.305C680.79 420.675 681.285 420.86 681.845 420.86C682.295 420.86 682.67 420.76 682.97 420.56C683.28 420.35 683.51 420.07 683.66 419.72H685.25C685.05 420.42 684.65 421.005 684.05 421.475C683.46 421.945 682.725 422.18 681.845 422.18ZM681.845 415.685C681.315 415.685 680.845 415.845 680.435 416.165C680.025 416.475 679.775 416.945 679.685 417.575H683.885C683.855 416.995 683.65 416.535 683.27 416.195C682.89 415.855 682.415 415.685 681.845 415.685ZM687.875 422V414.56H689.285L689.405 415.865C689.635 415.405 689.97 415.045 690.41 414.785C690.86 414.515 691.375 414.38 691.955 414.38C692.855 414.38 693.56 414.66 694.07 415.22C694.59 415.78 694.85 416.615 694.85 417.725V422H693.275V417.89C693.275 416.45 692.685 415.73 691.505 415.73C690.915 415.73 690.425 415.94 690.035 416.36C689.655 416.78 689.465 417.38 689.465 418.16V422H687.875ZM700.593 422C699.863 422 699.283 421.825 698.853 421.475C698.423 421.115 698.208 420.48 698.208 419.57V415.895H696.933V414.56H698.208L698.403 412.67H699.798V414.56H701.898V415.895H699.798V419.57C699.798 419.98 699.883 420.265 700.053 420.425C700.233 420.575 700.538 420.65 700.968 420.65H701.823V422H700.593ZM706.807 422.18C706.177 422.18 705.657 422.075 705.247 421.865C704.837 421.655 704.532 421.38 704.332 421.04C704.132 420.69 704.032 420.31 704.032 419.9C704.032 419.18 704.312 418.61 704.872 418.19C705.432 417.77 706.232 417.56 707.272 417.56H709.222V417.425C709.222 416.845 709.062 416.41 708.742 416.12C708.432 415.83 708.027 415.685 707.527 415.685C707.087 415.685 706.702 415.795 706.372 416.015C706.052 416.225 705.857 416.54 705.787 416.96H704.197C704.247 416.42 704.427 415.96 704.737 415.58C705.057 415.19 705.457 414.895 705.937 414.695C706.427 414.485 706.962 414.38 707.542 414.38C708.582 414.38 709.387 414.655 709.957 415.205C710.527 415.745 710.812 416.485 710.812 417.425V422H709.432L709.297 420.725C709.087 421.135 708.782 421.48 708.382 421.76C707.982 422.04 707.457 422.18 706.807 422.18ZM707.122 420.89C707.552 420.89 707.912 420.79 708.202 420.59C708.502 420.38 708.732 420.105 708.892 419.765C709.062 419.425 709.167 419.05 709.207 418.64H707.437C706.807 418.64 706.357 418.75 706.087 418.97C705.827 419.19 705.697 419.465 705.697 419.795C705.697 420.135 705.822 420.405 706.072 420.605C706.332 420.795 706.682 420.89 707.122 420.89ZM713.416 422V411.2H715.006V422H713.416ZM724.954 424.175C724.394 423.635 723.889 423 723.439 422.27C722.999 421.55 722.644 420.75 722.374 419.87C722.114 418.98 721.984 418.025 721.984 417.005C721.984 415.985 722.114 415.035 722.374 414.155C722.644 413.265 722.999 412.46 723.439 411.74C723.889 411.01 724.394 410.375 724.954 409.835H726.544V409.985C725.644 410.915 724.919 411.98 724.369 413.18C723.829 414.38 723.559 415.655 723.559 417.005C723.559 418.355 723.829 419.63 724.369 420.83C724.919 422.03 725.649 423.095 726.559 424.025V424.175H724.954ZM728.895 422V411.5H732.57C733.39 411.5 734.07 411.64 734.61 411.92C735.15 412.19 735.55 412.565 735.81 413.045C736.08 413.515 736.215 414.05 736.215 414.65C736.215 415.22 736.085 415.745 735.825 416.225C735.575 416.695 735.18 417.07 734.64 417.35C734.1 417.63 733.41 417.77 732.57 417.77H730.485V422H728.895ZM730.485 416.465H732.495C733.245 416.465 733.78 416.305 734.1 415.985C734.43 415.655 734.595 415.21 734.595 414.65C734.595 414.07 734.43 413.62 734.1 413.3C733.78 412.97 733.245 412.805 732.495 412.805H730.485V416.465ZM738.537 422V411.5H741.942C743.172 411.5 744.182 411.715 744.972 412.145C745.772 412.575 746.362 413.185 746.742 413.975C747.132 414.755 747.327 415.685 747.327 416.765C747.327 417.835 747.132 418.765 746.742 419.555C746.362 420.335 745.772 420.94 744.972 421.37C744.182 421.79 743.172 422 741.942 422H738.537ZM740.127 420.65H741.882C742.832 420.65 743.582 420.495 744.132 420.185C744.692 419.875 745.092 419.43 745.332 418.85C745.582 418.27 745.707 417.575 745.707 416.765C745.707 415.955 745.582 415.255 745.332 414.665C745.092 414.075 744.692 413.625 744.132 413.315C743.582 412.995 742.832 412.835 741.882 412.835H740.127V420.65ZM749.834 422V411.5H753.794C754.884 411.5 755.709 411.755 756.269 412.265C756.829 412.775 757.109 413.415 757.109 414.185C757.109 414.855 756.929 415.39 756.569 415.79C756.209 416.18 755.774 416.445 755.264 416.585C755.664 416.665 756.019 416.825 756.329 417.065C756.649 417.305 756.899 417.605 757.079 417.965C757.259 418.325 757.349 418.715 757.349 419.135C757.349 419.675 757.214 420.165 756.944 420.605C756.684 421.035 756.299 421.375 755.789 421.625C755.279 421.875 754.654 422 753.914 422H749.834ZM751.424 416H753.599C754.209 416 754.674 415.86 754.994 415.58C755.314 415.29 755.474 414.895 755.474 414.395C755.474 413.905 755.314 413.515 754.994 413.225C754.684 412.935 754.209 412.79 753.569 412.79H751.424V416ZM751.424 420.695H753.704C754.344 420.695 754.839 420.545 755.189 420.245C755.549 419.945 755.729 419.525 755.729 418.985C755.729 418.445 755.544 418.02 755.174 417.71C754.804 417.39 754.304 417.23 753.674 417.23H751.424V420.695ZM759.301 424.175V424.025C760.201 423.095 760.926 422.03 761.476 420.83C762.026 419.63 762.301 418.355 762.301 417.005C762.301 415.655 762.026 414.38 761.476 413.18C760.936 411.98 760.216 410.915 759.316 409.985V409.835H760.906C761.456 410.375 761.956 411.01 762.406 411.74C762.856 412.46 763.211 413.265 763.471 414.155C763.741 415.035 763.876 415.985 763.876 417.005C763.876 418.025 763.741 418.98 763.471 419.87C763.211 420.75 762.856 421.55 762.406 422.27C761.956 423 761.456 423.635 760.906 424.175H759.301ZM773.967 422C773.237 422 772.657 421.825 772.227 421.475C771.797 421.115 771.582 420.48 771.582 419.57V415.895H770.307V414.56H771.582L771.777 412.67H773.172V414.56H775.272V415.895H773.172V419.57C773.172 419.98 773.257 420.265 773.427 420.425C773.607 420.575 773.912 420.65 774.342 420.65H775.197V422H773.967ZM780.951 422.18C780.241 422.18 779.601 422.02 779.031 421.7C778.471 421.37 778.026 420.915 777.696 420.335C777.366 419.745 777.201 419.06 777.201 418.28C777.201 417.5 777.366 416.82 777.696 416.24C778.036 415.65 778.491 415.195 779.061 414.875C779.631 414.545 780.266 414.38 780.966 414.38C781.676 414.38 782.311 414.545 782.871 414.875C783.441 415.195 783.891 415.65 784.221 416.24C784.561 416.82 784.731 417.5 784.731 418.28C784.731 419.06 784.561 419.745 784.221 420.335C783.891 420.915 783.441 421.37 782.871 421.7C782.301 422.02 781.661 422.18 780.951 422.18ZM780.951 420.815C781.331 420.815 781.681 420.72 782.001 420.53C782.331 420.34 782.596 420.06 782.796 419.69C782.996 419.31 783.096 418.84 783.096 418.28C783.096 417.72 782.996 417.255 782.796 416.885C782.606 416.505 782.346 416.22 782.016 416.03C781.696 415.84 781.346 415.745 780.966 415.745C780.586 415.745 780.231 415.84 779.901 416.03C779.581 416.22 779.321 416.505 779.121 416.885C778.921 417.255 778.821 417.72 778.821 418.28C778.821 418.84 778.921 419.31 779.121 419.69C779.321 420.06 779.581 420.34 779.901 420.53C780.221 420.72 780.571 420.815 780.951 420.815ZM790.59 422.18C789.87 422.18 789.235 422.01 788.685 421.67C788.135 421.33 787.705 420.865 787.395 420.275C787.085 419.685 786.93 419.015 786.93 418.265C786.93 417.515 787.085 416.85 787.395 416.27C787.705 415.68 788.135 415.22 788.685 414.89C789.245 414.55 789.885 414.38 790.605 414.38C791.195 414.38 791.71 414.495 792.15 414.725C792.6 414.955 792.95 415.28 793.2 415.7V411.2H794.79V422H793.365L793.2 420.845C792.96 421.195 792.63 421.505 792.21 421.775C791.79 422.045 791.25 422.18 790.59 422.18ZM790.875 420.8C791.555 420.8 792.11 420.565 792.54 420.095C792.98 419.625 793.2 419.02 793.2 418.28C793.2 417.53 792.98 416.925 792.54 416.465C792.11 415.995 791.555 415.76 790.875 415.76C790.195 415.76 789.635 415.995 789.195 416.465C788.755 416.925 788.535 417.53 788.535 418.28C788.535 418.77 788.635 419.205 788.835 419.585C789.035 419.965 789.31 420.265 789.66 420.485C790.02 420.695 790.425 420.8 790.875 420.8ZM800.065 422.18C799.435 422.18 798.915 422.075 798.505 421.865C798.095 421.655 797.79 421.38 797.59 421.04C797.39 420.69 797.29 420.31 797.29 419.9C797.29 419.18 797.57 418.61 798.13 418.19C798.69 417.77 799.49 417.56 800.53 417.56H802.48V417.425C802.48 416.845 802.32 416.41 802 416.12C801.69 415.83 801.285 415.685 800.785 415.685C800.345 415.685 799.96 415.795 799.63 416.015C799.31 416.225 799.115 416.54 799.045 416.96H797.455C797.505 416.42 797.685 415.96 797.995 415.58C798.315 415.19 798.715 414.895 799.195 414.695C799.685 414.485 800.22 414.38 800.8 414.38C801.84 414.38 802.645 414.655 803.215 415.205C803.785 415.745 804.07 416.485 804.07 417.425V422H802.69L802.555 420.725C802.345 421.135 802.04 421.48 801.64 421.76C801.24 422.04 800.715 422.18 800.065 422.18ZM800.38 420.89C800.81 420.89 801.17 420.79 801.46 420.59C801.76 420.38 801.99 420.105 802.15 419.765C802.32 419.425 802.425 419.05 802.465 418.64H800.695C800.065 418.64 799.615 418.75 799.345 418.97C799.085 419.19 798.955 419.465 798.955 419.795C798.955 420.135 799.08 420.405 799.33 420.605C799.59 420.795 799.94 420.89 800.38 420.89ZM807.31 425.3L809.095 421.385H808.66L805.72 414.56H807.445L809.725 420.065L812.11 414.56H813.79L808.99 425.3H807.31Z" fill="#14234B"/>
<path d="M616.145 444V434.91L614.45 435.285V434.415L616.565 433.5H617.42V444H616.145ZM623.851 444.18C623.191 444.18 622.626 444.05 622.156 443.79C621.686 443.53 621.311 443.185 621.031 442.755C620.761 442.315 620.596 441.83 620.536 441.3H621.706C621.806 441.87 622.046 442.31 622.426 442.62C622.806 442.93 623.286 443.085 623.866 443.085C624.666 443.085 625.331 442.715 625.861 441.975C626.391 441.225 626.676 440.06 626.716 438.48C626.476 438.95 626.091 439.36 625.561 439.71C625.041 440.05 624.411 440.22 623.671 440.22C623.081 440.22 622.521 440.08 621.991 439.8C621.461 439.52 621.031 439.13 620.701 438.63C620.371 438.12 620.206 437.525 620.206 436.845C620.206 436.255 620.351 435.69 620.641 435.15C620.941 434.61 621.361 434.17 621.901 433.83C622.441 433.49 623.086 433.32 623.836 433.32C624.596 433.32 625.236 433.465 625.756 433.755C626.276 434.035 626.691 434.415 627.001 434.895C627.321 435.375 627.551 435.915 627.691 436.515C627.841 437.105 627.916 437.71 627.916 438.33C627.916 439.49 627.756 440.51 627.436 441.39C627.116 442.26 626.651 442.945 626.041 443.445C625.441 443.935 624.711 444.18 623.851 444.18ZM623.926 439.125C624.396 439.125 624.816 439.02 625.186 438.81C625.556 438.59 625.851 438.3 626.071 437.94C626.291 437.58 626.401 437.19 626.401 436.77C626.401 436.32 626.291 435.92 626.071 435.57C625.851 435.21 625.556 434.93 625.186 434.73C624.816 434.53 624.396 434.43 623.926 434.43C623.456 434.43 623.036 434.53 622.666 434.73C622.296 434.93 622.006 435.21 621.796 435.57C621.586 435.92 621.481 436.325 621.481 436.785C621.481 437.495 621.711 438.065 622.171 438.495C622.641 438.915 623.226 439.125 623.926 439.125ZM634.68 444.18C633.75 444.18 632.945 443.955 632.265 443.505C631.595 443.045 631.08 442.41 630.72 441.6C630.36 440.78 630.18 439.83 630.18 438.75C630.18 437.67 630.36 436.725 630.72 435.915C631.08 435.095 631.595 434.46 632.265 434.01C632.945 433.55 633.75 433.32 634.68 433.32C635.61 433.32 636.41 433.55 637.08 434.01C637.75 434.46 638.265 435.095 638.625 435.915C638.985 436.725 639.165 437.67 639.165 438.75C639.165 439.83 638.985 440.78 638.625 441.6C638.265 442.41 637.75 443.045 637.08 443.505C636.41 443.955 635.61 444.18 634.68 444.18ZM634.68 443.07C635.29 443.07 635.835 442.9 636.315 442.56C636.805 442.21 637.185 441.715 637.455 441.075C637.735 440.425 637.875 439.65 637.875 438.75C637.875 437.85 637.735 437.08 637.455 436.44C637.185 435.8 636.805 435.31 636.315 434.97C635.835 434.62 635.29 434.445 634.68 434.445C634.06 434.445 633.51 434.62 633.03 434.97C632.55 435.31 632.17 435.8 631.89 436.44C631.61 437.08 631.47 437.85 631.47 438.75C631.47 439.65 631.61 440.425 631.89 441.075C632.17 441.715 632.55 442.21 633.03 442.56C633.51 442.9 634.06 443.07 634.68 443.07ZM641.735 444V433.5H642.995V438.255L647.375 433.5H648.965L645.065 437.685L649.025 444H647.495L644.165 438.66L642.995 439.905V444H641.735ZM659.28 444.18C658.51 444.18 657.84 444.04 657.27 443.76C656.7 443.48 656.26 443.09 655.95 442.59C655.64 442.09 655.485 441.51 655.485 440.85H656.805C656.805 441.26 656.9 441.64 657.09 441.99C657.28 442.33 657.555 442.605 657.915 442.815C658.285 443.015 658.74 443.115 659.28 443.115C659.99 443.115 660.54 442.945 660.93 442.605C661.32 442.265 661.515 441.84 661.515 441.33C661.515 440.91 661.425 440.575 661.245 440.325C661.065 440.065 660.82 439.855 660.51 439.695C660.21 439.535 659.86 439.395 659.46 439.275C659.07 439.155 658.66 439.02 658.23 438.87C657.42 438.59 656.82 438.245 656.43 437.835C656.04 437.415 655.845 436.87 655.845 436.2C655.835 435.64 655.965 435.145 656.235 434.715C656.505 434.275 656.885 433.935 657.375 433.695C657.875 433.445 658.465 433.32 659.145 433.32C659.815 433.32 660.395 433.445 660.885 433.695C661.385 433.945 661.77 434.29 662.04 434.73C662.32 435.17 662.465 435.67 662.475 436.23H661.155C661.155 435.94 661.08 435.655 660.93 435.375C660.78 435.085 660.55 434.85 660.24 434.67C659.94 434.49 659.56 434.4 659.1 434.4C658.53 434.39 658.06 434.535 657.69 434.835C657.33 435.135 657.15 435.55 657.15 436.08C657.15 436.53 657.275 436.875 657.525 437.115C657.785 437.355 658.145 437.555 658.605 437.715C659.065 437.865 659.595 438.04 660.195 438.24C660.695 438.42 661.145 438.63 661.545 438.87C661.945 439.11 662.255 439.42 662.475 439.8C662.705 440.18 662.82 440.665 662.82 441.255C662.82 441.755 662.69 442.23 662.43 442.68C662.17 443.12 661.775 443.48 661.245 443.76C660.725 444.04 660.07 444.18 659.28 444.18ZM668.222 444C667.542 444 667.007 443.835 666.617 443.505C666.227 443.175 666.032 442.58 666.032 441.72V437.625H664.742V436.56H666.032L666.197 434.775H667.292V436.56H669.482V437.625H667.292V441.72C667.292 442.19 667.387 442.51 667.577 442.68C667.767 442.84 668.102 442.92 668.582 442.92H669.362V444H668.222ZM671.833 444V436.56H672.973L673.078 437.985C673.308 437.495 673.658 437.105 674.128 436.815C674.598 436.525 675.178 436.38 675.868 436.38V437.7H675.523C675.083 437.7 674.678 437.78 674.308 437.94C673.938 438.09 673.643 438.35 673.423 438.72C673.203 439.09 673.093 439.6 673.093 440.25V444H671.833ZM680.747 444.18C679.867 444.18 679.167 443.915 678.647 443.385C678.127 442.845 677.867 442.02 677.867 440.91V436.56H679.127V440.775C679.127 442.325 679.762 443.1 681.032 443.1C681.682 443.1 682.217 442.87 682.637 442.41C683.067 441.94 683.282 441.275 683.282 440.415V436.56H684.542V444H683.402L683.312 442.665C683.082 443.135 682.737 443.505 682.277 443.775C681.827 444.045 681.317 444.18 680.747 444.18ZM690.786 444.18C690.076 444.18 689.436 444.02 688.866 443.7C688.306 443.37 687.861 442.915 687.531 442.335C687.211 441.745 687.051 441.06 687.051 440.28C687.051 439.5 687.211 438.82 687.531 438.24C687.861 437.65 688.306 437.195 688.866 436.875C689.436 436.545 690.076 436.38 690.786 436.38C691.666 436.38 692.406 436.61 693.006 437.07C693.616 437.53 694.001 438.145 694.161 438.915H692.871C692.771 438.455 692.526 438.1 692.136 437.85C691.746 437.59 691.291 437.46 690.771 437.46C690.351 437.46 689.956 437.565 689.586 437.775C689.216 437.985 688.916 438.3 688.686 438.72C688.456 439.14 688.341 439.66 688.341 440.28C688.341 440.9 688.456 441.42 688.686 441.84C688.916 442.26 689.216 442.58 689.586 442.8C689.956 443.01 690.351 443.115 690.771 443.115C691.291 443.115 691.746 442.99 692.136 442.74C692.526 442.48 692.771 442.115 692.871 441.645H694.161C694.011 442.395 693.631 443.005 693.021 443.475C692.411 443.945 691.666 444.18 690.786 444.18ZM699.406 444C698.726 444 698.191 443.835 697.801 443.505C697.411 443.175 697.216 442.58 697.216 441.72V437.625H695.926V436.56H697.216L697.381 434.775H698.476V436.56H700.666V437.625H698.476V441.72C698.476 442.19 698.571 442.51 698.761 442.68C698.951 442.84 699.286 442.92 699.766 442.92H700.546V444H699.406ZM705.731 444.18C704.851 444.18 704.151 443.915 703.631 443.385C703.111 442.845 702.851 442.02 702.851 440.91V436.56H704.111V440.775C704.111 442.325 704.746 443.1 706.016 443.1C706.666 443.1 707.201 442.87 707.621 442.41C708.051 441.94 708.266 441.275 708.266 440.415V436.56H709.526V444H708.386L708.296 442.665C708.066 443.135 707.721 443.505 707.261 443.775C706.811 444.045 706.301 444.18 705.731 444.18ZM712.35 444V436.56H713.49L713.595 437.985C713.825 437.495 714.175 437.105 714.645 436.815C715.115 436.525 715.695 436.38 716.385 436.38V437.7H716.04C715.6 437.7 715.195 437.78 714.825 437.94C714.455 438.09 714.16 438.35 713.94 438.72C713.72 439.09 713.61 439.6 713.61 440.25V444H712.35ZM721.616 444.18C720.906 444.18 720.276 444.02 719.726 443.7C719.176 443.37 718.741 442.915 718.421 442.335C718.111 441.755 717.956 441.07 717.956 440.28C717.956 439.5 718.111 438.82 718.421 438.24C718.731 437.65 719.161 437.195 719.711 436.875C720.271 436.545 720.916 436.38 721.646 436.38C722.366 436.38 722.986 436.545 723.506 436.875C724.036 437.195 724.441 437.62 724.721 438.15C725.001 438.68 725.141 439.25 725.141 439.86C725.141 439.97 725.136 440.08 725.126 440.19C725.126 440.3 725.126 440.425 725.126 440.565H719.201C719.231 441.135 719.361 441.61 719.591 441.99C719.831 442.36 720.126 442.64 720.476 442.83C720.836 443.02 721.216 443.115 721.616 443.115C722.136 443.115 722.571 442.995 722.921 442.755C723.271 442.515 723.526 442.19 723.686 441.78H724.931C724.731 442.47 724.346 443.045 723.776 443.505C723.216 443.955 722.496 444.18 721.616 444.18ZM721.616 437.445C721.016 437.445 720.481 437.63 720.011 438C719.551 438.36 719.286 438.89 719.216 439.59H723.896C723.866 438.92 723.636 438.395 723.206 438.015C722.776 437.635 722.246 437.445 721.616 437.445ZM730.411 444.18C729.521 444.18 728.781 443.955 728.191 443.505C727.601 443.055 727.256 442.445 727.156 441.675H728.446C728.526 442.065 728.731 442.405 729.061 442.695C729.401 442.975 729.856 443.115 730.426 443.115C730.956 443.115 731.346 443.005 731.596 442.785C731.846 442.555 731.971 442.285 731.971 441.975C731.971 441.525 731.806 441.225 731.476 441.075C731.156 440.925 730.701 440.79 730.111 440.67C729.711 440.59 729.311 440.475 728.911 440.325C728.511 440.175 728.176 439.965 727.906 439.695C727.636 439.415 727.501 439.05 727.501 438.6C727.501 437.95 727.741 437.42 728.221 437.01C728.711 436.59 729.371 436.38 730.201 436.38C730.991 436.38 731.636 436.58 732.136 436.98C732.646 437.37 732.941 437.93 733.021 438.66H731.776C731.726 438.28 731.561 437.985 731.281 437.775C731.011 437.555 730.646 437.445 730.186 437.445C729.736 437.445 729.386 437.54 729.136 437.73C728.896 437.92 728.776 438.17 728.776 438.48C728.776 438.78 728.931 439.015 729.241 439.185C729.561 439.355 729.991 439.5 730.531 439.62C730.991 439.72 731.426 439.845 731.836 439.995C732.256 440.135 732.596 440.35 732.856 440.64C733.126 440.92 733.261 441.33 733.261 441.87C733.271 442.54 733.016 443.095 732.496 443.535C731.986 443.965 731.291 444.18 730.411 444.18Z" fill="#14234B"/>
</svg>